<svg xmlns="http://www.w3.org/2000/svg" xmlns:xlink="http://www.w3.org/1999/xlink" viewBox="0 0 650 382.35"><defs><style>.cls-1{fill:url(#linear-gradient);}.cls-2{fill:#f29c1f;}.cls-3{fill:#506272;}.cls-4{fill:#657c90;}.cls-5{fill:#fff;}</style><linearGradient id="linear-gradient" x1="12.58" y1="207.47" x2="167.87" y2="52.18" gradientUnits="userSpaceOnUse"><stop offset="0" stop-color="#f3d55b"/><stop offset="1" stop-color="#f0c419"/></linearGradient></defs><title>ACC_student_c</title><g id="Layer_2" data-name="Layer 2"><g id="Layer_1-2" data-name="Layer 1"><path class="cls-1" d="M105,30.87c-51.54,0-93.48,37.76-93.48,84.18a77.8,77.8,0,0,0,14.77,45.4c-1.84,20.05-6.69,34.92-13.71,41.94a3.59,3.59,0,0,0,2.54,6.14,2.89,2.89,0,0,0,.5,0c1.25-.17,30.32-4.36,51.47-16.48A101.54,101.54,0,0,0,105,199.23c51.55,0,93.48-37.76,93.48-84.18S156.55,30.87,105,30.87Z"/><path class="cls-2" d="M212.48,129.58a77.88,77.88,0,0,0,14.76-45.4C227.24,37.76,185.31,0,133.76,0,104.12,0,76.35,12.91,58.9,33.87A108.18,108.18,0,0,1,105,23.68c55.51,0,100.67,41,100.67,91.37a85.32,85.32,0,0,1-18.82,53.1,188.09,188.09,0,0,0,36.29,9.47,4.38,4.38,0,0,0,.51,0,3.6,3.6,0,0,0,2.54-6.14C219.16,164.5,214.31,149.63,212.48,129.58Z"/><path class="cls-3" d="M362,179.47a10.45,10.45,0,0,0-3.6,2.2,8.51,8.51,0,0,1-3.39,2,66.35,66.35,0,0,1-16.79,2.2q-21,0-34.77-13.79-13.6-14.19-13.59-35.38a64.47,64.47,0,0,1,3.4-21.38,47.84,47.84,0,0,1,10.58-17.39q14-15.39,36.38-15.39a29,29,0,0,1,11.29,2.3l10.69,4.5v-5h19.39V184.47H362Zm-8-14.39a16.91,16.91,0,0,0,4.3-2.89,20.84,20.84,0,0,1,3.89-2.9V109.73a17.34,17.34,0,0,1-2.8-2.5,12,12,0,0,0-3.79-2.7,30.82,30.82,0,0,0-13.39-2.6q-14,0-23,9.59-9.19,9.8-9.19,25,0,14.38,8.19,22.18,8,8.38,21.79,8.39Q348.81,167.08,354,165.08Z"/><path class="cls-3" d="M488.29,124.91v59.16H468.5V127.91a42.79,42.79,0,0,0-1.4-11.79,28,28,0,0,0-3.59-8q-4.61-6.18-14.59-6.19a27.91,27.91,0,0,0-8.3,1.1,19.41,19.41,0,0,0-6.29,3.3,58.48,58.48,0,0,0-9.8,10.79v66.95H405V37.78h19.79v54a24.86,24.86,0,0,1,2.89-2.5c1-.73,2-1.43,3.1-2.1a37,37,0,0,1,18.39-4.6q17.58,0,28.57,11.6a36.6,36.6,0,0,1,8,13.59A54.09,54.09,0,0,1,488.29,124.91Z"/><path class="cls-3" d="M577.42,179.47a10.45,10.45,0,0,0-3.6,2.2,8.54,8.54,0,0,1-3.4,2,66.29,66.29,0,0,1-16.79,2.2q-21,0-34.77-13.79-13.59-14.19-13.59-35.38a64.73,64.73,0,0,1,3.4-21.38,47.73,47.73,0,0,1,10.59-17.39q14-15.39,36.37-15.39a29,29,0,0,1,11.29,2.3c3.67,1.54,7.23,3,10.69,4.5v-5H597V184.47H577.42Zm-8-14.39a16.74,16.74,0,0,0,4.3-2.89,21.17,21.17,0,0,1,3.89-2.9V109.73a16.92,16.92,0,0,1-2.79-2.5,12.17,12.17,0,0,0-3.8-2.7,30.82,30.82,0,0,0-13.39-2.6q-14,0-23,9.59-9.18,9.8-9.19,25,0,14.38,8.2,22.18,8,8.38,21.78,8.39Q564.22,167.08,569.42,165.08Z"/><path class="cls-3" d="M621.2,37.78h23.39L640.78,145.7H625Zm23.18,116.91v29.38h-23V154.69Z"/><path class="cls-4" d="M0,257.55c.06-11.76,9.92-21.32,21.79-21.38a22.21,22.21,0,0,1,13.72,4.63,3.52,3.52,0,0,1,.59,4.75,3.48,3.48,0,0,1-4.75.66,14.79,14.79,0,0,0-9.56-3.27,15.72,15.72,0,0,0-10.69,4.27,14.68,14.68,0,0,0-4.33,10.34,14.43,14.43,0,0,0,4.33,10.33,15.72,15.72,0,0,0,10.69,4.27,15,15,0,0,0,9.56-3.26,3.6,3.6,0,0,1,4.75.65,3.51,3.51,0,0,1-.59,4.75,22.21,22.21,0,0,1-13.72,4.63A21.72,21.72,0,0,1,0,257.55Z"/><path class="cls-4" d="M74.57,269.12H60.14l-2.9,7.72a3.34,3.34,0,0,1-3.09,2.08,3.15,3.15,0,0,1-1.13-.18,3.36,3.36,0,0,1-2-4.27l13.12-35a3.33,3.33,0,0,1,3.15-2.07,3.25,3.25,0,0,1,3.14,2.07l13.13,35a3.37,3.37,0,0,1-2,4.27,3,3,0,0,1-1.13.18,3.2,3.2,0,0,1-3-2.08Zm-2.43-6.53-4.81-12.76-4.81,12.76Z"/><path class="cls-4" d="M125.87,274a3.27,3.27,0,0,1-2.08,4.16,5,5,0,0,1-1.3.18h-.06a4.3,4.3,0,0,1-2.32-.66,5.84,5.84,0,0,1-1.9-2.07,16.17,16.17,0,0,1-1.24-7.13,5,5,0,0,0-.71-2.55,5.48,5.48,0,0,0-1.79-1.72,11.37,11.37,0,0,0-3.32-1.43h-7v12.89a3.3,3.3,0,0,1-3.32,3.26,3.26,3.26,0,0,1-3.27-3.26v-35a3.22,3.22,0,0,1,3.27-3.26h10.62a12.7,12.7,0,0,1,8.08,22.5,9.32,9.32,0,0,1,2.08,2.2,11.22,11.22,0,0,1,2,6.41,15.56,15.56,0,0,0,.23,3.5A3.22,3.22,0,0,1,125.87,274Zm-8.31-23.87a6.12,6.12,0,0,0-6.12-6.17h-7.3v12.23h7.3A6.09,6.09,0,0,0,117.56,250.12Z"/><path class="cls-4" d="M142.11,275.66v-35a3.22,3.22,0,0,1,3.27-3.26h19.41a3.29,3.29,0,0,1,3.27,3.26,3.35,3.35,0,0,1-3.27,3.33H148.7v10.86h13.84a3.3,3.3,0,0,1,0,6.6H148.7v10.92h16.09a3.3,3.3,0,0,1,0,6.59H145.56c-.12,0-.12-.05-.12-.05l-.06.05A3.26,3.26,0,0,1,142.11,275.66Z"/><path class="cls-4" d="M183.8,275.66v-35a3.21,3.21,0,0,1,3.26-3.26h19.42a3.29,3.29,0,0,1,3.26,3.26,3.35,3.35,0,0,1-3.26,3.33h-16.1v10.86h13.84a3.3,3.3,0,0,1,0,6.6H190.38v10.92h16.1a3.3,3.3,0,0,1,0,6.59H187.24c-.12,0-.12-.05-.12-.05l-.06.05A3.25,3.25,0,0,1,183.8,275.66Z"/><path class="cls-4" d="M253.38,274a3.27,3.27,0,0,1-2.08,4.16,5,5,0,0,1-1.3.18h-.06a4.3,4.3,0,0,1-2.32-.66,5.84,5.84,0,0,1-1.9-2.07,16.17,16.17,0,0,1-1.24-7.13,5,5,0,0,0-.71-2.55A5.48,5.48,0,0,0,242,264.2a11.37,11.37,0,0,0-3.32-1.43h-7v12.89a3.3,3.3,0,0,1-3.32,3.26,3.26,3.26,0,0,1-3.27-3.26v-35a3.22,3.22,0,0,1,3.27-3.26H239a12.7,12.7,0,0,1,8.08,22.5,9.32,9.32,0,0,1,2.08,2.2,11.22,11.22,0,0,1,2,6.41,15.56,15.56,0,0,0,.23,3.5A3.22,3.22,0,0,1,253.38,274Zm-8.31-23.87A6.12,6.12,0,0,0,239,244h-7.3v12.23H239A6.09,6.09,0,0,0,245.07,250.12Z"/><path class="cls-4" d="M289.66,257.55c.06-11.76,9.92-21.32,21.79-21.38a22.21,22.21,0,0,1,13.72,4.63,3.41,3.41,0,0,1-4.15,5.41,14.82,14.82,0,0,0-9.57-3.27,15.72,15.72,0,0,0-10.68,4.27,14.65,14.65,0,0,0-4.34,10.34,14.4,14.4,0,0,0,4.34,10.33,15.72,15.72,0,0,0,10.68,4.27,15,15,0,0,0,9.57-3.26,3.61,3.61,0,0,1,4.75.65,3.51,3.51,0,0,1-.6,4.75,22.21,22.21,0,0,1-13.72,4.63A21.72,21.72,0,0,1,289.66,257.55Z"/><path class="cls-4" d="M374.82,242.52a21.84,21.84,0,0,1,0,30,19.46,19.46,0,0,1-14.19,6.35,20,20,0,0,1-14.55-6.35,22.14,22.14,0,0,1,0-30,19.83,19.83,0,0,1,14.55-6.35A19.27,19.27,0,0,1,374.82,242.52Zm-.77,15a15.39,15.39,0,0,0-4-10.39,12.79,12.79,0,0,0-9.38-4.22,12.94,12.94,0,0,0-9.63,4.22,15.1,15.1,0,0,0-4,10.39,14.86,14.86,0,0,0,4,10.33,13,13,0,0,0,9.63,4.27,12.88,12.88,0,0,0,9.38-4.27A15.15,15.15,0,0,0,374.05,257.55Z"/><path class="cls-4" d="M417.29,269.12H402.86L400,276.84a3.33,3.33,0,0,1-3.09,2.08,3.23,3.23,0,0,1-1.13-.18,3.35,3.35,0,0,1-2-4.27l13.12-35a3.31,3.31,0,0,1,3.14-2.07,3.26,3.26,0,0,1,3.15,2.07l13.12,35a3.35,3.35,0,0,1-2,4.27,2.93,2.93,0,0,1-1.12.18,3.19,3.19,0,0,1-3-2.08Zm-2.44-6.53L410,249.83l-4.81,12.76Z"/><path class="cls-4" d="M437.71,257.55c.05-11.76,9.91-21.32,21.79-21.38a22.25,22.25,0,0,1,13.72,4.63,3.41,3.41,0,0,1-4.16,5.41,14.81,14.81,0,0,0-9.56-3.27,15.72,15.72,0,0,0-10.69,4.27,14.68,14.68,0,0,0-4.33,10.34,14.43,14.43,0,0,0,4.33,10.33,15.72,15.72,0,0,0,10.69,4.27,15,15,0,0,0,9.56-3.26,3.61,3.61,0,0,1,4.75.65,3.51,3.51,0,0,1-.59,4.75,22.25,22.25,0,0,1-13.72,4.63A21.71,21.71,0,0,1,437.71,257.55Z"/><path class="cls-4" d="M491.1,275.66v-35a3.21,3.21,0,0,1,3.26-3.26,3.27,3.27,0,0,1,3.33,3.26v14.25h15.38V240.62a3.21,3.21,0,0,1,3.26-3.26,3.26,3.26,0,0,1,3.33,3.26v35a3.26,3.26,0,0,1-3.33,3.26,3.21,3.21,0,0,1-3.26-3.26V261.41H497.69v14.25a3.27,3.27,0,0,1-3.33,3.26A3.21,3.21,0,0,1,491.1,275.66Z"/><path class="cls-4" d="M539.34,240.62a3.22,3.22,0,0,1,3.27-3.26,3.3,3.3,0,0,1,3.32,3.26v35a3.3,3.3,0,0,1-3.32,3.26,3.22,3.22,0,0,1-3.27-3.26Z"/><path class="cls-4" d="M570.59,275.66a3.24,3.24,0,1,1-6.48,0V241.1a3.23,3.23,0,0,1,1.31-2.73,3.28,3.28,0,0,1,4.52.71l19.18,26.54V241.16a3.23,3.23,0,0,1,3.2-3.21,3.29,3.29,0,0,1,3.27,3.21v34.5a3.3,3.3,0,0,1-3.27,3.26,3.21,3.21,0,0,1-2.43-1.18,1.59,1.59,0,0,1-.3-.36l-19-26.37Z"/><path class="cls-4" d="M613.18,257.61a21.65,21.65,0,0,1,21.91-21.44,22,22,0,0,1,13.55,4.63,3.39,3.39,0,1,1-4.16,5.35,15.45,15.45,0,0,0-9.39-3.21,14.71,14.71,0,0,0-10.68,4.33,14.07,14.07,0,0,0,0,20.55,14.71,14.71,0,0,0,10.68,4.33,16.44,16.44,0,0,0,8.14-2.25v-8.14h-8.49a3.41,3.41,0,0,1-3.38-3.38,3.33,3.33,0,0,1,3.38-3.33h11.82a3.35,3.35,0,0,1,3.44,3.33V271.5a5,5,0,0,1-.18,1c-.06.12-.06.18-.12.3v.06a2.82,2.82,0,0,1-1.13,1.42,21.9,21.9,0,0,1-13.48,4.63C623,278.92,613.18,269.48,613.18,257.61Z"/><rect class="cls-2" y="312.35" width="650" height="70" rx="10.8" ry="10.8"/><path class="cls-5" d="M106,329.87a1.15,1.15,0,0,1-1.13,1.13c-1.6,0-2.45.33-2.92.89s-.94,1.7-.94,3.81v2.44h3.25a1.16,1.16,0,1,1,0,2.31H101v20a1.14,1.14,0,0,1-1.12,1.13,1.16,1.16,0,0,1-1.18-1.13v-20H95.63a1.16,1.16,0,0,1,0-2.31h3.05V335.7c0-2.35.42-4.09,1.51-5.36a6.1,6.1,0,0,1,4.65-1.64A1.15,1.15,0,0,1,106,329.87Z"/><path class="cls-5" d="M121,338.52c6.06,0,10.91,5.26,10.91,11.51s-4.85,11.52-10.91,11.52-10.9-5.27-10.9-11.52S115,338.52,121,338.52Zm0,20.77c4.7,0,8.65-4.13,8.65-9.26s-4-9.3-8.65-9.3-8.65,4.18-8.65,9.3S116.3,359.29,121,359.29Z"/><path class="cls-5" d="M140.1,339.7a1.13,1.13,0,0,1,1.17-1.13,1.1,1.1,0,0,1,1.08,1.13v5.07a3.57,3.57,0,0,1,.33-.56c1.74-2.73,4.8-5.64,9.21-5.64A1.11,1.11,0,0,1,153,339.7a1.13,1.13,0,0,1-1.13,1.12c-3,0-5.07,1.69-6.67,3.76a20.78,20.78,0,0,0-2.77,5.36.68.68,0,0,0-.1.38v10.1a1.1,1.1,0,0,1-1.08,1.13,1.13,1.13,0,0,1-1.17-1.13Z"/><path class="cls-5" d="M191,328.18a17.45,17.45,0,0,1,10.62,3.62,1.15,1.15,0,0,1,.19,1.64,1.09,1.09,0,0,1-1.6.24,15,15,0,0,0-9.21-3.2,14.39,14.39,0,1,0,0,28.77,14,14,0,0,0,9.12-3.2,1.14,1.14,0,0,1,1.64.28,1.11,1.11,0,0,1-.14,1.65A17.41,17.41,0,0,1,191,361.55a16.69,16.69,0,1,1,0-33.37Z"/><path class="cls-5" d="M219.36,338.52c6.06,0,10.9,5.26,10.9,11.51s-4.84,11.52-10.9,11.52-10.91-5.27-10.91-11.52S213.34,338.52,219.36,338.52Zm0,20.77c4.7,0,8.64-4.13,8.64-9.26s-3.94-9.3-8.64-9.3-8.65,4.18-8.65,9.3S214.66,359.29,219.36,359.29Z"/><path class="cls-5" d="M238.61,329.78a1.15,1.15,0,0,1,2.3,0v30.64a1.15,1.15,0,0,1-2.3,0Z"/><path class="cls-5" d="M250.13,329.78a1.15,1.15,0,0,1,2.3,0v30.64a1.15,1.15,0,0,1-2.3,0Z"/><path class="cls-5" d="M259.91,350.08a11.15,11.15,0,0,1,22.28-.84v.18a1.07,1.07,0,0,1-1.13,1H262.17a9,9,0,0,0,8.92,8.83,8.64,8.64,0,0,0,7.43-4.18,1.1,1.1,0,0,1,1.5-.38,1.2,1.2,0,0,1,.38,1.6,11,11,0,0,1-9.31,5.22A11.33,11.33,0,0,1,259.91,350.08Zm2.4-1.83h17.43a8.88,8.88,0,0,0-8.65-7.47A9,9,0,0,0,262.31,348.25Z"/><path class="cls-5" d="M310.17,359.72a10.83,10.83,0,0,1-10.86,10.81,11.86,11.86,0,0,1-4.79-1.09,1.21,1.21,0,0,1-.47-1.5,1,1,0,0,1,1.5-.52,8.28,8.28,0,0,0,3.76.85,8.53,8.53,0,0,0,8.6-8.55V356.9a10.42,10.42,0,0,1-8.6,4.51c-6,0-10.81-5.13-10.81-11.47s4.8-11.42,10.81-11.42a10.55,10.55,0,0,1,8.6,4.51v-3.38a1.16,1.16,0,0,1,1.18-1.13,1.14,1.14,0,0,1,1.08,1.13Zm-2.26-9.78a8.85,8.85,0,0,0-8.6-9.16c-4.7,0-8.55,4-8.55,9.16s3.85,9.26,8.55,9.26S307.91,355.11,307.91,349.94Z"/><path class="cls-5" d="M318.56,350.08a11.15,11.15,0,0,1,22.28-.84v.18a1.07,1.07,0,0,1-1.13,1H320.82a9.05,9.05,0,0,0,8.93,8.83,8.66,8.66,0,0,0,7.43-4.18,1.1,1.1,0,0,1,1.5-.38,1.21,1.21,0,0,1,.38,1.6,11,11,0,0,1-9.31,5.22A11.34,11.34,0,0,1,318.56,350.08Zm2.4-1.83H338.4a8.88,8.88,0,0,0-8.65-7.47A9,9,0,0,0,321,348.25Z"/><path class="cls-5" d="M361.94,355.39a1,1,0,0,1,1.46-.14c2.44,2,6.53,4.28,10.81,4.23a12.41,12.41,0,0,0,7.24-2.16,6.1,6.1,0,0,0,2.82-4.89,5.23,5.23,0,0,0-2.68-4.51,21.59,21.59,0,0,0-7.61-2.68h-.1a20.65,20.65,0,0,1-7.75-2.77,6.84,6.84,0,0,1-3.39-5.74,7.67,7.67,0,0,1,3.43-6.15,13.46,13.46,0,0,1,7.95-2.4c4.32,0,7.56,2.12,10.15,3.81a1,1,0,0,1,.28,1.45,1,1,0,0,1-1.41.29c-2.58-1.7-5.4-3.48-9-3.48a11.76,11.76,0,0,0-6.72,2,5.71,5.71,0,0,0-2.59,4.51,4.78,4.78,0,0,0,2.44,4,19.11,19.11,0,0,0,7.05,2.49h.1a22.38,22.38,0,0,1,8.36,3,7.37,7.37,0,0,1,3.62,6.2,8.28,8.28,0,0,1-3.71,6.58,14.45,14.45,0,0,1-8.46,2.59c-5-.05-9.4-2.59-12.13-4.75A1.11,1.11,0,0,1,361.94,355.39Z"/><path class="cls-5" d="M401.36,339.65a1.22,1.22,0,0,1-1.13,1.13h-3v16.77a1.81,1.81,0,0,0,1.69,1.7,1.31,1.31,0,0,1,1.18,1.17,1.27,1.27,0,0,1-1.18,1.13,3.92,3.92,0,0,1-4-4V340.78h-2.87c-1.13,0-1.13-.57-1.13-1.13s0-1.13,1.13-1.13h2.87V330a1.21,1.21,0,0,1,1.13-1.13,1.26,1.26,0,0,1,1.22,1.13v8.55h3A1.22,1.22,0,0,1,401.36,339.65Z"/><path class="cls-5" d="M409.44,339.6a1.13,1.13,0,0,1,2.26,0v12.55a7.1,7.1,0,1,0,14.19,0V339.6a1.15,1.15,0,0,1,1.13-1.13,1.12,1.12,0,0,1,1.17,1.13v12.55a9.38,9.38,0,1,1-18.75,0Z"/><path class="cls-5" d="M456.24,357.08a11,11,0,0,1-8.84,4.47,11.52,11.52,0,0,1,0-23,11,11,0,0,1,8.84,4.51V329.78a1.15,1.15,0,0,1,2.3,0v30.64a1.15,1.15,0,0,1-2.3,0Zm0-6.62v-.76a9.18,9.18,0,1,0,0,.76Z"/><path class="cls-5" d="M466.64,350.08a11.15,11.15,0,0,1,22.28-.84v.18a1.07,1.07,0,0,1-1.13,1H468.9a9.05,9.05,0,0,0,8.93,8.83,8.66,8.66,0,0,0,7.43-4.18,1.1,1.1,0,0,1,1.5-.38,1.21,1.21,0,0,1,.38,1.6,11,11,0,0,1-9.31,5.22A11.34,11.34,0,0,1,466.64,350.08Zm2.4-1.83h17.44a8.88,8.88,0,0,0-8.65-7.47A9,9,0,0,0,469,348.25Z"/><path class="cls-5" d="M513,347.92a7.1,7.1,0,0,0-7.1-7.1,7.22,7.22,0,0,0-7.14,7.1v12.69a1.13,1.13,0,0,1-.24.52,1,1,0,0,1-.84.42h-.29a1.25,1.25,0,0,1-.75-.61.17.17,0,0,1-.05-.14.19.19,0,0,0,0-.1v-21a1.11,1.11,0,1,1,2.21,0v2.2a9.34,9.34,0,0,1,16.49,6v12.5a1.13,1.13,0,1,1-2.25,0Z"/><path class="cls-5" d="M531.89,339.65a1.21,1.21,0,0,1-1.12,1.13h-3v16.77a1.81,1.81,0,0,0,1.7,1.7,1.3,1.3,0,0,1,1.17,1.17,1.26,1.26,0,0,1-1.17,1.13,3.91,3.91,0,0,1-4-4V340.78h-2.87c-1.13,0-1.13-.57-1.13-1.13s0-1.13,1.13-1.13h2.87V330a1.21,1.21,0,0,1,1.12-1.13A1.26,1.26,0,0,1,527.8,330v8.55h3A1.21,1.21,0,0,1,531.89,339.65Z"/><path class="cls-5" d="M538.49,356.75a1.12,1.12,0,0,1,1.6-.14,12.25,12.25,0,0,0,7,2.68,7,7,0,0,0,4.38-1.41,3.5,3.5,0,0,0,1.74-2.82,3.67,3.67,0,0,0-1.65-2.82,11.54,11.54,0,0,0-4.89-1.69l-.09-.05a13.05,13.05,0,0,1-5.22-1.78,4.81,4.81,0,0,1-2.49-4.14,5.7,5.7,0,0,1,2.49-4.51,9.9,9.9,0,0,1,5.64-1.55c3,0,5.08,1.36,6.86,2.49a1.19,1.19,0,0,1,.33,1.6,1.12,1.12,0,0,1-1.55.33c-1.69-1.13-3.38-2.31-5.64-2.31a6.91,6.91,0,0,0-4.37,1.32,3.46,3.46,0,0,0-1.46,2.63,2.82,2.82,0,0,0,1.32,2.31,11.64,11.64,0,0,0,4.7,1.59h.09a16.14,16.14,0,0,1,5.6,1.88,5.77,5.77,0,0,1,2.58,4.7,5.87,5.87,0,0,1-2.63,4.66,9.44,9.44,0,0,1-5.74,1.83,14,14,0,0,1-8.5-3.29A1.06,1.06,0,0,1,538.49,356.75Z"/></g></g></svg>