<?xml version="1.0" standalone="no"?>
<!DOCTYPE svg PUBLIC "-//W3C//DTD SVG 1.1//EN" "http://www.w3.org/Graphics/SVG/1.1/DTD/svg11.dtd" >
<svg xmlns="http://www.w3.org/2000/svg" xmlns:xlink="http://www.w3.org/1999/xlink" version="1.1">
<metadata>
Created by FontForge 20161003 at Thu Nov 17 10:31:23 2016
 By www-data
Created by Andrew Hart (c)Dirt2.com/SickCapital 2014. All Rights Reserved
</metadata>
<defs>
<font id="ElkwoodFree" horiz-adv-x="948" >
  <font-face 
    font-family="ElkwoodFree"
    font-weight="400"
    font-stretch="normal"
    units-per-em="2048"
    panose-1="2 0 5 0 0 0 0 0 0 0"
    ascent="1638"
    descent="-410"
    x-height="963"
    cap-height="1070"
    bbox="27 -408 1717 1539"
    underline-thickness="150"
    underline-position="-442"
    unicode-range="U+001D-F001"
  />
<missing-glyph horiz-adv-x="1024" 
 />
    <glyph glyph-name=".notdef" horiz-adv-x="1024" 
 />
    <glyph glyph-name=".null" horiz-adv-x="0" 
 />
    <glyph glyph-name=".null" horiz-adv-x="0" 
 />
    <glyph glyph-name="nonmarkingreturn" horiz-adv-x="508" 
 />
    <glyph glyph-name="space" unicode=" " horiz-adv-x="496" 
 />
    <glyph glyph-name="space" unicode="&#xa0;" horiz-adv-x="496" 
 />
    <glyph glyph-name="exclam" unicode="!" horiz-adv-x="304" 
d="M47 1070h214v-751h-214v751zM230.5 182.5q31.5 -31.5 31.5 -76.5q0 -44 -31.5 -75.5t-76.5 -31.5q-44 0 -75.5 31.5t-31.5 75.5q0 45 31.5 76.5t75.5 31.5q45 0 76.5 -31.5z" />
    <glyph glyph-name="quotedbl" unicode="&#x22;" horiz-adv-x="422" 
d="M45 1070h139v-274h-139v274zM238 1070h139v-274h-139v274z" />
    <glyph glyph-name="numbersign" unicode="#" 
d="M539 640h-107l-23 -214h107zM753 640l-21 -214h171v-214h-194l-20 -213h-214l21 213h-107l-23 -213h-214l23 213h-130v214h150l20 214h-170v216h193l21 214h216l-23 -214h107l23 214h214l-20 -214h127v-216h-150z" />
    <glyph glyph-name="dollar" unicode="$" horiz-adv-x="777" 
d="M504 290q38 32 38 70q0 49 -78 66v-162q23 9 40 26zM238 692q0 -46 76 -64v162q-24 -9 -41 -26q-35 -35 -35 -72zM634 550q93 -75 93 -190q0 -98 -70 -179q-75 -90 -193 -113v-98h-150v98q-174 20 -269 116l66 63l64 67q46 -44 139 -58v182q-127 17 -200 95
q-63 66 -63 159q0 98 69 182q75 86 194 110v101h150v-99q176 -20 268 -115l-130 -130q-49 40 -138 58v-185q101 -12 170 -64z" />
    <glyph glyph-name="percent" unicode="%" horiz-adv-x="1602" 
d="M257 1393q47 -3 59 -39q-20 -13 -24 -13q-8 24 -35 24h-2q-35 -5 -35 -35v-9q0 -26 37 -32q17 0 26 11h-24q-4 0 -4 4v19q1 5 4 5h59q4 -1 4 -5q-10 -60 -58 -60h-15q-48 0 -57 65q8 65 65 65zM338 1393h82q5 -1 5 -4v-20q0 -4 -5 -4h-58v-24h47q5 -1 5 -4v-20
q0 -4 -5 -4h-47v-24h58q5 -1 5 -5v-17q0 -4 -5 -4h-82q-5 0 -5 4v122q1 4 5 4zM440 1393h95q5 -1 5 -4v-20q0 -4 -5 -4h-32v-98q0 -4 -5 -4h-19q-5 0 -5 4v98h-34q-5 0 -5 4v20q1 4 5 4zM616 1393h95q5 -1 5 -4v-20q0 -4 -5 -4h-34v-98q0 -4 -5 -4h-19q-5 0 -5 4v98h-32
q-5 0 -5 4v20q1 4 5 4zM731 1393h19q5 -1 5 -4v-48h48v48q0 4 4 4h19q5 -1 5 -4v-122q0 -4 -5 -4h-19q-4 0 -4 4v46h-48v-46q0 -4 -5 -4h-19q-5 0 -5 4v122q1 4 5 4zM846 1393h82q5 -1 5 -4v-20q0 -4 -5 -4h-58v-24h48q4 -1 4 -4v-20q0 -4 -4 -4h-48v-24h58q5 -1 5 -5v-17
q0 -4 -5 -4h-82q-4 0 -4 4v122q0 4 4 4zM1009 1393h82q5 -1 5 -4v-20q0 -4 -5 -4h-60v-24h50q4 -1 4 -4v-20q0 -4 -4 -4h-50v-46q0 -4 -5 -4h-17q-4 0 -4 4v122q0 4 4 4zM1111 1393h20q4 -1 4 -4v-79q0 -16 24 -21q24 5 24 21v79q0 4 4 4h20q4 -1 4 -4v-72q-6 -54 -46 -54
h-13q-37 0 -45 50v76q0 4 4 4zM1226 1393h20q4 -1 4 -4v-100h54q5 -1 5 -5v-17q0 -4 -5 -4h-78q-4 0 -4 4v122q0 4 4 4zM1324 1393h19q5 -1 5 -4v-100h54q4 -1 4 -5v-17q0 -4 -4 -4h-78q-4 0 -4 4v122q0 4 4 4zM522 1243h35q65 0 65 -56q0 -24 -22 -39q11 -29 11 -33v-4h-24
q-5 0 -10 26h-33v-22q0 -4 -4 -4h-18q-4 0 -4 4v124q1 4 4 4zM296 1241h24q5 0 26 -63h2q21 63 27 63h23l5 -2q-52 -118 -52 -124h-7q0 5 -52 124zM418 1241h85q4 -1 4 -4v-18q0 -4 -4 -4h-61v-24h50q4 -1 4 -4v-20q0 -4 -4 -4h-50v-24h61q4 -1 4 -5v-19q0 -4 -4 -4h-85
q-4 0 -4 4v122q0 4 4 4zM674 1241h13q32 0 44 -17q-14 -18 -20 -18q-9 7 -30 9q-22 -3 -22 -11v-4q0 -8 50 -13q24 -15 24 -35q0 -34 -50 -41q-50 7 -50 19q0 3 17 18q16 -9 35 -9q20 3 20 9v6q0 8 -50 13q-24 17 -24 35q0 32 43 39zM748 1241h20q4 -1 4 -4v-122q0 -4 -4 -4
h-20q-4 0 -4 4v122q1 4 4 4zM855 1241q45 0 58 -63q-12 -67 -65 -67q-65 10 -65 65v2q0 44 50 63h22zM1002 1241h20q4 -1 4 -4v-120q0 -4 -4 -4q0 3 -72 67v-65q0 -4 -4 -4h-18q-4 0 -4 4v124h2l72 -65v63q1 4 4 4zM1207 1241h95q4 -1 4 -4v-18q0 -4 -4 -4h-32v-100
q0 -4 -5 -4h-19q-5 0 -5 4v100h-34q-5 0 -5 4v18q1 4 5 4zM1161 1239q6 0 63 -126v-2h-26l-13 19h-48q-11 -19 -13 -19h-26v2q3 17 63 126zM544 1215v-50h24q26 2 26 22v6q0 19 -28 22h-22zM809 1178q6 -39 39 -39q32 0 37 41q0 28 -39 35q-37 -9 -37 -37zM1148 1158h26v3
q-11 20 -11 23q-4 0 -15 -26zM83 1091h9q48 -7 48 -17q0 -3 -17 -18q-21 7 -27 7h-15q-13 -2 -13 -7v-8q0 -5 52 -13q20 -13 20 -33v-2q0 -33 -48 -39h-4q-31 0 -48 19l17 15q21 -6 33 -6h6q11 0 18 11q0 15 -46 15q-28 14 -28 33v4q0 33 43 39zM155 1091h20q4 -1 4 -4v-122
q0 -4 -4 -4h-20q-4 0 -4 4v122q0 4 4 4zM255 1091q34 0 52 -26q0 -3 -17 -17h-2q-16 15 -26 15h-13q-25 0 -31 -35v-6q9 -33 33 -33h6q17 0 33 17l15 -17v-4q-20 -24 -52 -24q-63 11 -63 67q0 54 65 63zM322 1091h20q4 -1 4 -4v-42q2 0 46 46h28q5 -1 5 -4q-4 0 -59 -61
l59 -63l-5 -2h-28l-46 45v-41q0 -4 -4 -4h-20q-4 0 -4 4v122q1 4 4 4zM477 1091q38 0 50 -28l-18 -15q-15 15 -26 15h-13q-30 -9 -30 -31v-13q0 -24 34 -30h7q14 0 28 17q3 0 18 -17v-2q-19 -26 -53 -26q-53 0 -63 65v6q0 46 61 59h5zM674 1091h52q43 0 50 -52
q-7 -52 -52 -52h-26v-22q0 -4 -4 -4h-20q-4 0 -4 4v122q1 4 4 4zM792 1091h17q4 -1 4 -4v-122q0 -4 -4 -4h-17q-5 0 -5 4v122q1 4 5 4zM829 1091h97q5 -1 5 -4v-20q0 -4 -5 -4h-34v-98q0 -4 -5 -4h-19q-5 0 -5 4v98h-34q-5 0 -5 4v20q1 4 5 4zM1052 1091h20q4 -1 4 -4v-98
h55q4 -1 4 -4v-20q0 -4 -4 -4h-79q-4 0 -4 4v122q1 4 4 4zM1241 1091h7q25 0 45 -26q0 -3 -17 -17h-2q-16 15 -26 15h-13q-24 0 -31 -35v-6q10 -33 33 -33h6q17 0 33 17l15 -17v-4q-19 -24 -50 -24q-56 0 -65 69q0 40 48 59q8 2 17 2zM1363 1091q65 -9 65 -65q0 -55 -67 -65
q-44 0 -61 50q-2 8 -2 17q0 54 65 63zM592 1089h6q29 -62 61 -126l-4 -2h-24q-5 0 -9 17h-54q-4 -17 -9 -17h-24q-4 0 -4 4q61 120 61 124zM970 1089h2q4 -2 65 -126l-4 -2h-24q-6 0 -9 17h-52l-13 -17h-26q0 4 61 128zM1439 1089h4q49 -76 57 -81q43 62 54 81h4v-124
q0 -4 -4 -4h-19q-5 0 -5 4v39q-10 -7 -28 -41h-2l-33 41v-39q0 -4 -4 -4h-20q-4 0 -4 4v124zM698 1063v-48h28q20 0 22 26q-3 22 -22 22h-28zM1326 1032v-8q7 -35 33 -35h8q33 9 33 33v6q-7 35 -31 35h-13q-30 -9 -30 -31zM594 1035q-11 -25 -11 -27h24v3q-11 20 -11 24h-2z
M959 1008h26v3q-11 20 -11 24q-4 0 -15 -27zM1161 993h6q11 -6 11 -17q-6 -15 -19 -15q-9 3 -13 11v6q0 15 15 15zM1085 908q10 -1 16 -21l-4 -23q10 -5 30 -5h2q15 0 33 35l11 3h2q6 0 10 -24h-3q0 -25 24 -25h4l26 23h7q11 -7 11 -16q0 -4 -4 -14q0 -13 16 -16l11 7l-2 4
q0 3 19 12h7q34 -30 34 -35l-11 -32q9 -18 16 -21h12q15 12 41 21h7q10 -4 10 -21q-24 -24 -28 -33v-4q2 -7 14 -7q12 7 35 11h6l10 -11q3 0 7 7v4q-5 0 -5 5l-5 -2q-4 0 -4 4l-5 -2h-4q-5 0 -5 5v9h2l5 -3q4 3 7 3q2 -9 11 -9q0 2 3 2q4 -10 4 -14h14l-2 -12l2 -14
q-5 -10 -25 -32h-3l-7 5h-2q-6 0 -9 -31q4 -32 16 -32q3 0 7 2q38 0 49 -25q0 -5 -28 -28v-7q0 -5 37 -12l5 -7q0 -12 -10 -16q-29 3 -32 5q-5 -2 -7 -2q0 -40 14 -40q7 0 16 -2l14 7l12 -3l4 3q7 0 17 -16v-5q0 -3 -12 -12h-9q-6 0 -28 7q-37 0 -37 -32h-3q3 -5 3 -7l4 2
q10 -4 17 -4q2 0 2 2l12 -2h25q14 -2 14 -7v-10q0 -4 -16 -7q-11 5 -23 5q-10 -11 -14 -21l20 -28v-2l-9 -9q-43 11 -49 11q-8 -2 -18 -28q10 -28 32 -44l7 -11v-12q0 -3 -7 -7h-9q-16 12 -25 28q-4 0 -10 5h-7q-6 -10 -41 -14l-26 -21q0 -13 30 -33l3 -11q-11 -9 -17 -9
q0 3 -23 9q-5 11 -23 23q-26 -10 -26 -14q0 -6 7 -30l-9 -7h-9q-8 0 -40 30h-2q-2 0 -9 -9q3 -13 9 -26q-5 -16 -9 -16h-2l-31 28h-7q-4 -21 -20 -21q-23 15 -33 40h-5q-3 0 -7 -7q10 0 10 -5t-5 -5t-5 7h-2q0 -14 -16 -25h-9q-6 0 -14 37l-21 9q-11 -2 -26 -30q-5 -5 -9 -5
q-6 0 -12 12q5 18 7 18q0 17 -30 24l-2 4q-3 0 -30 -23q-5 0 -5 5q3 0 3 2q-7 0 -7 5v4q0 6 7 28v2q0 4 -10 10q-13 0 -25 -10h-12q-3 0 -11 12q11 23 11 30q-9 24 -9 30h2q-2 5 -2 7q-77 -76 -81 -76q-11 1 -37 16q-5 -2 -7 -2q-46 0 -72 18q-23 0 -23 26q-6 13 -31 28v11
h-2v-83q0 -5 -5 -5h-236q-5 0 -5 5v92l-106 -104h-3v95l-88 -83q-80 24 -113 81q-26 48 -26 93v7q0 113 123 169q40 9 58 9q36 -2 46 -7v153q1 5 5 5h127q5 -1 5 -5v-301l216 213l2 -4v-54h46v146q1 5 5 5h128q4 -1 4 -5v-25q5 2 7 2q8 0 37 -9h5l21 18q-17 28 -23 31h-3
q-3 -3 -11 -21l-5 -3h-5q-3 0 -6 7v14q11 42 34 42q19 -9 19 -26q12 -13 25 -13q7 8 7 13q-18 27 -18 35v7q2 7 14 7q11 -8 28 -32q30 0 30 34q4 19 9 19h7q7 0 32 -21q2 0 14 -2q5 2 7 2v-2q28 0 28 16q0 37 14 37zM784 869q15 0 30 -28l-5 -2q-22 9 -30 23v2q1 5 5 5z
M897 660q2 0 2 -2q-8 0 -18 -26q-2 0 -2 -2l4 -7q-12 0 -30 -49h-2q0 3 -28 28h-30q-5 0 -5 5v146h-76v-146q0 -5 -5 -5h-26q-41 0 -76 -9v25q-4 0 -77 -76v-244h77v176q11 51 51 51h51q5 0 5 -4v-65q0 -125 90 -162h2l58 60q-74 16 -74 69v98q1 4 5 4h55q4 0 14 -69
q27 -77 70 -121q35 -38 60 -51q81 -41 121 -41q2 0 2 2l12 -2h21q31 0 41 7q4 -3 10 -3q0 3 46 19q0 10 23 11q0 3 19 12v-2q41 28 41 32q41 43 65 91q0 4 10 18q9 53 16 63q0 8 2 39l-2 5q5 9 5 14q-14 5 -14 21q0 7 7 7v6q-7 0 -7 5v5l2 4q-5 0 -5 5v5q0 2 3 2
q-17 49 -40 79q-18 36 -60 65q-26 27 -95 51q-41 9 -84 9h-2q-2 0 -2 2l-5 -2h-2q-3 0 -3 2q-30 0 -74 -27q0 -13 -53 -21q-62 -36 -72 -70q-9 -9 -21 -37zM1076 813v-2h7v2h-7zM310 753v-170q-50 19 -74 19q-109 0 -151 -118q-2 -23 -2 -35v-5q0 -91 100 -136h5l64 67h-2
l-16 -3q-77 13 -77 82q0 46 56 69q9 2 19 2h11q67 -16 67 -67v-125l77 74v346h-77zM1094 750h16q5 0 5 -4q-10 -19 -23 -23q-5 2 -7 2l-9 -12v-2h11q10 0 14 -30l-11 -7q-8 5 -12 5v-3q0 -3 19 -11q0 4 4 4q13 0 16 -9v-30q-15 -44 -44 -44q0 -3 -30 -7q-14 0 -55 53
q-3 4 -3 12q0 13 10 21q-5 0 -5 4q0 33 49 65l9 -2zM1136 750q17 0 19 -7v-2h-21q-5 0 -5 5zM818 743v-44q7 0 17 -2q11 3 11 7v5q-25 31 -25 34h-3zM1162 743q6 0 27 -9q17 0 30 -11q8 4 14 4l54 -41l11 -19v-2h-4q23 -20 23 -26q0 -8 14 -32q0 -26 -12 -51v-26
q-11 -22 -58 -32q-48 -7 -48 -19l-24 -2h-4q-5 0 -10 16l-9 -9h-21l-11 -3q-5 8 -5 14v3h7v2q0 3 -7 7l-5 -2q-15 0 -18 20q-9 0 -9 14l16 14h4q5 0 5 -4q7 2 7 4q-2 5 -2 7l30 26l23 18h7q6 0 26 -9q2 3 2 12q-14 8 -14 11q-1 -2 -16 -2q0 2 18 37q-9 16 -9 28v5q5 9 12 9
q-3 4 -3 9l-11 -2h-5q-5 0 -16 18q-10 0 -16 12q7 6 7 11zM1122 741h2q6 -4 26 -7v-7q-33 3 -33 10q1 4 5 4zM1036 716q1 -5 5 -5v5h-5zM1025 646v-5h4q0 5 -4 5zM1215 567q-12 -16 -21 -16q1 -5 5 -5h4q0 11 21 17v2q-5 0 -9 2zM774 558l3 -5q0 -4 -5 -4l-2 4q0 5 4 5z
M1087 525q10 0 14 -20q23 -6 23 -19q-4 -11 -9 -12l-14 3q-14 -6 -74 -9q0 -5 -9 -5q-14 5 -14 9q9 19 25 19q2 0 14 -3q12 8 33 35zM419 435v-137h75v211q-4 0 -75 -74zM188 449q10 -46 46 -46q46 10 46 16v37q0 29 -41 39h-7q-37 0 -44 -46zM675 493v-2h4v2h-4zM642 470h5
v4q-5 0 -5 -4zM1296 472q9 -3 9 -7v-4q0 -5 -4 -5h-3q-3 0 -7 7zM649 465v-2h5v2h-5zM1001 468l3 -5v-2h-5v-5h2l10 5l11 -3q5 3 7 3q4 -10 7 -10h7q6 7 30 10q0 -4 10 -7l9 2q15 -7 37 -12l-2 -4v-3h2l7 5h14q12 -12 16 -12q5 3 7 3l2 -5v-5q0 -2 -9 -6q6 -14 9 -14
q-2 -19 -7 -19h-2l-4 2l-3 -4q5 0 9 -3q7 2 19 12q19 -16 19 -19v-4q-7 -12 -10 -12q-8 0 -21 9q0 -7 -2 -11q19 -10 19 -23q-24 -10 -28 -10q-37 15 -37 31l-5 -3h-2q-40 14 -40 40v2h3q7 -5 14 -5q-5 12 -7 12l-12 -7h-7q-16 8 -35 42q-5 9 -14 9l-7 5h-2l-7 -5l-11 2
q0 -7 -19 -7l7 -9v-7q0 -7 -9 -7l-12 3v11q18 23 30 28q-2 4 -2 7q7 5 11 5zM647 451h4v5q-4 -1 -4 -5zM1287 451h4q5 0 7 -14q-12 -27 -14 -27l3 -5v-12q7 0 11 -9v-2q0 -19 -18 -19q-6 0 -14 7q0 -32 -53 -42h-3q-14 6 -14 10v7q0 9 17 18l2 14q-5 0 -5 5q3 0 3 2
q-10 4 -10 7l-4 -2h-7q-14 8 -14 11v14q0 2 16 16h7q5 0 9 -18h7l-2 11l4 3h24q2 0 2 -3q10 2 42 28zM635 417v-5h5q0 5 -5 5zM988 417q13 -18 13 -33l-2 -5q2 -4 2 -7q-12 -16 -18 -16q-33 0 -33 26q5 2 7 2l-7 12q0 12 10 16h11l10 -9q0 14 7 14zM644 407q0 -2 -2 -7h7
q-2 5 -2 7h-3zM1238 403v-7h7v11h-2q-5 0 -5 -4zM644 398v-5h3v5h-3zM1277 382q-2 -5 -2 -7h7q5 0 5 4v3h-10zM1115 377v-5l7 -9q10 3 14 12h-5l-7 -5zM644 370l-2 -5v-2h7v2q0 5 -5 5zM649 354v-2h5v2h-5zM668 352v-5h2v5h-2zM658 347q1 -5 5 -5v5h-5zM665 338v-5h3v5h-3z
M918 287v-3q1 -4 5 -4v2q0 5 -5 5zM904 284q1 -4 5 -4v4h-5zM946 284v-4h2v4h-2zM895 277q4 -5 4 -11h3v9q-5 2 -7 2zM707 270h5q4 0 4 -4v-7q0 -5 -4 -5h-3q-3 0 -7 7v5q1 4 5 4zM967 263v-4h4v4h-4zM971 250v-7q5 2 7 2v2q-2 0 -7 3zM983 247v-4h9v2zM1053 247v-4h2v4h-2z
M955 245q0 -7 -7 -7v-2h9v9h-2zM1039 245v-2h4v2h-4zM1034 243v-5h2v5h-2zM941 233v-2q3 -5 3 -7q-3 0 -3 -2q3 0 7 -3q0 4 9 10q-8 0 -13 4h-3zM1057 226v-4h2v4h-2zM1106 212l4 -2v7q-4 -1 -4 -5zM1013 208l5 -3v7q-5 0 -5 -4zM1011 201v-7l4 -7h-7v-2h5q11 4 12 9l-10 7
h-4zM1199 171h14v4h-10q-4 0 -4 -4zM240 104h63q68 0 80 -76v-4q0 -60 -56 -79q-17 -4 -31 -4h-56q-4 0 -4 4v155q0 4 4 4zM401 104h26q4 -1 4 -4v-155q0 -4 -4 -4h-26q-5 0 -5 4v155q1 4 5 4zM451 104h67q59 -12 59 -59v-6q0 -34 -26 -55l15 -41l-5 -2h-28l-17 33h-35v-29
q0 -4 -4 -4h-26q-5 0 -5 4v155q1 4 5 4zM590 104h121q5 -1 5 -4v-26q0 -5 -5 -5h-43v-124q0 -4 -5 -4h-26q-4 0 -4 4v124h-43q-5 0 -5 5v26q1 4 5 4zM783 104q42 0 48 -50v-2q0 -40 -44 -76h46q4 -1 4 -5v-26q0 -4 -4 -4h-98q-4 0 -4 4v5q0 30 58 82q7 16 7 20v2q0 12 -9 15
h-11q-15 0 -15 -17h-28q-4 0 -4 4v2q0 33 39 46h15zM968 104q42 0 65 -33q0 -3 -22 -21h-2q-16 19 -35 19h-13q-39 -11 -39 -41v-13q0 -29 43 -39h11q13 0 35 21q12 -7 22 -23q-24 -33 -68 -33q-54 0 -78 67v13q0 66 72 83h9zM1120 104q65 0 82 -72v-11q0 -56 -63 -78
q-11 -2 -22 -2q-52 0 -76 63q-2 12 -2 24q16 76 81 76zM1365 102h2v-157q0 -4 -4 -4h-26q-4 0 -4 4v55h-3q-10 -21 -39 -57l-41 57v-55q0 -4 -4 -4h-24q-5 0 -5 4v155h3q71 -100 73 -100q57 84 72 102zM481 71v-63h35q26 6 26 24v13q0 26 -41 26h-20zM270 69v-93h35
q38 0 43 45v7q-7 41 -39 41h-39zM1074 30v-11q9 -43 43 -43h7q43 10 43 39v13q-9 41 -41 41h-13q-39 -13 -39 -39zM870 -18q14 0 17 -19v-2q0 -18 -21 -20q-9 0 -18 13v9q0 17 22 19zM155 -109h74q4 0 4 -4v-17q0 -5 -4 -5h-54v-21h45q5 -1 5 -5v-15q0 -4 -5 -4h-45v-44
q0 -4 -5 -4h-15q-4 0 -4 4v111q0 4 4 4zM294 -109q59 -11 59 -54v-6q0 -52 -61 -59q-47 0 -56 61q11 58 58 58zM435 -109h18q4 0 4 -4v-108q0 -5 -4 -5l-65 61v-59q0 -4 -5 -4h-15q-4 0 -4 4v111h4q32 -29 61 -56h2v56q1 4 4 4zM470 -109h87q4 0 4 -4v-17q0 -5 -4 -5h-30
v-89q0 -4 -5 -4h-17q-4 0 -4 4v89h-31q-4 0 -4 5v17q0 4 4 4zM611 -109q29 0 46 -17q0 -3 -15 -15q-20 6 -26 6h-5q-19 0 -19 -10q0 -11 43 -13q24 -14 24 -35q0 -29 -48 -35q-41 7 -41 15v2q9 16 15 16q11 -7 22 -7h13q11 0 13 7v6q0 6 -48 13q-17 13 -17 26v9q0 25 43 32z
M761 -109q31 -5 31 -26v-2q0 -16 -20 -24q4 -10 9 -11h19q5 0 5 -6t-5 -22q4 0 22 -26l-4 -2h-22l-11 9q-14 -9 -24 -9q-41 8 -41 37q0 21 20 35q-7 11 -7 17v7q0 17 28 23zM892 -109h26q76 0 76 -60q0 -34 -29 -50q-15 -9 -39 -9h-34q-5 0 -5 4v111q1 4 5 4zM1007 -109h76
q4 0 4 -4v-17q0 -5 -4 -5h-55v-21h44q4 -1 4 -5v-15q0 -4 -4 -4h-44v-22h55q4 -1 4 -4v-18q0 -4 -4 -4h-76q-5 0 -5 4v111q1 4 5 4zM1141 -109q46 -7 46 -17q0 -3 -15 -15q-21 6 -33 6h-2q-12 0 -15 -8v-5q0 -7 48 -13q17 -13 17 -26v-8q0 -28 -48 -33q-24 0 -41 15v2
q11 16 17 16q11 -7 22 -7h11q15 0 15 11q0 10 -50 15q-17 16 -17 33q0 27 45 34zM1202 -109h15q5 0 5 -4v-111q0 -4 -5 -4h-15q-4 0 -4 4v111q1 4 4 4zM1291 -109q34 0 52 -30v-4q-8 -11 -19 -11h-2q-6 19 -31 19q-32 -4 -32 -28v-9q0 -30 30 -30h9q12 0 17 9q-24 0 -24 4
v17q1 5 5 5h50q4 -1 4 -5v-4q0 -42 -59 -52q-53 0 -58 61q7 58 58 58zM1432 -109h16q4 0 4 -4v-108q0 -5 -4 -5q-3 6 -61 59h-2v-57q0 -4 -5 -4h-15q-4 0 -4 4v111h2q15 -12 65 -59v59q1 4 4 4zM759 -132v-9h2q5 0 5 4v5h-7zM262 -163v-11q7 -28 28 -28h9q25 0 30 37
q0 24 -35 30h-2q-30 -7 -30 -28zM911 -135v-67h28q29 7 29 28v11q0 24 -35 28h-22zM750 -176l-4 -15q0 -13 15 -13h5q4 0 4 4q-17 24 -20 24z" />
    <glyph glyph-name="ampersand" unicode="&#x26;" horiz-adv-x="1028" 
d="M503 242q-105 135 -180 237q-8 -8 -17 -18q-43 -58 -43 -135q3 -78 76 -117q32 -19 64 -19q38 0 76 29q15 11 24 23zM368 842q0 -28 27 -75q67 47 67 80v8q-6 21 -41 24h-9q-27 0 -39 -17q-5 -7 -5 -20zM635 84l-12 -10q-99 -75 -208 -75q-156 0 -264 96
q-106 94 -106 231v7q0 175 135 294q17 13 33 26q-16 28 -27 51q-35 78 -38 133q0 145 141 208q61 25 123 25q35 0 67 -7q141 -32 185 -143q18 -47 18 -88q0 -78 -65 -146q-37 -41 -117 -88h-3q30 -38 61 -83q12 -18 30 -39q0 11 3 23l217 -12q-12 -130 -49 -227
q67 -82 216 -261h-272q-42 51 -68 85z" />
    <glyph glyph-name="quotesingle" unicode="'" horiz-adv-x="229" 
d="M45 1070h139v-205h-139v205z" />
    <glyph glyph-name="parenleft" unicode="(" horiz-adv-x="734" 
d="M689 -273q-271 23 -456 254q-188 231 -188 549q0 315 188 546q185 231 456 254v-214q-182 -26 -306 -193q-124 -168 -124 -393q0 -228 124 -396q124 -167 306 -190v-217z" />
    <glyph glyph-name="parenright" unicode=")" horiz-adv-x="734" 
d="M45 1330q271 -23 456 -254q188 -231 188 -546q0 -318 -188 -549q-185 -231 -456 -254v217q182 23 306 190q124 168 124 396q0 225 -124 393q-124 167 -306 193v214z" />
    <glyph glyph-name="asterisk" unicode="*" horiz-adv-x="408" 
d="M253 920q110 -35 110 -72q0 -12 -18 -26q-17 -15 -31 -15q-41 0 -78 81l-6 -8q20 -47 20 -76q0 -40 -46 -40t-46 40q0 29 20 76l-6 8q-40 -81 -81 -81q-14 0 -32 15q-14 14 -14 26q0 37 104 72v6q-104 34 -104 72q0 14 14 29q18 14 32 14q41 0 81 -81l6 9q-20 46 -20 75
q0 41 46 41t46 -41q0 -29 -20 -75l6 -9q37 81 78 81q14 0 31 -14q18 -15 18 -29q0 -38 -110 -72v-6z" />
    <glyph glyph-name="plus" unicode="+" horiz-adv-x="734" 
d="M475 871v-217h214v-213h-214v-214h-216v214h-214v213h214v217h216z" />
    <glyph glyph-name="comma" unicode="," horiz-adv-x="347" 
d="M302 117q0 -9 -3 -20h3q0 -72 -26 -144q-55 -142 -188 -142v142q29 0 52 40q-95 26 -95 124q0 55 38 93q37 37 92 37q52 0 89 -37q38 -38 38 -93z" />
    <glyph glyph-name="hyphen" unicode="-" horiz-adv-x="627" 
d="M45 654h537v-213h-537v213z" />
    <glyph glyph-name="hyphen" unicode="&#xad;" horiz-adv-x="627" 
d="M45 654h537v-213h-537v213z" />
    <glyph glyph-name="period" unicode="." horiz-adv-x="347" 
d="M175 256q52 0 89 -38q38 -37 38 -92q0 -52 -38 -90q-37 -37 -89 -37q-55 0 -92 37q-38 38 -38 90q0 55 38 92q37 38 92 38z" />
    <glyph glyph-name="slash" unicode="/" horiz-adv-x="734" 
d="M259 -1h-214l430 1071h214z" />
    <glyph glyph-name="zero" unicode="0" horiz-adv-x="968" 
d="M332 761q-63 -95 -63 -225q0 -324 216 -324q214 0 214 324q0 130 -64 225q-63 95 -150 95q-89 0 -153 -95zM173 146q-118 147 -118 390q0 219 127 378q124 156 303 156q176 0 304 -156q124 -159 124 -378q0 -243 -119 -390q-118 -147 -309 -147q-193 0 -312 147z" />
    <glyph glyph-name="one" unicode="1" horiz-adv-x="431" 
d="M376 1070v-1071h-214v857h-107v214h321z" />
    <glyph glyph-name="two" unicode="2" horiz-adv-x="791" 
d="M45 740q0 212 162 290q81 40 169 40q90 0 171 -40q162 -78 162 -290q0 -311 -313 -528h353v-213h-694q0 228 214 416q226 187 226 325q0 116 -119 116q-117 0 -117 -116h-214z" />
    <glyph glyph-name="three" unicode="3" horiz-adv-x="690" 
d="M61 -1v213h187q174 3 174 177q0 170 -176 173l-191 3l185 291h-179v214h569l-211 -332q216 -98 216 -349q0 -194 -135 -304q-110 -86 -252 -86h-187z" />
    <glyph glyph-name="four" unicode="4" horiz-adv-x="794" 
d="M456 319h67v104zM739 -1h-216v107h-468l684 964v-1071z" />
    <glyph glyph-name="five" unicode="5" horiz-adv-x="718" 
d="M55 -1v213h127q179 3 179 179q0 177 -179 180l-127 2v497h608v-214h-394v-86q306 -65 306 -379q0 -196 -136 -303q-113 -89 -257 -89h-127z" />
    <glyph glyph-name="six" unicode="6" horiz-adv-x="898" 
d="M455 558q-67 0 -116 -50q-49 -46 -49 -116q0 -69 49 -118t116 -49q69 0 118 49t49 118q0 70 -49 116q-49 50 -118 50zM843 387q0 -58 -18 -119q-40 -137 -147 -206q-93 -63 -221 -63q-57 0 -121 20q-134 40 -206 144q-49 73 -58 172q-17 78 -17 176q3 281 153 441
q114 118 290 118h3q98 0 203 -34l11 -3l-76 -227l-11 3q-69 26 -127 26q-78 -3 -122 -46q-11 -14 -23 -29q47 12 96 12l5 3q128 0 221 -64q75 -49 118 -136q44 -90 47 -186v-2z" />
    <glyph glyph-name="seven" unicode="7" horiz-adv-x="863" 
d="M490 856h-435v214h753l-430 -1071h-231z" />
    <glyph glyph-name="eight" unicode="8" horiz-adv-x="861" 
d="M430 212q67 0 113 50q49 46 49 112q0 67 -49 113q-46 49 -113 49q-66 0 -112 -49q-49 -46 -49 -113q0 -66 49 -112q46 -50 112 -50zM430 856q-54 0 -54 -52q0 -54 54 -54q55 0 55 54q0 52 -55 52zM661 669q145 -113 145 -295q0 -156 -110 -266q-110 -109 -266 -109
t-265 109q-110 110 -110 266q0 182 144 295q-37 63 -37 135q0 110 78 188q81 78 190 78q110 0 191 -78q78 -78 78 -188q0 -72 -38 -135z" />
    <glyph glyph-name="nine" unicode="9" horiz-adv-x="913" 
d="M450 521q71 0 119 50q50 50 50 121t-50 121q-48 47 -119 47q-70 0 -120 -47q-51 -50 -51 -121t51 -121q50 -50 120 -50zM55 695q0 62 20 123q42 136 149 211q94 61 223 61q63 0 124 -17q136 -42 209 -151q51 -74 60 -174q18 -77 18 -177q0 -286 -157 -451
q-115 -121 -291 -121h-7q-100 3 -206 38l-12 3l76 227l13 -2q70 -25 129 -25q80 0 124 48q12 11 23 30q-47 -13 -97 -16h-6q-129 0 -223 63q-77 53 -122 141q-44 89 -47 186v3z" />
    <glyph glyph-name="colon" unicode=":" horiz-adv-x="347" 
d="M175 468q52 0 89 -37q38 -38 38 -93q0 -52 -38 -89q-37 -38 -89 -38q-55 0 -92 38q-38 37 -38 89q0 55 38 93q37 37 92 37zM175 806q52 0 89 -37q38 -38 38 -92q0 -52 -38 -90q-37 -38 -89 -38q-55 0 -92 38q-38 38 -38 90q0 54 38 92q37 37 92 37z" />
    <glyph glyph-name="semicolon" unicode=";" horiz-adv-x="347" 
d="M175 806q52 0 89 -37q38 -38 38 -92q0 -52 -38 -90q-37 -38 -89 -38q-55 0 -92 38q-38 38 -38 90q0 54 38 92q37 37 92 37zM302 355q0 -9 -3 -21h3q0 -72 -26 -144q-55 -142 -188 -142v142q29 0 52 40q-95 26 -95 125q0 54 38 92q37 38 92 38q52 0 89 -38q38 -38 38 -92z
" />
    <glyph glyph-name="semicolon" unicode="&#x37e;" horiz-adv-x="347" 
d="M175 806q52 0 89 -37q38 -38 38 -92q0 -52 -38 -90q-37 -38 -89 -38q-55 0 -92 38q-38 38 -38 90q0 54 38 92q37 37 92 37zM302 355q0 -9 -3 -21h3q0 -72 -26 -144q-55 -142 -188 -142v142q29 0 52 40q-95 26 -95 125q0 54 38 92q37 38 92 38q52 0 89 -38q38 -38 38 -92z
" />
    <glyph glyph-name="less" unicode="&#x3c;" horiz-adv-x="486" 
d="M166 699l275 -277l-275 -274l-121 121l153 153l-153 156z" />
    <glyph glyph-name="equal" unicode="=" horiz-adv-x="544" 
d="M45 388h454v-193h-454v193zM45 666h454v-193h-454v193z" />
    <glyph glyph-name="greater" unicode="&#x3e;" horiz-adv-x="486" 
d="M441 578l-153 -156l153 -153l-122 -121l-274 274l274 277z" />
    <glyph glyph-name="question" unicode="?" horiz-adv-x="734" 
d="M259 319q0 231 167 353q49 34 49 78q-3 106 -109 106q-107 0 -107 -106h-214q0 115 72 208q90 112 249 112q161 0 251 -112q72 -93 72 -208q0 -153 -136 -252q-78 -57 -78 -179h-216zM366 -1q-107 0 -107 107q0 106 107 106q109 0 109 -106q0 -107 -109 -107z" />
    <glyph glyph-name="at" unicode="@" horiz-adv-x="1602" 
d="M257 1393q47 -3 59 -39q-20 -13 -24 -13q-8 24 -35 24h-2q-35 -5 -35 -35v-9q0 -26 37 -32q17 0 26 11h-24q-4 0 -4 4v19q1 5 4 5h59q4 -1 4 -5q-10 -60 -58 -60h-15q-48 0 -57 65q8 65 65 65zM338 1393h82q5 -1 5 -4v-20q0 -4 -5 -4h-58v-24h47q5 -1 5 -4v-20
q0 -4 -5 -4h-47v-24h58q5 -1 5 -5v-17q0 -4 -5 -4h-82q-5 0 -5 4v122q1 4 5 4zM440 1393h95q5 -1 5 -4v-20q0 -4 -5 -4h-32v-98q0 -4 -5 -4h-19q-5 0 -5 4v98h-34q-5 0 -5 4v20q1 4 5 4zM616 1393h95q5 -1 5 -4v-20q0 -4 -5 -4h-34v-98q0 -4 -5 -4h-19q-5 0 -5 4v98h-32
q-5 0 -5 4v20q1 4 5 4zM731 1393h19q5 -1 5 -4v-48h48v48q0 4 4 4h19q5 -1 5 -4v-122q0 -4 -5 -4h-19q-4 0 -4 4v46h-48v-46q0 -4 -5 -4h-19q-5 0 -5 4v122q1 4 5 4zM846 1393h82q5 -1 5 -4v-20q0 -4 -5 -4h-58v-24h48q4 -1 4 -4v-20q0 -4 -4 -4h-48v-24h58q5 -1 5 -5v-17
q0 -4 -5 -4h-82q-4 0 -4 4v122q0 4 4 4zM1009 1393h82q5 -1 5 -4v-20q0 -4 -5 -4h-60v-24h50q4 -1 4 -4v-20q0 -4 -4 -4h-50v-46q0 -4 -5 -4h-17q-4 0 -4 4v122q0 4 4 4zM1111 1393h20q4 -1 4 -4v-79q0 -16 24 -21q24 5 24 21v79q0 4 4 4h20q4 -1 4 -4v-72q-6 -54 -46 -54
h-13q-37 0 -45 50v76q0 4 4 4zM1226 1393h20q4 -1 4 -4v-100h54q5 -1 5 -5v-17q0 -4 -5 -4h-78q-4 0 -4 4v122q0 4 4 4zM1324 1393h19q5 -1 5 -4v-100h54q4 -1 4 -5v-17q0 -4 -4 -4h-78q-4 0 -4 4v122q0 4 4 4zM522 1243h35q65 0 65 -56q0 -24 -22 -39q11 -29 11 -33v-4h-24
q-5 0 -10 26h-33v-22q0 -4 -4 -4h-18q-4 0 -4 4v124q1 4 4 4zM296 1241h24q5 0 26 -63h2q21 63 27 63h23l5 -2q-52 -118 -52 -124h-7q0 5 -52 124zM418 1241h85q4 -1 4 -4v-18q0 -4 -4 -4h-61v-24h50q4 -1 4 -4v-20q0 -4 -4 -4h-50v-24h61q4 -1 4 -5v-19q0 -4 -4 -4h-85
q-4 0 -4 4v122q0 4 4 4zM674 1241h13q32 0 44 -17q-14 -18 -20 -18q-9 7 -30 9q-22 -3 -22 -11v-4q0 -8 50 -13q24 -15 24 -35q0 -34 -50 -41q-50 7 -50 19q0 3 17 18q16 -9 35 -9q20 3 20 9v6q0 8 -50 13q-24 17 -24 35q0 32 43 39zM748 1241h20q4 -1 4 -4v-122q0 -4 -4 -4
h-20q-4 0 -4 4v122q1 4 4 4zM855 1241q45 0 58 -63q-12 -67 -65 -67q-65 10 -65 65v2q0 44 50 63h22zM1002 1241h20q4 -1 4 -4v-120q0 -4 -4 -4q0 3 -72 67v-65q0 -4 -4 -4h-18q-4 0 -4 4v124h2l72 -65v63q1 4 4 4zM1207 1241h95q4 -1 4 -4v-18q0 -4 -4 -4h-32v-100
q0 -4 -5 -4h-19q-5 0 -5 4v100h-34q-5 0 -5 4v18q1 4 5 4zM1161 1239q6 0 63 -126v-2h-26l-13 19h-48q-11 -19 -13 -19h-26v2q3 17 63 126zM544 1215v-50h24q26 2 26 22v6q0 19 -28 22h-22zM809 1178q6 -39 39 -39q32 0 37 41q0 28 -39 35q-37 -9 -37 -37zM1148 1158h26v3
q-11 20 -11 23q-4 0 -15 -26zM83 1091h9q48 -7 48 -17q0 -3 -17 -18q-21 7 -27 7h-15q-13 -2 -13 -7v-8q0 -5 52 -13q20 -13 20 -33v-2q0 -33 -48 -39h-4q-31 0 -48 19l17 15q21 -6 33 -6h6q11 0 18 11q0 15 -46 15q-28 14 -28 33v4q0 33 43 39zM155 1091h20q4 -1 4 -4v-122
q0 -4 -4 -4h-20q-4 0 -4 4v122q0 4 4 4zM255 1091q34 0 52 -26q0 -3 -17 -17h-2q-16 15 -26 15h-13q-25 0 -31 -35v-6q9 -33 33 -33h6q17 0 33 17l15 -17v-4q-20 -24 -52 -24q-63 11 -63 67q0 54 65 63zM322 1091h20q4 -1 4 -4v-42q2 0 46 46h28q5 -1 5 -4q-4 0 -59 -61
l59 -63l-5 -2h-28l-46 45v-41q0 -4 -4 -4h-20q-4 0 -4 4v122q1 4 4 4zM477 1091q38 0 50 -28l-18 -15q-15 15 -26 15h-13q-30 -9 -30 -31v-13q0 -24 34 -30h7q14 0 28 17q3 0 18 -17v-2q-19 -26 -53 -26q-53 0 -63 65v6q0 46 61 59h5zM674 1091h52q43 0 50 -52
q-7 -52 -52 -52h-26v-22q0 -4 -4 -4h-20q-4 0 -4 4v122q1 4 4 4zM792 1091h17q4 -1 4 -4v-122q0 -4 -4 -4h-17q-5 0 -5 4v122q1 4 5 4zM829 1091h97q5 -1 5 -4v-20q0 -4 -5 -4h-34v-98q0 -4 -5 -4h-19q-5 0 -5 4v98h-34q-5 0 -5 4v20q1 4 5 4zM1052 1091h20q4 -1 4 -4v-98
h55q4 -1 4 -4v-20q0 -4 -4 -4h-79q-4 0 -4 4v122q1 4 4 4zM1241 1091h7q25 0 45 -26q0 -3 -17 -17h-2q-16 15 -26 15h-13q-24 0 -31 -35v-6q10 -33 33 -33h6q17 0 33 17l15 -17v-4q-19 -24 -50 -24q-56 0 -65 69q0 40 48 59q8 2 17 2zM1363 1091q65 -9 65 -65q0 -55 -67 -65
q-44 0 -61 50q-2 8 -2 17q0 54 65 63zM592 1089h6q29 -62 61 -126l-4 -2h-24q-5 0 -9 17h-54q-4 -17 -9 -17h-24q-4 0 -4 4q61 120 61 124zM970 1089h2q4 -2 65 -126l-4 -2h-24q-6 0 -9 17h-52l-13 -17h-26q0 4 61 128zM1439 1089h4q49 -76 57 -81q43 62 54 81h4v-124
q0 -4 -4 -4h-19q-5 0 -5 4v39q-10 -7 -28 -41h-2l-33 41v-39q0 -4 -4 -4h-20q-4 0 -4 4v124zM698 1063v-48h28q20 0 22 26q-3 22 -22 22h-28zM1326 1032v-8q7 -35 33 -35h8q33 9 33 33v6q-7 35 -31 35h-13q-30 -9 -30 -31zM594 1035q-11 -25 -11 -27h24v3q-11 20 -11 24h-2z
M959 1008h26v3q-11 20 -11 24q-4 0 -15 -27zM1161 993h6q11 -6 11 -17q-6 -15 -19 -15q-9 3 -13 11v6q0 15 15 15zM1085 908q10 -1 16 -21l-4 -23q10 -5 30 -5h2q15 0 33 35l11 3h2q6 0 10 -24h-3q0 -25 24 -25h4l26 23h7q11 -7 11 -16q0 -4 -4 -14q0 -13 16 -16l11 7l-2 4
q0 3 19 12h7q34 -30 34 -35l-11 -32q9 -18 16 -21h12q15 12 41 21h7q10 -4 10 -21q-24 -24 -28 -33v-4q2 -7 14 -7q12 7 35 11h6l10 -11q3 0 7 7v4q-5 0 -5 5l-5 -2q-4 0 -4 4l-5 -2h-4q-5 0 -5 5v9h2l5 -3q4 3 7 3q2 -9 11 -9q0 2 3 2q4 -10 4 -14h14l-2 -12l2 -14
q-5 -10 -25 -32h-3l-7 5h-2q-6 0 -9 -31q4 -32 16 -32q3 0 7 2q38 0 49 -25q0 -5 -28 -28v-7q0 -5 37 -12l5 -7q0 -12 -10 -16q-29 3 -32 5q-5 -2 -7 -2q0 -40 14 -40q7 0 16 -2l14 7l12 -3l4 3q7 0 17 -16v-5q0 -3 -12 -12h-9q-6 0 -28 7q-37 0 -37 -32h-3q3 -5 3 -7l4 2
q10 -4 17 -4q2 0 2 2l12 -2h25q14 -2 14 -7v-10q0 -4 -16 -7q-11 5 -23 5q-10 -11 -14 -21l20 -28v-2l-9 -9q-43 11 -49 11q-8 -2 -18 -28q10 -28 32 -44l7 -11v-12q0 -3 -7 -7h-9q-16 12 -25 28q-4 0 -10 5h-7q-6 -10 -41 -14l-26 -21q0 -13 30 -33l3 -11q-11 -9 -17 -9
q0 3 -23 9q-5 11 -23 23q-26 -10 -26 -14q0 -6 7 -30l-9 -7h-9q-8 0 -40 30h-2q-2 0 -9 -9q3 -13 9 -26q-5 -16 -9 -16h-2l-31 28h-7q-4 -21 -20 -21q-23 15 -33 40h-5q-3 0 -7 -7q10 0 10 -5t-5 -5t-5 7h-2q0 -14 -16 -25h-9q-6 0 -14 37l-21 9q-11 -2 -26 -30q-5 -5 -9 -5
q-6 0 -12 12q5 18 7 18q0 17 -30 24l-2 4q-3 0 -30 -23q-5 0 -5 5q3 0 3 2q-7 0 -7 5v4q0 6 7 28v2q0 4 -10 10q-13 0 -25 -10h-12q-3 0 -11 12q11 23 11 30q-9 24 -9 30h2q-2 5 -2 7q-77 -76 -81 -76q-11 1 -37 16q-5 -2 -7 -2q-46 0 -72 18q-23 0 -23 26q-6 13 -31 28v11
h-2v-83q0 -5 -5 -5h-236q-5 0 -5 5v92l-106 -104h-3v95l-88 -83q-80 24 -113 81q-26 48 -26 93v7q0 113 123 169q40 9 58 9q36 -2 46 -7v153q1 5 5 5h127q5 -1 5 -5v-301l216 213l2 -4v-54h46v146q1 5 5 5h128q4 -1 4 -5v-25q5 2 7 2q8 0 37 -9h5l21 18q-17 28 -23 31h-3
q-3 -3 -11 -21l-5 -3h-5q-3 0 -6 7v14q11 42 34 42q19 -9 19 -26q12 -13 25 -13q7 8 7 13q-18 27 -18 35v7q2 7 14 7q11 -8 28 -32q30 0 30 34q4 19 9 19h7q7 0 32 -21q2 0 14 -2q5 2 7 2v-2q28 0 28 16q0 37 14 37zM784 869q15 0 30 -28l-5 -2q-22 9 -30 23v2q1 5 5 5z
M897 660q2 0 2 -2q-8 0 -18 -26q-2 0 -2 -2l4 -7q-12 0 -30 -49h-2q0 3 -28 28h-30q-5 0 -5 5v146h-76v-146q0 -5 -5 -5h-26q-41 0 -76 -9v25q-4 0 -77 -76v-244h77v176q11 51 51 51h51q5 0 5 -4v-65q0 -125 90 -162h2l58 60q-74 16 -74 69v98q1 4 5 4h55q4 0 14 -69
q27 -77 70 -121q35 -38 60 -51q81 -41 121 -41q2 0 2 2l12 -2h21q31 0 41 7q4 -3 10 -3q0 3 46 19q0 10 23 11q0 3 19 12v-2q41 28 41 32q41 43 65 91q0 4 10 18q9 53 16 63q0 8 2 39l-2 5q5 9 5 14q-14 5 -14 21q0 7 7 7v6q-7 0 -7 5v5l2 4q-5 0 -5 5v5q0 2 3 2
q-17 49 -40 79q-18 36 -60 65q-26 27 -95 51q-41 9 -84 9h-2q-2 0 -2 2l-5 -2h-2q-3 0 -3 2q-30 0 -74 -27q0 -13 -53 -21q-62 -36 -72 -70q-9 -9 -21 -37zM1076 813v-2h7v2h-7zM310 753v-170q-50 19 -74 19q-109 0 -151 -118q-2 -23 -2 -35v-5q0 -91 100 -136h5l64 67h-2
l-16 -3q-77 13 -77 82q0 46 56 69q9 2 19 2h11q67 -16 67 -67v-125l77 74v346h-77zM1094 750h16q5 0 5 -4q-10 -19 -23 -23q-5 2 -7 2l-9 -12v-2h11q10 0 14 -30l-11 -7q-8 5 -12 5v-3q0 -3 19 -11q0 4 4 4q13 0 16 -9v-30q-15 -44 -44 -44q0 -3 -30 -7q-14 0 -55 53
q-3 4 -3 12q0 13 10 21q-5 0 -5 4q0 33 49 65l9 -2zM1136 750q17 0 19 -7v-2h-21q-5 0 -5 5zM818 743v-44q7 0 17 -2q11 3 11 7v5q-25 31 -25 34h-3zM1162 743q6 0 27 -9q17 0 30 -11q8 4 14 4l54 -41l11 -19v-2h-4q23 -20 23 -26q0 -8 14 -32q0 -26 -12 -51v-26
q-11 -22 -58 -32q-48 -7 -48 -19l-24 -2h-4q-5 0 -10 16l-9 -9h-21l-11 -3q-5 8 -5 14v3h7v2q0 3 -7 7l-5 -2q-15 0 -18 20q-9 0 -9 14l16 14h4q5 0 5 -4q7 2 7 4q-2 5 -2 7l30 26l23 18h7q6 0 26 -9q2 3 2 12q-14 8 -14 11q-1 -2 -16 -2q0 2 18 37q-9 16 -9 28v5q5 9 12 9
q-3 4 -3 9l-11 -2h-5q-5 0 -16 18q-10 0 -16 12q7 6 7 11zM1122 741h2q6 -4 26 -7v-7q-33 3 -33 10q1 4 5 4zM1036 716q1 -5 5 -5v5h-5zM1025 646v-5h4q0 5 -4 5zM1215 567q-12 -16 -21 -16q1 -5 5 -5h4q0 11 21 17v2q-5 0 -9 2zM774 558l3 -5q0 -4 -5 -4l-2 4q0 5 4 5z
M1087 525q10 0 14 -20q23 -6 23 -19q-4 -11 -9 -12l-14 3q-14 -6 -74 -9q0 -5 -9 -5q-14 5 -14 9q9 19 25 19q2 0 14 -3q12 8 33 35zM419 435v-137h75v211q-4 0 -75 -74zM188 449q10 -46 46 -46q46 10 46 16v37q0 29 -41 39h-7q-37 0 -44 -46zM675 493v-2h4v2h-4zM642 470h5
v4q-5 0 -5 -4zM1296 472q9 -3 9 -7v-4q0 -5 -4 -5h-3q-3 0 -7 7zM649 465v-2h5v2h-5zM1001 468l3 -5v-2h-5v-5h2l10 5l11 -3q5 3 7 3q4 -10 7 -10h7q6 7 30 10q0 -4 10 -7l9 2q15 -7 37 -12l-2 -4v-3h2l7 5h14q12 -12 16 -12q5 3 7 3l2 -5v-5q0 -2 -9 -6q6 -14 9 -14
q-2 -19 -7 -19h-2l-4 2l-3 -4q5 0 9 -3q7 2 19 12q19 -16 19 -19v-4q-7 -12 -10 -12q-8 0 -21 9q0 -7 -2 -11q19 -10 19 -23q-24 -10 -28 -10q-37 15 -37 31l-5 -3h-2q-40 14 -40 40v2h3q7 -5 14 -5q-5 12 -7 12l-12 -7h-7q-16 8 -35 42q-5 9 -14 9l-7 5h-2l-7 -5l-11 2
q0 -7 -19 -7l7 -9v-7q0 -7 -9 -7l-12 3v11q18 23 30 28q-2 4 -2 7q7 5 11 5zM647 451h4v5q-4 -1 -4 -5zM1287 451h4q5 0 7 -14q-12 -27 -14 -27l3 -5v-12q7 0 11 -9v-2q0 -19 -18 -19q-6 0 -14 7q0 -32 -53 -42h-3q-14 6 -14 10v7q0 9 17 18l2 14q-5 0 -5 5q3 0 3 2
q-10 4 -10 7l-4 -2h-7q-14 8 -14 11v14q0 2 16 16h7q5 0 9 -18h7l-2 11l4 3h24q2 0 2 -3q10 2 42 28zM635 417v-5h5q0 5 -5 5zM988 417q13 -18 13 -33l-2 -5q2 -4 2 -7q-12 -16 -18 -16q-33 0 -33 26q5 2 7 2l-7 12q0 12 10 16h11l10 -9q0 14 7 14zM644 407q0 -2 -2 -7h7
q-2 5 -2 7h-3zM1238 403v-7h7v11h-2q-5 0 -5 -4zM644 398v-5h3v5h-3zM1277 382q-2 -5 -2 -7h7q5 0 5 4v3h-10zM1115 377v-5l7 -9q10 3 14 12h-5l-7 -5zM644 370l-2 -5v-2h7v2q0 5 -5 5zM649 354v-2h5v2h-5zM668 352v-5h2v5h-2zM658 347q1 -5 5 -5v5h-5zM665 338v-5h3v5h-3z
M918 287v-3q1 -4 5 -4v2q0 5 -5 5zM904 284q1 -4 5 -4v4h-5zM946 284v-4h2v4h-2zM895 277q4 -5 4 -11h3v9q-5 2 -7 2zM707 270h5q4 0 4 -4v-7q0 -5 -4 -5h-3q-3 0 -7 7v5q1 4 5 4zM967 263v-4h4v4h-4zM971 250v-7q5 2 7 2v2q-2 0 -7 3zM983 247v-4h9v2zM1053 247v-4h2v4h-2z
M955 245q0 -7 -7 -7v-2h9v9h-2zM1039 245v-2h4v2h-4zM1034 243v-5h2v5h-2zM941 233v-2q3 -5 3 -7q-3 0 -3 -2q3 0 7 -3q0 4 9 10q-8 0 -13 4h-3zM1057 226v-4h2v4h-2zM1106 212l4 -2v7q-4 -1 -4 -5zM1013 208l5 -3v7q-5 0 -5 -4zM1011 201v-7l4 -7h-7v-2h5q11 4 12 9l-10 7
h-4zM1199 171h14v4h-10q-4 0 -4 -4zM240 104h63q68 0 80 -76v-4q0 -60 -56 -79q-17 -4 -31 -4h-56q-4 0 -4 4v155q0 4 4 4zM401 104h26q4 -1 4 -4v-155q0 -4 -4 -4h-26q-5 0 -5 4v155q1 4 5 4zM451 104h67q59 -12 59 -59v-6q0 -34 -26 -55l15 -41l-5 -2h-28l-17 33h-35v-29
q0 -4 -4 -4h-26q-5 0 -5 4v155q1 4 5 4zM590 104h121q5 -1 5 -4v-26q0 -5 -5 -5h-43v-124q0 -4 -5 -4h-26q-4 0 -4 4v124h-43q-5 0 -5 5v26q1 4 5 4zM783 104q42 0 48 -50v-2q0 -40 -44 -76h46q4 -1 4 -5v-26q0 -4 -4 -4h-98q-4 0 -4 4v5q0 30 58 82q7 16 7 20v2q0 12 -9 15
h-11q-15 0 -15 -17h-28q-4 0 -4 4v2q0 33 39 46h15zM968 104q42 0 65 -33q0 -3 -22 -21h-2q-16 19 -35 19h-13q-39 -11 -39 -41v-13q0 -29 43 -39h11q13 0 35 21q12 -7 22 -23q-24 -33 -68 -33q-54 0 -78 67v13q0 66 72 83h9zM1120 104q65 0 82 -72v-11q0 -56 -63 -78
q-11 -2 -22 -2q-52 0 -76 63q-2 12 -2 24q16 76 81 76zM1365 102h2v-157q0 -4 -4 -4h-26q-4 0 -4 4v55h-3q-10 -21 -39 -57l-41 57v-55q0 -4 -4 -4h-24q-5 0 -5 4v155h3q71 -100 73 -100q57 84 72 102zM481 71v-63h35q26 6 26 24v13q0 26 -41 26h-20zM270 69v-93h35
q38 0 43 45v7q-7 41 -39 41h-39zM1074 30v-11q9 -43 43 -43h7q43 10 43 39v13q-9 41 -41 41h-13q-39 -13 -39 -39zM870 -18q14 0 17 -19v-2q0 -18 -21 -20q-9 0 -18 13v9q0 17 22 19zM155 -109h74q4 0 4 -4v-17q0 -5 -4 -5h-54v-21h45q5 -1 5 -5v-15q0 -4 -5 -4h-45v-44
q0 -4 -5 -4h-15q-4 0 -4 4v111q0 4 4 4zM294 -109q59 -11 59 -54v-6q0 -52 -61 -59q-47 0 -56 61q11 58 58 58zM435 -109h18q4 0 4 -4v-108q0 -5 -4 -5l-65 61v-59q0 -4 -5 -4h-15q-4 0 -4 4v111h4q32 -29 61 -56h2v56q1 4 4 4zM470 -109h87q4 0 4 -4v-17q0 -5 -4 -5h-30
v-89q0 -4 -5 -4h-17q-4 0 -4 4v89h-31q-4 0 -4 5v17q0 4 4 4zM611 -109q29 0 46 -17q0 -3 -15 -15q-20 6 -26 6h-5q-19 0 -19 -10q0 -11 43 -13q24 -14 24 -35q0 -29 -48 -35q-41 7 -41 15v2q9 16 15 16q11 -7 22 -7h13q11 0 13 7v6q0 6 -48 13q-17 13 -17 26v9q0 25 43 32z
M761 -109q31 -5 31 -26v-2q0 -16 -20 -24q4 -10 9 -11h19q5 0 5 -6t-5 -22q4 0 22 -26l-4 -2h-22l-11 9q-14 -9 -24 -9q-41 8 -41 37q0 21 20 35q-7 11 -7 17v7q0 17 28 23zM892 -109h26q76 0 76 -60q0 -34 -29 -50q-15 -9 -39 -9h-34q-5 0 -5 4v111q1 4 5 4zM1007 -109h76
q4 0 4 -4v-17q0 -5 -4 -5h-55v-21h44q4 -1 4 -5v-15q0 -4 -4 -4h-44v-22h55q4 -1 4 -4v-18q0 -4 -4 -4h-76q-5 0 -5 4v111q1 4 5 4zM1141 -109q46 -7 46 -17q0 -3 -15 -15q-21 6 -33 6h-2q-12 0 -15 -8v-5q0 -7 48 -13q17 -13 17 -26v-8q0 -28 -48 -33q-24 0 -41 15v2
q11 16 17 16q11 -7 22 -7h11q15 0 15 11q0 10 -50 15q-17 16 -17 33q0 27 45 34zM1202 -109h15q5 0 5 -4v-111q0 -4 -5 -4h-15q-4 0 -4 4v111q1 4 4 4zM1291 -109q34 0 52 -30v-4q-8 -11 -19 -11h-2q-6 19 -31 19q-32 -4 -32 -28v-9q0 -30 30 -30h9q12 0 17 9q-24 0 -24 4
v17q1 5 5 5h50q4 -1 4 -5v-4q0 -42 -59 -52q-53 0 -58 61q7 58 58 58zM1432 -109h16q4 0 4 -4v-108q0 -5 -4 -5q-3 6 -61 59h-2v-57q0 -4 -5 -4h-15q-4 0 -4 4v111h2q15 -12 65 -59v59q1 4 4 4zM759 -132v-9h2q5 0 5 4v5h-7zM262 -163v-11q7 -28 28 -28h9q25 0 30 37
q0 24 -35 30h-2q-30 -7 -30 -28zM911 -135v-67h28q29 7 29 28v11q0 24 -35 28h-22zM750 -176l-4 -15q0 -13 15 -13h5q4 0 4 4q-17 24 -20 24z" />
    <glyph glyph-name="A" unicode="A" horiz-adv-x="1181" 
d="M722 368l-130 260l-130 -260h260zM1126 -1h-251l-60 150h-448l-61 -150h-251l537 1071z" />
    <glyph glyph-name="B" unicode="B" horiz-adv-x="968" 
d="M269 643h216q107 3 107 107q0 106 -107 106h-216v-213zM269 212h320q110 3 110 107q0 110 -107 110h-323v-217zM55 -1v1071h430q116 0 208 -72q113 -87 113 -248q0 -90 -38 -159q145 -87 145 -272q0 -159 -113 -248q-89 -72 -208 -72h-537z" />
    <glyph glyph-name="C" unicode="C" horiz-adv-x="1075" 
d="M1020 212q-162 -213 -428 -213q-222 0 -381 156q-156 159 -156 381t156 378q159 156 381 156q266 0 428 -214l-153 -153q-96 153 -275 153q-133 0 -228 -95q-95 -92 -95 -225t95 -228q95 -96 228 -96q179 0 275 156z" />
    <glyph glyph-name="D" unicode="D" horiz-adv-x="1075" 
d="M485 212q78 0 159 41q162 81 162 283q0 199 -162 280q-81 40 -159 40h-216v-644h216zM485 1070q133 0 266 -66q269 -133 269 -468t-269 -471q-133 -66 -266 -66h-430v1071h430z" />
    <glyph glyph-name="E" unicode="E" horiz-adv-x="861" 
d="M806 1070v-214h-537v-213h450v-214h-450v-217h537v-213h-751v1071h751z" />
    <glyph glyph-name="F" unicode="F" horiz-adv-x="861" 
d="M806 1070v-214h-537v-213h450v-214h-450v-430h-214v1071h751z" />
    <glyph glyph-name="G" unicode="G" horiz-adv-x="1181" 
d="M1126 536q0 -335 -265 -471q-136 -66 -269 -66q-335 0 -471 268q-66 133 -66 269q0 133 66 268q136 266 471 266q361 0 485 -306l-184 -113q-73 205 -301 205q-202 0 -283 -161q-40 -78 -40 -159t40 -162q81 -162 283 -162q153 0 249 107h-249v217h534z" />
    <glyph glyph-name="H" unicode="H" horiz-adv-x="968" 
d="M913 1070v-1071h-214v430h-430v-430h-214v1071h214v-427h430v427h214z" />
    <glyph glyph-name="I" unicode="I" horiz-adv-x="324" 
d="M269 1070v-1071h-214v1071h214z" />
    <glyph glyph-name="J" unicode="J" horiz-adv-x="647" 
d="M592 1070v-641q0 -110 -55 -217q-107 -213 -375 -213h-107v213h107q136 0 188 107q26 55 26 110v641h216z" />
    <glyph glyph-name="K" unicode="K" horiz-adv-x="994" 
d="M939 1070l-511 -537l511 -534h-286l-384 404v-404h-214v1071h214v-407l384 407h286z" />
    <glyph glyph-name="L" unicode="L" horiz-adv-x="818" 
d="M269 1070v-858h494v-213h-708v1071h214z" />
    <glyph glyph-name="M" unicode="M" horiz-adv-x="1098" 
d="M549 363l494 707v-1071h-217v407l-277 -407l-280 407v-407h-214v1071z" />
    <glyph glyph-name="N" unicode="N" 
d="M55 -1v1071l621 -577v577h217v-1071l-624 580v-580h-214z" />
    <glyph glyph-name="O" unicode="O" horiz-adv-x="1181" 
d="M364 308q95 -96 228 -96t225 96q96 95 96 228t-96 225q-92 95 -225 95t-228 -95q-95 -92 -95 -225t95 -228zM211 914q159 156 381 156q223 0 378 -156q156 -156 156 -378t-156 -381q-155 -156 -378 -156q-222 0 -381 156q-156 159 -156 381t156 378z" />
    <glyph glyph-name="P" unicode="P" horiz-adv-x="968" 
d="M485 429q52 0 107 26q107 52 107 188q0 133 -107 187q-55 26 -107 26h-216v-427h216zM485 1070q107 0 214 -52q214 -107 214 -375q0 -269 -214 -376q-107 -55 -214 -55h-216v-213h-214v1071h430z" />
    <glyph glyph-name="Q" unicode="Q" horiz-adv-x="1181" 
d="M592 216q72 0 139 31l-133 133l150 150l133 -133q32 67 32 139q0 133 -96 228q-92 93 -225 96q-133 -3 -228 -96q-95 -95 -95 -228t95 -228q95 -92 228 -92zM1126 536q0 -162 -86 -294l86 -90l-150 -153l-89 89q-133 -89 -295 -89q-222 0 -381 159q-156 156 -156 378
t156 378q159 159 381 159q223 0 378 -159q156 -156 156 -378z" />
    <glyph glyph-name="R" unicode="R" horiz-adv-x="968" 
d="M485 429q52 0 107 26q107 55 107 188q0 135 -107 187q-55 29 -107 29h-216v-430h216zM913 643q0 -240 -176 -353l106 -291h-228l-81 219q-31 -3 -49 -3h-216v-216h-214v1074h430q107 0 214 -55q214 -107 214 -375z" />
    <glyph glyph-name="S" unicode="S" horiz-adv-x="938" 
d="M169 62q-73 35 -113 72l75 78l72 81q21 -20 58 -37q92 -44 208 -44q186 0 201 102v5q0 29 -21 55q-49 55 -180 55q-230 0 -339 127q-75 81 -75 188q0 20 3 40q17 127 127 208q112 78 284 78q165 0 300 -63q73 -35 113 -73l-147 -156q0 6 -58 35q-92 43 -208 43
q-186 0 -198 -98v-14q0 -26 18 -46q49 -55 180 -55q229 0 342 -127q72 -84 72 -188q0 -23 -3 -43q-14 -127 -127 -205q-112 -81 -284 -81q-165 0 -300 63z" />
    <glyph glyph-name="T" unicode="T" horiz-adv-x="966" 
d="M911 1070v-213h-320v-858h-216v858h-320v213h856z" />
    <glyph glyph-name="U" unicode="U" horiz-adv-x="966" 
d="M911 1070v-642q0 -107 -52 -214q-110 -215 -375 -215q-267 0 -374 215q-55 107 -55 214v642h214v-642q0 -55 28 -107q52 -107 187 -107q133 0 188 107q25 52 25 107v642h214z" />
    <glyph glyph-name="V" unicode="V" horiz-adv-x="1031" 
d="M516 -1l-461 1071h247l214 -550l213 550h247z" />
    <glyph glyph-name="W" unicode="W" horiz-adv-x="1368" 
d="M301 1070l158 -464l225 464l224 -464l159 464h246l-377 -1071l-252 611l-252 -611l-377 1071h246z" />
    <glyph glyph-name="X" unicode="X" horiz-adv-x="1011" 
d="M956 1070l-318 -534l318 -537h-269l-181 320l-182 -320h-269l318 537l-318 534h269l182 -320l181 320h269z" />
    <glyph glyph-name="Y" unicode="Y" horiz-adv-x="1181" 
d="M1126 1070l-427 -791v-280h-214v280l-430 791h269l268 -514l269 514h265z" />
    <glyph glyph-name="Z" unicode="Z" horiz-adv-x="968" 
d="M913 1070l-494 -858h494v-213h-858l494 857h-494v214h858z" />
    <glyph glyph-name="bracketleft" unicode="[" horiz-adv-x="1602" 
d="M257 1393q47 -3 59 -39q-20 -13 -24 -13q-8 24 -35 24h-2q-35 -5 -35 -35v-9q0 -26 37 -32q17 0 26 11h-24q-4 0 -4 4v19q1 5 4 5h59q4 -1 4 -5q-10 -60 -58 -60h-15q-48 0 -57 65q8 65 65 65zM338 1393h82q5 -1 5 -4v-20q0 -4 -5 -4h-58v-24h47q5 -1 5 -4v-20
q0 -4 -5 -4h-47v-24h58q5 -1 5 -5v-17q0 -4 -5 -4h-82q-5 0 -5 4v122q1 4 5 4zM440 1393h95q5 -1 5 -4v-20q0 -4 -5 -4h-32v-98q0 -4 -5 -4h-19q-5 0 -5 4v98h-34q-5 0 -5 4v20q1 4 5 4zM616 1393h95q5 -1 5 -4v-20q0 -4 -5 -4h-34v-98q0 -4 -5 -4h-19q-5 0 -5 4v98h-32
q-5 0 -5 4v20q1 4 5 4zM731 1393h19q5 -1 5 -4v-48h48v48q0 4 4 4h19q5 -1 5 -4v-122q0 -4 -5 -4h-19q-4 0 -4 4v46h-48v-46q0 -4 -5 -4h-19q-5 0 -5 4v122q1 4 5 4zM846 1393h82q5 -1 5 -4v-20q0 -4 -5 -4h-58v-24h48q4 -1 4 -4v-20q0 -4 -4 -4h-48v-24h58q5 -1 5 -5v-17
q0 -4 -5 -4h-82q-4 0 -4 4v122q0 4 4 4zM1009 1393h82q5 -1 5 -4v-20q0 -4 -5 -4h-60v-24h50q4 -1 4 -4v-20q0 -4 -4 -4h-50v-46q0 -4 -5 -4h-17q-4 0 -4 4v122q0 4 4 4zM1111 1393h20q4 -1 4 -4v-79q0 -16 24 -21q24 5 24 21v79q0 4 4 4h20q4 -1 4 -4v-72q-6 -54 -46 -54
h-13q-37 0 -45 50v76q0 4 4 4zM1226 1393h20q4 -1 4 -4v-100h54q5 -1 5 -5v-17q0 -4 -5 -4h-78q-4 0 -4 4v122q0 4 4 4zM1324 1393h19q5 -1 5 -4v-100h54q4 -1 4 -5v-17q0 -4 -4 -4h-78q-4 0 -4 4v122q0 4 4 4zM522 1243h35q65 0 65 -56q0 -24 -22 -39q11 -29 11 -33v-4h-24
q-5 0 -10 26h-33v-22q0 -4 -4 -4h-18q-4 0 -4 4v124q1 4 4 4zM296 1241h24q5 0 26 -63h2q21 63 27 63h23l5 -2q-52 -118 -52 -124h-7q0 5 -52 124zM418 1241h85q4 -1 4 -4v-18q0 -4 -4 -4h-61v-24h50q4 -1 4 -4v-20q0 -4 -4 -4h-50v-24h61q4 -1 4 -5v-19q0 -4 -4 -4h-85
q-4 0 -4 4v122q0 4 4 4zM674 1241h13q32 0 44 -17q-14 -18 -20 -18q-9 7 -30 9q-22 -3 -22 -11v-4q0 -8 50 -13q24 -15 24 -35q0 -34 -50 -41q-50 7 -50 19q0 3 17 18q16 -9 35 -9q20 3 20 9v6q0 8 -50 13q-24 17 -24 35q0 32 43 39zM748 1241h20q4 -1 4 -4v-122q0 -4 -4 -4
h-20q-4 0 -4 4v122q1 4 4 4zM855 1241q45 0 58 -63q-12 -67 -65 -67q-65 10 -65 65v2q0 44 50 63h22zM1002 1241h20q4 -1 4 -4v-120q0 -4 -4 -4q0 3 -72 67v-65q0 -4 -4 -4h-18q-4 0 -4 4v124h2l72 -65v63q1 4 4 4zM1207 1241h95q4 -1 4 -4v-18q0 -4 -4 -4h-32v-100
q0 -4 -5 -4h-19q-5 0 -5 4v100h-34q-5 0 -5 4v18q1 4 5 4zM1161 1239q6 0 63 -126v-2h-26l-13 19h-48q-11 -19 -13 -19h-26v2q3 17 63 126zM544 1215v-50h24q26 2 26 22v6q0 19 -28 22h-22zM809 1178q6 -39 39 -39q32 0 37 41q0 28 -39 35q-37 -9 -37 -37zM1148 1158h26v3
q-11 20 -11 23q-4 0 -15 -26zM83 1091h9q48 -7 48 -17q0 -3 -17 -18q-21 7 -27 7h-15q-13 -2 -13 -7v-8q0 -5 52 -13q20 -13 20 -33v-2q0 -33 -48 -39h-4q-31 0 -48 19l17 15q21 -6 33 -6h6q11 0 18 11q0 15 -46 15q-28 14 -28 33v4q0 33 43 39zM155 1091h20q4 -1 4 -4v-122
q0 -4 -4 -4h-20q-4 0 -4 4v122q0 4 4 4zM255 1091q34 0 52 -26q0 -3 -17 -17h-2q-16 15 -26 15h-13q-25 0 -31 -35v-6q9 -33 33 -33h6q17 0 33 17l15 -17v-4q-20 -24 -52 -24q-63 11 -63 67q0 54 65 63zM322 1091h20q4 -1 4 -4v-42q2 0 46 46h28q5 -1 5 -4q-4 0 -59 -61
l59 -63l-5 -2h-28l-46 45v-41q0 -4 -4 -4h-20q-4 0 -4 4v122q1 4 4 4zM477 1091q38 0 50 -28l-18 -15q-15 15 -26 15h-13q-30 -9 -30 -31v-13q0 -24 34 -30h7q14 0 28 17q3 0 18 -17v-2q-19 -26 -53 -26q-53 0 -63 65v6q0 46 61 59h5zM674 1091h52q43 0 50 -52
q-7 -52 -52 -52h-26v-22q0 -4 -4 -4h-20q-4 0 -4 4v122q1 4 4 4zM792 1091h17q4 -1 4 -4v-122q0 -4 -4 -4h-17q-5 0 -5 4v122q1 4 5 4zM829 1091h97q5 -1 5 -4v-20q0 -4 -5 -4h-34v-98q0 -4 -5 -4h-19q-5 0 -5 4v98h-34q-5 0 -5 4v20q1 4 5 4zM1052 1091h20q4 -1 4 -4v-98
h55q4 -1 4 -4v-20q0 -4 -4 -4h-79q-4 0 -4 4v122q1 4 4 4zM1241 1091h7q25 0 45 -26q0 -3 -17 -17h-2q-16 15 -26 15h-13q-24 0 -31 -35v-6q10 -33 33 -33h6q17 0 33 17l15 -17v-4q-19 -24 -50 -24q-56 0 -65 69q0 40 48 59q8 2 17 2zM1363 1091q65 -9 65 -65q0 -55 -67 -65
q-44 0 -61 50q-2 8 -2 17q0 54 65 63zM592 1089h6q29 -62 61 -126l-4 -2h-24q-5 0 -9 17h-54q-4 -17 -9 -17h-24q-4 0 -4 4q61 120 61 124zM970 1089h2q4 -2 65 -126l-4 -2h-24q-6 0 -9 17h-52l-13 -17h-26q0 4 61 128zM1439 1089h4q49 -76 57 -81q43 62 54 81h4v-124
q0 -4 -4 -4h-19q-5 0 -5 4v39q-10 -7 -28 -41h-2l-33 41v-39q0 -4 -4 -4h-20q-4 0 -4 4v124zM698 1063v-48h28q20 0 22 26q-3 22 -22 22h-28zM1326 1032v-8q7 -35 33 -35h8q33 9 33 33v6q-7 35 -31 35h-13q-30 -9 -30 -31zM594 1035q-11 -25 -11 -27h24v3q-11 20 -11 24h-2z
M959 1008h26v3q-11 20 -11 24q-4 0 -15 -27zM1161 993h6q11 -6 11 -17q-6 -15 -19 -15q-9 3 -13 11v6q0 15 15 15zM1085 908q10 -1 16 -21l-4 -23q10 -5 30 -5h2q15 0 33 35l11 3h2q6 0 10 -24h-3q0 -25 24 -25h4l26 23h7q11 -7 11 -16q0 -4 -4 -14q0 -13 16 -16l11 7l-2 4
q0 3 19 12h7q34 -30 34 -35l-11 -32q9 -18 16 -21h12q15 12 41 21h7q10 -4 10 -21q-24 -24 -28 -33v-4q2 -7 14 -7q12 7 35 11h6l10 -11q3 0 7 7v4q-5 0 -5 5l-5 -2q-4 0 -4 4l-5 -2h-4q-5 0 -5 5v9h2l5 -3q4 3 7 3q2 -9 11 -9q0 2 3 2q4 -10 4 -14h14l-2 -12l2 -14
q-5 -10 -25 -32h-3l-7 5h-2q-6 0 -9 -31q4 -32 16 -32q3 0 7 2q38 0 49 -25q0 -5 -28 -28v-7q0 -5 37 -12l5 -7q0 -12 -10 -16q-29 3 -32 5q-5 -2 -7 -2q0 -40 14 -40q7 0 16 -2l14 7l12 -3l4 3q7 0 17 -16v-5q0 -3 -12 -12h-9q-6 0 -28 7q-37 0 -37 -32h-3q3 -5 3 -7l4 2
q10 -4 17 -4q2 0 2 2l12 -2h25q14 -2 14 -7v-10q0 -4 -16 -7q-11 5 -23 5q-10 -11 -14 -21l20 -28v-2l-9 -9q-43 11 -49 11q-8 -2 -18 -28q10 -28 32 -44l7 -11v-12q0 -3 -7 -7h-9q-16 12 -25 28q-4 0 -10 5h-7q-6 -10 -41 -14l-26 -21q0 -13 30 -33l3 -11q-11 -9 -17 -9
q0 3 -23 9q-5 11 -23 23q-26 -10 -26 -14q0 -6 7 -30l-9 -7h-9q-8 0 -40 30h-2q-2 0 -9 -9q3 -13 9 -26q-5 -16 -9 -16h-2l-31 28h-7q-4 -21 -20 -21q-23 15 -33 40h-5q-3 0 -7 -7q10 0 10 -5t-5 -5t-5 7h-2q0 -14 -16 -25h-9q-6 0 -14 37l-21 9q-11 -2 -26 -30q-5 -5 -9 -5
q-6 0 -12 12q5 18 7 18q0 17 -30 24l-2 4q-3 0 -30 -23q-5 0 -5 5q3 0 3 2q-7 0 -7 5v4q0 6 7 28v2q0 4 -10 10q-13 0 -25 -10h-12q-3 0 -11 12q11 23 11 30q-9 24 -9 30h2q-2 5 -2 7q-77 -76 -81 -76q-11 1 -37 16q-5 -2 -7 -2q-46 0 -72 18q-23 0 -23 26q-6 13 -31 28v11
h-2v-83q0 -5 -5 -5h-236q-5 0 -5 5v92l-106 -104h-3v95l-88 -83q-80 24 -113 81q-26 48 -26 93v7q0 113 123 169q40 9 58 9q36 -2 46 -7v153q1 5 5 5h127q5 -1 5 -5v-301l216 213l2 -4v-54h46v146q1 5 5 5h128q4 -1 4 -5v-25q5 2 7 2q8 0 37 -9h5l21 18q-17 28 -23 31h-3
q-3 -3 -11 -21l-5 -3h-5q-3 0 -6 7v14q11 42 34 42q19 -9 19 -26q12 -13 25 -13q7 8 7 13q-18 27 -18 35v7q2 7 14 7q11 -8 28 -32q30 0 30 34q4 19 9 19h7q7 0 32 -21q2 0 14 -2q5 2 7 2v-2q28 0 28 16q0 37 14 37zM784 869q15 0 30 -28l-5 -2q-22 9 -30 23v2q1 5 5 5z
M897 660q2 0 2 -2q-8 0 -18 -26q-2 0 -2 -2l4 -7q-12 0 -30 -49h-2q0 3 -28 28h-30q-5 0 -5 5v146h-76v-146q0 -5 -5 -5h-26q-41 0 -76 -9v25q-4 0 -77 -76v-244h77v176q11 51 51 51h51q5 0 5 -4v-65q0 -125 90 -162h2l58 60q-74 16 -74 69v98q1 4 5 4h55q4 0 14 -69
q27 -77 70 -121q35 -38 60 -51q81 -41 121 -41q2 0 2 2l12 -2h21q31 0 41 7q4 -3 10 -3q0 3 46 19q0 10 23 11q0 3 19 12v-2q41 28 41 32q41 43 65 91q0 4 10 18q9 53 16 63q0 8 2 39l-2 5q5 9 5 14q-14 5 -14 21q0 7 7 7v6q-7 0 -7 5v5l2 4q-5 0 -5 5v5q0 2 3 2
q-17 49 -40 79q-18 36 -60 65q-26 27 -95 51q-41 9 -84 9h-2q-2 0 -2 2l-5 -2h-2q-3 0 -3 2q-30 0 -74 -27q0 -13 -53 -21q-62 -36 -72 -70q-9 -9 -21 -37zM1076 813v-2h7v2h-7zM310 753v-170q-50 19 -74 19q-109 0 -151 -118q-2 -23 -2 -35v-5q0 -91 100 -136h5l64 67h-2
l-16 -3q-77 13 -77 82q0 46 56 69q9 2 19 2h11q67 -16 67 -67v-125l77 74v346h-77zM1094 750h16q5 0 5 -4q-10 -19 -23 -23q-5 2 -7 2l-9 -12v-2h11q10 0 14 -30l-11 -7q-8 5 -12 5v-3q0 -3 19 -11q0 4 4 4q13 0 16 -9v-30q-15 -44 -44 -44q0 -3 -30 -7q-14 0 -55 53
q-3 4 -3 12q0 13 10 21q-5 0 -5 4q0 33 49 65l9 -2zM1136 750q17 0 19 -7v-2h-21q-5 0 -5 5zM818 743v-44q7 0 17 -2q11 3 11 7v5q-25 31 -25 34h-3zM1162 743q6 0 27 -9q17 0 30 -11q8 4 14 4l54 -41l11 -19v-2h-4q23 -20 23 -26q0 -8 14 -32q0 -26 -12 -51v-26
q-11 -22 -58 -32q-48 -7 -48 -19l-24 -2h-4q-5 0 -10 16l-9 -9h-21l-11 -3q-5 8 -5 14v3h7v2q0 3 -7 7l-5 -2q-15 0 -18 20q-9 0 -9 14l16 14h4q5 0 5 -4q7 2 7 4q-2 5 -2 7l30 26l23 18h7q6 0 26 -9q2 3 2 12q-14 8 -14 11q-1 -2 -16 -2q0 2 18 37q-9 16 -9 28v5q5 9 12 9
q-3 4 -3 9l-11 -2h-5q-5 0 -16 18q-10 0 -16 12q7 6 7 11zM1122 741h2q6 -4 26 -7v-7q-33 3 -33 10q1 4 5 4zM1036 716q1 -5 5 -5v5h-5zM1025 646v-5h4q0 5 -4 5zM1215 567q-12 -16 -21 -16q1 -5 5 -5h4q0 11 21 17v2q-5 0 -9 2zM774 558l3 -5q0 -4 -5 -4l-2 4q0 5 4 5z
M1087 525q10 0 14 -20q23 -6 23 -19q-4 -11 -9 -12l-14 3q-14 -6 -74 -9q0 -5 -9 -5q-14 5 -14 9q9 19 25 19q2 0 14 -3q12 8 33 35zM419 435v-137h75v211q-4 0 -75 -74zM188 449q10 -46 46 -46q46 10 46 16v37q0 29 -41 39h-7q-37 0 -44 -46zM675 493v-2h4v2h-4zM642 470h5
v4q-5 0 -5 -4zM1296 472q9 -3 9 -7v-4q0 -5 -4 -5h-3q-3 0 -7 7zM649 465v-2h5v2h-5zM1001 468l3 -5v-2h-5v-5h2l10 5l11 -3q5 3 7 3q4 -10 7 -10h7q6 7 30 10q0 -4 10 -7l9 2q15 -7 37 -12l-2 -4v-3h2l7 5h14q12 -12 16 -12q5 3 7 3l2 -5v-5q0 -2 -9 -6q6 -14 9 -14
q-2 -19 -7 -19h-2l-4 2l-3 -4q5 0 9 -3q7 2 19 12q19 -16 19 -19v-4q-7 -12 -10 -12q-8 0 -21 9q0 -7 -2 -11q19 -10 19 -23q-24 -10 -28 -10q-37 15 -37 31l-5 -3h-2q-40 14 -40 40v2h3q7 -5 14 -5q-5 12 -7 12l-12 -7h-7q-16 8 -35 42q-5 9 -14 9l-7 5h-2l-7 -5l-11 2
q0 -7 -19 -7l7 -9v-7q0 -7 -9 -7l-12 3v11q18 23 30 28q-2 4 -2 7q7 5 11 5zM647 451h4v5q-4 -1 -4 -5zM1287 451h4q5 0 7 -14q-12 -27 -14 -27l3 -5v-12q7 0 11 -9v-2q0 -19 -18 -19q-6 0 -14 7q0 -32 -53 -42h-3q-14 6 -14 10v7q0 9 17 18l2 14q-5 0 -5 5q3 0 3 2
q-10 4 -10 7l-4 -2h-7q-14 8 -14 11v14q0 2 16 16h7q5 0 9 -18h7l-2 11l4 3h24q2 0 2 -3q10 2 42 28zM635 417v-5h5q0 5 -5 5zM988 417q13 -18 13 -33l-2 -5q2 -4 2 -7q-12 -16 -18 -16q-33 0 -33 26q5 2 7 2l-7 12q0 12 10 16h11l10 -9q0 14 7 14zM644 407q0 -2 -2 -7h7
q-2 5 -2 7h-3zM1238 403v-7h7v11h-2q-5 0 -5 -4zM644 398v-5h3v5h-3zM1277 382q-2 -5 -2 -7h7q5 0 5 4v3h-10zM1115 377v-5l7 -9q10 3 14 12h-5l-7 -5zM644 370l-2 -5v-2h7v2q0 5 -5 5zM649 354v-2h5v2h-5zM668 352v-5h2v5h-2zM658 347q1 -5 5 -5v5h-5zM665 338v-5h3v5h-3z
M918 287v-3q1 -4 5 -4v2q0 5 -5 5zM904 284q1 -4 5 -4v4h-5zM946 284v-4h2v4h-2zM895 277q4 -5 4 -11h3v9q-5 2 -7 2zM707 270h5q4 0 4 -4v-7q0 -5 -4 -5h-3q-3 0 -7 7v5q1 4 5 4zM967 263v-4h4v4h-4zM971 250v-7q5 2 7 2v2q-2 0 -7 3zM983 247v-4h9v2zM1053 247v-4h2v4h-2z
M955 245q0 -7 -7 -7v-2h9v9h-2zM1039 245v-2h4v2h-4zM1034 243v-5h2v5h-2zM941 233v-2q3 -5 3 -7q-3 0 -3 -2q3 0 7 -3q0 4 9 10q-8 0 -13 4h-3zM1057 226v-4h2v4h-2zM1106 212l4 -2v7q-4 -1 -4 -5zM1013 208l5 -3v7q-5 0 -5 -4zM1011 201v-7l4 -7h-7v-2h5q11 4 12 9l-10 7
h-4zM1199 171h14v4h-10q-4 0 -4 -4zM240 104h63q68 0 80 -76v-4q0 -60 -56 -79q-17 -4 -31 -4h-56q-4 0 -4 4v155q0 4 4 4zM401 104h26q4 -1 4 -4v-155q0 -4 -4 -4h-26q-5 0 -5 4v155q1 4 5 4zM451 104h67q59 -12 59 -59v-6q0 -34 -26 -55l15 -41l-5 -2h-28l-17 33h-35v-29
q0 -4 -4 -4h-26q-5 0 -5 4v155q1 4 5 4zM590 104h121q5 -1 5 -4v-26q0 -5 -5 -5h-43v-124q0 -4 -5 -4h-26q-4 0 -4 4v124h-43q-5 0 -5 5v26q1 4 5 4zM783 104q42 0 48 -50v-2q0 -40 -44 -76h46q4 -1 4 -5v-26q0 -4 -4 -4h-98q-4 0 -4 4v5q0 30 58 82q7 16 7 20v2q0 12 -9 15
h-11q-15 0 -15 -17h-28q-4 0 -4 4v2q0 33 39 46h15zM968 104q42 0 65 -33q0 -3 -22 -21h-2q-16 19 -35 19h-13q-39 -11 -39 -41v-13q0 -29 43 -39h11q13 0 35 21q12 -7 22 -23q-24 -33 -68 -33q-54 0 -78 67v13q0 66 72 83h9zM1120 104q65 0 82 -72v-11q0 -56 -63 -78
q-11 -2 -22 -2q-52 0 -76 63q-2 12 -2 24q16 76 81 76zM1365 102h2v-157q0 -4 -4 -4h-26q-4 0 -4 4v55h-3q-10 -21 -39 -57l-41 57v-55q0 -4 -4 -4h-24q-5 0 -5 4v155h3q71 -100 73 -100q57 84 72 102zM481 71v-63h35q26 6 26 24v13q0 26 -41 26h-20zM270 69v-93h35
q38 0 43 45v7q-7 41 -39 41h-39zM1074 30v-11q9 -43 43 -43h7q43 10 43 39v13q-9 41 -41 41h-13q-39 -13 -39 -39zM870 -18q14 0 17 -19v-2q0 -18 -21 -20q-9 0 -18 13v9q0 17 22 19zM155 -109h74q4 0 4 -4v-17q0 -5 -4 -5h-54v-21h45q5 -1 5 -5v-15q0 -4 -5 -4h-45v-44
q0 -4 -5 -4h-15q-4 0 -4 4v111q0 4 4 4zM294 -109q59 -11 59 -54v-6q0 -52 -61 -59q-47 0 -56 61q11 58 58 58zM435 -109h18q4 0 4 -4v-108q0 -5 -4 -5l-65 61v-59q0 -4 -5 -4h-15q-4 0 -4 4v111h4q32 -29 61 -56h2v56q1 4 4 4zM470 -109h87q4 0 4 -4v-17q0 -5 -4 -5h-30
v-89q0 -4 -5 -4h-17q-4 0 -4 4v89h-31q-4 0 -4 5v17q0 4 4 4zM611 -109q29 0 46 -17q0 -3 -15 -15q-20 6 -26 6h-5q-19 0 -19 -10q0 -11 43 -13q24 -14 24 -35q0 -29 -48 -35q-41 7 -41 15v2q9 16 15 16q11 -7 22 -7h13q11 0 13 7v6q0 6 -48 13q-17 13 -17 26v9q0 25 43 32z
M761 -109q31 -5 31 -26v-2q0 -16 -20 -24q4 -10 9 -11h19q5 0 5 -6t-5 -22q4 0 22 -26l-4 -2h-22l-11 9q-14 -9 -24 -9q-41 8 -41 37q0 21 20 35q-7 11 -7 17v7q0 17 28 23zM892 -109h26q76 0 76 -60q0 -34 -29 -50q-15 -9 -39 -9h-34q-5 0 -5 4v111q1 4 5 4zM1007 -109h76
q4 0 4 -4v-17q0 -5 -4 -5h-55v-21h44q4 -1 4 -5v-15q0 -4 -4 -4h-44v-22h55q4 -1 4 -4v-18q0 -4 -4 -4h-76q-5 0 -5 4v111q1 4 5 4zM1141 -109q46 -7 46 -17q0 -3 -15 -15q-21 6 -33 6h-2q-12 0 -15 -8v-5q0 -7 48 -13q17 -13 17 -26v-8q0 -28 -48 -33q-24 0 -41 15v2
q11 16 17 16q11 -7 22 -7h11q15 0 15 11q0 10 -50 15q-17 16 -17 33q0 27 45 34zM1202 -109h15q5 0 5 -4v-111q0 -4 -5 -4h-15q-4 0 -4 4v111q1 4 4 4zM1291 -109q34 0 52 -30v-4q-8 -11 -19 -11h-2q-6 19 -31 19q-32 -4 -32 -28v-9q0 -30 30 -30h9q12 0 17 9q-24 0 -24 4
v17q1 5 5 5h50q4 -1 4 -5v-4q0 -42 -59 -52q-53 0 -58 61q7 58 58 58zM1432 -109h16q4 0 4 -4v-108q0 -5 -4 -5q-3 6 -61 59h-2v-57q0 -4 -5 -4h-15q-4 0 -4 4v111h2q15 -12 65 -59v59q1 4 4 4zM759 -132v-9h2q5 0 5 4v5h-7zM262 -163v-11q7 -28 28 -28h9q25 0 30 37
q0 24 -35 30h-2q-30 -7 -30 -28zM911 -135v-67h28q29 7 29 28v11q0 24 -35 28h-22zM750 -176l-4 -15q0 -13 15 -13h5q4 0 4 4q-17 24 -20 24z" />
    <glyph glyph-name="backslash" unicode="\" horiz-adv-x="734" 
d="M45 1070h214l430 -1071h-214z" />
    <glyph glyph-name="bracketright" unicode="]" horiz-adv-x="1602" 
d="M257 1393q47 -3 59 -39q-20 -13 -24 -13q-8 24 -35 24h-2q-35 -5 -35 -35v-9q0 -26 37 -32q17 0 26 11h-24q-4 0 -4 4v19q1 5 4 5h59q4 -1 4 -5q-10 -60 -58 -60h-15q-48 0 -57 65q8 65 65 65zM338 1393h82q5 -1 5 -4v-20q0 -4 -5 -4h-58v-24h47q5 -1 5 -4v-20
q0 -4 -5 -4h-47v-24h58q5 -1 5 -5v-17q0 -4 -5 -4h-82q-5 0 -5 4v122q1 4 5 4zM440 1393h95q5 -1 5 -4v-20q0 -4 -5 -4h-32v-98q0 -4 -5 -4h-19q-5 0 -5 4v98h-34q-5 0 -5 4v20q1 4 5 4zM616 1393h95q5 -1 5 -4v-20q0 -4 -5 -4h-34v-98q0 -4 -5 -4h-19q-5 0 -5 4v98h-32
q-5 0 -5 4v20q1 4 5 4zM731 1393h19q5 -1 5 -4v-48h48v48q0 4 4 4h19q5 -1 5 -4v-122q0 -4 -5 -4h-19q-4 0 -4 4v46h-48v-46q0 -4 -5 -4h-19q-5 0 -5 4v122q1 4 5 4zM846 1393h82q5 -1 5 -4v-20q0 -4 -5 -4h-58v-24h48q4 -1 4 -4v-20q0 -4 -4 -4h-48v-24h58q5 -1 5 -5v-17
q0 -4 -5 -4h-82q-4 0 -4 4v122q0 4 4 4zM1009 1393h82q5 -1 5 -4v-20q0 -4 -5 -4h-60v-24h50q4 -1 4 -4v-20q0 -4 -4 -4h-50v-46q0 -4 -5 -4h-17q-4 0 -4 4v122q0 4 4 4zM1111 1393h20q4 -1 4 -4v-79q0 -16 24 -21q24 5 24 21v79q0 4 4 4h20q4 -1 4 -4v-72q-6 -54 -46 -54
h-13q-37 0 -45 50v76q0 4 4 4zM1226 1393h20q4 -1 4 -4v-100h54q5 -1 5 -5v-17q0 -4 -5 -4h-78q-4 0 -4 4v122q0 4 4 4zM1324 1393h19q5 -1 5 -4v-100h54q4 -1 4 -5v-17q0 -4 -4 -4h-78q-4 0 -4 4v122q0 4 4 4zM522 1243h35q65 0 65 -56q0 -24 -22 -39q11 -29 11 -33v-4h-24
q-5 0 -10 26h-33v-22q0 -4 -4 -4h-18q-4 0 -4 4v124q1 4 4 4zM296 1241h24q5 0 26 -63h2q21 63 27 63h23l5 -2q-52 -118 -52 -124h-7q0 5 -52 124zM418 1241h85q4 -1 4 -4v-18q0 -4 -4 -4h-61v-24h50q4 -1 4 -4v-20q0 -4 -4 -4h-50v-24h61q4 -1 4 -5v-19q0 -4 -4 -4h-85
q-4 0 -4 4v122q0 4 4 4zM674 1241h13q32 0 44 -17q-14 -18 -20 -18q-9 7 -30 9q-22 -3 -22 -11v-4q0 -8 50 -13q24 -15 24 -35q0 -34 -50 -41q-50 7 -50 19q0 3 17 18q16 -9 35 -9q20 3 20 9v6q0 8 -50 13q-24 17 -24 35q0 32 43 39zM748 1241h20q4 -1 4 -4v-122q0 -4 -4 -4
h-20q-4 0 -4 4v122q1 4 4 4zM855 1241q45 0 58 -63q-12 -67 -65 -67q-65 10 -65 65v2q0 44 50 63h22zM1002 1241h20q4 -1 4 -4v-120q0 -4 -4 -4q0 3 -72 67v-65q0 -4 -4 -4h-18q-4 0 -4 4v124h2l72 -65v63q1 4 4 4zM1207 1241h95q4 -1 4 -4v-18q0 -4 -4 -4h-32v-100
q0 -4 -5 -4h-19q-5 0 -5 4v100h-34q-5 0 -5 4v18q1 4 5 4zM1161 1239q6 0 63 -126v-2h-26l-13 19h-48q-11 -19 -13 -19h-26v2q3 17 63 126zM544 1215v-50h24q26 2 26 22v6q0 19 -28 22h-22zM809 1178q6 -39 39 -39q32 0 37 41q0 28 -39 35q-37 -9 -37 -37zM1148 1158h26v3
q-11 20 -11 23q-4 0 -15 -26zM83 1091h9q48 -7 48 -17q0 -3 -17 -18q-21 7 -27 7h-15q-13 -2 -13 -7v-8q0 -5 52 -13q20 -13 20 -33v-2q0 -33 -48 -39h-4q-31 0 -48 19l17 15q21 -6 33 -6h6q11 0 18 11q0 15 -46 15q-28 14 -28 33v4q0 33 43 39zM155 1091h20q4 -1 4 -4v-122
q0 -4 -4 -4h-20q-4 0 -4 4v122q0 4 4 4zM255 1091q34 0 52 -26q0 -3 -17 -17h-2q-16 15 -26 15h-13q-25 0 -31 -35v-6q9 -33 33 -33h6q17 0 33 17l15 -17v-4q-20 -24 -52 -24q-63 11 -63 67q0 54 65 63zM322 1091h20q4 -1 4 -4v-42q2 0 46 46h28q5 -1 5 -4q-4 0 -59 -61
l59 -63l-5 -2h-28l-46 45v-41q0 -4 -4 -4h-20q-4 0 -4 4v122q1 4 4 4zM477 1091q38 0 50 -28l-18 -15q-15 15 -26 15h-13q-30 -9 -30 -31v-13q0 -24 34 -30h7q14 0 28 17q3 0 18 -17v-2q-19 -26 -53 -26q-53 0 -63 65v6q0 46 61 59h5zM674 1091h52q43 0 50 -52
q-7 -52 -52 -52h-26v-22q0 -4 -4 -4h-20q-4 0 -4 4v122q1 4 4 4zM792 1091h17q4 -1 4 -4v-122q0 -4 -4 -4h-17q-5 0 -5 4v122q1 4 5 4zM829 1091h97q5 -1 5 -4v-20q0 -4 -5 -4h-34v-98q0 -4 -5 -4h-19q-5 0 -5 4v98h-34q-5 0 -5 4v20q1 4 5 4zM1052 1091h20q4 -1 4 -4v-98
h55q4 -1 4 -4v-20q0 -4 -4 -4h-79q-4 0 -4 4v122q1 4 4 4zM1241 1091h7q25 0 45 -26q0 -3 -17 -17h-2q-16 15 -26 15h-13q-24 0 -31 -35v-6q10 -33 33 -33h6q17 0 33 17l15 -17v-4q-19 -24 -50 -24q-56 0 -65 69q0 40 48 59q8 2 17 2zM1363 1091q65 -9 65 -65q0 -55 -67 -65
q-44 0 -61 50q-2 8 -2 17q0 54 65 63zM592 1089h6q29 -62 61 -126l-4 -2h-24q-5 0 -9 17h-54q-4 -17 -9 -17h-24q-4 0 -4 4q61 120 61 124zM970 1089h2q4 -2 65 -126l-4 -2h-24q-6 0 -9 17h-52l-13 -17h-26q0 4 61 128zM1439 1089h4q49 -76 57 -81q43 62 54 81h4v-124
q0 -4 -4 -4h-19q-5 0 -5 4v39q-10 -7 -28 -41h-2l-33 41v-39q0 -4 -4 -4h-20q-4 0 -4 4v124zM698 1063v-48h28q20 0 22 26q-3 22 -22 22h-28zM1326 1032v-8q7 -35 33 -35h8q33 9 33 33v6q-7 35 -31 35h-13q-30 -9 -30 -31zM594 1035q-11 -25 -11 -27h24v3q-11 20 -11 24h-2z
M959 1008h26v3q-11 20 -11 24q-4 0 -15 -27zM1161 993h6q11 -6 11 -17q-6 -15 -19 -15q-9 3 -13 11v6q0 15 15 15zM1085 908q10 -1 16 -21l-4 -23q10 -5 30 -5h2q15 0 33 35l11 3h2q6 0 10 -24h-3q0 -25 24 -25h4l26 23h7q11 -7 11 -16q0 -4 -4 -14q0 -13 16 -16l11 7l-2 4
q0 3 19 12h7q34 -30 34 -35l-11 -32q9 -18 16 -21h12q15 12 41 21h7q10 -4 10 -21q-24 -24 -28 -33v-4q2 -7 14 -7q12 7 35 11h6l10 -11q3 0 7 7v4q-5 0 -5 5l-5 -2q-4 0 -4 4l-5 -2h-4q-5 0 -5 5v9h2l5 -3q4 3 7 3q2 -9 11 -9q0 2 3 2q4 -10 4 -14h14l-2 -12l2 -14
q-5 -10 -25 -32h-3l-7 5h-2q-6 0 -9 -31q4 -32 16 -32q3 0 7 2q38 0 49 -25q0 -5 -28 -28v-7q0 -5 37 -12l5 -7q0 -12 -10 -16q-29 3 -32 5q-5 -2 -7 -2q0 -40 14 -40q7 0 16 -2l14 7l12 -3l4 3q7 0 17 -16v-5q0 -3 -12 -12h-9q-6 0 -28 7q-37 0 -37 -32h-3q3 -5 3 -7l4 2
q10 -4 17 -4q2 0 2 2l12 -2h25q14 -2 14 -7v-10q0 -4 -16 -7q-11 5 -23 5q-10 -11 -14 -21l20 -28v-2l-9 -9q-43 11 -49 11q-8 -2 -18 -28q10 -28 32 -44l7 -11v-12q0 -3 -7 -7h-9q-16 12 -25 28q-4 0 -10 5h-7q-6 -10 -41 -14l-26 -21q0 -13 30 -33l3 -11q-11 -9 -17 -9
q0 3 -23 9q-5 11 -23 23q-26 -10 -26 -14q0 -6 7 -30l-9 -7h-9q-8 0 -40 30h-2q-2 0 -9 -9q3 -13 9 -26q-5 -16 -9 -16h-2l-31 28h-7q-4 -21 -20 -21q-23 15 -33 40h-5q-3 0 -7 -7q10 0 10 -5t-5 -5t-5 7h-2q0 -14 -16 -25h-9q-6 0 -14 37l-21 9q-11 -2 -26 -30q-5 -5 -9 -5
q-6 0 -12 12q5 18 7 18q0 17 -30 24l-2 4q-3 0 -30 -23q-5 0 -5 5q3 0 3 2q-7 0 -7 5v4q0 6 7 28v2q0 4 -10 10q-13 0 -25 -10h-12q-3 0 -11 12q11 23 11 30q-9 24 -9 30h2q-2 5 -2 7q-77 -76 -81 -76q-11 1 -37 16q-5 -2 -7 -2q-46 0 -72 18q-23 0 -23 26q-6 13 -31 28v11
h-2v-83q0 -5 -5 -5h-236q-5 0 -5 5v92l-106 -104h-3v95l-88 -83q-80 24 -113 81q-26 48 -26 93v7q0 113 123 169q40 9 58 9q36 -2 46 -7v153q1 5 5 5h127q5 -1 5 -5v-301l216 213l2 -4v-54h46v146q1 5 5 5h128q4 -1 4 -5v-25q5 2 7 2q8 0 37 -9h5l21 18q-17 28 -23 31h-3
q-3 -3 -11 -21l-5 -3h-5q-3 0 -6 7v14q11 42 34 42q19 -9 19 -26q12 -13 25 -13q7 8 7 13q-18 27 -18 35v7q2 7 14 7q11 -8 28 -32q30 0 30 34q4 19 9 19h7q7 0 32 -21q2 0 14 -2q5 2 7 2v-2q28 0 28 16q0 37 14 37zM784 869q15 0 30 -28l-5 -2q-22 9 -30 23v2q1 5 5 5z
M897 660q2 0 2 -2q-8 0 -18 -26q-2 0 -2 -2l4 -7q-12 0 -30 -49h-2q0 3 -28 28h-30q-5 0 -5 5v146h-76v-146q0 -5 -5 -5h-26q-41 0 -76 -9v25q-4 0 -77 -76v-244h77v176q11 51 51 51h51q5 0 5 -4v-65q0 -125 90 -162h2l58 60q-74 16 -74 69v98q1 4 5 4h55q4 0 14 -69
q27 -77 70 -121q35 -38 60 -51q81 -41 121 -41q2 0 2 2l12 -2h21q31 0 41 7q4 -3 10 -3q0 3 46 19q0 10 23 11q0 3 19 12v-2q41 28 41 32q41 43 65 91q0 4 10 18q9 53 16 63q0 8 2 39l-2 5q5 9 5 14q-14 5 -14 21q0 7 7 7v6q-7 0 -7 5v5l2 4q-5 0 -5 5v5q0 2 3 2
q-17 49 -40 79q-18 36 -60 65q-26 27 -95 51q-41 9 -84 9h-2q-2 0 -2 2l-5 -2h-2q-3 0 -3 2q-30 0 -74 -27q0 -13 -53 -21q-62 -36 -72 -70q-9 -9 -21 -37zM1076 813v-2h7v2h-7zM310 753v-170q-50 19 -74 19q-109 0 -151 -118q-2 -23 -2 -35v-5q0 -91 100 -136h5l64 67h-2
l-16 -3q-77 13 -77 82q0 46 56 69q9 2 19 2h11q67 -16 67 -67v-125l77 74v346h-77zM1094 750h16q5 0 5 -4q-10 -19 -23 -23q-5 2 -7 2l-9 -12v-2h11q10 0 14 -30l-11 -7q-8 5 -12 5v-3q0 -3 19 -11q0 4 4 4q13 0 16 -9v-30q-15 -44 -44 -44q0 -3 -30 -7q-14 0 -55 53
q-3 4 -3 12q0 13 10 21q-5 0 -5 4q0 33 49 65l9 -2zM1136 750q17 0 19 -7v-2h-21q-5 0 -5 5zM818 743v-44q7 0 17 -2q11 3 11 7v5q-25 31 -25 34h-3zM1162 743q6 0 27 -9q17 0 30 -11q8 4 14 4l54 -41l11 -19v-2h-4q23 -20 23 -26q0 -8 14 -32q0 -26 -12 -51v-26
q-11 -22 -58 -32q-48 -7 -48 -19l-24 -2h-4q-5 0 -10 16l-9 -9h-21l-11 -3q-5 8 -5 14v3h7v2q0 3 -7 7l-5 -2q-15 0 -18 20q-9 0 -9 14l16 14h4q5 0 5 -4q7 2 7 4q-2 5 -2 7l30 26l23 18h7q6 0 26 -9q2 3 2 12q-14 8 -14 11q-1 -2 -16 -2q0 2 18 37q-9 16 -9 28v5q5 9 12 9
q-3 4 -3 9l-11 -2h-5q-5 0 -16 18q-10 0 -16 12q7 6 7 11zM1122 741h2q6 -4 26 -7v-7q-33 3 -33 10q1 4 5 4zM1036 716q1 -5 5 -5v5h-5zM1025 646v-5h4q0 5 -4 5zM1215 567q-12 -16 -21 -16q1 -5 5 -5h4q0 11 21 17v2q-5 0 -9 2zM774 558l3 -5q0 -4 -5 -4l-2 4q0 5 4 5z
M1087 525q10 0 14 -20q23 -6 23 -19q-4 -11 -9 -12l-14 3q-14 -6 -74 -9q0 -5 -9 -5q-14 5 -14 9q9 19 25 19q2 0 14 -3q12 8 33 35zM419 435v-137h75v211q-4 0 -75 -74zM188 449q10 -46 46 -46q46 10 46 16v37q0 29 -41 39h-7q-37 0 -44 -46zM675 493v-2h4v2h-4zM642 470h5
v4q-5 0 -5 -4zM1296 472q9 -3 9 -7v-4q0 -5 -4 -5h-3q-3 0 -7 7zM649 465v-2h5v2h-5zM1001 468l3 -5v-2h-5v-5h2l10 5l11 -3q5 3 7 3q4 -10 7 -10h7q6 7 30 10q0 -4 10 -7l9 2q15 -7 37 -12l-2 -4v-3h2l7 5h14q12 -12 16 -12q5 3 7 3l2 -5v-5q0 -2 -9 -6q6 -14 9 -14
q-2 -19 -7 -19h-2l-4 2l-3 -4q5 0 9 -3q7 2 19 12q19 -16 19 -19v-4q-7 -12 -10 -12q-8 0 -21 9q0 -7 -2 -11q19 -10 19 -23q-24 -10 -28 -10q-37 15 -37 31l-5 -3h-2q-40 14 -40 40v2h3q7 -5 14 -5q-5 12 -7 12l-12 -7h-7q-16 8 -35 42q-5 9 -14 9l-7 5h-2l-7 -5l-11 2
q0 -7 -19 -7l7 -9v-7q0 -7 -9 -7l-12 3v11q18 23 30 28q-2 4 -2 7q7 5 11 5zM647 451h4v5q-4 -1 -4 -5zM1287 451h4q5 0 7 -14q-12 -27 -14 -27l3 -5v-12q7 0 11 -9v-2q0 -19 -18 -19q-6 0 -14 7q0 -32 -53 -42h-3q-14 6 -14 10v7q0 9 17 18l2 14q-5 0 -5 5q3 0 3 2
q-10 4 -10 7l-4 -2h-7q-14 8 -14 11v14q0 2 16 16h7q5 0 9 -18h7l-2 11l4 3h24q2 0 2 -3q10 2 42 28zM635 417v-5h5q0 5 -5 5zM988 417q13 -18 13 -33l-2 -5q2 -4 2 -7q-12 -16 -18 -16q-33 0 -33 26q5 2 7 2l-7 12q0 12 10 16h11l10 -9q0 14 7 14zM644 407q0 -2 -2 -7h7
q-2 5 -2 7h-3zM1238 403v-7h7v11h-2q-5 0 -5 -4zM644 398v-5h3v5h-3zM1277 382q-2 -5 -2 -7h7q5 0 5 4v3h-10zM1115 377v-5l7 -9q10 3 14 12h-5l-7 -5zM644 370l-2 -5v-2h7v2q0 5 -5 5zM649 354v-2h5v2h-5zM668 352v-5h2v5h-2zM658 347q1 -5 5 -5v5h-5zM665 338v-5h3v5h-3z
M918 287v-3q1 -4 5 -4v2q0 5 -5 5zM904 284q1 -4 5 -4v4h-5zM946 284v-4h2v4h-2zM895 277q4 -5 4 -11h3v9q-5 2 -7 2zM707 270h5q4 0 4 -4v-7q0 -5 -4 -5h-3q-3 0 -7 7v5q1 4 5 4zM967 263v-4h4v4h-4zM971 250v-7q5 2 7 2v2q-2 0 -7 3zM983 247v-4h9v2zM1053 247v-4h2v4h-2z
M955 245q0 -7 -7 -7v-2h9v9h-2zM1039 245v-2h4v2h-4zM1034 243v-5h2v5h-2zM941 233v-2q3 -5 3 -7q-3 0 -3 -2q3 0 7 -3q0 4 9 10q-8 0 -13 4h-3zM1057 226v-4h2v4h-2zM1106 212l4 -2v7q-4 -1 -4 -5zM1013 208l5 -3v7q-5 0 -5 -4zM1011 201v-7l4 -7h-7v-2h5q11 4 12 9l-10 7
h-4zM1199 171h14v4h-10q-4 0 -4 -4zM240 104h63q68 0 80 -76v-4q0 -60 -56 -79q-17 -4 -31 -4h-56q-4 0 -4 4v155q0 4 4 4zM401 104h26q4 -1 4 -4v-155q0 -4 -4 -4h-26q-5 0 -5 4v155q1 4 5 4zM451 104h67q59 -12 59 -59v-6q0 -34 -26 -55l15 -41l-5 -2h-28l-17 33h-35v-29
q0 -4 -4 -4h-26q-5 0 -5 4v155q1 4 5 4zM590 104h121q5 -1 5 -4v-26q0 -5 -5 -5h-43v-124q0 -4 -5 -4h-26q-4 0 -4 4v124h-43q-5 0 -5 5v26q1 4 5 4zM783 104q42 0 48 -50v-2q0 -40 -44 -76h46q4 -1 4 -5v-26q0 -4 -4 -4h-98q-4 0 -4 4v5q0 30 58 82q7 16 7 20v2q0 12 -9 15
h-11q-15 0 -15 -17h-28q-4 0 -4 4v2q0 33 39 46h15zM968 104q42 0 65 -33q0 -3 -22 -21h-2q-16 19 -35 19h-13q-39 -11 -39 -41v-13q0 -29 43 -39h11q13 0 35 21q12 -7 22 -23q-24 -33 -68 -33q-54 0 -78 67v13q0 66 72 83h9zM1120 104q65 0 82 -72v-11q0 -56 -63 -78
q-11 -2 -22 -2q-52 0 -76 63q-2 12 -2 24q16 76 81 76zM1365 102h2v-157q0 -4 -4 -4h-26q-4 0 -4 4v55h-3q-10 -21 -39 -57l-41 57v-55q0 -4 -4 -4h-24q-5 0 -5 4v155h3q71 -100 73 -100q57 84 72 102zM481 71v-63h35q26 6 26 24v13q0 26 -41 26h-20zM270 69v-93h35
q38 0 43 45v7q-7 41 -39 41h-39zM1074 30v-11q9 -43 43 -43h7q43 10 43 39v13q-9 41 -41 41h-13q-39 -13 -39 -39zM870 -18q14 0 17 -19v-2q0 -18 -21 -20q-9 0 -18 13v9q0 17 22 19zM155 -109h74q4 0 4 -4v-17q0 -5 -4 -5h-54v-21h45q5 -1 5 -5v-15q0 -4 -5 -4h-45v-44
q0 -4 -5 -4h-15q-4 0 -4 4v111q0 4 4 4zM294 -109q59 -11 59 -54v-6q0 -52 -61 -59q-47 0 -56 61q11 58 58 58zM435 -109h18q4 0 4 -4v-108q0 -5 -4 -5l-65 61v-59q0 -4 -5 -4h-15q-4 0 -4 4v111h4q32 -29 61 -56h2v56q1 4 4 4zM470 -109h87q4 0 4 -4v-17q0 -5 -4 -5h-30
v-89q0 -4 -5 -4h-17q-4 0 -4 4v89h-31q-4 0 -4 5v17q0 4 4 4zM611 -109q29 0 46 -17q0 -3 -15 -15q-20 6 -26 6h-5q-19 0 -19 -10q0 -11 43 -13q24 -14 24 -35q0 -29 -48 -35q-41 7 -41 15v2q9 16 15 16q11 -7 22 -7h13q11 0 13 7v6q0 6 -48 13q-17 13 -17 26v9q0 25 43 32z
M761 -109q31 -5 31 -26v-2q0 -16 -20 -24q4 -10 9 -11h19q5 0 5 -6t-5 -22q4 0 22 -26l-4 -2h-22l-11 9q-14 -9 -24 -9q-41 8 -41 37q0 21 20 35q-7 11 -7 17v7q0 17 28 23zM892 -109h26q76 0 76 -60q0 -34 -29 -50q-15 -9 -39 -9h-34q-5 0 -5 4v111q1 4 5 4zM1007 -109h76
q4 0 4 -4v-17q0 -5 -4 -5h-55v-21h44q4 -1 4 -5v-15q0 -4 -4 -4h-44v-22h55q4 -1 4 -4v-18q0 -4 -4 -4h-76q-5 0 -5 4v111q1 4 5 4zM1141 -109q46 -7 46 -17q0 -3 -15 -15q-21 6 -33 6h-2q-12 0 -15 -8v-5q0 -7 48 -13q17 -13 17 -26v-8q0 -28 -48 -33q-24 0 -41 15v2
q11 16 17 16q11 -7 22 -7h11q15 0 15 11q0 10 -50 15q-17 16 -17 33q0 27 45 34zM1202 -109h15q5 0 5 -4v-111q0 -4 -5 -4h-15q-4 0 -4 4v111q1 4 4 4zM1291 -109q34 0 52 -30v-4q-8 -11 -19 -11h-2q-6 19 -31 19q-32 -4 -32 -28v-9q0 -30 30 -30h9q12 0 17 9q-24 0 -24 4
v17q1 5 5 5h50q4 -1 4 -5v-4q0 -42 -59 -52q-53 0 -58 61q7 58 58 58zM1432 -109h16q4 0 4 -4v-108q0 -5 -4 -5q-3 6 -61 59h-2v-57q0 -4 -5 -4h-15q-4 0 -4 4v111h2q15 -12 65 -59v59q1 4 4 4zM759 -132v-9h2q5 0 5 4v5h-7zM262 -163v-11q7 -28 28 -28h9q25 0 30 37
q0 24 -35 30h-2q-30 -7 -30 -28zM911 -135v-67h28q29 7 29 28v11q0 24 -35 28h-22zM750 -176l-4 -15q0 -13 15 -13h5q4 0 4 4q-17 24 -20 24z" />
    <glyph glyph-name="asciicircum" unicode="^" horiz-adv-x="541" 
d="M45 856l225 223l226 -223l-102 -101l-124 127l-127 -127z" />
    <glyph glyph-name="underscore" unicode="_" horiz-adv-x="997" 
d="M45 212h907v-213h-907v213z" />
    <glyph glyph-name="grave" unicode="`" horiz-adv-x="497" 
d="M392 1113l-347 151l58 138l349 -150z" />
    <glyph glyph-name="a" unicode="a" horiz-adv-x="1037" 
d="M635 331l-117 234l-117 -234h234zM998 -1h-226l-54 135h-403l-55 -135h-226l484 964z" />
    <glyph glyph-name="b" unicode="b" horiz-adv-x="879" 
d="M247 579h194q96 2 96 96q0 95 -96 95h-194v-191zM247 191h288q99 3 99 96q0 99 -97 99h-290v-195zM54 -1v964h387q104 0 187 -65q102 -78 102 -223q0 -81 -34 -143q130 -78 130 -245q0 -143 -101 -223q-81 -65 -188 -65h-483z" />
    <glyph glyph-name="c" unicode="c" horiz-adv-x="971" 
d="M918 191q-146 -192 -386 -192q-199 0 -343 141q-140 143 -140 342q0 200 140 341q144 140 343 140q240 0 386 -193l-138 -137q-87 137 -248 137q-119 0 -205 -85q-85 -83 -85 -203q0 -119 85 -205q86 -86 205 -86q161 0 248 140z" />
    <glyph glyph-name="d" unicode="d" horiz-adv-x="980" 
d="M445 191q70 0 143 37q146 73 146 254q0 180 -146 252q-73 36 -143 36h-194v-579h194zM445 963q120 0 239 -59q243 -120 243 -422q0 -301 -243 -423q-119 -60 -239 -60h-387v964h387z" />
    <glyph glyph-name="e" unicode="e" horiz-adv-x="786" 
d="M730 963v-193h-483v-191h405v-193h-405v-195h483v-192h-676v964h676z" />
    <glyph glyph-name="f" unicode="f" horiz-adv-x="786" 
d="M730 963v-193h-483v-191h405v-193h-405v-387h-193v964h676z" />
    <glyph glyph-name="g" unicode="g" horiz-adv-x="1063" 
d="M1013 482q0 -301 -239 -423q-122 -60 -242 -60q-301 0 -424 241q-59 120 -59 242q0 120 59 242q123 239 424 239q325 0 437 -275l-166 -102q-65 184 -271 184q-181 0 -254 -144q-36 -71 -36 -144q0 -72 36 -145q73 -146 254 -146q138 0 224 96h-224v195h481z" />
    <glyph glyph-name="h" unicode="h" horiz-adv-x="879" 
d="M826 963v-964h-192v387h-387v-387h-193v964h193v-384h387v384h192z" />
    <glyph glyph-name="i" unicode="i" horiz-adv-x="300" 
d="M247 963v-964h-193v964h193z" />
    <glyph glyph-name="j" unicode="j" horiz-adv-x="592" 
d="M537 963v-577q0 -99 -49 -195q-96 -192 -338 -192h-96v192h96q123 0 170 96q23 50 23 99v577h194z" />
    <glyph glyph-name="k" unicode="k" horiz-adv-x="887" 
d="M849 963l-460 -483l460 -481h-258l-345 364v-364h-193v964h193v-366l345 366h258z" />
    <glyph glyph-name="l" unicode="l" horiz-adv-x="746" 
d="M247 963v-772h444v-192h-637v964h193z" />
    <glyph glyph-name="m" unicode="m" horiz-adv-x="998" 
d="M499 327l444 636v-964h-195v366l-249 -366l-252 366v-366h-193v964z" />
    <glyph glyph-name="n" unicode="n" horiz-adv-x="861" 
d="M54 -1v964l559 -519v519h195v-964l-561 522v-522h-193z" />
    <glyph glyph-name="o" unicode="o" horiz-adv-x="1073" 
d="M332 277q86 -86 205 -86q120 0 203 86q86 86 86 205q0 120 -86 203q-83 85 -203 85q-119 0 -205 -85q-85 -83 -85 -203q0 -119 85 -205zM194 823q144 140 343 140q201 0 341 -140q140 -141 140 -341q0 -199 -140 -342q-140 -141 -341 -141q-199 0 -343 141
q-140 143 -140 342q0 200 140 341z" />
    <glyph glyph-name="p" unicode="p" horiz-adv-x="879" 
d="M441 386q47 0 96 24q97 46 97 169q0 119 -97 168q-49 23 -96 23h-194v-384h194zM441 963q96 0 193 -47q192 -96 192 -337q0 -242 -192 -339q-97 -49 -193 -49h-194v-192h-193v964h387z" />
    <glyph glyph-name="q" unicode="q" horiz-adv-x="1073" 
d="M537 194q65 0 125 28l-119 120l135 135l119 -120q29 61 29 125q0 120 -86 206q-83 83 -203 86q-119 -3 -205 -86q-85 -86 -85 -206q0 -119 85 -205q86 -83 205 -83zM1018 482q0 -145 -77 -264l77 -81l-135 -138l-80 80q-120 -80 -266 -80q-199 0 -343 143
q-140 141 -140 340q0 200 140 341q144 143 343 143q201 0 341 -143q140 -141 140 -341z" />
    <glyph glyph-name="r" unicode="r" horiz-adv-x="879" 
d="M441 386q47 0 96 24q97 49 97 169q0 121 -97 168q-49 26 -96 26h-194v-387h194zM826 579q0 -216 -158 -318l95 -262h-205l-73 197q-28 -2 -44 -2h-194v-195h-193v967h387q96 0 193 -50q192 -96 192 -337z" />
    <glyph glyph-name="s" unicode="s" horiz-adv-x="852" 
d="M156 56q-66 31 -102 65l67 70l65 73q19 -18 52 -34q83 -39 188 -39q167 0 181 92v4q0 26 -19 50q-44 49 -162 49q-207 0 -305 114q-68 73 -68 170q0 18 3 36q15 114 114 187q101 70 256 70q148 0 270 -57q65 -31 101 -65l-132 -141q0 6 -52 32q-83 38 -187 38
q-168 0 -179 -88v-12q0 -24 17 -42q44 -49 162 -49q206 0 307 -115q65 -75 65 -169q0 -20 -2 -38q-13 -115 -115 -185q-101 -73 -255 -73q-149 0 -270 57z" />
    <glyph glyph-name="t" unicode="t" horiz-adv-x="879" 
d="M824 963v-192h-288v-772h-194v772h-288v192h770z" />
    <glyph glyph-name="u" unicode="u" horiz-adv-x="879" 
d="M824 963v-578q0 -96 -46 -192q-99 -194 -338 -194q-240 0 -336 194q-50 96 -50 192v578h193v-578q0 -49 25 -96q47 -96 168 -96q120 0 169 96q23 47 23 96v578h192z" />
    <glyph glyph-name="v" unicode="v" horiz-adv-x="914" 
d="M459 -1l-415 964h222l193 -495l191 495h223z" />
    <glyph glyph-name="w" unicode="w" horiz-adv-x="1205" 
d="M255 963l142 -418l203 418l201 -418l143 418h222l-340 -964l-226 550l-227 -550l-340 964h222z" />
    <glyph glyph-name="x" unicode="x" horiz-adv-x="918" 
d="M865 963l-286 -481l286 -483h-242l-163 288l-164 -288h-242l286 483l-286 481h242l164 -288l163 288h242z" />
    <glyph glyph-name="y" unicode="y" horiz-adv-x="1046" 
d="M1004 963l-385 -712v-252h-192v252l-387 712h242l241 -463l242 463h239z" />
    <glyph glyph-name="z" unicode="z" horiz-adv-x="883" 
d="M830 963l-444 -772h444v-192h-772l445 771h-445v193h772z" />
    <glyph glyph-name="braceleft" unicode="{" horiz-adv-x="1602" 
d="M257 1393q47 -3 59 -39q-20 -13 -24 -13q-8 24 -35 24h-2q-35 -5 -35 -35v-9q0 -26 37 -32q17 0 26 11h-24q-4 0 -4 4v19q1 5 4 5h59q4 -1 4 -5q-10 -60 -58 -60h-15q-48 0 -57 65q8 65 65 65zM338 1393h82q5 -1 5 -4v-20q0 -4 -5 -4h-58v-24h47q5 -1 5 -4v-20
q0 -4 -5 -4h-47v-24h58q5 -1 5 -5v-17q0 -4 -5 -4h-82q-5 0 -5 4v122q1 4 5 4zM440 1393h95q5 -1 5 -4v-20q0 -4 -5 -4h-32v-98q0 -4 -5 -4h-19q-5 0 -5 4v98h-34q-5 0 -5 4v20q1 4 5 4zM616 1393h95q5 -1 5 -4v-20q0 -4 -5 -4h-34v-98q0 -4 -5 -4h-19q-5 0 -5 4v98h-32
q-5 0 -5 4v20q1 4 5 4zM731 1393h19q5 -1 5 -4v-48h48v48q0 4 4 4h19q5 -1 5 -4v-122q0 -4 -5 -4h-19q-4 0 -4 4v46h-48v-46q0 -4 -5 -4h-19q-5 0 -5 4v122q1 4 5 4zM846 1393h82q5 -1 5 -4v-20q0 -4 -5 -4h-58v-24h48q4 -1 4 -4v-20q0 -4 -4 -4h-48v-24h58q5 -1 5 -5v-17
q0 -4 -5 -4h-82q-4 0 -4 4v122q0 4 4 4zM1009 1393h82q5 -1 5 -4v-20q0 -4 -5 -4h-60v-24h50q4 -1 4 -4v-20q0 -4 -4 -4h-50v-46q0 -4 -5 -4h-17q-4 0 -4 4v122q0 4 4 4zM1111 1393h20q4 -1 4 -4v-79q0 -16 24 -21q24 5 24 21v79q0 4 4 4h20q4 -1 4 -4v-72q-6 -54 -46 -54
h-13q-37 0 -45 50v76q0 4 4 4zM1226 1393h20q4 -1 4 -4v-100h54q5 -1 5 -5v-17q0 -4 -5 -4h-78q-4 0 -4 4v122q0 4 4 4zM1324 1393h19q5 -1 5 -4v-100h54q4 -1 4 -5v-17q0 -4 -4 -4h-78q-4 0 -4 4v122q0 4 4 4zM522 1243h35q65 0 65 -56q0 -24 -22 -39q11 -29 11 -33v-4h-24
q-5 0 -10 26h-33v-22q0 -4 -4 -4h-18q-4 0 -4 4v124q1 4 4 4zM296 1241h24q5 0 26 -63h2q21 63 27 63h23l5 -2q-52 -118 -52 -124h-7q0 5 -52 124zM418 1241h85q4 -1 4 -4v-18q0 -4 -4 -4h-61v-24h50q4 -1 4 -4v-20q0 -4 -4 -4h-50v-24h61q4 -1 4 -5v-19q0 -4 -4 -4h-85
q-4 0 -4 4v122q0 4 4 4zM674 1241h13q32 0 44 -17q-14 -18 -20 -18q-9 7 -30 9q-22 -3 -22 -11v-4q0 -8 50 -13q24 -15 24 -35q0 -34 -50 -41q-50 7 -50 19q0 3 17 18q16 -9 35 -9q20 3 20 9v6q0 8 -50 13q-24 17 -24 35q0 32 43 39zM748 1241h20q4 -1 4 -4v-122q0 -4 -4 -4
h-20q-4 0 -4 4v122q1 4 4 4zM855 1241q45 0 58 -63q-12 -67 -65 -67q-65 10 -65 65v2q0 44 50 63h22zM1002 1241h20q4 -1 4 -4v-120q0 -4 -4 -4q0 3 -72 67v-65q0 -4 -4 -4h-18q-4 0 -4 4v124h2l72 -65v63q1 4 4 4zM1207 1241h95q4 -1 4 -4v-18q0 -4 -4 -4h-32v-100
q0 -4 -5 -4h-19q-5 0 -5 4v100h-34q-5 0 -5 4v18q1 4 5 4zM1161 1239q6 0 63 -126v-2h-26l-13 19h-48q-11 -19 -13 -19h-26v2q3 17 63 126zM544 1215v-50h24q26 2 26 22v6q0 19 -28 22h-22zM809 1178q6 -39 39 -39q32 0 37 41q0 28 -39 35q-37 -9 -37 -37zM1148 1158h26v3
q-11 20 -11 23q-4 0 -15 -26zM83 1091h9q48 -7 48 -17q0 -3 -17 -18q-21 7 -27 7h-15q-13 -2 -13 -7v-8q0 -5 52 -13q20 -13 20 -33v-2q0 -33 -48 -39h-4q-31 0 -48 19l17 15q21 -6 33 -6h6q11 0 18 11q0 15 -46 15q-28 14 -28 33v4q0 33 43 39zM155 1091h20q4 -1 4 -4v-122
q0 -4 -4 -4h-20q-4 0 -4 4v122q0 4 4 4zM255 1091q34 0 52 -26q0 -3 -17 -17h-2q-16 15 -26 15h-13q-25 0 -31 -35v-6q9 -33 33 -33h6q17 0 33 17l15 -17v-4q-20 -24 -52 -24q-63 11 -63 67q0 54 65 63zM322 1091h20q4 -1 4 -4v-42q2 0 46 46h28q5 -1 5 -4q-4 0 -59 -61
l59 -63l-5 -2h-28l-46 45v-41q0 -4 -4 -4h-20q-4 0 -4 4v122q1 4 4 4zM477 1091q38 0 50 -28l-18 -15q-15 15 -26 15h-13q-30 -9 -30 -31v-13q0 -24 34 -30h7q14 0 28 17q3 0 18 -17v-2q-19 -26 -53 -26q-53 0 -63 65v6q0 46 61 59h5zM674 1091h52q43 0 50 -52
q-7 -52 -52 -52h-26v-22q0 -4 -4 -4h-20q-4 0 -4 4v122q1 4 4 4zM792 1091h17q4 -1 4 -4v-122q0 -4 -4 -4h-17q-5 0 -5 4v122q1 4 5 4zM829 1091h97q5 -1 5 -4v-20q0 -4 -5 -4h-34v-98q0 -4 -5 -4h-19q-5 0 -5 4v98h-34q-5 0 -5 4v20q1 4 5 4zM1052 1091h20q4 -1 4 -4v-98
h55q4 -1 4 -4v-20q0 -4 -4 -4h-79q-4 0 -4 4v122q1 4 4 4zM1241 1091h7q25 0 45 -26q0 -3 -17 -17h-2q-16 15 -26 15h-13q-24 0 -31 -35v-6q10 -33 33 -33h6q17 0 33 17l15 -17v-4q-19 -24 -50 -24q-56 0 -65 69q0 40 48 59q8 2 17 2zM1363 1091q65 -9 65 -65q0 -55 -67 -65
q-44 0 -61 50q-2 8 -2 17q0 54 65 63zM592 1089h6q29 -62 61 -126l-4 -2h-24q-5 0 -9 17h-54q-4 -17 -9 -17h-24q-4 0 -4 4q61 120 61 124zM970 1089h2q4 -2 65 -126l-4 -2h-24q-6 0 -9 17h-52l-13 -17h-26q0 4 61 128zM1439 1089h4q49 -76 57 -81q43 62 54 81h4v-124
q0 -4 -4 -4h-19q-5 0 -5 4v39q-10 -7 -28 -41h-2l-33 41v-39q0 -4 -4 -4h-20q-4 0 -4 4v124zM698 1063v-48h28q20 0 22 26q-3 22 -22 22h-28zM1326 1032v-8q7 -35 33 -35h8q33 9 33 33v6q-7 35 -31 35h-13q-30 -9 -30 -31zM594 1035q-11 -25 -11 -27h24v3q-11 20 -11 24h-2z
M959 1008h26v3q-11 20 -11 24q-4 0 -15 -27zM1161 993h6q11 -6 11 -17q-6 -15 -19 -15q-9 3 -13 11v6q0 15 15 15zM1085 908q10 -1 16 -21l-4 -23q10 -5 30 -5h2q15 0 33 35l11 3h2q6 0 10 -24h-3q0 -25 24 -25h4l26 23h7q11 -7 11 -16q0 -4 -4 -14q0 -13 16 -16l11 7l-2 4
q0 3 19 12h7q34 -30 34 -35l-11 -32q9 -18 16 -21h12q15 12 41 21h7q10 -4 10 -21q-24 -24 -28 -33v-4q2 -7 14 -7q12 7 35 11h6l10 -11q3 0 7 7v4q-5 0 -5 5l-5 -2q-4 0 -4 4l-5 -2h-4q-5 0 -5 5v9h2l5 -3q4 3 7 3q2 -9 11 -9q0 2 3 2q4 -10 4 -14h14l-2 -12l2 -14
q-5 -10 -25 -32h-3l-7 5h-2q-6 0 -9 -31q4 -32 16 -32q3 0 7 2q38 0 49 -25q0 -5 -28 -28v-7q0 -5 37 -12l5 -7q0 -12 -10 -16q-29 3 -32 5q-5 -2 -7 -2q0 -40 14 -40q7 0 16 -2l14 7l12 -3l4 3q7 0 17 -16v-5q0 -3 -12 -12h-9q-6 0 -28 7q-37 0 -37 -32h-3q3 -5 3 -7l4 2
q10 -4 17 -4q2 0 2 2l12 -2h25q14 -2 14 -7v-10q0 -4 -16 -7q-11 5 -23 5q-10 -11 -14 -21l20 -28v-2l-9 -9q-43 11 -49 11q-8 -2 -18 -28q10 -28 32 -44l7 -11v-12q0 -3 -7 -7h-9q-16 12 -25 28q-4 0 -10 5h-7q-6 -10 -41 -14l-26 -21q0 -13 30 -33l3 -11q-11 -9 -17 -9
q0 3 -23 9q-5 11 -23 23q-26 -10 -26 -14q0 -6 7 -30l-9 -7h-9q-8 0 -40 30h-2q-2 0 -9 -9q3 -13 9 -26q-5 -16 -9 -16h-2l-31 28h-7q-4 -21 -20 -21q-23 15 -33 40h-5q-3 0 -7 -7q10 0 10 -5t-5 -5t-5 7h-2q0 -14 -16 -25h-9q-6 0 -14 37l-21 9q-11 -2 -26 -30q-5 -5 -9 -5
q-6 0 -12 12q5 18 7 18q0 17 -30 24l-2 4q-3 0 -30 -23q-5 0 -5 5q3 0 3 2q-7 0 -7 5v4q0 6 7 28v2q0 4 -10 10q-13 0 -25 -10h-12q-3 0 -11 12q11 23 11 30q-9 24 -9 30h2q-2 5 -2 7q-77 -76 -81 -76q-11 1 -37 16q-5 -2 -7 -2q-46 0 -72 18q-23 0 -23 26q-6 13 -31 28v11
h-2v-83q0 -5 -5 -5h-236q-5 0 -5 5v92l-106 -104h-3v95l-88 -83q-80 24 -113 81q-26 48 -26 93v7q0 113 123 169q40 9 58 9q36 -2 46 -7v153q1 5 5 5h127q5 -1 5 -5v-301l216 213l2 -4v-54h46v146q1 5 5 5h128q4 -1 4 -5v-25q5 2 7 2q8 0 37 -9h5l21 18q-17 28 -23 31h-3
q-3 -3 -11 -21l-5 -3h-5q-3 0 -6 7v14q11 42 34 42q19 -9 19 -26q12 -13 25 -13q7 8 7 13q-18 27 -18 35v7q2 7 14 7q11 -8 28 -32q30 0 30 34q4 19 9 19h7q7 0 32 -21q2 0 14 -2q5 2 7 2v-2q28 0 28 16q0 37 14 37zM784 869q15 0 30 -28l-5 -2q-22 9 -30 23v2q1 5 5 5z
M897 660q2 0 2 -2q-8 0 -18 -26q-2 0 -2 -2l4 -7q-12 0 -30 -49h-2q0 3 -28 28h-30q-5 0 -5 5v146h-76v-146q0 -5 -5 -5h-26q-41 0 -76 -9v25q-4 0 -77 -76v-244h77v176q11 51 51 51h51q5 0 5 -4v-65q0 -125 90 -162h2l58 60q-74 16 -74 69v98q1 4 5 4h55q4 0 14 -69
q27 -77 70 -121q35 -38 60 -51q81 -41 121 -41q2 0 2 2l12 -2h21q31 0 41 7q4 -3 10 -3q0 3 46 19q0 10 23 11q0 3 19 12v-2q41 28 41 32q41 43 65 91q0 4 10 18q9 53 16 63q0 8 2 39l-2 5q5 9 5 14q-14 5 -14 21q0 7 7 7v6q-7 0 -7 5v5l2 4q-5 0 -5 5v5q0 2 3 2
q-17 49 -40 79q-18 36 -60 65q-26 27 -95 51q-41 9 -84 9h-2q-2 0 -2 2l-5 -2h-2q-3 0 -3 2q-30 0 -74 -27q0 -13 -53 -21q-62 -36 -72 -70q-9 -9 -21 -37zM1076 813v-2h7v2h-7zM310 753v-170q-50 19 -74 19q-109 0 -151 -118q-2 -23 -2 -35v-5q0 -91 100 -136h5l64 67h-2
l-16 -3q-77 13 -77 82q0 46 56 69q9 2 19 2h11q67 -16 67 -67v-125l77 74v346h-77zM1094 750h16q5 0 5 -4q-10 -19 -23 -23q-5 2 -7 2l-9 -12v-2h11q10 0 14 -30l-11 -7q-8 5 -12 5v-3q0 -3 19 -11q0 4 4 4q13 0 16 -9v-30q-15 -44 -44 -44q0 -3 -30 -7q-14 0 -55 53
q-3 4 -3 12q0 13 10 21q-5 0 -5 4q0 33 49 65l9 -2zM1136 750q17 0 19 -7v-2h-21q-5 0 -5 5zM818 743v-44q7 0 17 -2q11 3 11 7v5q-25 31 -25 34h-3zM1162 743q6 0 27 -9q17 0 30 -11q8 4 14 4l54 -41l11 -19v-2h-4q23 -20 23 -26q0 -8 14 -32q0 -26 -12 -51v-26
q-11 -22 -58 -32q-48 -7 -48 -19l-24 -2h-4q-5 0 -10 16l-9 -9h-21l-11 -3q-5 8 -5 14v3h7v2q0 3 -7 7l-5 -2q-15 0 -18 20q-9 0 -9 14l16 14h4q5 0 5 -4q7 2 7 4q-2 5 -2 7l30 26l23 18h7q6 0 26 -9q2 3 2 12q-14 8 -14 11q-1 -2 -16 -2q0 2 18 37q-9 16 -9 28v5q5 9 12 9
q-3 4 -3 9l-11 -2h-5q-5 0 -16 18q-10 0 -16 12q7 6 7 11zM1122 741h2q6 -4 26 -7v-7q-33 3 -33 10q1 4 5 4zM1036 716q1 -5 5 -5v5h-5zM1025 646v-5h4q0 5 -4 5zM1215 567q-12 -16 -21 -16q1 -5 5 -5h4q0 11 21 17v2q-5 0 -9 2zM774 558l3 -5q0 -4 -5 -4l-2 4q0 5 4 5z
M1087 525q10 0 14 -20q23 -6 23 -19q-4 -11 -9 -12l-14 3q-14 -6 -74 -9q0 -5 -9 -5q-14 5 -14 9q9 19 25 19q2 0 14 -3q12 8 33 35zM419 435v-137h75v211q-4 0 -75 -74zM188 449q10 -46 46 -46q46 10 46 16v37q0 29 -41 39h-7q-37 0 -44 -46zM675 493v-2h4v2h-4zM642 470h5
v4q-5 0 -5 -4zM1296 472q9 -3 9 -7v-4q0 -5 -4 -5h-3q-3 0 -7 7zM649 465v-2h5v2h-5zM1001 468l3 -5v-2h-5v-5h2l10 5l11 -3q5 3 7 3q4 -10 7 -10h7q6 7 30 10q0 -4 10 -7l9 2q15 -7 37 -12l-2 -4v-3h2l7 5h14q12 -12 16 -12q5 3 7 3l2 -5v-5q0 -2 -9 -6q6 -14 9 -14
q-2 -19 -7 -19h-2l-4 2l-3 -4q5 0 9 -3q7 2 19 12q19 -16 19 -19v-4q-7 -12 -10 -12q-8 0 -21 9q0 -7 -2 -11q19 -10 19 -23q-24 -10 -28 -10q-37 15 -37 31l-5 -3h-2q-40 14 -40 40v2h3q7 -5 14 -5q-5 12 -7 12l-12 -7h-7q-16 8 -35 42q-5 9 -14 9l-7 5h-2l-7 -5l-11 2
q0 -7 -19 -7l7 -9v-7q0 -7 -9 -7l-12 3v11q18 23 30 28q-2 4 -2 7q7 5 11 5zM647 451h4v5q-4 -1 -4 -5zM1287 451h4q5 0 7 -14q-12 -27 -14 -27l3 -5v-12q7 0 11 -9v-2q0 -19 -18 -19q-6 0 -14 7q0 -32 -53 -42h-3q-14 6 -14 10v7q0 9 17 18l2 14q-5 0 -5 5q3 0 3 2
q-10 4 -10 7l-4 -2h-7q-14 8 -14 11v14q0 2 16 16h7q5 0 9 -18h7l-2 11l4 3h24q2 0 2 -3q10 2 42 28zM635 417v-5h5q0 5 -5 5zM988 417q13 -18 13 -33l-2 -5q2 -4 2 -7q-12 -16 -18 -16q-33 0 -33 26q5 2 7 2l-7 12q0 12 10 16h11l10 -9q0 14 7 14zM644 407q0 -2 -2 -7h7
q-2 5 -2 7h-3zM1238 403v-7h7v11h-2q-5 0 -5 -4zM644 398v-5h3v5h-3zM1277 382q-2 -5 -2 -7h7q5 0 5 4v3h-10zM1115 377v-5l7 -9q10 3 14 12h-5l-7 -5zM644 370l-2 -5v-2h7v2q0 5 -5 5zM649 354v-2h5v2h-5zM668 352v-5h2v5h-2zM658 347q1 -5 5 -5v5h-5zM665 338v-5h3v5h-3z
M918 287v-3q1 -4 5 -4v2q0 5 -5 5zM904 284q1 -4 5 -4v4h-5zM946 284v-4h2v4h-2zM895 277q4 -5 4 -11h3v9q-5 2 -7 2zM707 270h5q4 0 4 -4v-7q0 -5 -4 -5h-3q-3 0 -7 7v5q1 4 5 4zM967 263v-4h4v4h-4zM971 250v-7q5 2 7 2v2q-2 0 -7 3zM983 247v-4h9v2zM1053 247v-4h2v4h-2z
M955 245q0 -7 -7 -7v-2h9v9h-2zM1039 245v-2h4v2h-4zM1034 243v-5h2v5h-2zM941 233v-2q3 -5 3 -7q-3 0 -3 -2q3 0 7 -3q0 4 9 10q-8 0 -13 4h-3zM1057 226v-4h2v4h-2zM1106 212l4 -2v7q-4 -1 -4 -5zM1013 208l5 -3v7q-5 0 -5 -4zM1011 201v-7l4 -7h-7v-2h5q11 4 12 9l-10 7
h-4zM1199 171h14v4h-10q-4 0 -4 -4zM240 104h63q68 0 80 -76v-4q0 -60 -56 -79q-17 -4 -31 -4h-56q-4 0 -4 4v155q0 4 4 4zM401 104h26q4 -1 4 -4v-155q0 -4 -4 -4h-26q-5 0 -5 4v155q1 4 5 4zM451 104h67q59 -12 59 -59v-6q0 -34 -26 -55l15 -41l-5 -2h-28l-17 33h-35v-29
q0 -4 -4 -4h-26q-5 0 -5 4v155q1 4 5 4zM590 104h121q5 -1 5 -4v-26q0 -5 -5 -5h-43v-124q0 -4 -5 -4h-26q-4 0 -4 4v124h-43q-5 0 -5 5v26q1 4 5 4zM783 104q42 0 48 -50v-2q0 -40 -44 -76h46q4 -1 4 -5v-26q0 -4 -4 -4h-98q-4 0 -4 4v5q0 30 58 82q7 16 7 20v2q0 12 -9 15
h-11q-15 0 -15 -17h-28q-4 0 -4 4v2q0 33 39 46h15zM968 104q42 0 65 -33q0 -3 -22 -21h-2q-16 19 -35 19h-13q-39 -11 -39 -41v-13q0 -29 43 -39h11q13 0 35 21q12 -7 22 -23q-24 -33 -68 -33q-54 0 -78 67v13q0 66 72 83h9zM1120 104q65 0 82 -72v-11q0 -56 -63 -78
q-11 -2 -22 -2q-52 0 -76 63q-2 12 -2 24q16 76 81 76zM1365 102h2v-157q0 -4 -4 -4h-26q-4 0 -4 4v55h-3q-10 -21 -39 -57l-41 57v-55q0 -4 -4 -4h-24q-5 0 -5 4v155h3q71 -100 73 -100q57 84 72 102zM481 71v-63h35q26 6 26 24v13q0 26 -41 26h-20zM270 69v-93h35
q38 0 43 45v7q-7 41 -39 41h-39zM1074 30v-11q9 -43 43 -43h7q43 10 43 39v13q-9 41 -41 41h-13q-39 -13 -39 -39zM870 -18q14 0 17 -19v-2q0 -18 -21 -20q-9 0 -18 13v9q0 17 22 19zM155 -109h74q4 0 4 -4v-17q0 -5 -4 -5h-54v-21h45q5 -1 5 -5v-15q0 -4 -5 -4h-45v-44
q0 -4 -5 -4h-15q-4 0 -4 4v111q0 4 4 4zM294 -109q59 -11 59 -54v-6q0 -52 -61 -59q-47 0 -56 61q11 58 58 58zM435 -109h18q4 0 4 -4v-108q0 -5 -4 -5l-65 61v-59q0 -4 -5 -4h-15q-4 0 -4 4v111h4q32 -29 61 -56h2v56q1 4 4 4zM470 -109h87q4 0 4 -4v-17q0 -5 -4 -5h-30
v-89q0 -4 -5 -4h-17q-4 0 -4 4v89h-31q-4 0 -4 5v17q0 4 4 4zM611 -109q29 0 46 -17q0 -3 -15 -15q-20 6 -26 6h-5q-19 0 -19 -10q0 -11 43 -13q24 -14 24 -35q0 -29 -48 -35q-41 7 -41 15v2q9 16 15 16q11 -7 22 -7h13q11 0 13 7v6q0 6 -48 13q-17 13 -17 26v9q0 25 43 32z
M761 -109q31 -5 31 -26v-2q0 -16 -20 -24q4 -10 9 -11h19q5 0 5 -6t-5 -22q4 0 22 -26l-4 -2h-22l-11 9q-14 -9 -24 -9q-41 8 -41 37q0 21 20 35q-7 11 -7 17v7q0 17 28 23zM892 -109h26q76 0 76 -60q0 -34 -29 -50q-15 -9 -39 -9h-34q-5 0 -5 4v111q1 4 5 4zM1007 -109h76
q4 0 4 -4v-17q0 -5 -4 -5h-55v-21h44q4 -1 4 -5v-15q0 -4 -4 -4h-44v-22h55q4 -1 4 -4v-18q0 -4 -4 -4h-76q-5 0 -5 4v111q1 4 5 4zM1141 -109q46 -7 46 -17q0 -3 -15 -15q-21 6 -33 6h-2q-12 0 -15 -8v-5q0 -7 48 -13q17 -13 17 -26v-8q0 -28 -48 -33q-24 0 -41 15v2
q11 16 17 16q11 -7 22 -7h11q15 0 15 11q0 10 -50 15q-17 16 -17 33q0 27 45 34zM1202 -109h15q5 0 5 -4v-111q0 -4 -5 -4h-15q-4 0 -4 4v111q1 4 4 4zM1291 -109q34 0 52 -30v-4q-8 -11 -19 -11h-2q-6 19 -31 19q-32 -4 -32 -28v-9q0 -30 30 -30h9q12 0 17 9q-24 0 -24 4
v17q1 5 5 5h50q4 -1 4 -5v-4q0 -42 -59 -52q-53 0 -58 61q7 58 58 58zM1432 -109h16q4 0 4 -4v-108q0 -5 -4 -5q-3 6 -61 59h-2v-57q0 -4 -5 -4h-15q-4 0 -4 4v111h2q15 -12 65 -59v59q1 4 4 4zM759 -132v-9h2q5 0 5 4v5h-7zM262 -163v-11q7 -28 28 -28h9q25 0 30 37
q0 24 -35 30h-2q-30 -7 -30 -28zM911 -135v-67h28q29 7 29 28v11q0 24 -35 28h-22zM750 -176l-4 -15q0 -13 15 -13h5q4 0 4 4q-17 24 -20 24z" />
    <glyph glyph-name="bar" unicode="|" horiz-adv-x="304" 
d="M45 1398h214v-1730h-214v1730z" />
    <glyph glyph-name="braceright" unicode="}" horiz-adv-x="1602" 
d="M257 1393q47 -3 59 -39q-20 -13 -24 -13q-8 24 -35 24h-2q-35 -5 -35 -35v-9q0 -26 37 -32q17 0 26 11h-24q-4 0 -4 4v19q1 5 4 5h59q4 -1 4 -5q-10 -60 -58 -60h-15q-48 0 -57 65q8 65 65 65zM338 1393h82q5 -1 5 -4v-20q0 -4 -5 -4h-58v-24h47q5 -1 5 -4v-20
q0 -4 -5 -4h-47v-24h58q5 -1 5 -5v-17q0 -4 -5 -4h-82q-5 0 -5 4v122q1 4 5 4zM440 1393h95q5 -1 5 -4v-20q0 -4 -5 -4h-32v-98q0 -4 -5 -4h-19q-5 0 -5 4v98h-34q-5 0 -5 4v20q1 4 5 4zM616 1393h95q5 -1 5 -4v-20q0 -4 -5 -4h-34v-98q0 -4 -5 -4h-19q-5 0 -5 4v98h-32
q-5 0 -5 4v20q1 4 5 4zM731 1393h19q5 -1 5 -4v-48h48v48q0 4 4 4h19q5 -1 5 -4v-122q0 -4 -5 -4h-19q-4 0 -4 4v46h-48v-46q0 -4 -5 -4h-19q-5 0 -5 4v122q1 4 5 4zM846 1393h82q5 -1 5 -4v-20q0 -4 -5 -4h-58v-24h48q4 -1 4 -4v-20q0 -4 -4 -4h-48v-24h58q5 -1 5 -5v-17
q0 -4 -5 -4h-82q-4 0 -4 4v122q0 4 4 4zM1009 1393h82q5 -1 5 -4v-20q0 -4 -5 -4h-60v-24h50q4 -1 4 -4v-20q0 -4 -4 -4h-50v-46q0 -4 -5 -4h-17q-4 0 -4 4v122q0 4 4 4zM1111 1393h20q4 -1 4 -4v-79q0 -16 24 -21q24 5 24 21v79q0 4 4 4h20q4 -1 4 -4v-72q-6 -54 -46 -54
h-13q-37 0 -45 50v76q0 4 4 4zM1226 1393h20q4 -1 4 -4v-100h54q5 -1 5 -5v-17q0 -4 -5 -4h-78q-4 0 -4 4v122q0 4 4 4zM1324 1393h19q5 -1 5 -4v-100h54q4 -1 4 -5v-17q0 -4 -4 -4h-78q-4 0 -4 4v122q0 4 4 4zM522 1243h35q65 0 65 -56q0 -24 -22 -39q11 -29 11 -33v-4h-24
q-5 0 -10 26h-33v-22q0 -4 -4 -4h-18q-4 0 -4 4v124q1 4 4 4zM296 1241h24q5 0 26 -63h2q21 63 27 63h23l5 -2q-52 -118 -52 -124h-7q0 5 -52 124zM418 1241h85q4 -1 4 -4v-18q0 -4 -4 -4h-61v-24h50q4 -1 4 -4v-20q0 -4 -4 -4h-50v-24h61q4 -1 4 -5v-19q0 -4 -4 -4h-85
q-4 0 -4 4v122q0 4 4 4zM674 1241h13q32 0 44 -17q-14 -18 -20 -18q-9 7 -30 9q-22 -3 -22 -11v-4q0 -8 50 -13q24 -15 24 -35q0 -34 -50 -41q-50 7 -50 19q0 3 17 18q16 -9 35 -9q20 3 20 9v6q0 8 -50 13q-24 17 -24 35q0 32 43 39zM748 1241h20q4 -1 4 -4v-122q0 -4 -4 -4
h-20q-4 0 -4 4v122q1 4 4 4zM855 1241q45 0 58 -63q-12 -67 -65 -67q-65 10 -65 65v2q0 44 50 63h22zM1002 1241h20q4 -1 4 -4v-120q0 -4 -4 -4q0 3 -72 67v-65q0 -4 -4 -4h-18q-4 0 -4 4v124h2l72 -65v63q1 4 4 4zM1207 1241h95q4 -1 4 -4v-18q0 -4 -4 -4h-32v-100
q0 -4 -5 -4h-19q-5 0 -5 4v100h-34q-5 0 -5 4v18q1 4 5 4zM1161 1239q6 0 63 -126v-2h-26l-13 19h-48q-11 -19 -13 -19h-26v2q3 17 63 126zM544 1215v-50h24q26 2 26 22v6q0 19 -28 22h-22zM809 1178q6 -39 39 -39q32 0 37 41q0 28 -39 35q-37 -9 -37 -37zM1148 1158h26v3
q-11 20 -11 23q-4 0 -15 -26zM83 1091h9q48 -7 48 -17q0 -3 -17 -18q-21 7 -27 7h-15q-13 -2 -13 -7v-8q0 -5 52 -13q20 -13 20 -33v-2q0 -33 -48 -39h-4q-31 0 -48 19l17 15q21 -6 33 -6h6q11 0 18 11q0 15 -46 15q-28 14 -28 33v4q0 33 43 39zM155 1091h20q4 -1 4 -4v-122
q0 -4 -4 -4h-20q-4 0 -4 4v122q0 4 4 4zM255 1091q34 0 52 -26q0 -3 -17 -17h-2q-16 15 -26 15h-13q-25 0 -31 -35v-6q9 -33 33 -33h6q17 0 33 17l15 -17v-4q-20 -24 -52 -24q-63 11 -63 67q0 54 65 63zM322 1091h20q4 -1 4 -4v-42q2 0 46 46h28q5 -1 5 -4q-4 0 -59 -61
l59 -63l-5 -2h-28l-46 45v-41q0 -4 -4 -4h-20q-4 0 -4 4v122q1 4 4 4zM477 1091q38 0 50 -28l-18 -15q-15 15 -26 15h-13q-30 -9 -30 -31v-13q0 -24 34 -30h7q14 0 28 17q3 0 18 -17v-2q-19 -26 -53 -26q-53 0 -63 65v6q0 46 61 59h5zM674 1091h52q43 0 50 -52
q-7 -52 -52 -52h-26v-22q0 -4 -4 -4h-20q-4 0 -4 4v122q1 4 4 4zM792 1091h17q4 -1 4 -4v-122q0 -4 -4 -4h-17q-5 0 -5 4v122q1 4 5 4zM829 1091h97q5 -1 5 -4v-20q0 -4 -5 -4h-34v-98q0 -4 -5 -4h-19q-5 0 -5 4v98h-34q-5 0 -5 4v20q1 4 5 4zM1052 1091h20q4 -1 4 -4v-98
h55q4 -1 4 -4v-20q0 -4 -4 -4h-79q-4 0 -4 4v122q1 4 4 4zM1241 1091h7q25 0 45 -26q0 -3 -17 -17h-2q-16 15 -26 15h-13q-24 0 -31 -35v-6q10 -33 33 -33h6q17 0 33 17l15 -17v-4q-19 -24 -50 -24q-56 0 -65 69q0 40 48 59q8 2 17 2zM1363 1091q65 -9 65 -65q0 -55 -67 -65
q-44 0 -61 50q-2 8 -2 17q0 54 65 63zM592 1089h6q29 -62 61 -126l-4 -2h-24q-5 0 -9 17h-54q-4 -17 -9 -17h-24q-4 0 -4 4q61 120 61 124zM970 1089h2q4 -2 65 -126l-4 -2h-24q-6 0 -9 17h-52l-13 -17h-26q0 4 61 128zM1439 1089h4q49 -76 57 -81q43 62 54 81h4v-124
q0 -4 -4 -4h-19q-5 0 -5 4v39q-10 -7 -28 -41h-2l-33 41v-39q0 -4 -4 -4h-20q-4 0 -4 4v124zM698 1063v-48h28q20 0 22 26q-3 22 -22 22h-28zM1326 1032v-8q7 -35 33 -35h8q33 9 33 33v6q-7 35 -31 35h-13q-30 -9 -30 -31zM594 1035q-11 -25 -11 -27h24v3q-11 20 -11 24h-2z
M959 1008h26v3q-11 20 -11 24q-4 0 -15 -27zM1161 993h6q11 -6 11 -17q-6 -15 -19 -15q-9 3 -13 11v6q0 15 15 15zM1085 908q10 -1 16 -21l-4 -23q10 -5 30 -5h2q15 0 33 35l11 3h2q6 0 10 -24h-3q0 -25 24 -25h4l26 23h7q11 -7 11 -16q0 -4 -4 -14q0 -13 16 -16l11 7l-2 4
q0 3 19 12h7q34 -30 34 -35l-11 -32q9 -18 16 -21h12q15 12 41 21h7q10 -4 10 -21q-24 -24 -28 -33v-4q2 -7 14 -7q12 7 35 11h6l10 -11q3 0 7 7v4q-5 0 -5 5l-5 -2q-4 0 -4 4l-5 -2h-4q-5 0 -5 5v9h2l5 -3q4 3 7 3q2 -9 11 -9q0 2 3 2q4 -10 4 -14h14l-2 -12l2 -14
q-5 -10 -25 -32h-3l-7 5h-2q-6 0 -9 -31q4 -32 16 -32q3 0 7 2q38 0 49 -25q0 -5 -28 -28v-7q0 -5 37 -12l5 -7q0 -12 -10 -16q-29 3 -32 5q-5 -2 -7 -2q0 -40 14 -40q7 0 16 -2l14 7l12 -3l4 3q7 0 17 -16v-5q0 -3 -12 -12h-9q-6 0 -28 7q-37 0 -37 -32h-3q3 -5 3 -7l4 2
q10 -4 17 -4q2 0 2 2l12 -2h25q14 -2 14 -7v-10q0 -4 -16 -7q-11 5 -23 5q-10 -11 -14 -21l20 -28v-2l-9 -9q-43 11 -49 11q-8 -2 -18 -28q10 -28 32 -44l7 -11v-12q0 -3 -7 -7h-9q-16 12 -25 28q-4 0 -10 5h-7q-6 -10 -41 -14l-26 -21q0 -13 30 -33l3 -11q-11 -9 -17 -9
q0 3 -23 9q-5 11 -23 23q-26 -10 -26 -14q0 -6 7 -30l-9 -7h-9q-8 0 -40 30h-2q-2 0 -9 -9q3 -13 9 -26q-5 -16 -9 -16h-2l-31 28h-7q-4 -21 -20 -21q-23 15 -33 40h-5q-3 0 -7 -7q10 0 10 -5t-5 -5t-5 7h-2q0 -14 -16 -25h-9q-6 0 -14 37l-21 9q-11 -2 -26 -30q-5 -5 -9 -5
q-6 0 -12 12q5 18 7 18q0 17 -30 24l-2 4q-3 0 -30 -23q-5 0 -5 5q3 0 3 2q-7 0 -7 5v4q0 6 7 28v2q0 4 -10 10q-13 0 -25 -10h-12q-3 0 -11 12q11 23 11 30q-9 24 -9 30h2q-2 5 -2 7q-77 -76 -81 -76q-11 1 -37 16q-5 -2 -7 -2q-46 0 -72 18q-23 0 -23 26q-6 13 -31 28v11
h-2v-83q0 -5 -5 -5h-236q-5 0 -5 5v92l-106 -104h-3v95l-88 -83q-80 24 -113 81q-26 48 -26 93v7q0 113 123 169q40 9 58 9q36 -2 46 -7v153q1 5 5 5h127q5 -1 5 -5v-301l216 213l2 -4v-54h46v146q1 5 5 5h128q4 -1 4 -5v-25q5 2 7 2q8 0 37 -9h5l21 18q-17 28 -23 31h-3
q-3 -3 -11 -21l-5 -3h-5q-3 0 -6 7v14q11 42 34 42q19 -9 19 -26q12 -13 25 -13q7 8 7 13q-18 27 -18 35v7q2 7 14 7q11 -8 28 -32q30 0 30 34q4 19 9 19h7q7 0 32 -21q2 0 14 -2q5 2 7 2v-2q28 0 28 16q0 37 14 37zM784 869q15 0 30 -28l-5 -2q-22 9 -30 23v2q1 5 5 5z
M897 660q2 0 2 -2q-8 0 -18 -26q-2 0 -2 -2l4 -7q-12 0 -30 -49h-2q0 3 -28 28h-30q-5 0 -5 5v146h-76v-146q0 -5 -5 -5h-26q-41 0 -76 -9v25q-4 0 -77 -76v-244h77v176q11 51 51 51h51q5 0 5 -4v-65q0 -125 90 -162h2l58 60q-74 16 -74 69v98q1 4 5 4h55q4 0 14 -69
q27 -77 70 -121q35 -38 60 -51q81 -41 121 -41q2 0 2 2l12 -2h21q31 0 41 7q4 -3 10 -3q0 3 46 19q0 10 23 11q0 3 19 12v-2q41 28 41 32q41 43 65 91q0 4 10 18q9 53 16 63q0 8 2 39l-2 5q5 9 5 14q-14 5 -14 21q0 7 7 7v6q-7 0 -7 5v5l2 4q-5 0 -5 5v5q0 2 3 2
q-17 49 -40 79q-18 36 -60 65q-26 27 -95 51q-41 9 -84 9h-2q-2 0 -2 2l-5 -2h-2q-3 0 -3 2q-30 0 -74 -27q0 -13 -53 -21q-62 -36 -72 -70q-9 -9 -21 -37zM1076 813v-2h7v2h-7zM310 753v-170q-50 19 -74 19q-109 0 -151 -118q-2 -23 -2 -35v-5q0 -91 100 -136h5l64 67h-2
l-16 -3q-77 13 -77 82q0 46 56 69q9 2 19 2h11q67 -16 67 -67v-125l77 74v346h-77zM1094 750h16q5 0 5 -4q-10 -19 -23 -23q-5 2 -7 2l-9 -12v-2h11q10 0 14 -30l-11 -7q-8 5 -12 5v-3q0 -3 19 -11q0 4 4 4q13 0 16 -9v-30q-15 -44 -44 -44q0 -3 -30 -7q-14 0 -55 53
q-3 4 -3 12q0 13 10 21q-5 0 -5 4q0 33 49 65l9 -2zM1136 750q17 0 19 -7v-2h-21q-5 0 -5 5zM818 743v-44q7 0 17 -2q11 3 11 7v5q-25 31 -25 34h-3zM1162 743q6 0 27 -9q17 0 30 -11q8 4 14 4l54 -41l11 -19v-2h-4q23 -20 23 -26q0 -8 14 -32q0 -26 -12 -51v-26
q-11 -22 -58 -32q-48 -7 -48 -19l-24 -2h-4q-5 0 -10 16l-9 -9h-21l-11 -3q-5 8 -5 14v3h7v2q0 3 -7 7l-5 -2q-15 0 -18 20q-9 0 -9 14l16 14h4q5 0 5 -4q7 2 7 4q-2 5 -2 7l30 26l23 18h7q6 0 26 -9q2 3 2 12q-14 8 -14 11q-1 -2 -16 -2q0 2 18 37q-9 16 -9 28v5q5 9 12 9
q-3 4 -3 9l-11 -2h-5q-5 0 -16 18q-10 0 -16 12q7 6 7 11zM1122 741h2q6 -4 26 -7v-7q-33 3 -33 10q1 4 5 4zM1036 716q1 -5 5 -5v5h-5zM1025 646v-5h4q0 5 -4 5zM1215 567q-12 -16 -21 -16q1 -5 5 -5h4q0 11 21 17v2q-5 0 -9 2zM774 558l3 -5q0 -4 -5 -4l-2 4q0 5 4 5z
M1087 525q10 0 14 -20q23 -6 23 -19q-4 -11 -9 -12l-14 3q-14 -6 -74 -9q0 -5 -9 -5q-14 5 -14 9q9 19 25 19q2 0 14 -3q12 8 33 35zM419 435v-137h75v211q-4 0 -75 -74zM188 449q10 -46 46 -46q46 10 46 16v37q0 29 -41 39h-7q-37 0 -44 -46zM675 493v-2h4v2h-4zM642 470h5
v4q-5 0 -5 -4zM1296 472q9 -3 9 -7v-4q0 -5 -4 -5h-3q-3 0 -7 7zM649 465v-2h5v2h-5zM1001 468l3 -5v-2h-5v-5h2l10 5l11 -3q5 3 7 3q4 -10 7 -10h7q6 7 30 10q0 -4 10 -7l9 2q15 -7 37 -12l-2 -4v-3h2l7 5h14q12 -12 16 -12q5 3 7 3l2 -5v-5q0 -2 -9 -6q6 -14 9 -14
q-2 -19 -7 -19h-2l-4 2l-3 -4q5 0 9 -3q7 2 19 12q19 -16 19 -19v-4q-7 -12 -10 -12q-8 0 -21 9q0 -7 -2 -11q19 -10 19 -23q-24 -10 -28 -10q-37 15 -37 31l-5 -3h-2q-40 14 -40 40v2h3q7 -5 14 -5q-5 12 -7 12l-12 -7h-7q-16 8 -35 42q-5 9 -14 9l-7 5h-2l-7 -5l-11 2
q0 -7 -19 -7l7 -9v-7q0 -7 -9 -7l-12 3v11q18 23 30 28q-2 4 -2 7q7 5 11 5zM647 451h4v5q-4 -1 -4 -5zM1287 451h4q5 0 7 -14q-12 -27 -14 -27l3 -5v-12q7 0 11 -9v-2q0 -19 -18 -19q-6 0 -14 7q0 -32 -53 -42h-3q-14 6 -14 10v7q0 9 17 18l2 14q-5 0 -5 5q3 0 3 2
q-10 4 -10 7l-4 -2h-7q-14 8 -14 11v14q0 2 16 16h7q5 0 9 -18h7l-2 11l4 3h24q2 0 2 -3q10 2 42 28zM635 417v-5h5q0 5 -5 5zM988 417q13 -18 13 -33l-2 -5q2 -4 2 -7q-12 -16 -18 -16q-33 0 -33 26q5 2 7 2l-7 12q0 12 10 16h11l10 -9q0 14 7 14zM644 407q0 -2 -2 -7h7
q-2 5 -2 7h-3zM1238 403v-7h7v11h-2q-5 0 -5 -4zM644 398v-5h3v5h-3zM1277 382q-2 -5 -2 -7h7q5 0 5 4v3h-10zM1115 377v-5l7 -9q10 3 14 12h-5l-7 -5zM644 370l-2 -5v-2h7v2q0 5 -5 5zM649 354v-2h5v2h-5zM668 352v-5h2v5h-2zM658 347q1 -5 5 -5v5h-5zM665 338v-5h3v5h-3z
M918 287v-3q1 -4 5 -4v2q0 5 -5 5zM904 284q1 -4 5 -4v4h-5zM946 284v-4h2v4h-2zM895 277q4 -5 4 -11h3v9q-5 2 -7 2zM707 270h5q4 0 4 -4v-7q0 -5 -4 -5h-3q-3 0 -7 7v5q1 4 5 4zM967 263v-4h4v4h-4zM971 250v-7q5 2 7 2v2q-2 0 -7 3zM983 247v-4h9v2zM1053 247v-4h2v4h-2z
M955 245q0 -7 -7 -7v-2h9v9h-2zM1039 245v-2h4v2h-4zM1034 243v-5h2v5h-2zM941 233v-2q3 -5 3 -7q-3 0 -3 -2q3 0 7 -3q0 4 9 10q-8 0 -13 4h-3zM1057 226v-4h2v4h-2zM1106 212l4 -2v7q-4 -1 -4 -5zM1013 208l5 -3v7q-5 0 -5 -4zM1011 201v-7l4 -7h-7v-2h5q11 4 12 9l-10 7
h-4zM1199 171h14v4h-10q-4 0 -4 -4zM240 104h63q68 0 80 -76v-4q0 -60 -56 -79q-17 -4 -31 -4h-56q-4 0 -4 4v155q0 4 4 4zM401 104h26q4 -1 4 -4v-155q0 -4 -4 -4h-26q-5 0 -5 4v155q1 4 5 4zM451 104h67q59 -12 59 -59v-6q0 -34 -26 -55l15 -41l-5 -2h-28l-17 33h-35v-29
q0 -4 -4 -4h-26q-5 0 -5 4v155q1 4 5 4zM590 104h121q5 -1 5 -4v-26q0 -5 -5 -5h-43v-124q0 -4 -5 -4h-26q-4 0 -4 4v124h-43q-5 0 -5 5v26q1 4 5 4zM783 104q42 0 48 -50v-2q0 -40 -44 -76h46q4 -1 4 -5v-26q0 -4 -4 -4h-98q-4 0 -4 4v5q0 30 58 82q7 16 7 20v2q0 12 -9 15
h-11q-15 0 -15 -17h-28q-4 0 -4 4v2q0 33 39 46h15zM968 104q42 0 65 -33q0 -3 -22 -21h-2q-16 19 -35 19h-13q-39 -11 -39 -41v-13q0 -29 43 -39h11q13 0 35 21q12 -7 22 -23q-24 -33 -68 -33q-54 0 -78 67v13q0 66 72 83h9zM1120 104q65 0 82 -72v-11q0 -56 -63 -78
q-11 -2 -22 -2q-52 0 -76 63q-2 12 -2 24q16 76 81 76zM1365 102h2v-157q0 -4 -4 -4h-26q-4 0 -4 4v55h-3q-10 -21 -39 -57l-41 57v-55q0 -4 -4 -4h-24q-5 0 -5 4v155h3q71 -100 73 -100q57 84 72 102zM481 71v-63h35q26 6 26 24v13q0 26 -41 26h-20zM270 69v-93h35
q38 0 43 45v7q-7 41 -39 41h-39zM1074 30v-11q9 -43 43 -43h7q43 10 43 39v13q-9 41 -41 41h-13q-39 -13 -39 -39zM870 -18q14 0 17 -19v-2q0 -18 -21 -20q-9 0 -18 13v9q0 17 22 19zM155 -109h74q4 0 4 -4v-17q0 -5 -4 -5h-54v-21h45q5 -1 5 -5v-15q0 -4 -5 -4h-45v-44
q0 -4 -5 -4h-15q-4 0 -4 4v111q0 4 4 4zM294 -109q59 -11 59 -54v-6q0 -52 -61 -59q-47 0 -56 61q11 58 58 58zM435 -109h18q4 0 4 -4v-108q0 -5 -4 -5l-65 61v-59q0 -4 -5 -4h-15q-4 0 -4 4v111h4q32 -29 61 -56h2v56q1 4 4 4zM470 -109h87q4 0 4 -4v-17q0 -5 -4 -5h-30
v-89q0 -4 -5 -4h-17q-4 0 -4 4v89h-31q-4 0 -4 5v17q0 4 4 4zM611 -109q29 0 46 -17q0 -3 -15 -15q-20 6 -26 6h-5q-19 0 -19 -10q0 -11 43 -13q24 -14 24 -35q0 -29 -48 -35q-41 7 -41 15v2q9 16 15 16q11 -7 22 -7h13q11 0 13 7v6q0 6 -48 13q-17 13 -17 26v9q0 25 43 32z
M761 -109q31 -5 31 -26v-2q0 -16 -20 -24q4 -10 9 -11h19q5 0 5 -6t-5 -22q4 0 22 -26l-4 -2h-22l-11 9q-14 -9 -24 -9q-41 8 -41 37q0 21 20 35q-7 11 -7 17v7q0 17 28 23zM892 -109h26q76 0 76 -60q0 -34 -29 -50q-15 -9 -39 -9h-34q-5 0 -5 4v111q1 4 5 4zM1007 -109h76
q4 0 4 -4v-17q0 -5 -4 -5h-55v-21h44q4 -1 4 -5v-15q0 -4 -4 -4h-44v-22h55q4 -1 4 -4v-18q0 -4 -4 -4h-76q-5 0 -5 4v111q1 4 5 4zM1141 -109q46 -7 46 -17q0 -3 -15 -15q-21 6 -33 6h-2q-12 0 -15 -8v-5q0 -7 48 -13q17 -13 17 -26v-8q0 -28 -48 -33q-24 0 -41 15v2
q11 16 17 16q11 -7 22 -7h11q15 0 15 11q0 10 -50 15q-17 16 -17 33q0 27 45 34zM1202 -109h15q5 0 5 -4v-111q0 -4 -5 -4h-15q-4 0 -4 4v111q1 4 4 4zM1291 -109q34 0 52 -30v-4q-8 -11 -19 -11h-2q-6 19 -31 19q-32 -4 -32 -28v-9q0 -30 30 -30h9q12 0 17 9q-24 0 -24 4
v17q1 5 5 5h50q4 -1 4 -5v-4q0 -42 -59 -52q-53 0 -58 61q7 58 58 58zM1432 -109h16q4 0 4 -4v-108q0 -5 -4 -5q-3 6 -61 59h-2v-57q0 -4 -5 -4h-15q-4 0 -4 4v111h2q15 -12 65 -59v59q1 4 4 4zM759 -132v-9h2q5 0 5 4v5h-7zM262 -163v-11q7 -28 28 -28h9q25 0 30 37
q0 24 -35 30h-2q-30 -7 -30 -28zM911 -135v-67h28q29 7 29 28v11q0 24 -35 28h-22zM750 -176l-4 -15q0 -13 15 -13h5q4 0 4 4q-17 24 -20 24z" />
    <glyph glyph-name="asciitilde" unicode="~" horiz-adv-x="633" 
d="M588 631l-69 -121l-18 11q-83 47 -112 47h-3q-12 -3 -32 -18q-40 -26 -81 -31q-11 -3 -26 -3q-66 0 -179 63l-23 15l69 121l23 -14q84 -47 110 -47h3q12 3 29 15q43 29 84 34q11 3 26 3q69 0 182 -63z" />
    <glyph glyph-name="exclamdown" unicode="&#xa1;" horiz-adv-x="304" 
d="M262 -47h-214v751h214v-751zM78.5 840.5q-31.5 31.5 -31.5 76.5q0 44 31.5 75.5t76.5 31.5q44 0 75.5 -31.5t31.5 -75.5q0 -45 -31.5 -76.5t-75.5 -31.5q-45 0 -76.5 31.5z" />
    <glyph glyph-name="cent" unicode="&#xa2;" horiz-adv-x="688" 
d="M467 481q49 23 81 78l95 -95q-61 -81 -142 -113l52 -199h-133l-49 179q-133 0 -231 95q-95 98 -95 237t95 234q32 32 70 52l-55 208h133l43 -165q23 3 46 3q165 0 266 -133l-95 -95q-58 95 -171 95h-11zM244 810l-8 -8q-58 -58 -58 -139q0 -84 58 -142q43 -43 101 -54z
" />
    <glyph glyph-name="sterling" unicode="&#xa3;" horiz-adv-x="847" 
d="M227 132q17 20 29 69q-23 -9 -41 -23q-20 -20 -20 -44q0 -11 3 -14q17 0 29 12zM802 120v-150h-21q-144 6 -280 141q-60 61 -95 78q-20 -104 -69 -159q-55 -60 -139 -60q-66 0 -110 46q-43 49 -43 118q0 90 72 156q61 55 153 64q1 20 1 43q0 68 -7 156h-196v162h182
q-9 110 -9 162q0 196 162 274q64 35 139 38l23 2v-150l-20 -3q-153 -11 -153 -161q0 -49 8 -162h208v-162h-193q6 -92 6 -162q0 -26 -1 -49q87 -23 188 -124q93 -95 173 -98h21z" />
    <glyph glyph-name="currency" unicode="&#xa4;" horiz-adv-x="510" 
d="M169 409q36 -36 86 -36t85 36q36 36 36 86t-36 85q-35 36 -85 36t-86 -36q-36 -35 -36 -85t36 -86zM109 355q-56 59 -56 140q0 83 57 141l-65 110h125l32 -56q26 7 54 7q27 0 52 -7l31 56h126l-65 -110q57 -58 57 -141q0 -82 -56 -141l64 -107h-126l-29 52q-26 -7 -54 -7
q-30 0 -56 7l-30 -52h-125z" />
    <glyph glyph-name="yen" unicode="&#xa5;" horiz-adv-x="1101" 
d="M660 325l-20 -46v-280h-182v280l-20 46h-335v199h242l-52 116h-248v202h153l-104 228h228l101 -228h254l102 228h225l-104 -228h156v-202h-251l-52 -116h245v-199h-338zM513 640l37 -84l38 84h-75z" />
    <glyph glyph-name="brokenbar" unicode="&#xa6;" horiz-adv-x="304" 
d="M45 741v757h214v-757h-214zM259 527v-759h-214v759h214z" />
    <glyph glyph-name="section" unicode="&#xa7;" horiz-adv-x="1602" 
d="M257 1393q47 -3 59 -39q-20 -13 -24 -13q-8 24 -35 24h-2q-35 -5 -35 -35v-9q0 -26 37 -32q17 0 26 11h-24q-4 0 -4 4v19q1 5 4 5h59q4 -1 4 -5q-10 -60 -58 -60h-15q-48 0 -57 65q8 65 65 65zM338 1393h82q5 -1 5 -4v-20q0 -4 -5 -4h-58v-24h47q5 -1 5 -4v-20
q0 -4 -5 -4h-47v-24h58q5 -1 5 -5v-17q0 -4 -5 -4h-82q-5 0 -5 4v122q1 4 5 4zM440 1393h95q5 -1 5 -4v-20q0 -4 -5 -4h-32v-98q0 -4 -5 -4h-19q-5 0 -5 4v98h-34q-5 0 -5 4v20q1 4 5 4zM616 1393h95q5 -1 5 -4v-20q0 -4 -5 -4h-34v-98q0 -4 -5 -4h-19q-5 0 -5 4v98h-32
q-5 0 -5 4v20q1 4 5 4zM731 1393h19q5 -1 5 -4v-48h48v48q0 4 4 4h19q5 -1 5 -4v-122q0 -4 -5 -4h-19q-4 0 -4 4v46h-48v-46q0 -4 -5 -4h-19q-5 0 -5 4v122q1 4 5 4zM846 1393h82q5 -1 5 -4v-20q0 -4 -5 -4h-58v-24h48q4 -1 4 -4v-20q0 -4 -4 -4h-48v-24h58q5 -1 5 -5v-17
q0 -4 -5 -4h-82q-4 0 -4 4v122q0 4 4 4zM1009 1393h82q5 -1 5 -4v-20q0 -4 -5 -4h-60v-24h50q4 -1 4 -4v-20q0 -4 -4 -4h-50v-46q0 -4 -5 -4h-17q-4 0 -4 4v122q0 4 4 4zM1111 1393h20q4 -1 4 -4v-79q0 -16 24 -21q24 5 24 21v79q0 4 4 4h20q4 -1 4 -4v-72q-6 -54 -46 -54
h-13q-37 0 -45 50v76q0 4 4 4zM1226 1393h20q4 -1 4 -4v-100h54q5 -1 5 -5v-17q0 -4 -5 -4h-78q-4 0 -4 4v122q0 4 4 4zM1324 1393h19q5 -1 5 -4v-100h54q4 -1 4 -5v-17q0 -4 -4 -4h-78q-4 0 -4 4v122q0 4 4 4zM522 1243h35q65 0 65 -56q0 -24 -22 -39q11 -29 11 -33v-4h-24
q-5 0 -10 26h-33v-22q0 -4 -4 -4h-18q-4 0 -4 4v124q1 4 4 4zM296 1241h24q5 0 26 -63h2q21 63 27 63h23l5 -2q-52 -118 -52 -124h-7q0 5 -52 124zM418 1241h85q4 -1 4 -4v-18q0 -4 -4 -4h-61v-24h50q4 -1 4 -4v-20q0 -4 -4 -4h-50v-24h61q4 -1 4 -5v-19q0 -4 -4 -4h-85
q-4 0 -4 4v122q0 4 4 4zM674 1241h13q32 0 44 -17q-14 -18 -20 -18q-9 7 -30 9q-22 -3 -22 -11v-4q0 -8 50 -13q24 -15 24 -35q0 -34 -50 -41q-50 7 -50 19q0 3 17 18q16 -9 35 -9q20 3 20 9v6q0 8 -50 13q-24 17 -24 35q0 32 43 39zM748 1241h20q4 -1 4 -4v-122q0 -4 -4 -4
h-20q-4 0 -4 4v122q1 4 4 4zM855 1241q45 0 58 -63q-12 -67 -65 -67q-65 10 -65 65v2q0 44 50 63h22zM1002 1241h20q4 -1 4 -4v-120q0 -4 -4 -4q0 3 -72 67v-65q0 -4 -4 -4h-18q-4 0 -4 4v124h2l72 -65v63q1 4 4 4zM1207 1241h95q4 -1 4 -4v-18q0 -4 -4 -4h-32v-100
q0 -4 -5 -4h-19q-5 0 -5 4v100h-34q-5 0 -5 4v18q1 4 5 4zM1161 1239q6 0 63 -126v-2h-26l-13 19h-48q-11 -19 -13 -19h-26v2q3 17 63 126zM544 1215v-50h24q26 2 26 22v6q0 19 -28 22h-22zM809 1178q6 -39 39 -39q32 0 37 41q0 28 -39 35q-37 -9 -37 -37zM1148 1158h26v3
q-11 20 -11 23q-4 0 -15 -26zM83 1091h9q48 -7 48 -17q0 -3 -17 -18q-21 7 -27 7h-15q-13 -2 -13 -7v-8q0 -5 52 -13q20 -13 20 -33v-2q0 -33 -48 -39h-4q-31 0 -48 19l17 15q21 -6 33 -6h6q11 0 18 11q0 15 -46 15q-28 14 -28 33v4q0 33 43 39zM155 1091h20q4 -1 4 -4v-122
q0 -4 -4 -4h-20q-4 0 -4 4v122q0 4 4 4zM255 1091q34 0 52 -26q0 -3 -17 -17h-2q-16 15 -26 15h-13q-25 0 -31 -35v-6q9 -33 33 -33h6q17 0 33 17l15 -17v-4q-20 -24 -52 -24q-63 11 -63 67q0 54 65 63zM322 1091h20q4 -1 4 -4v-42q2 0 46 46h28q5 -1 5 -4q-4 0 -59 -61
l59 -63l-5 -2h-28l-46 45v-41q0 -4 -4 -4h-20q-4 0 -4 4v122q1 4 4 4zM477 1091q38 0 50 -28l-18 -15q-15 15 -26 15h-13q-30 -9 -30 -31v-13q0 -24 34 -30h7q14 0 28 17q3 0 18 -17v-2q-19 -26 -53 -26q-53 0 -63 65v6q0 46 61 59h5zM674 1091h52q43 0 50 -52
q-7 -52 -52 -52h-26v-22q0 -4 -4 -4h-20q-4 0 -4 4v122q1 4 4 4zM792 1091h17q4 -1 4 -4v-122q0 -4 -4 -4h-17q-5 0 -5 4v122q1 4 5 4zM829 1091h97q5 -1 5 -4v-20q0 -4 -5 -4h-34v-98q0 -4 -5 -4h-19q-5 0 -5 4v98h-34q-5 0 -5 4v20q1 4 5 4zM1052 1091h20q4 -1 4 -4v-98
h55q4 -1 4 -4v-20q0 -4 -4 -4h-79q-4 0 -4 4v122q1 4 4 4zM1241 1091h7q25 0 45 -26q0 -3 -17 -17h-2q-16 15 -26 15h-13q-24 0 -31 -35v-6q10 -33 33 -33h6q17 0 33 17l15 -17v-4q-19 -24 -50 -24q-56 0 -65 69q0 40 48 59q8 2 17 2zM1363 1091q65 -9 65 -65q0 -55 -67 -65
q-44 0 -61 50q-2 8 -2 17q0 54 65 63zM592 1089h6q29 -62 61 -126l-4 -2h-24q-5 0 -9 17h-54q-4 -17 -9 -17h-24q-4 0 -4 4q61 120 61 124zM970 1089h2q4 -2 65 -126l-4 -2h-24q-6 0 -9 17h-52l-13 -17h-26q0 4 61 128zM1439 1089h4q49 -76 57 -81q43 62 54 81h4v-124
q0 -4 -4 -4h-19q-5 0 -5 4v39q-10 -7 -28 -41h-2l-33 41v-39q0 -4 -4 -4h-20q-4 0 -4 4v124zM698 1063v-48h28q20 0 22 26q-3 22 -22 22h-28zM1326 1032v-8q7 -35 33 -35h8q33 9 33 33v6q-7 35 -31 35h-13q-30 -9 -30 -31zM594 1035q-11 -25 -11 -27h24v3q-11 20 -11 24h-2z
M959 1008h26v3q-11 20 -11 24q-4 0 -15 -27zM1161 993h6q11 -6 11 -17q-6 -15 -19 -15q-9 3 -13 11v6q0 15 15 15zM1085 908q10 -1 16 -21l-4 -23q10 -5 30 -5h2q15 0 33 35l11 3h2q6 0 10 -24h-3q0 -25 24 -25h4l26 23h7q11 -7 11 -16q0 -4 -4 -14q0 -13 16 -16l11 7l-2 4
q0 3 19 12h7q34 -30 34 -35l-11 -32q9 -18 16 -21h12q15 12 41 21h7q10 -4 10 -21q-24 -24 -28 -33v-4q2 -7 14 -7q12 7 35 11h6l10 -11q3 0 7 7v4q-5 0 -5 5l-5 -2q-4 0 -4 4l-5 -2h-4q-5 0 -5 5v9h2l5 -3q4 3 7 3q2 -9 11 -9q0 2 3 2q4 -10 4 -14h14l-2 -12l2 -14
q-5 -10 -25 -32h-3l-7 5h-2q-6 0 -9 -31q4 -32 16 -32q3 0 7 2q38 0 49 -25q0 -5 -28 -28v-7q0 -5 37 -12l5 -7q0 -12 -10 -16q-29 3 -32 5q-5 -2 -7 -2q0 -40 14 -40q7 0 16 -2l14 7l12 -3l4 3q7 0 17 -16v-5q0 -3 -12 -12h-9q-6 0 -28 7q-37 0 -37 -32h-3q3 -5 3 -7l4 2
q10 -4 17 -4q2 0 2 2l12 -2h25q14 -2 14 -7v-10q0 -4 -16 -7q-11 5 -23 5q-10 -11 -14 -21l20 -28v-2l-9 -9q-43 11 -49 11q-8 -2 -18 -28q10 -28 32 -44l7 -11v-12q0 -3 -7 -7h-9q-16 12 -25 28q-4 0 -10 5h-7q-6 -10 -41 -14l-26 -21q0 -13 30 -33l3 -11q-11 -9 -17 -9
q0 3 -23 9q-5 11 -23 23q-26 -10 -26 -14q0 -6 7 -30l-9 -7h-9q-8 0 -40 30h-2q-2 0 -9 -9q3 -13 9 -26q-5 -16 -9 -16h-2l-31 28h-7q-4 -21 -20 -21q-23 15 -33 40h-5q-3 0 -7 -7q10 0 10 -5t-5 -5t-5 7h-2q0 -14 -16 -25h-9q-6 0 -14 37l-21 9q-11 -2 -26 -30q-5 -5 -9 -5
q-6 0 -12 12q5 18 7 18q0 17 -30 24l-2 4q-3 0 -30 -23q-5 0 -5 5q3 0 3 2q-7 0 -7 5v4q0 6 7 28v2q0 4 -10 10q-13 0 -25 -10h-12q-3 0 -11 12q11 23 11 30q-9 24 -9 30h2q-2 5 -2 7q-77 -76 -81 -76q-11 1 -37 16q-5 -2 -7 -2q-46 0 -72 18q-23 0 -23 26q-6 13 -31 28v11
h-2v-83q0 -5 -5 -5h-236q-5 0 -5 5v92l-106 -104h-3v95l-88 -83q-80 24 -113 81q-26 48 -26 93v7q0 113 123 169q40 9 58 9q36 -2 46 -7v153q1 5 5 5h127q5 -1 5 -5v-301l216 213l2 -4v-54h46v146q1 5 5 5h128q4 -1 4 -5v-25q5 2 7 2q8 0 37 -9h5l21 18q-17 28 -23 31h-3
q-3 -3 -11 -21l-5 -3h-5q-3 0 -6 7v14q11 42 34 42q19 -9 19 -26q12 -13 25 -13q7 8 7 13q-18 27 -18 35v7q2 7 14 7q11 -8 28 -32q30 0 30 34q4 19 9 19h7q7 0 32 -21q2 0 14 -2q5 2 7 2v-2q28 0 28 16q0 37 14 37zM784 869q15 0 30 -28l-5 -2q-22 9 -30 23v2q1 5 5 5z
M897 660q2 0 2 -2q-8 0 -18 -26q-2 0 -2 -2l4 -7q-12 0 -30 -49h-2q0 3 -28 28h-30q-5 0 -5 5v146h-76v-146q0 -5 -5 -5h-26q-41 0 -76 -9v25q-4 0 -77 -76v-244h77v176q11 51 51 51h51q5 0 5 -4v-65q0 -125 90 -162h2l58 60q-74 16 -74 69v98q1 4 5 4h55q4 0 14 -69
q27 -77 70 -121q35 -38 60 -51q81 -41 121 -41q2 0 2 2l12 -2h21q31 0 41 7q4 -3 10 -3q0 3 46 19q0 10 23 11q0 3 19 12v-2q41 28 41 32q41 43 65 91q0 4 10 18q9 53 16 63q0 8 2 39l-2 5q5 9 5 14q-14 5 -14 21q0 7 7 7v6q-7 0 -7 5v5l2 4q-5 0 -5 5v5q0 2 3 2
q-17 49 -40 79q-18 36 -60 65q-26 27 -95 51q-41 9 -84 9h-2q-2 0 -2 2l-5 -2h-2q-3 0 -3 2q-30 0 -74 -27q0 -13 -53 -21q-62 -36 -72 -70q-9 -9 -21 -37zM1076 813v-2h7v2h-7zM310 753v-170q-50 19 -74 19q-109 0 -151 -118q-2 -23 -2 -35v-5q0 -91 100 -136h5l64 67h-2
l-16 -3q-77 13 -77 82q0 46 56 69q9 2 19 2h11q67 -16 67 -67v-125l77 74v346h-77zM1094 750h16q5 0 5 -4q-10 -19 -23 -23q-5 2 -7 2l-9 -12v-2h11q10 0 14 -30l-11 -7q-8 5 -12 5v-3q0 -3 19 -11q0 4 4 4q13 0 16 -9v-30q-15 -44 -44 -44q0 -3 -30 -7q-14 0 -55 53
q-3 4 -3 12q0 13 10 21q-5 0 -5 4q0 33 49 65l9 -2zM1136 750q17 0 19 -7v-2h-21q-5 0 -5 5zM818 743v-44q7 0 17 -2q11 3 11 7v5q-25 31 -25 34h-3zM1162 743q6 0 27 -9q17 0 30 -11q8 4 14 4l54 -41l11 -19v-2h-4q23 -20 23 -26q0 -8 14 -32q0 -26 -12 -51v-26
q-11 -22 -58 -32q-48 -7 -48 -19l-24 -2h-4q-5 0 -10 16l-9 -9h-21l-11 -3q-5 8 -5 14v3h7v2q0 3 -7 7l-5 -2q-15 0 -18 20q-9 0 -9 14l16 14h4q5 0 5 -4q7 2 7 4q-2 5 -2 7l30 26l23 18h7q6 0 26 -9q2 3 2 12q-14 8 -14 11q-1 -2 -16 -2q0 2 18 37q-9 16 -9 28v5q5 9 12 9
q-3 4 -3 9l-11 -2h-5q-5 0 -16 18q-10 0 -16 12q7 6 7 11zM1122 741h2q6 -4 26 -7v-7q-33 3 -33 10q1 4 5 4zM1036 716q1 -5 5 -5v5h-5zM1025 646v-5h4q0 5 -4 5zM1215 567q-12 -16 -21 -16q1 -5 5 -5h4q0 11 21 17v2q-5 0 -9 2zM774 558l3 -5q0 -4 -5 -4l-2 4q0 5 4 5z
M1087 525q10 0 14 -20q23 -6 23 -19q-4 -11 -9 -12l-14 3q-14 -6 -74 -9q0 -5 -9 -5q-14 5 -14 9q9 19 25 19q2 0 14 -3q12 8 33 35zM419 435v-137h75v211q-4 0 -75 -74zM188 449q10 -46 46 -46q46 10 46 16v37q0 29 -41 39h-7q-37 0 -44 -46zM675 493v-2h4v2h-4zM642 470h5
v4q-5 0 -5 -4zM1296 472q9 -3 9 -7v-4q0 -5 -4 -5h-3q-3 0 -7 7zM649 465v-2h5v2h-5zM1001 468l3 -5v-2h-5v-5h2l10 5l11 -3q5 3 7 3q4 -10 7 -10h7q6 7 30 10q0 -4 10 -7l9 2q15 -7 37 -12l-2 -4v-3h2l7 5h14q12 -12 16 -12q5 3 7 3l2 -5v-5q0 -2 -9 -6q6 -14 9 -14
q-2 -19 -7 -19h-2l-4 2l-3 -4q5 0 9 -3q7 2 19 12q19 -16 19 -19v-4q-7 -12 -10 -12q-8 0 -21 9q0 -7 -2 -11q19 -10 19 -23q-24 -10 -28 -10q-37 15 -37 31l-5 -3h-2q-40 14 -40 40v2h3q7 -5 14 -5q-5 12 -7 12l-12 -7h-7q-16 8 -35 42q-5 9 -14 9l-7 5h-2l-7 -5l-11 2
q0 -7 -19 -7l7 -9v-7q0 -7 -9 -7l-12 3v11q18 23 30 28q-2 4 -2 7q7 5 11 5zM647 451h4v5q-4 -1 -4 -5zM1287 451h4q5 0 7 -14q-12 -27 -14 -27l3 -5v-12q7 0 11 -9v-2q0 -19 -18 -19q-6 0 -14 7q0 -32 -53 -42h-3q-14 6 -14 10v7q0 9 17 18l2 14q-5 0 -5 5q3 0 3 2
q-10 4 -10 7l-4 -2h-7q-14 8 -14 11v14q0 2 16 16h7q5 0 9 -18h7l-2 11l4 3h24q2 0 2 -3q10 2 42 28zM635 417v-5h5q0 5 -5 5zM988 417q13 -18 13 -33l-2 -5q2 -4 2 -7q-12 -16 -18 -16q-33 0 -33 26q5 2 7 2l-7 12q0 12 10 16h11l10 -9q0 14 7 14zM644 407q0 -2 -2 -7h7
q-2 5 -2 7h-3zM1238 403v-7h7v11h-2q-5 0 -5 -4zM644 398v-5h3v5h-3zM1277 382q-2 -5 -2 -7h7q5 0 5 4v3h-10zM1115 377v-5l7 -9q10 3 14 12h-5l-7 -5zM644 370l-2 -5v-2h7v2q0 5 -5 5zM649 354v-2h5v2h-5zM668 352v-5h2v5h-2zM658 347q1 -5 5 -5v5h-5zM665 338v-5h3v5h-3z
M918 287v-3q1 -4 5 -4v2q0 5 -5 5zM904 284q1 -4 5 -4v4h-5zM946 284v-4h2v4h-2zM895 277q4 -5 4 -11h3v9q-5 2 -7 2zM707 270h5q4 0 4 -4v-7q0 -5 -4 -5h-3q-3 0 -7 7v5q1 4 5 4zM967 263v-4h4v4h-4zM971 250v-7q5 2 7 2v2q-2 0 -7 3zM983 247v-4h9v2zM1053 247v-4h2v4h-2z
M955 245q0 -7 -7 -7v-2h9v9h-2zM1039 245v-2h4v2h-4zM1034 243v-5h2v5h-2zM941 233v-2q3 -5 3 -7q-3 0 -3 -2q3 0 7 -3q0 4 9 10q-8 0 -13 4h-3zM1057 226v-4h2v4h-2zM1106 212l4 -2v7q-4 -1 -4 -5zM1013 208l5 -3v7q-5 0 -5 -4zM1011 201v-7l4 -7h-7v-2h5q11 4 12 9l-10 7
h-4zM1199 171h14v4h-10q-4 0 -4 -4zM240 104h63q68 0 80 -76v-4q0 -60 -56 -79q-17 -4 -31 -4h-56q-4 0 -4 4v155q0 4 4 4zM401 104h26q4 -1 4 -4v-155q0 -4 -4 -4h-26q-5 0 -5 4v155q1 4 5 4zM451 104h67q59 -12 59 -59v-6q0 -34 -26 -55l15 -41l-5 -2h-28l-17 33h-35v-29
q0 -4 -4 -4h-26q-5 0 -5 4v155q1 4 5 4zM590 104h121q5 -1 5 -4v-26q0 -5 -5 -5h-43v-124q0 -4 -5 -4h-26q-4 0 -4 4v124h-43q-5 0 -5 5v26q1 4 5 4zM783 104q42 0 48 -50v-2q0 -40 -44 -76h46q4 -1 4 -5v-26q0 -4 -4 -4h-98q-4 0 -4 4v5q0 30 58 82q7 16 7 20v2q0 12 -9 15
h-11q-15 0 -15 -17h-28q-4 0 -4 4v2q0 33 39 46h15zM968 104q42 0 65 -33q0 -3 -22 -21h-2q-16 19 -35 19h-13q-39 -11 -39 -41v-13q0 -29 43 -39h11q13 0 35 21q12 -7 22 -23q-24 -33 -68 -33q-54 0 -78 67v13q0 66 72 83h9zM1120 104q65 0 82 -72v-11q0 -56 -63 -78
q-11 -2 -22 -2q-52 0 -76 63q-2 12 -2 24q16 76 81 76zM1365 102h2v-157q0 -4 -4 -4h-26q-4 0 -4 4v55h-3q-10 -21 -39 -57l-41 57v-55q0 -4 -4 -4h-24q-5 0 -5 4v155h3q71 -100 73 -100q57 84 72 102zM481 71v-63h35q26 6 26 24v13q0 26 -41 26h-20zM270 69v-93h35
q38 0 43 45v7q-7 41 -39 41h-39zM1074 30v-11q9 -43 43 -43h7q43 10 43 39v13q-9 41 -41 41h-13q-39 -13 -39 -39zM870 -18q14 0 17 -19v-2q0 -18 -21 -20q-9 0 -18 13v9q0 17 22 19zM155 -109h74q4 0 4 -4v-17q0 -5 -4 -5h-54v-21h45q5 -1 5 -5v-15q0 -4 -5 -4h-45v-44
q0 -4 -5 -4h-15q-4 0 -4 4v111q0 4 4 4zM294 -109q59 -11 59 -54v-6q0 -52 -61 -59q-47 0 -56 61q11 58 58 58zM435 -109h18q4 0 4 -4v-108q0 -5 -4 -5l-65 61v-59q0 -4 -5 -4h-15q-4 0 -4 4v111h4q32 -29 61 -56h2v56q1 4 4 4zM470 -109h87q4 0 4 -4v-17q0 -5 -4 -5h-30
v-89q0 -4 -5 -4h-17q-4 0 -4 4v89h-31q-4 0 -4 5v17q0 4 4 4zM611 -109q29 0 46 -17q0 -3 -15 -15q-20 6 -26 6h-5q-19 0 -19 -10q0 -11 43 -13q24 -14 24 -35q0 -29 -48 -35q-41 7 -41 15v2q9 16 15 16q11 -7 22 -7h13q11 0 13 7v6q0 6 -48 13q-17 13 -17 26v9q0 25 43 32z
M761 -109q31 -5 31 -26v-2q0 -16 -20 -24q4 -10 9 -11h19q5 0 5 -6t-5 -22q4 0 22 -26l-4 -2h-22l-11 9q-14 -9 -24 -9q-41 8 -41 37q0 21 20 35q-7 11 -7 17v7q0 17 28 23zM892 -109h26q76 0 76 -60q0 -34 -29 -50q-15 -9 -39 -9h-34q-5 0 -5 4v111q1 4 5 4zM1007 -109h76
q4 0 4 -4v-17q0 -5 -4 -5h-55v-21h44q4 -1 4 -5v-15q0 -4 -4 -4h-44v-22h55q4 -1 4 -4v-18q0 -4 -4 -4h-76q-5 0 -5 4v111q1 4 5 4zM1141 -109q46 -7 46 -17q0 -3 -15 -15q-21 6 -33 6h-2q-12 0 -15 -8v-5q0 -7 48 -13q17 -13 17 -26v-8q0 -28 -48 -33q-24 0 -41 15v2
q11 16 17 16q11 -7 22 -7h11q15 0 15 11q0 10 -50 15q-17 16 -17 33q0 27 45 34zM1202 -109h15q5 0 5 -4v-111q0 -4 -5 -4h-15q-4 0 -4 4v111q1 4 4 4zM1291 -109q34 0 52 -30v-4q-8 -11 -19 -11h-2q-6 19 -31 19q-32 -4 -32 -28v-9q0 -30 30 -30h9q12 0 17 9q-24 0 -24 4
v17q1 5 5 5h50q4 -1 4 -5v-4q0 -42 -59 -52q-53 0 -58 61q7 58 58 58zM1432 -109h16q4 0 4 -4v-108q0 -5 -4 -5q-3 6 -61 59h-2v-57q0 -4 -5 -4h-15q-4 0 -4 4v111h2q15 -12 65 -59v59q1 4 4 4zM759 -132v-9h2q5 0 5 4v5h-7zM262 -163v-11q7 -28 28 -28h9q25 0 30 37
q0 24 -35 30h-2q-30 -7 -30 -28zM911 -135v-67h28q29 7 29 28v11q0 24 -35 28h-22zM750 -176l-4 -15q0 -13 15 -13h5q4 0 4 4q-17 24 -20 24z" />
    <glyph glyph-name="dieresis" unicode="&#xa8;" horiz-adv-x="477" 
d="M129 1324q34 0 60 -23q24 -26 24 -60q0 -35 -24 -61q-26 -23 -60 -23q-35 0 -61 23q-23 26 -23 61q0 34 23 60q26 23 61 23zM348 1324q35 0 58 -23q26 -26 26 -60q0 -35 -26 -61q-23 -23 -58 -23q-34 0 -60 23q-24 26 -24 61q0 34 24 60q26 23 60 23z" />
    <glyph glyph-name="copyright" unicode="&#xa9;" horiz-adv-x="1602" 
d="M257 1393q47 -3 59 -39q-20 -13 -24 -13q-8 24 -35 24h-2q-35 -5 -35 -35v-9q0 -26 37 -32q17 0 26 11h-24q-4 0 -4 4v19q1 5 4 5h59q4 -1 4 -5q-10 -60 -58 -60h-15q-48 0 -57 65q8 65 65 65zM338 1393h82q5 -1 5 -4v-20q0 -4 -5 -4h-58v-24h47q5 -1 5 -4v-20
q0 -4 -5 -4h-47v-24h58q5 -1 5 -5v-17q0 -4 -5 -4h-82q-5 0 -5 4v122q1 4 5 4zM440 1393h95q5 -1 5 -4v-20q0 -4 -5 -4h-32v-98q0 -4 -5 -4h-19q-5 0 -5 4v98h-34q-5 0 -5 4v20q1 4 5 4zM616 1393h95q5 -1 5 -4v-20q0 -4 -5 -4h-34v-98q0 -4 -5 -4h-19q-5 0 -5 4v98h-32
q-5 0 -5 4v20q1 4 5 4zM731 1393h19q5 -1 5 -4v-48h48v48q0 4 4 4h19q5 -1 5 -4v-122q0 -4 -5 -4h-19q-4 0 -4 4v46h-48v-46q0 -4 -5 -4h-19q-5 0 -5 4v122q1 4 5 4zM846 1393h82q5 -1 5 -4v-20q0 -4 -5 -4h-58v-24h48q4 -1 4 -4v-20q0 -4 -4 -4h-48v-24h58q5 -1 5 -5v-17
q0 -4 -5 -4h-82q-4 0 -4 4v122q0 4 4 4zM1009 1393h82q5 -1 5 -4v-20q0 -4 -5 -4h-60v-24h50q4 -1 4 -4v-20q0 -4 -4 -4h-50v-46q0 -4 -5 -4h-17q-4 0 -4 4v122q0 4 4 4zM1111 1393h20q4 -1 4 -4v-79q0 -16 24 -21q24 5 24 21v79q0 4 4 4h20q4 -1 4 -4v-72q-6 -54 -46 -54
h-13q-37 0 -45 50v76q0 4 4 4zM1226 1393h20q4 -1 4 -4v-100h54q5 -1 5 -5v-17q0 -4 -5 -4h-78q-4 0 -4 4v122q0 4 4 4zM1324 1393h19q5 -1 5 -4v-100h54q4 -1 4 -5v-17q0 -4 -4 -4h-78q-4 0 -4 4v122q0 4 4 4zM522 1243h35q65 0 65 -56q0 -24 -22 -39q11 -29 11 -33v-4h-24
q-5 0 -10 26h-33v-22q0 -4 -4 -4h-18q-4 0 -4 4v124q1 4 4 4zM296 1241h24q5 0 26 -63h2q21 63 27 63h23l5 -2q-52 -118 -52 -124h-7q0 5 -52 124zM418 1241h85q4 -1 4 -4v-18q0 -4 -4 -4h-61v-24h50q4 -1 4 -4v-20q0 -4 -4 -4h-50v-24h61q4 -1 4 -5v-19q0 -4 -4 -4h-85
q-4 0 -4 4v122q0 4 4 4zM674 1241h13q32 0 44 -17q-14 -18 -20 -18q-9 7 -30 9q-22 -3 -22 -11v-4q0 -8 50 -13q24 -15 24 -35q0 -34 -50 -41q-50 7 -50 19q0 3 17 18q16 -9 35 -9q20 3 20 9v6q0 8 -50 13q-24 17 -24 35q0 32 43 39zM748 1241h20q4 -1 4 -4v-122q0 -4 -4 -4
h-20q-4 0 -4 4v122q1 4 4 4zM855 1241q45 0 58 -63q-12 -67 -65 -67q-65 10 -65 65v2q0 44 50 63h22zM1002 1241h20q4 -1 4 -4v-120q0 -4 -4 -4q0 3 -72 67v-65q0 -4 -4 -4h-18q-4 0 -4 4v124h2l72 -65v63q1 4 4 4zM1207 1241h95q4 -1 4 -4v-18q0 -4 -4 -4h-32v-100
q0 -4 -5 -4h-19q-5 0 -5 4v100h-34q-5 0 -5 4v18q1 4 5 4zM1161 1239q6 0 63 -126v-2h-26l-13 19h-48q-11 -19 -13 -19h-26v2q3 17 63 126zM544 1215v-50h24q26 2 26 22v6q0 19 -28 22h-22zM809 1178q6 -39 39 -39q32 0 37 41q0 28 -39 35q-37 -9 -37 -37zM1148 1158h26v3
q-11 20 -11 23q-4 0 -15 -26zM83 1091h9q48 -7 48 -17q0 -3 -17 -18q-21 7 -27 7h-15q-13 -2 -13 -7v-8q0 -5 52 -13q20 -13 20 -33v-2q0 -33 -48 -39h-4q-31 0 -48 19l17 15q21 -6 33 -6h6q11 0 18 11q0 15 -46 15q-28 14 -28 33v4q0 33 43 39zM155 1091h20q4 -1 4 -4v-122
q0 -4 -4 -4h-20q-4 0 -4 4v122q0 4 4 4zM255 1091q34 0 52 -26q0 -3 -17 -17h-2q-16 15 -26 15h-13q-25 0 -31 -35v-6q9 -33 33 -33h6q17 0 33 17l15 -17v-4q-20 -24 -52 -24q-63 11 -63 67q0 54 65 63zM322 1091h20q4 -1 4 -4v-42q2 0 46 46h28q5 -1 5 -4q-4 0 -59 -61
l59 -63l-5 -2h-28l-46 45v-41q0 -4 -4 -4h-20q-4 0 -4 4v122q1 4 4 4zM477 1091q38 0 50 -28l-18 -15q-15 15 -26 15h-13q-30 -9 -30 -31v-13q0 -24 34 -30h7q14 0 28 17q3 0 18 -17v-2q-19 -26 -53 -26q-53 0 -63 65v6q0 46 61 59h5zM674 1091h52q43 0 50 -52
q-7 -52 -52 -52h-26v-22q0 -4 -4 -4h-20q-4 0 -4 4v122q1 4 4 4zM792 1091h17q4 -1 4 -4v-122q0 -4 -4 -4h-17q-5 0 -5 4v122q1 4 5 4zM829 1091h97q5 -1 5 -4v-20q0 -4 -5 -4h-34v-98q0 -4 -5 -4h-19q-5 0 -5 4v98h-34q-5 0 -5 4v20q1 4 5 4zM1052 1091h20q4 -1 4 -4v-98
h55q4 -1 4 -4v-20q0 -4 -4 -4h-79q-4 0 -4 4v122q1 4 4 4zM1241 1091h7q25 0 45 -26q0 -3 -17 -17h-2q-16 15 -26 15h-13q-24 0 -31 -35v-6q10 -33 33 -33h6q17 0 33 17l15 -17v-4q-19 -24 -50 -24q-56 0 -65 69q0 40 48 59q8 2 17 2zM1363 1091q65 -9 65 -65q0 -55 -67 -65
q-44 0 -61 50q-2 8 -2 17q0 54 65 63zM592 1089h6q29 -62 61 -126l-4 -2h-24q-5 0 -9 17h-54q-4 -17 -9 -17h-24q-4 0 -4 4q61 120 61 124zM970 1089h2q4 -2 65 -126l-4 -2h-24q-6 0 -9 17h-52l-13 -17h-26q0 4 61 128zM1439 1089h4q49 -76 57 -81q43 62 54 81h4v-124
q0 -4 -4 -4h-19q-5 0 -5 4v39q-10 -7 -28 -41h-2l-33 41v-39q0 -4 -4 -4h-20q-4 0 -4 4v124zM698 1063v-48h28q20 0 22 26q-3 22 -22 22h-28zM1326 1032v-8q7 -35 33 -35h8q33 9 33 33v6q-7 35 -31 35h-13q-30 -9 -30 -31zM594 1035q-11 -25 -11 -27h24v3q-11 20 -11 24h-2z
M959 1008h26v3q-11 20 -11 24q-4 0 -15 -27zM1161 993h6q11 -6 11 -17q-6 -15 -19 -15q-9 3 -13 11v6q0 15 15 15zM1085 908q10 -1 16 -21l-4 -23q10 -5 30 -5h2q15 0 33 35l11 3h2q6 0 10 -24h-3q0 -25 24 -25h4l26 23h7q11 -7 11 -16q0 -4 -4 -14q0 -13 16 -16l11 7l-2 4
q0 3 19 12h7q34 -30 34 -35l-11 -32q9 -18 16 -21h12q15 12 41 21h7q10 -4 10 -21q-24 -24 -28 -33v-4q2 -7 14 -7q12 7 35 11h6l10 -11q3 0 7 7v4q-5 0 -5 5l-5 -2q-4 0 -4 4l-5 -2h-4q-5 0 -5 5v9h2l5 -3q4 3 7 3q2 -9 11 -9q0 2 3 2q4 -10 4 -14h14l-2 -12l2 -14
q-5 -10 -25 -32h-3l-7 5h-2q-6 0 -9 -31q4 -32 16 -32q3 0 7 2q38 0 49 -25q0 -5 -28 -28v-7q0 -5 37 -12l5 -7q0 -12 -10 -16q-29 3 -32 5q-5 -2 -7 -2q0 -40 14 -40q7 0 16 -2l14 7l12 -3l4 3q7 0 17 -16v-5q0 -3 -12 -12h-9q-6 0 -28 7q-37 0 -37 -32h-3q3 -5 3 -7l4 2
q10 -4 17 -4q2 0 2 2l12 -2h25q14 -2 14 -7v-10q0 -4 -16 -7q-11 5 -23 5q-10 -11 -14 -21l20 -28v-2l-9 -9q-43 11 -49 11q-8 -2 -18 -28q10 -28 32 -44l7 -11v-12q0 -3 -7 -7h-9q-16 12 -25 28q-4 0 -10 5h-7q-6 -10 -41 -14l-26 -21q0 -13 30 -33l3 -11q-11 -9 -17 -9
q0 3 -23 9q-5 11 -23 23q-26 -10 -26 -14q0 -6 7 -30l-9 -7h-9q-8 0 -40 30h-2q-2 0 -9 -9q3 -13 9 -26q-5 -16 -9 -16h-2l-31 28h-7q-4 -21 -20 -21q-23 15 -33 40h-5q-3 0 -7 -7q10 0 10 -5t-5 -5t-5 7h-2q0 -14 -16 -25h-9q-6 0 -14 37l-21 9q-11 -2 -26 -30q-5 -5 -9 -5
q-6 0 -12 12q5 18 7 18q0 17 -30 24l-2 4q-3 0 -30 -23q-5 0 -5 5q3 0 3 2q-7 0 -7 5v4q0 6 7 28v2q0 4 -10 10q-13 0 -25 -10h-12q-3 0 -11 12q11 23 11 30q-9 24 -9 30h2q-2 5 -2 7q-77 -76 -81 -76q-11 1 -37 16q-5 -2 -7 -2q-46 0 -72 18q-23 0 -23 26q-6 13 -31 28v11
h-2v-83q0 -5 -5 -5h-236q-5 0 -5 5v92l-106 -104h-3v95l-88 -83q-80 24 -113 81q-26 48 -26 93v7q0 113 123 169q40 9 58 9q36 -2 46 -7v153q1 5 5 5h127q5 -1 5 -5v-301l216 213l2 -4v-54h46v146q1 5 5 5h128q4 -1 4 -5v-25q5 2 7 2q8 0 37 -9h5l21 18q-17 28 -23 31h-3
q-3 -3 -11 -21l-5 -3h-5q-3 0 -6 7v14q11 42 34 42q19 -9 19 -26q12 -13 25 -13q7 8 7 13q-18 27 -18 35v7q2 7 14 7q11 -8 28 -32q30 0 30 34q4 19 9 19h7q7 0 32 -21q2 0 14 -2q5 2 7 2v-2q28 0 28 16q0 37 14 37zM784 869q15 0 30 -28l-5 -2q-22 9 -30 23v2q1 5 5 5z
M897 660q2 0 2 -2q-8 0 -18 -26q-2 0 -2 -2l4 -7q-12 0 -30 -49h-2q0 3 -28 28h-30q-5 0 -5 5v146h-76v-146q0 -5 -5 -5h-26q-41 0 -76 -9v25q-4 0 -77 -76v-244h77v176q11 51 51 51h51q5 0 5 -4v-65q0 -125 90 -162h2l58 60q-74 16 -74 69v98q1 4 5 4h55q4 0 14 -69
q27 -77 70 -121q35 -38 60 -51q81 -41 121 -41q2 0 2 2l12 -2h21q31 0 41 7q4 -3 10 -3q0 3 46 19q0 10 23 11q0 3 19 12v-2q41 28 41 32q41 43 65 91q0 4 10 18q9 53 16 63q0 8 2 39l-2 5q5 9 5 14q-14 5 -14 21q0 7 7 7v6q-7 0 -7 5v5l2 4q-5 0 -5 5v5q0 2 3 2
q-17 49 -40 79q-18 36 -60 65q-26 27 -95 51q-41 9 -84 9h-2q-2 0 -2 2l-5 -2h-2q-3 0 -3 2q-30 0 -74 -27q0 -13 -53 -21q-62 -36 -72 -70q-9 -9 -21 -37zM1076 813v-2h7v2h-7zM310 753v-170q-50 19 -74 19q-109 0 -151 -118q-2 -23 -2 -35v-5q0 -91 100 -136h5l64 67h-2
l-16 -3q-77 13 -77 82q0 46 56 69q9 2 19 2h11q67 -16 67 -67v-125l77 74v346h-77zM1094 750h16q5 0 5 -4q-10 -19 -23 -23q-5 2 -7 2l-9 -12v-2h11q10 0 14 -30l-11 -7q-8 5 -12 5v-3q0 -3 19 -11q0 4 4 4q13 0 16 -9v-30q-15 -44 -44 -44q0 -3 -30 -7q-14 0 -55 53
q-3 4 -3 12q0 13 10 21q-5 0 -5 4q0 33 49 65l9 -2zM1136 750q17 0 19 -7v-2h-21q-5 0 -5 5zM818 743v-44q7 0 17 -2q11 3 11 7v5q-25 31 -25 34h-3zM1162 743q6 0 27 -9q17 0 30 -11q8 4 14 4l54 -41l11 -19v-2h-4q23 -20 23 -26q0 -8 14 -32q0 -26 -12 -51v-26
q-11 -22 -58 -32q-48 -7 -48 -19l-24 -2h-4q-5 0 -10 16l-9 -9h-21l-11 -3q-5 8 -5 14v3h7v2q0 3 -7 7l-5 -2q-15 0 -18 20q-9 0 -9 14l16 14h4q5 0 5 -4q7 2 7 4q-2 5 -2 7l30 26l23 18h7q6 0 26 -9q2 3 2 12q-14 8 -14 11q-1 -2 -16 -2q0 2 18 37q-9 16 -9 28v5q5 9 12 9
q-3 4 -3 9l-11 -2h-5q-5 0 -16 18q-10 0 -16 12q7 6 7 11zM1122 741h2q6 -4 26 -7v-7q-33 3 -33 10q1 4 5 4zM1036 716q1 -5 5 -5v5h-5zM1025 646v-5h4q0 5 -4 5zM1215 567q-12 -16 -21 -16q1 -5 5 -5h4q0 11 21 17v2q-5 0 -9 2zM774 558l3 -5q0 -4 -5 -4l-2 4q0 5 4 5z
M1087 525q10 0 14 -20q23 -6 23 -19q-4 -11 -9 -12l-14 3q-14 -6 -74 -9q0 -5 -9 -5q-14 5 -14 9q9 19 25 19q2 0 14 -3q12 8 33 35zM419 435v-137h75v211q-4 0 -75 -74zM188 449q10 -46 46 -46q46 10 46 16v37q0 29 -41 39h-7q-37 0 -44 -46zM675 493v-2h4v2h-4zM642 470h5
v4q-5 0 -5 -4zM1296 472q9 -3 9 -7v-4q0 -5 -4 -5h-3q-3 0 -7 7zM649 465v-2h5v2h-5zM1001 468l3 -5v-2h-5v-5h2l10 5l11 -3q5 3 7 3q4 -10 7 -10h7q6 7 30 10q0 -4 10 -7l9 2q15 -7 37 -12l-2 -4v-3h2l7 5h14q12 -12 16 -12q5 3 7 3l2 -5v-5q0 -2 -9 -6q6 -14 9 -14
q-2 -19 -7 -19h-2l-4 2l-3 -4q5 0 9 -3q7 2 19 12q19 -16 19 -19v-4q-7 -12 -10 -12q-8 0 -21 9q0 -7 -2 -11q19 -10 19 -23q-24 -10 -28 -10q-37 15 -37 31l-5 -3h-2q-40 14 -40 40v2h3q7 -5 14 -5q-5 12 -7 12l-12 -7h-7q-16 8 -35 42q-5 9 -14 9l-7 5h-2l-7 -5l-11 2
q0 -7 -19 -7l7 -9v-7q0 -7 -9 -7l-12 3v11q18 23 30 28q-2 4 -2 7q7 5 11 5zM647 451h4v5q-4 -1 -4 -5zM1287 451h4q5 0 7 -14q-12 -27 -14 -27l3 -5v-12q7 0 11 -9v-2q0 -19 -18 -19q-6 0 -14 7q0 -32 -53 -42h-3q-14 6 -14 10v7q0 9 17 18l2 14q-5 0 -5 5q3 0 3 2
q-10 4 -10 7l-4 -2h-7q-14 8 -14 11v14q0 2 16 16h7q5 0 9 -18h7l-2 11l4 3h24q2 0 2 -3q10 2 42 28zM635 417v-5h5q0 5 -5 5zM988 417q13 -18 13 -33l-2 -5q2 -4 2 -7q-12 -16 -18 -16q-33 0 -33 26q5 2 7 2l-7 12q0 12 10 16h11l10 -9q0 14 7 14zM644 407q0 -2 -2 -7h7
q-2 5 -2 7h-3zM1238 403v-7h7v11h-2q-5 0 -5 -4zM644 398v-5h3v5h-3zM1277 382q-2 -5 -2 -7h7q5 0 5 4v3h-10zM1115 377v-5l7 -9q10 3 14 12h-5l-7 -5zM644 370l-2 -5v-2h7v2q0 5 -5 5zM649 354v-2h5v2h-5zM668 352v-5h2v5h-2zM658 347q1 -5 5 -5v5h-5zM665 338v-5h3v5h-3z
M918 287v-3q1 -4 5 -4v2q0 5 -5 5zM904 284q1 -4 5 -4v4h-5zM946 284v-4h2v4h-2zM895 277q4 -5 4 -11h3v9q-5 2 -7 2zM707 270h5q4 0 4 -4v-7q0 -5 -4 -5h-3q-3 0 -7 7v5q1 4 5 4zM967 263v-4h4v4h-4zM971 250v-7q5 2 7 2v2q-2 0 -7 3zM983 247v-4h9v2zM1053 247v-4h2v4h-2z
M955 245q0 -7 -7 -7v-2h9v9h-2zM1039 245v-2h4v2h-4zM1034 243v-5h2v5h-2zM941 233v-2q3 -5 3 -7q-3 0 -3 -2q3 0 7 -3q0 4 9 10q-8 0 -13 4h-3zM1057 226v-4h2v4h-2zM1106 212l4 -2v7q-4 -1 -4 -5zM1013 208l5 -3v7q-5 0 -5 -4zM1011 201v-7l4 -7h-7v-2h5q11 4 12 9l-10 7
h-4zM1199 171h14v4h-10q-4 0 -4 -4zM240 104h63q68 0 80 -76v-4q0 -60 -56 -79q-17 -4 -31 -4h-56q-4 0 -4 4v155q0 4 4 4zM401 104h26q4 -1 4 -4v-155q0 -4 -4 -4h-26q-5 0 -5 4v155q1 4 5 4zM451 104h67q59 -12 59 -59v-6q0 -34 -26 -55l15 -41l-5 -2h-28l-17 33h-35v-29
q0 -4 -4 -4h-26q-5 0 -5 4v155q1 4 5 4zM590 104h121q5 -1 5 -4v-26q0 -5 -5 -5h-43v-124q0 -4 -5 -4h-26q-4 0 -4 4v124h-43q-5 0 -5 5v26q1 4 5 4zM783 104q42 0 48 -50v-2q0 -40 -44 -76h46q4 -1 4 -5v-26q0 -4 -4 -4h-98q-4 0 -4 4v5q0 30 58 82q7 16 7 20v2q0 12 -9 15
h-11q-15 0 -15 -17h-28q-4 0 -4 4v2q0 33 39 46h15zM968 104q42 0 65 -33q0 -3 -22 -21h-2q-16 19 -35 19h-13q-39 -11 -39 -41v-13q0 -29 43 -39h11q13 0 35 21q12 -7 22 -23q-24 -33 -68 -33q-54 0 -78 67v13q0 66 72 83h9zM1120 104q65 0 82 -72v-11q0 -56 -63 -78
q-11 -2 -22 -2q-52 0 -76 63q-2 12 -2 24q16 76 81 76zM1365 102h2v-157q0 -4 -4 -4h-26q-4 0 -4 4v55h-3q-10 -21 -39 -57l-41 57v-55q0 -4 -4 -4h-24q-5 0 -5 4v155h3q71 -100 73 -100q57 84 72 102zM481 71v-63h35q26 6 26 24v13q0 26 -41 26h-20zM270 69v-93h35
q38 0 43 45v7q-7 41 -39 41h-39zM1074 30v-11q9 -43 43 -43h7q43 10 43 39v13q-9 41 -41 41h-13q-39 -13 -39 -39zM870 -18q14 0 17 -19v-2q0 -18 -21 -20q-9 0 -18 13v9q0 17 22 19zM155 -109h74q4 0 4 -4v-17q0 -5 -4 -5h-54v-21h45q5 -1 5 -5v-15q0 -4 -5 -4h-45v-44
q0 -4 -5 -4h-15q-4 0 -4 4v111q0 4 4 4zM294 -109q59 -11 59 -54v-6q0 -52 -61 -59q-47 0 -56 61q11 58 58 58zM435 -109h18q4 0 4 -4v-108q0 -5 -4 -5l-65 61v-59q0 -4 -5 -4h-15q-4 0 -4 4v111h4q32 -29 61 -56h2v56q1 4 4 4zM470 -109h87q4 0 4 -4v-17q0 -5 -4 -5h-30
v-89q0 -4 -5 -4h-17q-4 0 -4 4v89h-31q-4 0 -4 5v17q0 4 4 4zM611 -109q29 0 46 -17q0 -3 -15 -15q-20 6 -26 6h-5q-19 0 -19 -10q0 -11 43 -13q24 -14 24 -35q0 -29 -48 -35q-41 7 -41 15v2q9 16 15 16q11 -7 22 -7h13q11 0 13 7v6q0 6 -48 13q-17 13 -17 26v9q0 25 43 32z
M761 -109q31 -5 31 -26v-2q0 -16 -20 -24q4 -10 9 -11h19q5 0 5 -6t-5 -22q4 0 22 -26l-4 -2h-22l-11 9q-14 -9 -24 -9q-41 8 -41 37q0 21 20 35q-7 11 -7 17v7q0 17 28 23zM892 -109h26q76 0 76 -60q0 -34 -29 -50q-15 -9 -39 -9h-34q-5 0 -5 4v111q1 4 5 4zM1007 -109h76
q4 0 4 -4v-17q0 -5 -4 -5h-55v-21h44q4 -1 4 -5v-15q0 -4 -4 -4h-44v-22h55q4 -1 4 -4v-18q0 -4 -4 -4h-76q-5 0 -5 4v111q1 4 5 4zM1141 -109q46 -7 46 -17q0 -3 -15 -15q-21 6 -33 6h-2q-12 0 -15 -8v-5q0 -7 48 -13q17 -13 17 -26v-8q0 -28 -48 -33q-24 0 -41 15v2
q11 16 17 16q11 -7 22 -7h11q15 0 15 11q0 10 -50 15q-17 16 -17 33q0 27 45 34zM1202 -109h15q5 0 5 -4v-111q0 -4 -5 -4h-15q-4 0 -4 4v111q1 4 4 4zM1291 -109q34 0 52 -30v-4q-8 -11 -19 -11h-2q-6 19 -31 19q-32 -4 -32 -28v-9q0 -30 30 -30h9q12 0 17 9q-24 0 -24 4
v17q1 5 5 5h50q4 -1 4 -5v-4q0 -42 -59 -52q-53 0 -58 61q7 58 58 58zM1432 -109h16q4 0 4 -4v-108q0 -5 -4 -5q-3 6 -61 59h-2v-57q0 -4 -5 -4h-15q-4 0 -4 4v111h2q15 -12 65 -59v59q1 4 4 4zM759 -132v-9h2q5 0 5 4v5h-7zM262 -163v-11q7 -28 28 -28h9q25 0 30 37
q0 24 -35 30h-2q-30 -7 -30 -28zM911 -135v-67h28q29 7 29 28v11q0 24 -35 28h-22zM750 -176l-4 -15q0 -13 15 -13h5q4 0 4 4q-17 24 -20 24z" />
    <glyph glyph-name="ordfeminine" unicode="&#xaa;" horiz-adv-x="460" 
d="M279 1010l-49 89l-49 -89h98zM415 897h-87l-20 46h-156l-20 -46h-87l185 335z" />
    <glyph glyph-name="guillemotleft" unicode="&#xab;" horiz-adv-x="604" 
d="M319 715l-106 -191l106 -184l-83 -148l-191 332l191 338zM559 715l-107 -191l107 -184l-84 -148l-190 332l190 338z" />
    <glyph glyph-name="logicalnot" unicode="&#xac;" horiz-adv-x="1014" 
 />
    <glyph glyph-name="registered" unicode="&#xae;" horiz-adv-x="1602" 
d="M257 1393q47 -3 59 -39q-20 -13 -24 -13q-8 24 -35 24h-2q-35 -5 -35 -35v-9q0 -26 37 -32q17 0 26 11h-24q-4 0 -4 4v19q1 5 4 5h59q4 -1 4 -5q-10 -60 -58 -60h-15q-48 0 -57 65q8 65 65 65zM338 1393h82q5 -1 5 -4v-20q0 -4 -5 -4h-58v-24h47q5 -1 5 -4v-20
q0 -4 -5 -4h-47v-24h58q5 -1 5 -5v-17q0 -4 -5 -4h-82q-5 0 -5 4v122q1 4 5 4zM440 1393h95q5 -1 5 -4v-20q0 -4 -5 -4h-32v-98q0 -4 -5 -4h-19q-5 0 -5 4v98h-34q-5 0 -5 4v20q1 4 5 4zM616 1393h95q5 -1 5 -4v-20q0 -4 -5 -4h-34v-98q0 -4 -5 -4h-19q-5 0 -5 4v98h-32
q-5 0 -5 4v20q1 4 5 4zM731 1393h19q5 -1 5 -4v-48h48v48q0 4 4 4h19q5 -1 5 -4v-122q0 -4 -5 -4h-19q-4 0 -4 4v46h-48v-46q0 -4 -5 -4h-19q-5 0 -5 4v122q1 4 5 4zM846 1393h82q5 -1 5 -4v-20q0 -4 -5 -4h-58v-24h48q4 -1 4 -4v-20q0 -4 -4 -4h-48v-24h58q5 -1 5 -5v-17
q0 -4 -5 -4h-82q-4 0 -4 4v122q0 4 4 4zM1009 1393h82q5 -1 5 -4v-20q0 -4 -5 -4h-60v-24h50q4 -1 4 -4v-20q0 -4 -4 -4h-50v-46q0 -4 -5 -4h-17q-4 0 -4 4v122q0 4 4 4zM1111 1393h20q4 -1 4 -4v-79q0 -16 24 -21q24 5 24 21v79q0 4 4 4h20q4 -1 4 -4v-72q-6 -54 -46 -54
h-13q-37 0 -45 50v76q0 4 4 4zM1226 1393h20q4 -1 4 -4v-100h54q5 -1 5 -5v-17q0 -4 -5 -4h-78q-4 0 -4 4v122q0 4 4 4zM1324 1393h19q5 -1 5 -4v-100h54q4 -1 4 -5v-17q0 -4 -4 -4h-78q-4 0 -4 4v122q0 4 4 4zM522 1243h35q65 0 65 -56q0 -24 -22 -39q11 -29 11 -33v-4h-24
q-5 0 -10 26h-33v-22q0 -4 -4 -4h-18q-4 0 -4 4v124q1 4 4 4zM296 1241h24q5 0 26 -63h2q21 63 27 63h23l5 -2q-52 -118 -52 -124h-7q0 5 -52 124zM418 1241h85q4 -1 4 -4v-18q0 -4 -4 -4h-61v-24h50q4 -1 4 -4v-20q0 -4 -4 -4h-50v-24h61q4 -1 4 -5v-19q0 -4 -4 -4h-85
q-4 0 -4 4v122q0 4 4 4zM674 1241h13q32 0 44 -17q-14 -18 -20 -18q-9 7 -30 9q-22 -3 -22 -11v-4q0 -8 50 -13q24 -15 24 -35q0 -34 -50 -41q-50 7 -50 19q0 3 17 18q16 -9 35 -9q20 3 20 9v6q0 8 -50 13q-24 17 -24 35q0 32 43 39zM748 1241h20q4 -1 4 -4v-122q0 -4 -4 -4
h-20q-4 0 -4 4v122q1 4 4 4zM855 1241q45 0 58 -63q-12 -67 -65 -67q-65 10 -65 65v2q0 44 50 63h22zM1002 1241h20q4 -1 4 -4v-120q0 -4 -4 -4q0 3 -72 67v-65q0 -4 -4 -4h-18q-4 0 -4 4v124h2l72 -65v63q1 4 4 4zM1207 1241h95q4 -1 4 -4v-18q0 -4 -4 -4h-32v-100
q0 -4 -5 -4h-19q-5 0 -5 4v100h-34q-5 0 -5 4v18q1 4 5 4zM1161 1239q6 0 63 -126v-2h-26l-13 19h-48q-11 -19 -13 -19h-26v2q3 17 63 126zM544 1215v-50h24q26 2 26 22v6q0 19 -28 22h-22zM809 1178q6 -39 39 -39q32 0 37 41q0 28 -39 35q-37 -9 -37 -37zM1148 1158h26v3
q-11 20 -11 23q-4 0 -15 -26zM83 1091h9q48 -7 48 -17q0 -3 -17 -18q-21 7 -27 7h-15q-13 -2 -13 -7v-8q0 -5 52 -13q20 -13 20 -33v-2q0 -33 -48 -39h-4q-31 0 -48 19l17 15q21 -6 33 -6h6q11 0 18 11q0 15 -46 15q-28 14 -28 33v4q0 33 43 39zM155 1091h20q4 -1 4 -4v-122
q0 -4 -4 -4h-20q-4 0 -4 4v122q0 4 4 4zM255 1091q34 0 52 -26q0 -3 -17 -17h-2q-16 15 -26 15h-13q-25 0 -31 -35v-6q9 -33 33 -33h6q17 0 33 17l15 -17v-4q-20 -24 -52 -24q-63 11 -63 67q0 54 65 63zM322 1091h20q4 -1 4 -4v-42q2 0 46 46h28q5 -1 5 -4q-4 0 -59 -61
l59 -63l-5 -2h-28l-46 45v-41q0 -4 -4 -4h-20q-4 0 -4 4v122q1 4 4 4zM477 1091q38 0 50 -28l-18 -15q-15 15 -26 15h-13q-30 -9 -30 -31v-13q0 -24 34 -30h7q14 0 28 17q3 0 18 -17v-2q-19 -26 -53 -26q-53 0 -63 65v6q0 46 61 59h5zM674 1091h52q43 0 50 -52
q-7 -52 -52 -52h-26v-22q0 -4 -4 -4h-20q-4 0 -4 4v122q1 4 4 4zM792 1091h17q4 -1 4 -4v-122q0 -4 -4 -4h-17q-5 0 -5 4v122q1 4 5 4zM829 1091h97q5 -1 5 -4v-20q0 -4 -5 -4h-34v-98q0 -4 -5 -4h-19q-5 0 -5 4v98h-34q-5 0 -5 4v20q1 4 5 4zM1052 1091h20q4 -1 4 -4v-98
h55q4 -1 4 -4v-20q0 -4 -4 -4h-79q-4 0 -4 4v122q1 4 4 4zM1241 1091h7q25 0 45 -26q0 -3 -17 -17h-2q-16 15 -26 15h-13q-24 0 -31 -35v-6q10 -33 33 -33h6q17 0 33 17l15 -17v-4q-19 -24 -50 -24q-56 0 -65 69q0 40 48 59q8 2 17 2zM1363 1091q65 -9 65 -65q0 -55 -67 -65
q-44 0 -61 50q-2 8 -2 17q0 54 65 63zM592 1089h6q29 -62 61 -126l-4 -2h-24q-5 0 -9 17h-54q-4 -17 -9 -17h-24q-4 0 -4 4q61 120 61 124zM970 1089h2q4 -2 65 -126l-4 -2h-24q-6 0 -9 17h-52l-13 -17h-26q0 4 61 128zM1439 1089h4q49 -76 57 -81q43 62 54 81h4v-124
q0 -4 -4 -4h-19q-5 0 -5 4v39q-10 -7 -28 -41h-2l-33 41v-39q0 -4 -4 -4h-20q-4 0 -4 4v124zM698 1063v-48h28q20 0 22 26q-3 22 -22 22h-28zM1326 1032v-8q7 -35 33 -35h8q33 9 33 33v6q-7 35 -31 35h-13q-30 -9 -30 -31zM594 1035q-11 -25 -11 -27h24v3q-11 20 -11 24h-2z
M959 1008h26v3q-11 20 -11 24q-4 0 -15 -27zM1161 993h6q11 -6 11 -17q-6 -15 -19 -15q-9 3 -13 11v6q0 15 15 15zM1085 908q10 -1 16 -21l-4 -23q10 -5 30 -5h2q15 0 33 35l11 3h2q6 0 10 -24h-3q0 -25 24 -25h4l26 23h7q11 -7 11 -16q0 -4 -4 -14q0 -13 16 -16l11 7l-2 4
q0 3 19 12h7q34 -30 34 -35l-11 -32q9 -18 16 -21h12q15 12 41 21h7q10 -4 10 -21q-24 -24 -28 -33v-4q2 -7 14 -7q12 7 35 11h6l10 -11q3 0 7 7v4q-5 0 -5 5l-5 -2q-4 0 -4 4l-5 -2h-4q-5 0 -5 5v9h2l5 -3q4 3 7 3q2 -9 11 -9q0 2 3 2q4 -10 4 -14h14l-2 -12l2 -14
q-5 -10 -25 -32h-3l-7 5h-2q-6 0 -9 -31q4 -32 16 -32q3 0 7 2q38 0 49 -25q0 -5 -28 -28v-7q0 -5 37 -12l5 -7q0 -12 -10 -16q-29 3 -32 5q-5 -2 -7 -2q0 -40 14 -40q7 0 16 -2l14 7l12 -3l4 3q7 0 17 -16v-5q0 -3 -12 -12h-9q-6 0 -28 7q-37 0 -37 -32h-3q3 -5 3 -7l4 2
q10 -4 17 -4q2 0 2 2l12 -2h25q14 -2 14 -7v-10q0 -4 -16 -7q-11 5 -23 5q-10 -11 -14 -21l20 -28v-2l-9 -9q-43 11 -49 11q-8 -2 -18 -28q10 -28 32 -44l7 -11v-12q0 -3 -7 -7h-9q-16 12 -25 28q-4 0 -10 5h-7q-6 -10 -41 -14l-26 -21q0 -13 30 -33l3 -11q-11 -9 -17 -9
q0 3 -23 9q-5 11 -23 23q-26 -10 -26 -14q0 -6 7 -30l-9 -7h-9q-8 0 -40 30h-2q-2 0 -9 -9q3 -13 9 -26q-5 -16 -9 -16h-2l-31 28h-7q-4 -21 -20 -21q-23 15 -33 40h-5q-3 0 -7 -7q10 0 10 -5t-5 -5t-5 7h-2q0 -14 -16 -25h-9q-6 0 -14 37l-21 9q-11 -2 -26 -30q-5 -5 -9 -5
q-6 0 -12 12q5 18 7 18q0 17 -30 24l-2 4q-3 0 -30 -23q-5 0 -5 5q3 0 3 2q-7 0 -7 5v4q0 6 7 28v2q0 4 -10 10q-13 0 -25 -10h-12q-3 0 -11 12q11 23 11 30q-9 24 -9 30h2q-2 5 -2 7q-77 -76 -81 -76q-11 1 -37 16q-5 -2 -7 -2q-46 0 -72 18q-23 0 -23 26q-6 13 -31 28v11
h-2v-83q0 -5 -5 -5h-236q-5 0 -5 5v92l-106 -104h-3v95l-88 -83q-80 24 -113 81q-26 48 -26 93v7q0 113 123 169q40 9 58 9q36 -2 46 -7v153q1 5 5 5h127q5 -1 5 -5v-301l216 213l2 -4v-54h46v146q1 5 5 5h128q4 -1 4 -5v-25q5 2 7 2q8 0 37 -9h5l21 18q-17 28 -23 31h-3
q-3 -3 -11 -21l-5 -3h-5q-3 0 -6 7v14q11 42 34 42q19 -9 19 -26q12 -13 25 -13q7 8 7 13q-18 27 -18 35v7q2 7 14 7q11 -8 28 -32q30 0 30 34q4 19 9 19h7q7 0 32 -21q2 0 14 -2q5 2 7 2v-2q28 0 28 16q0 37 14 37zM784 869q15 0 30 -28l-5 -2q-22 9 -30 23v2q1 5 5 5z
M897 660q2 0 2 -2q-8 0 -18 -26q-2 0 -2 -2l4 -7q-12 0 -30 -49h-2q0 3 -28 28h-30q-5 0 -5 5v146h-76v-146q0 -5 -5 -5h-26q-41 0 -76 -9v25q-4 0 -77 -76v-244h77v176q11 51 51 51h51q5 0 5 -4v-65q0 -125 90 -162h2l58 60q-74 16 -74 69v98q1 4 5 4h55q4 0 14 -69
q27 -77 70 -121q35 -38 60 -51q81 -41 121 -41q2 0 2 2l12 -2h21q31 0 41 7q4 -3 10 -3q0 3 46 19q0 10 23 11q0 3 19 12v-2q41 28 41 32q41 43 65 91q0 4 10 18q9 53 16 63q0 8 2 39l-2 5q5 9 5 14q-14 5 -14 21q0 7 7 7v6q-7 0 -7 5v5l2 4q-5 0 -5 5v5q0 2 3 2
q-17 49 -40 79q-18 36 -60 65q-26 27 -95 51q-41 9 -84 9h-2q-2 0 -2 2l-5 -2h-2q-3 0 -3 2q-30 0 -74 -27q0 -13 -53 -21q-62 -36 -72 -70q-9 -9 -21 -37zM1076 813v-2h7v2h-7zM310 753v-170q-50 19 -74 19q-109 0 -151 -118q-2 -23 -2 -35v-5q0 -91 100 -136h5l64 67h-2
l-16 -3q-77 13 -77 82q0 46 56 69q9 2 19 2h11q67 -16 67 -67v-125l77 74v346h-77zM1094 750h16q5 0 5 -4q-10 -19 -23 -23q-5 2 -7 2l-9 -12v-2h11q10 0 14 -30l-11 -7q-8 5 -12 5v-3q0 -3 19 -11q0 4 4 4q13 0 16 -9v-30q-15 -44 -44 -44q0 -3 -30 -7q-14 0 -55 53
q-3 4 -3 12q0 13 10 21q-5 0 -5 4q0 33 49 65l9 -2zM1136 750q17 0 19 -7v-2h-21q-5 0 -5 5zM818 743v-44q7 0 17 -2q11 3 11 7v5q-25 31 -25 34h-3zM1162 743q6 0 27 -9q17 0 30 -11q8 4 14 4l54 -41l11 -19v-2h-4q23 -20 23 -26q0 -8 14 -32q0 -26 -12 -51v-26
q-11 -22 -58 -32q-48 -7 -48 -19l-24 -2h-4q-5 0 -10 16l-9 -9h-21l-11 -3q-5 8 -5 14v3h7v2q0 3 -7 7l-5 -2q-15 0 -18 20q-9 0 -9 14l16 14h4q5 0 5 -4q7 2 7 4q-2 5 -2 7l30 26l23 18h7q6 0 26 -9q2 3 2 12q-14 8 -14 11q-1 -2 -16 -2q0 2 18 37q-9 16 -9 28v5q5 9 12 9
q-3 4 -3 9l-11 -2h-5q-5 0 -16 18q-10 0 -16 12q7 6 7 11zM1122 741h2q6 -4 26 -7v-7q-33 3 -33 10q1 4 5 4zM1036 716q1 -5 5 -5v5h-5zM1025 646v-5h4q0 5 -4 5zM1215 567q-12 -16 -21 -16q1 -5 5 -5h4q0 11 21 17v2q-5 0 -9 2zM774 558l3 -5q0 -4 -5 -4l-2 4q0 5 4 5z
M1087 525q10 0 14 -20q23 -6 23 -19q-4 -11 -9 -12l-14 3q-14 -6 -74 -9q0 -5 -9 -5q-14 5 -14 9q9 19 25 19q2 0 14 -3q12 8 33 35zM419 435v-137h75v211q-4 0 -75 -74zM188 449q10 -46 46 -46q46 10 46 16v37q0 29 -41 39h-7q-37 0 -44 -46zM675 493v-2h4v2h-4zM642 470h5
v4q-5 0 -5 -4zM1296 472q9 -3 9 -7v-4q0 -5 -4 -5h-3q-3 0 -7 7zM649 465v-2h5v2h-5zM1001 468l3 -5v-2h-5v-5h2l10 5l11 -3q5 3 7 3q4 -10 7 -10h7q6 7 30 10q0 -4 10 -7l9 2q15 -7 37 -12l-2 -4v-3h2l7 5h14q12 -12 16 -12q5 3 7 3l2 -5v-5q0 -2 -9 -6q6 -14 9 -14
q-2 -19 -7 -19h-2l-4 2l-3 -4q5 0 9 -3q7 2 19 12q19 -16 19 -19v-4q-7 -12 -10 -12q-8 0 -21 9q0 -7 -2 -11q19 -10 19 -23q-24 -10 -28 -10q-37 15 -37 31l-5 -3h-2q-40 14 -40 40v2h3q7 -5 14 -5q-5 12 -7 12l-12 -7h-7q-16 8 -35 42q-5 9 -14 9l-7 5h-2l-7 -5l-11 2
q0 -7 -19 -7l7 -9v-7q0 -7 -9 -7l-12 3v11q18 23 30 28q-2 4 -2 7q7 5 11 5zM647 451h4v5q-4 -1 -4 -5zM1287 451h4q5 0 7 -14q-12 -27 -14 -27l3 -5v-12q7 0 11 -9v-2q0 -19 -18 -19q-6 0 -14 7q0 -32 -53 -42h-3q-14 6 -14 10v7q0 9 17 18l2 14q-5 0 -5 5q3 0 3 2
q-10 4 -10 7l-4 -2h-7q-14 8 -14 11v14q0 2 16 16h7q5 0 9 -18h7l-2 11l4 3h24q2 0 2 -3q10 2 42 28zM635 417v-5h5q0 5 -5 5zM988 417q13 -18 13 -33l-2 -5q2 -4 2 -7q-12 -16 -18 -16q-33 0 -33 26q5 2 7 2l-7 12q0 12 10 16h11l10 -9q0 14 7 14zM644 407q0 -2 -2 -7h7
q-2 5 -2 7h-3zM1238 403v-7h7v11h-2q-5 0 -5 -4zM644 398v-5h3v5h-3zM1277 382q-2 -5 -2 -7h7q5 0 5 4v3h-10zM1115 377v-5l7 -9q10 3 14 12h-5l-7 -5zM644 370l-2 -5v-2h7v2q0 5 -5 5zM649 354v-2h5v2h-5zM668 352v-5h2v5h-2zM658 347q1 -5 5 -5v5h-5zM665 338v-5h3v5h-3z
M918 287v-3q1 -4 5 -4v2q0 5 -5 5zM904 284q1 -4 5 -4v4h-5zM946 284v-4h2v4h-2zM895 277q4 -5 4 -11h3v9q-5 2 -7 2zM707 270h5q4 0 4 -4v-7q0 -5 -4 -5h-3q-3 0 -7 7v5q1 4 5 4zM967 263v-4h4v4h-4zM971 250v-7q5 2 7 2v2q-2 0 -7 3zM983 247v-4h9v2zM1053 247v-4h2v4h-2z
M955 245q0 -7 -7 -7v-2h9v9h-2zM1039 245v-2h4v2h-4zM1034 243v-5h2v5h-2zM941 233v-2q3 -5 3 -7q-3 0 -3 -2q3 0 7 -3q0 4 9 10q-8 0 -13 4h-3zM1057 226v-4h2v4h-2zM1106 212l4 -2v7q-4 -1 -4 -5zM1013 208l5 -3v7q-5 0 -5 -4zM1011 201v-7l4 -7h-7v-2h5q11 4 12 9l-10 7
h-4zM1199 171h14v4h-10q-4 0 -4 -4zM240 104h63q68 0 80 -76v-4q0 -60 -56 -79q-17 -4 -31 -4h-56q-4 0 -4 4v155q0 4 4 4zM401 104h26q4 -1 4 -4v-155q0 -4 -4 -4h-26q-5 0 -5 4v155q1 4 5 4zM451 104h67q59 -12 59 -59v-6q0 -34 -26 -55l15 -41l-5 -2h-28l-17 33h-35v-29
q0 -4 -4 -4h-26q-5 0 -5 4v155q1 4 5 4zM590 104h121q5 -1 5 -4v-26q0 -5 -5 -5h-43v-124q0 -4 -5 -4h-26q-4 0 -4 4v124h-43q-5 0 -5 5v26q1 4 5 4zM783 104q42 0 48 -50v-2q0 -40 -44 -76h46q4 -1 4 -5v-26q0 -4 -4 -4h-98q-4 0 -4 4v5q0 30 58 82q7 16 7 20v2q0 12 -9 15
h-11q-15 0 -15 -17h-28q-4 0 -4 4v2q0 33 39 46h15zM968 104q42 0 65 -33q0 -3 -22 -21h-2q-16 19 -35 19h-13q-39 -11 -39 -41v-13q0 -29 43 -39h11q13 0 35 21q12 -7 22 -23q-24 -33 -68 -33q-54 0 -78 67v13q0 66 72 83h9zM1120 104q65 0 82 -72v-11q0 -56 -63 -78
q-11 -2 -22 -2q-52 0 -76 63q-2 12 -2 24q16 76 81 76zM1365 102h2v-157q0 -4 -4 -4h-26q-4 0 -4 4v55h-3q-10 -21 -39 -57l-41 57v-55q0 -4 -4 -4h-24q-5 0 -5 4v155h3q71 -100 73 -100q57 84 72 102zM481 71v-63h35q26 6 26 24v13q0 26 -41 26h-20zM270 69v-93h35
q38 0 43 45v7q-7 41 -39 41h-39zM1074 30v-11q9 -43 43 -43h7q43 10 43 39v13q-9 41 -41 41h-13q-39 -13 -39 -39zM870 -18q14 0 17 -19v-2q0 -18 -21 -20q-9 0 -18 13v9q0 17 22 19zM155 -109h74q4 0 4 -4v-17q0 -5 -4 -5h-54v-21h45q5 -1 5 -5v-15q0 -4 -5 -4h-45v-44
q0 -4 -5 -4h-15q-4 0 -4 4v111q0 4 4 4zM294 -109q59 -11 59 -54v-6q0 -52 -61 -59q-47 0 -56 61q11 58 58 58zM435 -109h18q4 0 4 -4v-108q0 -5 -4 -5l-65 61v-59q0 -4 -5 -4h-15q-4 0 -4 4v111h4q32 -29 61 -56h2v56q1 4 4 4zM470 -109h87q4 0 4 -4v-17q0 -5 -4 -5h-30
v-89q0 -4 -5 -4h-17q-4 0 -4 4v89h-31q-4 0 -4 5v17q0 4 4 4zM611 -109q29 0 46 -17q0 -3 -15 -15q-20 6 -26 6h-5q-19 0 -19 -10q0 -11 43 -13q24 -14 24 -35q0 -29 -48 -35q-41 7 -41 15v2q9 16 15 16q11 -7 22 -7h13q11 0 13 7v6q0 6 -48 13q-17 13 -17 26v9q0 25 43 32z
M761 -109q31 -5 31 -26v-2q0 -16 -20 -24q4 -10 9 -11h19q5 0 5 -6t-5 -22q4 0 22 -26l-4 -2h-22l-11 9q-14 -9 -24 -9q-41 8 -41 37q0 21 20 35q-7 11 -7 17v7q0 17 28 23zM892 -109h26q76 0 76 -60q0 -34 -29 -50q-15 -9 -39 -9h-34q-5 0 -5 4v111q1 4 5 4zM1007 -109h76
q4 0 4 -4v-17q0 -5 -4 -5h-55v-21h44q4 -1 4 -5v-15q0 -4 -4 -4h-44v-22h55q4 -1 4 -4v-18q0 -4 -4 -4h-76q-5 0 -5 4v111q1 4 5 4zM1141 -109q46 -7 46 -17q0 -3 -15 -15q-21 6 -33 6h-2q-12 0 -15 -8v-5q0 -7 48 -13q17 -13 17 -26v-8q0 -28 -48 -33q-24 0 -41 15v2
q11 16 17 16q11 -7 22 -7h11q15 0 15 11q0 10 -50 15q-17 16 -17 33q0 27 45 34zM1202 -109h15q5 0 5 -4v-111q0 -4 -5 -4h-15q-4 0 -4 4v111q1 4 4 4zM1291 -109q34 0 52 -30v-4q-8 -11 -19 -11h-2q-6 19 -31 19q-32 -4 -32 -28v-9q0 -30 30 -30h9q12 0 17 9q-24 0 -24 4
v17q1 5 5 5h50q4 -1 4 -5v-4q0 -42 -59 -52q-53 0 -58 61q7 58 58 58zM1432 -109h16q4 0 4 -4v-108q0 -5 -4 -5q-3 6 -61 59h-2v-57q0 -4 -5 -4h-15q-4 0 -4 4v111h2q15 -12 65 -59v59q1 4 4 4zM759 -132v-9h2q5 0 5 4v5h-7zM262 -163v-11q7 -28 28 -28h9q25 0 30 37
q0 24 -35 30h-2q-30 -7 -30 -28zM911 -135v-67h28q29 7 29 28v11q0 24 -35 28h-22zM750 -176l-4 -15q0 -13 15 -13h5q4 0 4 4q-17 24 -20 24z" />
    <glyph glyph-name="macron" unicode="&#xaf;" horiz-adv-x="627" 
d="M45 1333h537v-162h-537v162z" />
    <glyph glyph-name="degree" unicode="&#xb0;" horiz-adv-x="338" 
d="M126 1018q17 -20 43 -20t44 20q20 18 20 44t-20 43q-18 20 -44 20t-43 -20q-20 -17 -20 -43t20 -44zM83 1148q34 38 86 38t87 -38q37 -35 37 -86q0 -52 -37 -87q-35 -38 -87 -38t-86 38q-38 35 -38 87q0 51 38 86z" />
    <glyph glyph-name="plusminus" unicode="&#xb1;" horiz-adv-x="734" 
d="M475 986v-216h214v-214h-214v-214h-216v214h-214v214h214v216h216zM77 270h580v-214h-580v214z" />
    <glyph glyph-name="uni00B2" unicode="&#xb2;" horiz-adv-x="338" 
d="M45 946q0 78 64 110q28 14 60 14q29 0 61 -14q63 -32 63 -110q0 -121 -124 -205h124v-81h-248q0 87 84 159q81 72 81 127q0 43 -41 43q-40 0 -40 -43h-84z" />
    <glyph glyph-name="uni00B3" unicode="&#xb3;" horiz-adv-x="312" 
d="M48 660v81h72q67 0 67 66q0 67 -70 67l-72 3l72 112h-69v81h216l-80 -127q83 -37 83 -136q0 -72 -52 -115q-40 -32 -95 -32h-72z" />
    <glyph glyph-name="acute" unicode="&#xb4;" horiz-adv-x="497" 
d="M45 1252l347 150l60 -138l-349 -151z" />
    <glyph glyph-name="mu" unicode="&#xb5;" horiz-adv-x="1602" 
d="M257 1393q47 -3 59 -39q-20 -13 -24 -13q-8 24 -35 24h-2q-35 -5 -35 -35v-9q0 -26 37 -32q17 0 26 11h-24q-4 0 -4 4v19q1 5 4 5h59q4 -1 4 -5q-10 -60 -58 -60h-15q-48 0 -57 65q8 65 65 65zM338 1393h82q5 -1 5 -4v-20q0 -4 -5 -4h-58v-24h47q5 -1 5 -4v-20
q0 -4 -5 -4h-47v-24h58q5 -1 5 -5v-17q0 -4 -5 -4h-82q-5 0 -5 4v122q1 4 5 4zM440 1393h95q5 -1 5 -4v-20q0 -4 -5 -4h-32v-98q0 -4 -5 -4h-19q-5 0 -5 4v98h-34q-5 0 -5 4v20q1 4 5 4zM616 1393h95q5 -1 5 -4v-20q0 -4 -5 -4h-34v-98q0 -4 -5 -4h-19q-5 0 -5 4v98h-32
q-5 0 -5 4v20q1 4 5 4zM731 1393h19q5 -1 5 -4v-48h48v48q0 4 4 4h19q5 -1 5 -4v-122q0 -4 -5 -4h-19q-4 0 -4 4v46h-48v-46q0 -4 -5 -4h-19q-5 0 -5 4v122q1 4 5 4zM846 1393h82q5 -1 5 -4v-20q0 -4 -5 -4h-58v-24h48q4 -1 4 -4v-20q0 -4 -4 -4h-48v-24h58q5 -1 5 -5v-17
q0 -4 -5 -4h-82q-4 0 -4 4v122q0 4 4 4zM1009 1393h82q5 -1 5 -4v-20q0 -4 -5 -4h-60v-24h50q4 -1 4 -4v-20q0 -4 -4 -4h-50v-46q0 -4 -5 -4h-17q-4 0 -4 4v122q0 4 4 4zM1111 1393h20q4 -1 4 -4v-79q0 -16 24 -21q24 5 24 21v79q0 4 4 4h20q4 -1 4 -4v-72q-6 -54 -46 -54
h-13q-37 0 -45 50v76q0 4 4 4zM1226 1393h20q4 -1 4 -4v-100h54q5 -1 5 -5v-17q0 -4 -5 -4h-78q-4 0 -4 4v122q0 4 4 4zM1324 1393h19q5 -1 5 -4v-100h54q4 -1 4 -5v-17q0 -4 -4 -4h-78q-4 0 -4 4v122q0 4 4 4zM522 1243h35q65 0 65 -56q0 -24 -22 -39q11 -29 11 -33v-4h-24
q-5 0 -10 26h-33v-22q0 -4 -4 -4h-18q-4 0 -4 4v124q1 4 4 4zM296 1241h24q5 0 26 -63h2q21 63 27 63h23l5 -2q-52 -118 -52 -124h-7q0 5 -52 124zM418 1241h85q4 -1 4 -4v-18q0 -4 -4 -4h-61v-24h50q4 -1 4 -4v-20q0 -4 -4 -4h-50v-24h61q4 -1 4 -5v-19q0 -4 -4 -4h-85
q-4 0 -4 4v122q0 4 4 4zM674 1241h13q32 0 44 -17q-14 -18 -20 -18q-9 7 -30 9q-22 -3 -22 -11v-4q0 -8 50 -13q24 -15 24 -35q0 -34 -50 -41q-50 7 -50 19q0 3 17 18q16 -9 35 -9q20 3 20 9v6q0 8 -50 13q-24 17 -24 35q0 32 43 39zM748 1241h20q4 -1 4 -4v-122q0 -4 -4 -4
h-20q-4 0 -4 4v122q1 4 4 4zM855 1241q45 0 58 -63q-12 -67 -65 -67q-65 10 -65 65v2q0 44 50 63h22zM1002 1241h20q4 -1 4 -4v-120q0 -4 -4 -4q0 3 -72 67v-65q0 -4 -4 -4h-18q-4 0 -4 4v124h2l72 -65v63q1 4 4 4zM1207 1241h95q4 -1 4 -4v-18q0 -4 -4 -4h-32v-100
q0 -4 -5 -4h-19q-5 0 -5 4v100h-34q-5 0 -5 4v18q1 4 5 4zM1161 1239q6 0 63 -126v-2h-26l-13 19h-48q-11 -19 -13 -19h-26v2q3 17 63 126zM544 1215v-50h24q26 2 26 22v6q0 19 -28 22h-22zM809 1178q6 -39 39 -39q32 0 37 41q0 28 -39 35q-37 -9 -37 -37zM1148 1158h26v3
q-11 20 -11 23q-4 0 -15 -26zM83 1091h9q48 -7 48 -17q0 -3 -17 -18q-21 7 -27 7h-15q-13 -2 -13 -7v-8q0 -5 52 -13q20 -13 20 -33v-2q0 -33 -48 -39h-4q-31 0 -48 19l17 15q21 -6 33 -6h6q11 0 18 11q0 15 -46 15q-28 14 -28 33v4q0 33 43 39zM155 1091h20q4 -1 4 -4v-122
q0 -4 -4 -4h-20q-4 0 -4 4v122q0 4 4 4zM255 1091q34 0 52 -26q0 -3 -17 -17h-2q-16 15 -26 15h-13q-25 0 -31 -35v-6q9 -33 33 -33h6q17 0 33 17l15 -17v-4q-20 -24 -52 -24q-63 11 -63 67q0 54 65 63zM322 1091h20q4 -1 4 -4v-42q2 0 46 46h28q5 -1 5 -4q-4 0 -59 -61
l59 -63l-5 -2h-28l-46 45v-41q0 -4 -4 -4h-20q-4 0 -4 4v122q1 4 4 4zM477 1091q38 0 50 -28l-18 -15q-15 15 -26 15h-13q-30 -9 -30 -31v-13q0 -24 34 -30h7q14 0 28 17q3 0 18 -17v-2q-19 -26 -53 -26q-53 0 -63 65v6q0 46 61 59h5zM674 1091h52q43 0 50 -52
q-7 -52 -52 -52h-26v-22q0 -4 -4 -4h-20q-4 0 -4 4v122q1 4 4 4zM792 1091h17q4 -1 4 -4v-122q0 -4 -4 -4h-17q-5 0 -5 4v122q1 4 5 4zM829 1091h97q5 -1 5 -4v-20q0 -4 -5 -4h-34v-98q0 -4 -5 -4h-19q-5 0 -5 4v98h-34q-5 0 -5 4v20q1 4 5 4zM1052 1091h20q4 -1 4 -4v-98
h55q4 -1 4 -4v-20q0 -4 -4 -4h-79q-4 0 -4 4v122q1 4 4 4zM1241 1091h7q25 0 45 -26q0 -3 -17 -17h-2q-16 15 -26 15h-13q-24 0 -31 -35v-6q10 -33 33 -33h6q17 0 33 17l15 -17v-4q-19 -24 -50 -24q-56 0 -65 69q0 40 48 59q8 2 17 2zM1363 1091q65 -9 65 -65q0 -55 -67 -65
q-44 0 -61 50q-2 8 -2 17q0 54 65 63zM592 1089h6q29 -62 61 -126l-4 -2h-24q-5 0 -9 17h-54q-4 -17 -9 -17h-24q-4 0 -4 4q61 120 61 124zM970 1089h2q4 -2 65 -126l-4 -2h-24q-6 0 -9 17h-52l-13 -17h-26q0 4 61 128zM1439 1089h4q49 -76 57 -81q43 62 54 81h4v-124
q0 -4 -4 -4h-19q-5 0 -5 4v39q-10 -7 -28 -41h-2l-33 41v-39q0 -4 -4 -4h-20q-4 0 -4 4v124zM698 1063v-48h28q20 0 22 26q-3 22 -22 22h-28zM1326 1032v-8q7 -35 33 -35h8q33 9 33 33v6q-7 35 -31 35h-13q-30 -9 -30 -31zM594 1035q-11 -25 -11 -27h24v3q-11 20 -11 24h-2z
M959 1008h26v3q-11 20 -11 24q-4 0 -15 -27zM1161 993h6q11 -6 11 -17q-6 -15 -19 -15q-9 3 -13 11v6q0 15 15 15zM1085 908q10 -1 16 -21l-4 -23q10 -5 30 -5h2q15 0 33 35l11 3h2q6 0 10 -24h-3q0 -25 24 -25h4l26 23h7q11 -7 11 -16q0 -4 -4 -14q0 -13 16 -16l11 7l-2 4
q0 3 19 12h7q34 -30 34 -35l-11 -32q9 -18 16 -21h12q15 12 41 21h7q10 -4 10 -21q-24 -24 -28 -33v-4q2 -7 14 -7q12 7 35 11h6l10 -11q3 0 7 7v4q-5 0 -5 5l-5 -2q-4 0 -4 4l-5 -2h-4q-5 0 -5 5v9h2l5 -3q4 3 7 3q2 -9 11 -9q0 2 3 2q4 -10 4 -14h14l-2 -12l2 -14
q-5 -10 -25 -32h-3l-7 5h-2q-6 0 -9 -31q4 -32 16 -32q3 0 7 2q38 0 49 -25q0 -5 -28 -28v-7q0 -5 37 -12l5 -7q0 -12 -10 -16q-29 3 -32 5q-5 -2 -7 -2q0 -40 14 -40q7 0 16 -2l14 7l12 -3l4 3q7 0 17 -16v-5q0 -3 -12 -12h-9q-6 0 -28 7q-37 0 -37 -32h-3q3 -5 3 -7l4 2
q10 -4 17 -4q2 0 2 2l12 -2h25q14 -2 14 -7v-10q0 -4 -16 -7q-11 5 -23 5q-10 -11 -14 -21l20 -28v-2l-9 -9q-43 11 -49 11q-8 -2 -18 -28q10 -28 32 -44l7 -11v-12q0 -3 -7 -7h-9q-16 12 -25 28q-4 0 -10 5h-7q-6 -10 -41 -14l-26 -21q0 -13 30 -33l3 -11q-11 -9 -17 -9
q0 3 -23 9q-5 11 -23 23q-26 -10 -26 -14q0 -6 7 -30l-9 -7h-9q-8 0 -40 30h-2q-2 0 -9 -9q3 -13 9 -26q-5 -16 -9 -16h-2l-31 28h-7q-4 -21 -20 -21q-23 15 -33 40h-5q-3 0 -7 -7q10 0 10 -5t-5 -5t-5 7h-2q0 -14 -16 -25h-9q-6 0 -14 37l-21 9q-11 -2 -26 -30q-5 -5 -9 -5
q-6 0 -12 12q5 18 7 18q0 17 -30 24l-2 4q-3 0 -30 -23q-5 0 -5 5q3 0 3 2q-7 0 -7 5v4q0 6 7 28v2q0 4 -10 10q-13 0 -25 -10h-12q-3 0 -11 12q11 23 11 30q-9 24 -9 30h2q-2 5 -2 7q-77 -76 -81 -76q-11 1 -37 16q-5 -2 -7 -2q-46 0 -72 18q-23 0 -23 26q-6 13 -31 28v11
h-2v-83q0 -5 -5 -5h-236q-5 0 -5 5v92l-106 -104h-3v95l-88 -83q-80 24 -113 81q-26 48 -26 93v7q0 113 123 169q40 9 58 9q36 -2 46 -7v153q1 5 5 5h127q5 -1 5 -5v-301l216 213l2 -4v-54h46v146q1 5 5 5h128q4 -1 4 -5v-25q5 2 7 2q8 0 37 -9h5l21 18q-17 28 -23 31h-3
q-3 -3 -11 -21l-5 -3h-5q-3 0 -6 7v14q11 42 34 42q19 -9 19 -26q12 -13 25 -13q7 8 7 13q-18 27 -18 35v7q2 7 14 7q11 -8 28 -32q30 0 30 34q4 19 9 19h7q7 0 32 -21q2 0 14 -2q5 2 7 2v-2q28 0 28 16q0 37 14 37zM784 869q15 0 30 -28l-5 -2q-22 9 -30 23v2q1 5 5 5z
M897 660q2 0 2 -2q-8 0 -18 -26q-2 0 -2 -2l4 -7q-12 0 -30 -49h-2q0 3 -28 28h-30q-5 0 -5 5v146h-76v-146q0 -5 -5 -5h-26q-41 0 -76 -9v25q-4 0 -77 -76v-244h77v176q11 51 51 51h51q5 0 5 -4v-65q0 -125 90 -162h2l58 60q-74 16 -74 69v98q1 4 5 4h55q4 0 14 -69
q27 -77 70 -121q35 -38 60 -51q81 -41 121 -41q2 0 2 2l12 -2h21q31 0 41 7q4 -3 10 -3q0 3 46 19q0 10 23 11q0 3 19 12v-2q41 28 41 32q41 43 65 91q0 4 10 18q9 53 16 63q0 8 2 39l-2 5q5 9 5 14q-14 5 -14 21q0 7 7 7v6q-7 0 -7 5v5l2 4q-5 0 -5 5v5q0 2 3 2
q-17 49 -40 79q-18 36 -60 65q-26 27 -95 51q-41 9 -84 9h-2q-2 0 -2 2l-5 -2h-2q-3 0 -3 2q-30 0 -74 -27q0 -13 -53 -21q-62 -36 -72 -70q-9 -9 -21 -37zM1076 813v-2h7v2h-7zM310 753v-170q-50 19 -74 19q-109 0 -151 -118q-2 -23 -2 -35v-5q0 -91 100 -136h5l64 67h-2
l-16 -3q-77 13 -77 82q0 46 56 69q9 2 19 2h11q67 -16 67 -67v-125l77 74v346h-77zM1094 750h16q5 0 5 -4q-10 -19 -23 -23q-5 2 -7 2l-9 -12v-2h11q10 0 14 -30l-11 -7q-8 5 -12 5v-3q0 -3 19 -11q0 4 4 4q13 0 16 -9v-30q-15 -44 -44 -44q0 -3 -30 -7q-14 0 -55 53
q-3 4 -3 12q0 13 10 21q-5 0 -5 4q0 33 49 65l9 -2zM1136 750q17 0 19 -7v-2h-21q-5 0 -5 5zM818 743v-44q7 0 17 -2q11 3 11 7v5q-25 31 -25 34h-3zM1162 743q6 0 27 -9q17 0 30 -11q8 4 14 4l54 -41l11 -19v-2h-4q23 -20 23 -26q0 -8 14 -32q0 -26 -12 -51v-26
q-11 -22 -58 -32q-48 -7 -48 -19l-24 -2h-4q-5 0 -10 16l-9 -9h-21l-11 -3q-5 8 -5 14v3h7v2q0 3 -7 7l-5 -2q-15 0 -18 20q-9 0 -9 14l16 14h4q5 0 5 -4q7 2 7 4q-2 5 -2 7l30 26l23 18h7q6 0 26 -9q2 3 2 12q-14 8 -14 11q-1 -2 -16 -2q0 2 18 37q-9 16 -9 28v5q5 9 12 9
q-3 4 -3 9l-11 -2h-5q-5 0 -16 18q-10 0 -16 12q7 6 7 11zM1122 741h2q6 -4 26 -7v-7q-33 3 -33 10q1 4 5 4zM1036 716q1 -5 5 -5v5h-5zM1025 646v-5h4q0 5 -4 5zM1215 567q-12 -16 -21 -16q1 -5 5 -5h4q0 11 21 17v2q-5 0 -9 2zM774 558l3 -5q0 -4 -5 -4l-2 4q0 5 4 5z
M1087 525q10 0 14 -20q23 -6 23 -19q-4 -11 -9 -12l-14 3q-14 -6 -74 -9q0 -5 -9 -5q-14 5 -14 9q9 19 25 19q2 0 14 -3q12 8 33 35zM419 435v-137h75v211q-4 0 -75 -74zM188 449q10 -46 46 -46q46 10 46 16v37q0 29 -41 39h-7q-37 0 -44 -46zM675 493v-2h4v2h-4zM642 470h5
v4q-5 0 -5 -4zM1296 472q9 -3 9 -7v-4q0 -5 -4 -5h-3q-3 0 -7 7zM649 465v-2h5v2h-5zM1001 468l3 -5v-2h-5v-5h2l10 5l11 -3q5 3 7 3q4 -10 7 -10h7q6 7 30 10q0 -4 10 -7l9 2q15 -7 37 -12l-2 -4v-3h2l7 5h14q12 -12 16 -12q5 3 7 3l2 -5v-5q0 -2 -9 -6q6 -14 9 -14
q-2 -19 -7 -19h-2l-4 2l-3 -4q5 0 9 -3q7 2 19 12q19 -16 19 -19v-4q-7 -12 -10 -12q-8 0 -21 9q0 -7 -2 -11q19 -10 19 -23q-24 -10 -28 -10q-37 15 -37 31l-5 -3h-2q-40 14 -40 40v2h3q7 -5 14 -5q-5 12 -7 12l-12 -7h-7q-16 8 -35 42q-5 9 -14 9l-7 5h-2l-7 -5l-11 2
q0 -7 -19 -7l7 -9v-7q0 -7 -9 -7l-12 3v11q18 23 30 28q-2 4 -2 7q7 5 11 5zM647 451h4v5q-4 -1 -4 -5zM1287 451h4q5 0 7 -14q-12 -27 -14 -27l3 -5v-12q7 0 11 -9v-2q0 -19 -18 -19q-6 0 -14 7q0 -32 -53 -42h-3q-14 6 -14 10v7q0 9 17 18l2 14q-5 0 -5 5q3 0 3 2
q-10 4 -10 7l-4 -2h-7q-14 8 -14 11v14q0 2 16 16h7q5 0 9 -18h7l-2 11l4 3h24q2 0 2 -3q10 2 42 28zM635 417v-5h5q0 5 -5 5zM988 417q13 -18 13 -33l-2 -5q2 -4 2 -7q-12 -16 -18 -16q-33 0 -33 26q5 2 7 2l-7 12q0 12 10 16h11l10 -9q0 14 7 14zM644 407q0 -2 -2 -7h7
q-2 5 -2 7h-3zM1238 403v-7h7v11h-2q-5 0 -5 -4zM644 398v-5h3v5h-3zM1277 382q-2 -5 -2 -7h7q5 0 5 4v3h-10zM1115 377v-5l7 -9q10 3 14 12h-5l-7 -5zM644 370l-2 -5v-2h7v2q0 5 -5 5zM649 354v-2h5v2h-5zM668 352v-5h2v5h-2zM658 347q1 -5 5 -5v5h-5zM665 338v-5h3v5h-3z
M918 287v-3q1 -4 5 -4v2q0 5 -5 5zM904 284q1 -4 5 -4v4h-5zM946 284v-4h2v4h-2zM895 277q4 -5 4 -11h3v9q-5 2 -7 2zM707 270h5q4 0 4 -4v-7q0 -5 -4 -5h-3q-3 0 -7 7v5q1 4 5 4zM967 263v-4h4v4h-4zM971 250v-7q5 2 7 2v2q-2 0 -7 3zM983 247v-4h9v2zM1053 247v-4h2v4h-2z
M955 245q0 -7 -7 -7v-2h9v9h-2zM1039 245v-2h4v2h-4zM1034 243v-5h2v5h-2zM941 233v-2q3 -5 3 -7q-3 0 -3 -2q3 0 7 -3q0 4 9 10q-8 0 -13 4h-3zM1057 226v-4h2v4h-2zM1106 212l4 -2v7q-4 -1 -4 -5zM1013 208l5 -3v7q-5 0 -5 -4zM1011 201v-7l4 -7h-7v-2h5q11 4 12 9l-10 7
h-4zM1199 171h14v4h-10q-4 0 -4 -4zM240 104h63q68 0 80 -76v-4q0 -60 -56 -79q-17 -4 -31 -4h-56q-4 0 -4 4v155q0 4 4 4zM401 104h26q4 -1 4 -4v-155q0 -4 -4 -4h-26q-5 0 -5 4v155q1 4 5 4zM451 104h67q59 -12 59 -59v-6q0 -34 -26 -55l15 -41l-5 -2h-28l-17 33h-35v-29
q0 -4 -4 -4h-26q-5 0 -5 4v155q1 4 5 4zM590 104h121q5 -1 5 -4v-26q0 -5 -5 -5h-43v-124q0 -4 -5 -4h-26q-4 0 -4 4v124h-43q-5 0 -5 5v26q1 4 5 4zM783 104q42 0 48 -50v-2q0 -40 -44 -76h46q4 -1 4 -5v-26q0 -4 -4 -4h-98q-4 0 -4 4v5q0 30 58 82q7 16 7 20v2q0 12 -9 15
h-11q-15 0 -15 -17h-28q-4 0 -4 4v2q0 33 39 46h15zM968 104q42 0 65 -33q0 -3 -22 -21h-2q-16 19 -35 19h-13q-39 -11 -39 -41v-13q0 -29 43 -39h11q13 0 35 21q12 -7 22 -23q-24 -33 -68 -33q-54 0 -78 67v13q0 66 72 83h9zM1120 104q65 0 82 -72v-11q0 -56 -63 -78
q-11 -2 -22 -2q-52 0 -76 63q-2 12 -2 24q16 76 81 76zM1365 102h2v-157q0 -4 -4 -4h-26q-4 0 -4 4v55h-3q-10 -21 -39 -57l-41 57v-55q0 -4 -4 -4h-24q-5 0 -5 4v155h3q71 -100 73 -100q57 84 72 102zM481 71v-63h35q26 6 26 24v13q0 26 -41 26h-20zM270 69v-93h35
q38 0 43 45v7q-7 41 -39 41h-39zM1074 30v-11q9 -43 43 -43h7q43 10 43 39v13q-9 41 -41 41h-13q-39 -13 -39 -39zM870 -18q14 0 17 -19v-2q0 -18 -21 -20q-9 0 -18 13v9q0 17 22 19zM155 -109h74q4 0 4 -4v-17q0 -5 -4 -5h-54v-21h45q5 -1 5 -5v-15q0 -4 -5 -4h-45v-44
q0 -4 -5 -4h-15q-4 0 -4 4v111q0 4 4 4zM294 -109q59 -11 59 -54v-6q0 -52 -61 -59q-47 0 -56 61q11 58 58 58zM435 -109h18q4 0 4 -4v-108q0 -5 -4 -5l-65 61v-59q0 -4 -5 -4h-15q-4 0 -4 4v111h4q32 -29 61 -56h2v56q1 4 4 4zM470 -109h87q4 0 4 -4v-17q0 -5 -4 -5h-30
v-89q0 -4 -5 -4h-17q-4 0 -4 4v89h-31q-4 0 -4 5v17q0 4 4 4zM611 -109q29 0 46 -17q0 -3 -15 -15q-20 6 -26 6h-5q-19 0 -19 -10q0 -11 43 -13q24 -14 24 -35q0 -29 -48 -35q-41 7 -41 15v2q9 16 15 16q11 -7 22 -7h13q11 0 13 7v6q0 6 -48 13q-17 13 -17 26v9q0 25 43 32z
M761 -109q31 -5 31 -26v-2q0 -16 -20 -24q4 -10 9 -11h19q5 0 5 -6t-5 -22q4 0 22 -26l-4 -2h-22l-11 9q-14 -9 -24 -9q-41 8 -41 37q0 21 20 35q-7 11 -7 17v7q0 17 28 23zM892 -109h26q76 0 76 -60q0 -34 -29 -50q-15 -9 -39 -9h-34q-5 0 -5 4v111q1 4 5 4zM1007 -109h76
q4 0 4 -4v-17q0 -5 -4 -5h-55v-21h44q4 -1 4 -5v-15q0 -4 -4 -4h-44v-22h55q4 -1 4 -4v-18q0 -4 -4 -4h-76q-5 0 -5 4v111q1 4 5 4zM1141 -109q46 -7 46 -17q0 -3 -15 -15q-21 6 -33 6h-2q-12 0 -15 -8v-5q0 -7 48 -13q17 -13 17 -26v-8q0 -28 -48 -33q-24 0 -41 15v2
q11 16 17 16q11 -7 22 -7h11q15 0 15 11q0 10 -50 15q-17 16 -17 33q0 27 45 34zM1202 -109h15q5 0 5 -4v-111q0 -4 -5 -4h-15q-4 0 -4 4v111q1 4 4 4zM1291 -109q34 0 52 -30v-4q-8 -11 -19 -11h-2q-6 19 -31 19q-32 -4 -32 -28v-9q0 -30 30 -30h9q12 0 17 9q-24 0 -24 4
v17q1 5 5 5h50q4 -1 4 -5v-4q0 -42 -59 -52q-53 0 -58 61q7 58 58 58zM1432 -109h16q4 0 4 -4v-108q0 -5 -4 -5q-3 6 -61 59h-2v-57q0 -4 -5 -4h-15q-4 0 -4 4v111h2q15 -12 65 -59v59q1 4 4 4zM759 -132v-9h2q5 0 5 4v5h-7zM262 -163v-11q7 -28 28 -28h9q25 0 30 37
q0 24 -35 30h-2q-30 -7 -30 -28zM911 -135v-67h28q29 7 29 28v11q0 24 -35 28h-22zM750 -176l-4 -15q0 -13 15 -13h5q4 0 4 4q-17 24 -20 24z" />
    <glyph glyph-name="paragraph" unicode="&#xb6;" horiz-adv-x="1602" 
d="M257 1393q47 -3 59 -39q-20 -13 -24 -13q-8 24 -35 24h-2q-35 -5 -35 -35v-9q0 -26 37 -32q17 0 26 11h-24q-4 0 -4 4v19q1 5 4 5h59q4 -1 4 -5q-10 -60 -58 -60h-15q-48 0 -57 65q8 65 65 65zM338 1393h82q5 -1 5 -4v-20q0 -4 -5 -4h-58v-24h47q5 -1 5 -4v-20
q0 -4 -5 -4h-47v-24h58q5 -1 5 -5v-17q0 -4 -5 -4h-82q-5 0 -5 4v122q1 4 5 4zM440 1393h95q5 -1 5 -4v-20q0 -4 -5 -4h-32v-98q0 -4 -5 -4h-19q-5 0 -5 4v98h-34q-5 0 -5 4v20q1 4 5 4zM616 1393h95q5 -1 5 -4v-20q0 -4 -5 -4h-34v-98q0 -4 -5 -4h-19q-5 0 -5 4v98h-32
q-5 0 -5 4v20q1 4 5 4zM731 1393h19q5 -1 5 -4v-48h48v48q0 4 4 4h19q5 -1 5 -4v-122q0 -4 -5 -4h-19q-4 0 -4 4v46h-48v-46q0 -4 -5 -4h-19q-5 0 -5 4v122q1 4 5 4zM846 1393h82q5 -1 5 -4v-20q0 -4 -5 -4h-58v-24h48q4 -1 4 -4v-20q0 -4 -4 -4h-48v-24h58q5 -1 5 -5v-17
q0 -4 -5 -4h-82q-4 0 -4 4v122q0 4 4 4zM1009 1393h82q5 -1 5 -4v-20q0 -4 -5 -4h-60v-24h50q4 -1 4 -4v-20q0 -4 -4 -4h-50v-46q0 -4 -5 -4h-17q-4 0 -4 4v122q0 4 4 4zM1111 1393h20q4 -1 4 -4v-79q0 -16 24 -21q24 5 24 21v79q0 4 4 4h20q4 -1 4 -4v-72q-6 -54 -46 -54
h-13q-37 0 -45 50v76q0 4 4 4zM1226 1393h20q4 -1 4 -4v-100h54q5 -1 5 -5v-17q0 -4 -5 -4h-78q-4 0 -4 4v122q0 4 4 4zM1324 1393h19q5 -1 5 -4v-100h54q4 -1 4 -5v-17q0 -4 -4 -4h-78q-4 0 -4 4v122q0 4 4 4zM522 1243h35q65 0 65 -56q0 -24 -22 -39q11 -29 11 -33v-4h-24
q-5 0 -10 26h-33v-22q0 -4 -4 -4h-18q-4 0 -4 4v124q1 4 4 4zM296 1241h24q5 0 26 -63h2q21 63 27 63h23l5 -2q-52 -118 -52 -124h-7q0 5 -52 124zM418 1241h85q4 -1 4 -4v-18q0 -4 -4 -4h-61v-24h50q4 -1 4 -4v-20q0 -4 -4 -4h-50v-24h61q4 -1 4 -5v-19q0 -4 -4 -4h-85
q-4 0 -4 4v122q0 4 4 4zM674 1241h13q32 0 44 -17q-14 -18 -20 -18q-9 7 -30 9q-22 -3 -22 -11v-4q0 -8 50 -13q24 -15 24 -35q0 -34 -50 -41q-50 7 -50 19q0 3 17 18q16 -9 35 -9q20 3 20 9v6q0 8 -50 13q-24 17 -24 35q0 32 43 39zM748 1241h20q4 -1 4 -4v-122q0 -4 -4 -4
h-20q-4 0 -4 4v122q1 4 4 4zM855 1241q45 0 58 -63q-12 -67 -65 -67q-65 10 -65 65v2q0 44 50 63h22zM1002 1241h20q4 -1 4 -4v-120q0 -4 -4 -4q0 3 -72 67v-65q0 -4 -4 -4h-18q-4 0 -4 4v124h2l72 -65v63q1 4 4 4zM1207 1241h95q4 -1 4 -4v-18q0 -4 -4 -4h-32v-100
q0 -4 -5 -4h-19q-5 0 -5 4v100h-34q-5 0 -5 4v18q1 4 5 4zM1161 1239q6 0 63 -126v-2h-26l-13 19h-48q-11 -19 -13 -19h-26v2q3 17 63 126zM544 1215v-50h24q26 2 26 22v6q0 19 -28 22h-22zM809 1178q6 -39 39 -39q32 0 37 41q0 28 -39 35q-37 -9 -37 -37zM1148 1158h26v3
q-11 20 -11 23q-4 0 -15 -26zM83 1091h9q48 -7 48 -17q0 -3 -17 -18q-21 7 -27 7h-15q-13 -2 -13 -7v-8q0 -5 52 -13q20 -13 20 -33v-2q0 -33 -48 -39h-4q-31 0 -48 19l17 15q21 -6 33 -6h6q11 0 18 11q0 15 -46 15q-28 14 -28 33v4q0 33 43 39zM155 1091h20q4 -1 4 -4v-122
q0 -4 -4 -4h-20q-4 0 -4 4v122q0 4 4 4zM255 1091q34 0 52 -26q0 -3 -17 -17h-2q-16 15 -26 15h-13q-25 0 -31 -35v-6q9 -33 33 -33h6q17 0 33 17l15 -17v-4q-20 -24 -52 -24q-63 11 -63 67q0 54 65 63zM322 1091h20q4 -1 4 -4v-42q2 0 46 46h28q5 -1 5 -4q-4 0 -59 -61
l59 -63l-5 -2h-28l-46 45v-41q0 -4 -4 -4h-20q-4 0 -4 4v122q1 4 4 4zM477 1091q38 0 50 -28l-18 -15q-15 15 -26 15h-13q-30 -9 -30 -31v-13q0 -24 34 -30h7q14 0 28 17q3 0 18 -17v-2q-19 -26 -53 -26q-53 0 -63 65v6q0 46 61 59h5zM674 1091h52q43 0 50 -52
q-7 -52 -52 -52h-26v-22q0 -4 -4 -4h-20q-4 0 -4 4v122q1 4 4 4zM792 1091h17q4 -1 4 -4v-122q0 -4 -4 -4h-17q-5 0 -5 4v122q1 4 5 4zM829 1091h97q5 -1 5 -4v-20q0 -4 -5 -4h-34v-98q0 -4 -5 -4h-19q-5 0 -5 4v98h-34q-5 0 -5 4v20q1 4 5 4zM1052 1091h20q4 -1 4 -4v-98
h55q4 -1 4 -4v-20q0 -4 -4 -4h-79q-4 0 -4 4v122q1 4 4 4zM1241 1091h7q25 0 45 -26q0 -3 -17 -17h-2q-16 15 -26 15h-13q-24 0 -31 -35v-6q10 -33 33 -33h6q17 0 33 17l15 -17v-4q-19 -24 -50 -24q-56 0 -65 69q0 40 48 59q8 2 17 2zM1363 1091q65 -9 65 -65q0 -55 -67 -65
q-44 0 -61 50q-2 8 -2 17q0 54 65 63zM592 1089h6q29 -62 61 -126l-4 -2h-24q-5 0 -9 17h-54q-4 -17 -9 -17h-24q-4 0 -4 4q61 120 61 124zM970 1089h2q4 -2 65 -126l-4 -2h-24q-6 0 -9 17h-52l-13 -17h-26q0 4 61 128zM1439 1089h4q49 -76 57 -81q43 62 54 81h4v-124
q0 -4 -4 -4h-19q-5 0 -5 4v39q-10 -7 -28 -41h-2l-33 41v-39q0 -4 -4 -4h-20q-4 0 -4 4v124zM698 1063v-48h28q20 0 22 26q-3 22 -22 22h-28zM1326 1032v-8q7 -35 33 -35h8q33 9 33 33v6q-7 35 -31 35h-13q-30 -9 -30 -31zM594 1035q-11 -25 -11 -27h24v3q-11 20 -11 24h-2z
M959 1008h26v3q-11 20 -11 24q-4 0 -15 -27zM1161 993h6q11 -6 11 -17q-6 -15 -19 -15q-9 3 -13 11v6q0 15 15 15zM1085 908q10 -1 16 -21l-4 -23q10 -5 30 -5h2q15 0 33 35l11 3h2q6 0 10 -24h-3q0 -25 24 -25h4l26 23h7q11 -7 11 -16q0 -4 -4 -14q0 -13 16 -16l11 7l-2 4
q0 3 19 12h7q34 -30 34 -35l-11 -32q9 -18 16 -21h12q15 12 41 21h7q10 -4 10 -21q-24 -24 -28 -33v-4q2 -7 14 -7q12 7 35 11h6l10 -11q3 0 7 7v4q-5 0 -5 5l-5 -2q-4 0 -4 4l-5 -2h-4q-5 0 -5 5v9h2l5 -3q4 3 7 3q2 -9 11 -9q0 2 3 2q4 -10 4 -14h14l-2 -12l2 -14
q-5 -10 -25 -32h-3l-7 5h-2q-6 0 -9 -31q4 -32 16 -32q3 0 7 2q38 0 49 -25q0 -5 -28 -28v-7q0 -5 37 -12l5 -7q0 -12 -10 -16q-29 3 -32 5q-5 -2 -7 -2q0 -40 14 -40q7 0 16 -2l14 7l12 -3l4 3q7 0 17 -16v-5q0 -3 -12 -12h-9q-6 0 -28 7q-37 0 -37 -32h-3q3 -5 3 -7l4 2
q10 -4 17 -4q2 0 2 2l12 -2h25q14 -2 14 -7v-10q0 -4 -16 -7q-11 5 -23 5q-10 -11 -14 -21l20 -28v-2l-9 -9q-43 11 -49 11q-8 -2 -18 -28q10 -28 32 -44l7 -11v-12q0 -3 -7 -7h-9q-16 12 -25 28q-4 0 -10 5h-7q-6 -10 -41 -14l-26 -21q0 -13 30 -33l3 -11q-11 -9 -17 -9
q0 3 -23 9q-5 11 -23 23q-26 -10 -26 -14q0 -6 7 -30l-9 -7h-9q-8 0 -40 30h-2q-2 0 -9 -9q3 -13 9 -26q-5 -16 -9 -16h-2l-31 28h-7q-4 -21 -20 -21q-23 15 -33 40h-5q-3 0 -7 -7q10 0 10 -5t-5 -5t-5 7h-2q0 -14 -16 -25h-9q-6 0 -14 37l-21 9q-11 -2 -26 -30q-5 -5 -9 -5
q-6 0 -12 12q5 18 7 18q0 17 -30 24l-2 4q-3 0 -30 -23q-5 0 -5 5q3 0 3 2q-7 0 -7 5v4q0 6 7 28v2q0 4 -10 10q-13 0 -25 -10h-12q-3 0 -11 12q11 23 11 30q-9 24 -9 30h2q-2 5 -2 7q-77 -76 -81 -76q-11 1 -37 16q-5 -2 -7 -2q-46 0 -72 18q-23 0 -23 26q-6 13 -31 28v11
h-2v-83q0 -5 -5 -5h-236q-5 0 -5 5v92l-106 -104h-3v95l-88 -83q-80 24 -113 81q-26 48 -26 93v7q0 113 123 169q40 9 58 9q36 -2 46 -7v153q1 5 5 5h127q5 -1 5 -5v-301l216 213l2 -4v-54h46v146q1 5 5 5h128q4 -1 4 -5v-25q5 2 7 2q8 0 37 -9h5l21 18q-17 28 -23 31h-3
q-3 -3 -11 -21l-5 -3h-5q-3 0 -6 7v14q11 42 34 42q19 -9 19 -26q12 -13 25 -13q7 8 7 13q-18 27 -18 35v7q2 7 14 7q11 -8 28 -32q30 0 30 34q4 19 9 19h7q7 0 32 -21q2 0 14 -2q5 2 7 2v-2q28 0 28 16q0 37 14 37zM784 869q15 0 30 -28l-5 -2q-22 9 -30 23v2q1 5 5 5z
M897 660q2 0 2 -2q-8 0 -18 -26q-2 0 -2 -2l4 -7q-12 0 -30 -49h-2q0 3 -28 28h-30q-5 0 -5 5v146h-76v-146q0 -5 -5 -5h-26q-41 0 -76 -9v25q-4 0 -77 -76v-244h77v176q11 51 51 51h51q5 0 5 -4v-65q0 -125 90 -162h2l58 60q-74 16 -74 69v98q1 4 5 4h55q4 0 14 -69
q27 -77 70 -121q35 -38 60 -51q81 -41 121 -41q2 0 2 2l12 -2h21q31 0 41 7q4 -3 10 -3q0 3 46 19q0 10 23 11q0 3 19 12v-2q41 28 41 32q41 43 65 91q0 4 10 18q9 53 16 63q0 8 2 39l-2 5q5 9 5 14q-14 5 -14 21q0 7 7 7v6q-7 0 -7 5v5l2 4q-5 0 -5 5v5q0 2 3 2
q-17 49 -40 79q-18 36 -60 65q-26 27 -95 51q-41 9 -84 9h-2q-2 0 -2 2l-5 -2h-2q-3 0 -3 2q-30 0 -74 -27q0 -13 -53 -21q-62 -36 -72 -70q-9 -9 -21 -37zM1076 813v-2h7v2h-7zM310 753v-170q-50 19 -74 19q-109 0 -151 -118q-2 -23 -2 -35v-5q0 -91 100 -136h5l64 67h-2
l-16 -3q-77 13 -77 82q0 46 56 69q9 2 19 2h11q67 -16 67 -67v-125l77 74v346h-77zM1094 750h16q5 0 5 -4q-10 -19 -23 -23q-5 2 -7 2l-9 -12v-2h11q10 0 14 -30l-11 -7q-8 5 -12 5v-3q0 -3 19 -11q0 4 4 4q13 0 16 -9v-30q-15 -44 -44 -44q0 -3 -30 -7q-14 0 -55 53
q-3 4 -3 12q0 13 10 21q-5 0 -5 4q0 33 49 65l9 -2zM1136 750q17 0 19 -7v-2h-21q-5 0 -5 5zM818 743v-44q7 0 17 -2q11 3 11 7v5q-25 31 -25 34h-3zM1162 743q6 0 27 -9q17 0 30 -11q8 4 14 4l54 -41l11 -19v-2h-4q23 -20 23 -26q0 -8 14 -32q0 -26 -12 -51v-26
q-11 -22 -58 -32q-48 -7 -48 -19l-24 -2h-4q-5 0 -10 16l-9 -9h-21l-11 -3q-5 8 -5 14v3h7v2q0 3 -7 7l-5 -2q-15 0 -18 20q-9 0 -9 14l16 14h4q5 0 5 -4q7 2 7 4q-2 5 -2 7l30 26l23 18h7q6 0 26 -9q2 3 2 12q-14 8 -14 11q-1 -2 -16 -2q0 2 18 37q-9 16 -9 28v5q5 9 12 9
q-3 4 -3 9l-11 -2h-5q-5 0 -16 18q-10 0 -16 12q7 6 7 11zM1122 741h2q6 -4 26 -7v-7q-33 3 -33 10q1 4 5 4zM1036 716q1 -5 5 -5v5h-5zM1025 646v-5h4q0 5 -4 5zM1215 567q-12 -16 -21 -16q1 -5 5 -5h4q0 11 21 17v2q-5 0 -9 2zM774 558l3 -5q0 -4 -5 -4l-2 4q0 5 4 5z
M1087 525q10 0 14 -20q23 -6 23 -19q-4 -11 -9 -12l-14 3q-14 -6 -74 -9q0 -5 -9 -5q-14 5 -14 9q9 19 25 19q2 0 14 -3q12 8 33 35zM419 435v-137h75v211q-4 0 -75 -74zM188 449q10 -46 46 -46q46 10 46 16v37q0 29 -41 39h-7q-37 0 -44 -46zM675 493v-2h4v2h-4zM642 470h5
v4q-5 0 -5 -4zM1296 472q9 -3 9 -7v-4q0 -5 -4 -5h-3q-3 0 -7 7zM649 465v-2h5v2h-5zM1001 468l3 -5v-2h-5v-5h2l10 5l11 -3q5 3 7 3q4 -10 7 -10h7q6 7 30 10q0 -4 10 -7l9 2q15 -7 37 -12l-2 -4v-3h2l7 5h14q12 -12 16 -12q5 3 7 3l2 -5v-5q0 -2 -9 -6q6 -14 9 -14
q-2 -19 -7 -19h-2l-4 2l-3 -4q5 0 9 -3q7 2 19 12q19 -16 19 -19v-4q-7 -12 -10 -12q-8 0 -21 9q0 -7 -2 -11q19 -10 19 -23q-24 -10 -28 -10q-37 15 -37 31l-5 -3h-2q-40 14 -40 40v2h3q7 -5 14 -5q-5 12 -7 12l-12 -7h-7q-16 8 -35 42q-5 9 -14 9l-7 5h-2l-7 -5l-11 2
q0 -7 -19 -7l7 -9v-7q0 -7 -9 -7l-12 3v11q18 23 30 28q-2 4 -2 7q7 5 11 5zM647 451h4v5q-4 -1 -4 -5zM1287 451h4q5 0 7 -14q-12 -27 -14 -27l3 -5v-12q7 0 11 -9v-2q0 -19 -18 -19q-6 0 -14 7q0 -32 -53 -42h-3q-14 6 -14 10v7q0 9 17 18l2 14q-5 0 -5 5q3 0 3 2
q-10 4 -10 7l-4 -2h-7q-14 8 -14 11v14q0 2 16 16h7q5 0 9 -18h7l-2 11l4 3h24q2 0 2 -3q10 2 42 28zM635 417v-5h5q0 5 -5 5zM988 417q13 -18 13 -33l-2 -5q2 -4 2 -7q-12 -16 -18 -16q-33 0 -33 26q5 2 7 2l-7 12q0 12 10 16h11l10 -9q0 14 7 14zM644 407q0 -2 -2 -7h7
q-2 5 -2 7h-3zM1238 403v-7h7v11h-2q-5 0 -5 -4zM644 398v-5h3v5h-3zM1277 382q-2 -5 -2 -7h7q5 0 5 4v3h-10zM1115 377v-5l7 -9q10 3 14 12h-5l-7 -5zM644 370l-2 -5v-2h7v2q0 5 -5 5zM649 354v-2h5v2h-5zM668 352v-5h2v5h-2zM658 347q1 -5 5 -5v5h-5zM665 338v-5h3v5h-3z
M918 287v-3q1 -4 5 -4v2q0 5 -5 5zM904 284q1 -4 5 -4v4h-5zM946 284v-4h2v4h-2zM895 277q4 -5 4 -11h3v9q-5 2 -7 2zM707 270h5q4 0 4 -4v-7q0 -5 -4 -5h-3q-3 0 -7 7v5q1 4 5 4zM967 263v-4h4v4h-4zM971 250v-7q5 2 7 2v2q-2 0 -7 3zM983 247v-4h9v2zM1053 247v-4h2v4h-2z
M955 245q0 -7 -7 -7v-2h9v9h-2zM1039 245v-2h4v2h-4zM1034 243v-5h2v5h-2zM941 233v-2q3 -5 3 -7q-3 0 -3 -2q3 0 7 -3q0 4 9 10q-8 0 -13 4h-3zM1057 226v-4h2v4h-2zM1106 212l4 -2v7q-4 -1 -4 -5zM1013 208l5 -3v7q-5 0 -5 -4zM1011 201v-7l4 -7h-7v-2h5q11 4 12 9l-10 7
h-4zM1199 171h14v4h-10q-4 0 -4 -4zM240 104h63q68 0 80 -76v-4q0 -60 -56 -79q-17 -4 -31 -4h-56q-4 0 -4 4v155q0 4 4 4zM401 104h26q4 -1 4 -4v-155q0 -4 -4 -4h-26q-5 0 -5 4v155q1 4 5 4zM451 104h67q59 -12 59 -59v-6q0 -34 -26 -55l15 -41l-5 -2h-28l-17 33h-35v-29
q0 -4 -4 -4h-26q-5 0 -5 4v155q1 4 5 4zM590 104h121q5 -1 5 -4v-26q0 -5 -5 -5h-43v-124q0 -4 -5 -4h-26q-4 0 -4 4v124h-43q-5 0 -5 5v26q1 4 5 4zM783 104q42 0 48 -50v-2q0 -40 -44 -76h46q4 -1 4 -5v-26q0 -4 -4 -4h-98q-4 0 -4 4v5q0 30 58 82q7 16 7 20v2q0 12 -9 15
h-11q-15 0 -15 -17h-28q-4 0 -4 4v2q0 33 39 46h15zM968 104q42 0 65 -33q0 -3 -22 -21h-2q-16 19 -35 19h-13q-39 -11 -39 -41v-13q0 -29 43 -39h11q13 0 35 21q12 -7 22 -23q-24 -33 -68 -33q-54 0 -78 67v13q0 66 72 83h9zM1120 104q65 0 82 -72v-11q0 -56 -63 -78
q-11 -2 -22 -2q-52 0 -76 63q-2 12 -2 24q16 76 81 76zM1365 102h2v-157q0 -4 -4 -4h-26q-4 0 -4 4v55h-3q-10 -21 -39 -57l-41 57v-55q0 -4 -4 -4h-24q-5 0 -5 4v155h3q71 -100 73 -100q57 84 72 102zM481 71v-63h35q26 6 26 24v13q0 26 -41 26h-20zM270 69v-93h35
q38 0 43 45v7q-7 41 -39 41h-39zM1074 30v-11q9 -43 43 -43h7q43 10 43 39v13q-9 41 -41 41h-13q-39 -13 -39 -39zM870 -18q14 0 17 -19v-2q0 -18 -21 -20q-9 0 -18 13v9q0 17 22 19zM155 -109h74q4 0 4 -4v-17q0 -5 -4 -5h-54v-21h45q5 -1 5 -5v-15q0 -4 -5 -4h-45v-44
q0 -4 -5 -4h-15q-4 0 -4 4v111q0 4 4 4zM294 -109q59 -11 59 -54v-6q0 -52 -61 -59q-47 0 -56 61q11 58 58 58zM435 -109h18q4 0 4 -4v-108q0 -5 -4 -5l-65 61v-59q0 -4 -5 -4h-15q-4 0 -4 4v111h4q32 -29 61 -56h2v56q1 4 4 4zM470 -109h87q4 0 4 -4v-17q0 -5 -4 -5h-30
v-89q0 -4 -5 -4h-17q-4 0 -4 4v89h-31q-4 0 -4 5v17q0 4 4 4zM611 -109q29 0 46 -17q0 -3 -15 -15q-20 6 -26 6h-5q-19 0 -19 -10q0 -11 43 -13q24 -14 24 -35q0 -29 -48 -35q-41 7 -41 15v2q9 16 15 16q11 -7 22 -7h13q11 0 13 7v6q0 6 -48 13q-17 13 -17 26v9q0 25 43 32z
M761 -109q31 -5 31 -26v-2q0 -16 -20 -24q4 -10 9 -11h19q5 0 5 -6t-5 -22q4 0 22 -26l-4 -2h-22l-11 9q-14 -9 -24 -9q-41 8 -41 37q0 21 20 35q-7 11 -7 17v7q0 17 28 23zM892 -109h26q76 0 76 -60q0 -34 -29 -50q-15 -9 -39 -9h-34q-5 0 -5 4v111q1 4 5 4zM1007 -109h76
q4 0 4 -4v-17q0 -5 -4 -5h-55v-21h44q4 -1 4 -5v-15q0 -4 -4 -4h-44v-22h55q4 -1 4 -4v-18q0 -4 -4 -4h-76q-5 0 -5 4v111q1 4 5 4zM1141 -109q46 -7 46 -17q0 -3 -15 -15q-21 6 -33 6h-2q-12 0 -15 -8v-5q0 -7 48 -13q17 -13 17 -26v-8q0 -28 -48 -33q-24 0 -41 15v2
q11 16 17 16q11 -7 22 -7h11q15 0 15 11q0 10 -50 15q-17 16 -17 33q0 27 45 34zM1202 -109h15q5 0 5 -4v-111q0 -4 -5 -4h-15q-4 0 -4 4v111q1 4 4 4zM1291 -109q34 0 52 -30v-4q-8 -11 -19 -11h-2q-6 19 -31 19q-32 -4 -32 -28v-9q0 -30 30 -30h9q12 0 17 9q-24 0 -24 4
v17q1 5 5 5h50q4 -1 4 -5v-4q0 -42 -59 -52q-53 0 -58 61q7 58 58 58zM1432 -109h16q4 0 4 -4v-108q0 -5 -4 -5q-3 6 -61 59h-2v-57q0 -4 -5 -4h-15q-4 0 -4 4v111h2q15 -12 65 -59v59q1 4 4 4zM759 -132v-9h2q5 0 5 4v5h-7zM262 -163v-11q7 -28 28 -28h9q25 0 30 37
q0 24 -35 30h-2q-30 -7 -30 -28zM911 -135v-67h28q29 7 29 28v11q0 24 -35 28h-22zM750 -176l-4 -15q0 -13 15 -13h5q4 0 4 4q-17 24 -20 24z" />
    <glyph glyph-name="periodcentered" unicode="&#xb7;" horiz-adv-x="347" 
d="M175 727q52 0 89 -38q38 -38 38 -92q0 -52 -38 -90q-37 -38 -89 -38q-55 0 -92 38q-38 38 -38 90q0 54 38 92q37 38 92 38z" />
    <glyph glyph-name="periodcentered" unicode="&#x2219;" horiz-adv-x="347" 
d="M175 727q52 0 89 -38q38 -38 38 -92q0 -52 -38 -90q-37 -38 -89 -38q-55 0 -92 38q-38 38 -38 90q0 54 38 92q37 38 92 38z" />
    <glyph glyph-name="cedilla" unicode="&#xb8;" horiz-adv-x="399" 
d="M238 -36q116 -26 116 -127q0 -69 -58 -104q-43 -29 -98 -29q-35 0 -69 15q-84 31 -84 118v9h81v-9q0 -23 29 -32q23 -8 43 -8q72 0 72 40t-72 40h-40v142h80v-55z" />
    <glyph glyph-name="uni00B9" unicode="&#xb9;" horiz-adv-x="214" 
d="M169 1070v-410h-81v329l-43 -26v84l43 23h81z" />
    <glyph glyph-name="ordmasculine" unicode="&#xba;" horiz-adv-x="419" 
d="M152 952q-26 -38 -26 -87q0 -124 84 -124q83 0 83 124q0 49 -26 87q-23 37 -57 37q-35 0 -58 -37zM91 715q-46 58 -46 150q0 84 49 145q46 60 116 60q69 0 115 -60q49 -61 49 -145q0 -92 -46 -150q-43 -55 -118 -55q-73 0 -119 55z" />
    <glyph glyph-name="guillemotright" unicode="&#xbb;" horiz-adv-x="604" 
d="M368 862l191 -338l-191 -332l-83 148l107 184l-107 191zM129 862l190 -338l-190 -332l-84 148l107 184l-107 191z" />
    <glyph glyph-name="onequarter" unicode="&#xbc;" horiz-adv-x="778" 
d="M259 -1h-214l430 1071h214zM172 1070v-410h-84v329l-40 -23v81l40 23h84zM603 146h32v49zM733 -1h-98v49h-217l315 445v-494z" />
    <glyph glyph-name="onehalf" unicode="&#xbd;" horiz-adv-x="734" 
d="M177 1070v-410h-81v329l-43 -26v84l43 23h81zM259 -1h-214l430 1071h214zM441 285q0 78 64 110q28 14 60 14q29 0 61 -14q63 -32 63 -110q0 -121 -124 -205h124v-81h-248q0 87 84 159q81 72 81 127q0 43 -41 43q-40 0 -40 -43h-84z" />
    <glyph glyph-name="threequarters" unicode="&#xbe;" horiz-adv-x="812" 
d="M304 -1h-213l430 1071h214zM48 660v81h72q67 0 67 66q0 67 -70 67l-72 3l69 109h-66v84h216l-80 -127q83 -37 83 -136q0 -72 -52 -115q-43 -32 -95 -32h-72zM637 146h32v49zM767 -1h-98v49h-217l315 445v-494z" />
    <glyph glyph-name="questiondown" unicode="&#xbf;" horiz-adv-x="734" 
d="M475 590q0 -231 -167 -353q-49 -34 -49 -78q3 -106 109 -106q107 0 107 106h214q0 -115 -72 -208q-90 -112 -249 -112q-161 0 -251 112q-72 93 -72 208q0 153 136 252q78 57 78 179h216zM368 910q107 0 107 -107q0 -106 -107 -106q-109 0 -109 106q0 107 109 107z" />
    <glyph glyph-name="Agrave" unicode="&#xc0;" horiz-adv-x="1130" 
d="M694 368l-130 260l-130 -260h260zM1098 -1h-251l-60 150h-448l-61 -150h-251l537 1071zM688 1113l-347 151l58 138l349 -150z" />
    <glyph glyph-name="Aacute" unicode="&#xc1;" horiz-adv-x="1130" 
d="M694 368l-130 260l-130 -260h260zM1098 -1h-251l-60 150h-448l-61 -150h-251l537 1071zM351 1252l347 150l60 -138l-349 -151z" />
    <glyph glyph-name="Acircumflex" unicode="&#xc2;" horiz-adv-x="1130" 
d="M694 368l-130 260l-130 -260h260zM1098 -1h-251l-60 150h-448l-61 -150h-251l537 1071zM337 1232l225 222l226 -222l-102 -101l-124 127l-127 -127z" />
    <glyph glyph-name="Atilde" unicode="&#xc3;" horiz-adv-x="1130" 
d="M694 368l-130 260l-130 -260h260zM1098 -1h-251l-60 150h-448l-61 -150h-251l537 1071zM834 1255l-69 -121l-18 11q-83 46 -112 46h-3q-12 -2 -32 -17q-40 -26 -81 -32q-11 -3 -26 -3q-66 0 -179 64l-23 14l69 122l23 -15q84 -46 110 -46h3q12 3 29 15q43 28 84 34
q11 3 26 3q69 0 182 -63z" />
    <glyph glyph-name="Adieresis" unicode="&#xc4;" horiz-adv-x="1130" 
d="M694 368l-130 260l-130 -260h260zM1098 -1h-251l-60 150h-448l-61 -150h-251l537 1071zM672 1324q35 0 58 -23q26 -26 26 -60q0 -35 -26 -61q-23 -23 -58 -23q-34 0 -60 23q-24 26 -24 61q0 34 24 60q26 23 60 23zM453 1324q34 0 60 -23q24 -26 24 -60q0 -35 -24 -61
q-26 -23 -60 -23q-35 0 -61 23q-23 26 -23 61q0 34 23 60q26 23 61 23z" />
    <glyph glyph-name="Aring" unicode="&#xc5;" horiz-adv-x="1130" 
d="M694 368l-130 260l-130 -260h260zM512 1099q20 -20 49 -20t49 20t20 49t-20 49t-49 20t-49 -20t-20 -49t20 -49zM590 1018l508 -1019h-251l-60 150h-448l-61 -150h-251l510 1018q-40 6 -71 36q-38 40 -38 95t38 95q40 41 95 41t95 -41q41 -40 41 -95t-41 -95
q-29 -28 -66 -35z" />
    <glyph glyph-name="AE" unicode="&#xc6;" horiz-adv-x="1647" 
d="M857 363v228l-208 -228h208zM857 -1v150h-396l-136 -150h-280l979 1068v3h578v-214h-480v-213h393v-214h-393v-217h480v-213h-745z" />
    <glyph glyph-name="Ccedilla" unicode="&#xc7;" horiz-adv-x="1055" 
d="M539 2q-194 11 -338 153q-156 159 -156 381t156 378q159 156 381 156q266 0 428 -214l-153 -153q-96 153 -275 153q-133 0 -228 -95q-95 -92 -95 -225t95 -228q95 -96 228 -96q179 0 275 156l153 -156q-151 -199 -390 -213v-23q115 -26 115 -127q0 -70 -58 -104
q-43 -29 -98 -29q-34 0 -69 14q-84 32 -84 119v8h81v-8q0 -24 29 -32q23 -9 43 -9q72 0 72 41q0 40 -72 40h-40v113z" />
    <glyph glyph-name="Egrave" unicode="&#xc8;" horiz-adv-x="841" 
d="M796 1070v-214h-537v-213h450v-214h-450v-217h537v-213h-751v1071h751zM565 1113l-347 151l58 138l349 -150z" />
    <glyph glyph-name="Eacute" unicode="&#xc9;" horiz-adv-x="841" 
d="M796 1070v-214h-537v-213h450v-214h-450v-217h537v-213h-751v1071h751zM218 1252l347 150l60 -138l-349 -151z" />
    <glyph glyph-name="Ecircumflex" unicode="&#xca;" horiz-adv-x="841" 
d="M796 1070v-214h-537v-213h450v-214h-450v-217h537v-213h-751v1071h751zM195 1232l225 222l226 -222l-101 -101l-125 127l-127 -127z" />
    <glyph glyph-name="Edieresis" unicode="&#xcb;" horiz-adv-x="841" 
d="M796 1070v-214h-537v-213h450v-214h-450v-217h537v-213h-751v1071h751zM311 1324q34 0 60 -23q23 -26 23 -60q0 -35 -23 -61q-26 -23 -60 -23q-35 0 -61 23q-23 26 -23 61q0 34 23 60q26 23 61 23zM530 1324q35 0 58 -23q26 -26 26 -60q0 -35 -26 -61q-23 -23 -58 -23
q-34 0 -60 23q-24 26 -24 61q0 34 24 60q26 23 60 23z" />
    <glyph glyph-name="Igrave" unicode="&#xcc;" horiz-adv-x="497" 
d="M354 1070v-1071h-214v1071h214zM392 1113l-347 151l58 138l349 -150z" />
    <glyph glyph-name="Iacute" unicode="&#xcd;" horiz-adv-x="497" 
d="M354 1070v-1071h-214v1071h214zM45 1252l349 150l58 -138l-346 -151z" />
    <glyph glyph-name="Icircumflex" unicode="&#xce;" horiz-adv-x="541" 
d="M377 1070v-1071h-214v1071h214zM45 1232l225 222l226 -222l-102 -101l-124 127l-127 -127z" />
    <glyph glyph-name="Idieresis" unicode="&#xcf;" horiz-adv-x="477" 
d="M345 1070v-1071h-213v1071h213zM129 1324q34 0 60 -23q24 -26 24 -60q0 -35 -24 -61q-26 -23 -60 -23q-35 0 -61 23q-23 26 -23 61q0 34 23 60q26 23 61 23zM348 1324q35 0 58 -23q26 -26 26 -60q0 -35 -26 -61q-23 -23 -58 -23q-34 0 -60 23q-24 26 -24 61q0 34 24 60
q26 23 60 23z" />
    <glyph glyph-name="Eth" unicode="&#xd0;" horiz-adv-x="1161" 
d="M45 1070h430q133 0 266 -66q222 -110 260 -361h115v-214h-115q-38 -251 -260 -364q-133 -66 -266 -66h-430v1071zM781 429h-522v-217h216q78 0 159 41q116 58 147 176zM259 643h522q-31 115 -147 173q-81 40 -159 40h-216v-213z" />
    <glyph glyph-name="Ntilde" unicode="&#xd1;" horiz-adv-x="928" 
d="M45 -1v1071l621 -577v577h217v-1071l-624 580v-580h-214zM695 1198l-69 -121l-17 11q-84 47 -113 47h-3q-11 -3 -32 -18q-40 -26 -80 -32q-12 -2 -26 -2q-67 0 -180 63l-23 15l70 121l23 -15q84 -46 110 -46h2q12 3 29 15q44 29 84 34q12 3 26 3q69 0 182 -63z" />
    <glyph glyph-name="Ograve" unicode="&#xd2;" horiz-adv-x="1161" 
d="M354 308q95 -96 228 -96t225 96q96 95 96 228t-96 225q-92 95 -225 95t-228 -95q-95 -92 -95 -225t95 -228zM201 914q159 156 381 156q223 0 378 -156q156 -156 156 -378t-156 -381q-155 -156 -378 -156q-222 0 -381 156q-156 159 -156 381t156 378zM696 1113l-346 151
l57 138l350 -150z" />
    <glyph glyph-name="Oacute" unicode="&#xd3;" horiz-adv-x="1161" 
d="M354 308q95 -96 228 -96t225 96q96 95 96 228t-96 225q-92 95 -225 95t-228 -95q-95 -92 -95 -225t95 -228zM201 914q159 156 381 156q223 0 378 -156q156 -156 156 -378t-156 -381q-155 -156 -378 -156q-222 0 -381 156q-156 159 -156 381t156 378zM389 1252l346 150
l61 -138l-350 -151z" />
    <glyph glyph-name="Ocircumflex" unicode="&#xd4;" horiz-adv-x="1161" 
d="M354 308q95 -96 228 -96t225 96q96 95 96 228t-96 225q-92 95 -225 95t-228 -95q-95 -92 -95 -225t95 -228zM201 914q159 156 381 156q223 0 378 -156q156 -156 156 -378t-156 -381q-155 -156 -378 -156q-222 0 -381 156q-156 159 -156 381t156 378zM357 1203l225 222
l225 -222l-101 -101l-124 127l-127 -127z" />
    <glyph glyph-name="Otilde" unicode="&#xd5;" horiz-adv-x="1161" 
d="M354 308q95 -96 228 -96t225 96q96 95 96 228t-96 225q-92 95 -225 95t-228 -95q-95 -92 -95 -225t95 -228zM201 914q159 156 381 156q223 0 378 -156q156 -156 156 -378t-156 -381q-155 -156 -378 -156q-222 0 -381 156q-156 159 -156 381t156 378zM854 1226l-70 -121
l-17 11q-84 47 -113 47h-3q-11 -3 -31 -18q-41 -26 -81 -32q-12 -2 -26 -2q-67 0 -179 63l-23 15l69 121l23 -15q84 -46 110 -46h3q11 3 29 15q43 29 83 34q12 3 26 3q70 0 182 -63z" />
    <glyph glyph-name="Odieresis" unicode="&#xd6;" horiz-adv-x="1161" 
d="M354 308q95 -96 228 -96t225 96q96 95 96 228t-96 225q-92 95 -225 95t-228 -95q-95 -92 -95 -225t95 -228zM201 914q159 156 381 156q223 0 378 -156q156 -156 156 -378t-156 -381q-155 -156 -378 -156q-222 0 -381 156q-156 159 -156 381t156 378zM472 1295
q35 0 61 -23q23 -26 23 -60q0 -35 -23 -61q-26 -23 -61 -23q-34 0 -60 23q-23 26 -23 61q0 34 23 60q26 23 60 23zM692 1295q35 0 58 -23q26 -26 26 -60q0 -35 -26 -61q-23 -23 -58 -23t-61 23q-23 26 -23 61q0 34 23 60q26 23 61 23z" />
    <glyph glyph-name="multiply" unicode="&#xd7;" horiz-adv-x="696" 
d="M198 842l153 -153l150 150l150 -150l-150 -150l150 -153l-153 -153l-150 153l-150 -153l-153 153l153 150l-153 153z" />
    <glyph glyph-name="Oslash" unicode="&#xd8;" horiz-adv-x="1161" 
d="M686 7q-49 -8 -104 -8q-222 0 -381 156q-156 159 -156 381t156 378q43 44 92 72l-34 84h213l3 -8q52 8 107 8q223 0 378 -156q156 -156 156 -378t-156 -381q-43 -44 -89 -75l32 -81h-214zM559 856l228 -568q9 8 20 20q96 95 96 228t-96 225q-92 95 -225 95h-23zM602 212
l-228 569l-20 -20q-95 -92 -95 -225t95 -228q95 -96 228 -96h20z" />
    <glyph glyph-name="Ugrave" unicode="&#xd9;" 
d="M903 1074v-644q0 -107 -52 -213q-110 -217 -376 -217q-268 0 -375 217q-55 106 -55 213v644h214v-644q0 -55 29 -107q52 -106 187 -106q133 0 188 106q26 52 26 107v644h214zM570 1084l-346 151l58 138l349 -150z" />
    <glyph glyph-name="Uacute" unicode="&#xda;" 
d="M903 1074v-644q0 -107 -52 -213q-110 -217 -376 -217q-268 0 -375 217q-55 106 -55 213v644h214v-644q0 -55 29 -107q52 -106 187 -106q133 0 188 106q26 52 26 107v644h214zM320 1213l346 150l61 -138l-350 -151z" />
    <glyph glyph-name="Ucircumflex" unicode="&#xdb;" 
d="M903 1074v-644q0 -107 -52 -213q-110 -217 -376 -217q-268 0 -375 217q-55 106 -55 213v644h214v-644q0 -55 29 -107q52 -106 187 -106q133 0 188 106q26 52 26 107v644h214zM250 1203l225 222l226 -222l-102 -101l-124 127l-127 -127z" />
    <glyph glyph-name="Udieresis" unicode="&#xdc;" 
d="M903 1074v-644q0 -107 -52 -213q-110 -217 -376 -217q-268 0 -375 217q-55 106 -55 213v644h214v-644q0 -55 29 -107q52 -106 187 -106q133 0 188 106q26 52 26 107v644h214zM366 1305q34 0 60 -23q23 -26 23 -60q0 -35 -23 -61q-26 -23 -60 -23q-35 0 -61 23
q-23 26 -23 61q0 34 23 60q26 23 61 23zM585 1305q35 0 58 -23q26 -26 26 -60q0 -35 -26 -61q-23 -23 -58 -23t-61 23q-23 26 -23 61q0 34 23 60q26 23 61 23z" />
    <glyph glyph-name="Yacute" unicode="&#xdd;" horiz-adv-x="1161" 
d="M1116 1070l-427 -791v-280h-214v280l-430 791h269l268 -514l269 514h265zM392 1225l347 150l61 -138l-350 -151z" />
    <glyph glyph-name="Thorn" unicode="&#xde;" horiz-adv-x="609" 
d="M174 789h131q65 0 129 -32q130 -64 130 -227q0 -162 -130 -227q-64 -33 -129 -33h-131v-129h-129v811h129v-163zM174 401h131q32 0 65 16q64 31 64 113q0 81 -64 114q-33 15 -65 15h-131v-258z" />
    <glyph glyph-name="germandbls" unicode="&#xdf;" horiz-adv-x="777" 
d="M504 290q38 32 38 70q0 49 -78 66v-162q23 9 40 26zM238 692q0 -46 76 -64v162q-24 -9 -41 -26q-35 -35 -35 -72zM634 550q93 -75 93 -190q0 -98 -70 -179q-75 -90 -193 -113v-98h-150v98q-174 20 -269 116l66 63l64 67q46 -44 139 -58v182q-127 17 -200 95
q-63 66 -63 159q0 98 69 182q75 86 194 110v101h150v-99q176 -20 268 -115l-130 -130q-49 40 -138 58v-185q101 -12 170 -64z" />
    <glyph glyph-name="agrave" unicode="&#xe0;" horiz-adv-x="1130" 
d="M694 368l-130 260l-130 -260h260zM1098 -1h-251l-60 150h-448l-61 -150h-251l537 1071zM688 1113l-347 151l58 138l349 -150z" />
    <glyph glyph-name="aacute" unicode="&#xe1;" horiz-adv-x="1130" 
d="M694 368l-130 260l-130 -260h260zM1098 -1h-251l-60 150h-448l-61 -150h-251l537 1071zM351 1252l347 150l60 -138l-349 -151z" />
    <glyph glyph-name="acircumflex" unicode="&#xe2;" horiz-adv-x="1130" 
d="M694 368l-130 260l-130 -260h260zM1098 -1h-251l-60 150h-448l-61 -150h-251l537 1071zM337 1232l225 222l226 -222l-102 -101l-124 127l-127 -127z" />
    <glyph glyph-name="atilde" unicode="&#xe3;" horiz-adv-x="1130" 
d="M694 368l-130 260l-130 -260h260zM1098 -1h-251l-60 150h-448l-61 -150h-251l537 1071zM834 1255l-69 -121l-18 11q-83 46 -112 46h-3q-12 -2 -32 -17q-40 -26 -81 -32q-11 -3 -26 -3q-66 0 -179 64l-23 14l69 122l23 -15q84 -46 110 -46h3q12 3 29 15q43 28 84 34
q11 3 26 3q69 0 182 -63z" />
    <glyph glyph-name="adieresis" unicode="&#xe4;" horiz-adv-x="1130" 
d="M694 368l-130 260l-130 -260h260zM1098 -1h-251l-60 150h-448l-61 -150h-251l537 1071zM672 1324q35 0 58 -23q26 -26 26 -60q0 -35 -26 -61q-23 -23 -58 -23q-34 0 -60 23q-24 26 -24 61q0 34 24 60q26 23 60 23zM453 1324q34 0 60 -23q24 -26 24 -60q0 -35 -24 -61
q-26 -23 -60 -23q-35 0 -61 23q-23 26 -23 61q0 34 23 60q26 23 61 23z" />
    <glyph glyph-name="aring" unicode="&#xe5;" horiz-adv-x="1130" 
d="M694 368l-130 260l-130 -260h260zM512 1099q20 -20 49 -20t49 20t20 49t-20 49t-49 20t-49 -20t-20 -49t20 -49zM590 1018l508 -1019h-251l-60 150h-448l-61 -150h-251l510 1018q-40 6 -71 36q-38 40 -38 95t38 95q40 41 95 41t95 -41q41 -40 41 -95t-41 -95
q-29 -28 -66 -35z" />
    <glyph glyph-name="ae" unicode="&#xe6;" horiz-adv-x="1647" 
d="M857 363v228l-208 -228h208zM857 -1v150h-396l-136 -150h-280l979 1068v3h578v-214h-480v-213h393v-214h-393v-217h480v-213h-745z" />
    <glyph glyph-name="ccedilla" unicode="&#xe7;" horiz-adv-x="1055" 
d="M539 2q-194 11 -338 153q-156 159 -156 381t156 378q159 156 381 156q266 0 428 -214l-153 -153q-96 153 -275 153q-133 0 -228 -95q-95 -92 -95 -225t95 -228q95 -96 228 -96q179 0 275 156l153 -156q-151 -199 -390 -213v-23q115 -26 115 -127q0 -70 -58 -104
q-43 -29 -98 -29q-34 0 -69 14q-84 32 -84 119v8h81v-8q0 -24 29 -32q23 -9 43 -9q72 0 72 41q0 40 -72 40h-40v113z" />
    <glyph glyph-name="egrave" unicode="&#xe8;" horiz-adv-x="841" 
d="M796 1070v-214h-537v-213h450v-214h-450v-217h537v-213h-751v1071h751zM565 1113l-347 151l58 138l349 -150z" />
    <glyph glyph-name="eacute" unicode="&#xe9;" horiz-adv-x="841" 
d="M796 1070v-214h-537v-213h450v-214h-450v-217h537v-213h-751v1071h751zM218 1252l347 150l60 -138l-349 -151z" />
    <glyph glyph-name="ecircumflex" unicode="&#xea;" horiz-adv-x="841" 
d="M796 1070v-214h-537v-213h450v-214h-450v-217h537v-213h-751v1071h751zM195 1232l225 222l226 -222l-101 -101l-125 127l-127 -127z" />
    <glyph glyph-name="edieresis" unicode="&#xeb;" horiz-adv-x="841" 
d="M796 1070v-214h-537v-213h450v-214h-450v-217h537v-213h-751v1071h751zM311 1324q34 0 60 -23q23 -26 23 -60q0 -35 -23 -61q-26 -23 -60 -23q-35 0 -61 23q-23 26 -23 61q0 34 23 60q26 23 61 23zM530 1324q35 0 58 -23q26 -26 26 -60q0 -35 -26 -61q-23 -23 -58 -23
q-34 0 -60 23q-24 26 -24 61q0 34 24 60q26 23 60 23z" />
    <glyph glyph-name="igrave" unicode="&#xec;" horiz-adv-x="497" 
d="M354 1070v-1071h-214v1071h214zM392 1113l-347 151l58 138l349 -150z" />
    <glyph glyph-name="iacute" unicode="&#xed;" horiz-adv-x="497" 
d="M354 1070v-1071h-214v1071h214zM45 1252l349 150l58 -138l-346 -151z" />
    <glyph glyph-name="icircumflex" unicode="&#xee;" horiz-adv-x="541" 
d="M377 1070v-1071h-214v1071h214zM45 1232l225 222l226 -222l-102 -101l-124 127l-127 -127z" />
    <glyph glyph-name="idieresis" unicode="&#xef;" horiz-adv-x="477" 
d="M345 1070v-1071h-213v1071h213zM129 1324q34 0 60 -23q24 -26 24 -60q0 -35 -24 -61q-26 -23 -60 -23q-35 0 -61 23q-23 26 -23 61q0 34 23 60q26 23 61 23zM348 1324q35 0 58 -23q26 -26 26 -60q0 -35 -26 -61q-23 -23 -58 -23q-34 0 -60 23q-24 26 -24 61q0 34 24 60
q26 23 60 23z" />
    <glyph glyph-name="ntilde" unicode="&#xf1;" horiz-adv-x="928" 
d="M45 -1v1071l621 -577v577h217v-1071l-624 580v-580h-214zM677 1215l-69 -121l-18 11q-83 46 -112 46h-3q-12 -2 -32 -17q-40 -26 -81 -32q-11 -3 -26 -3q-66 0 -179 64l-23 14l69 122l23 -15q84 -46 110 -46h3q12 3 29 15q43 28 84 34q11 3 26 3q69 0 182 -63z" />
    <glyph glyph-name="ograve" unicode="&#xf2;" horiz-adv-x="1161" 
d="M354 308q95 -96 228 -96t225 96q96 95 96 228t-96 225q-92 95 -225 95t-228 -95q-95 -92 -95 -225t95 -228zM201 914q159 156 381 156q223 0 378 -156q156 -156 156 -378t-156 -381q-155 -156 -378 -156q-222 0 -381 156q-156 159 -156 381t156 378zM696 1113l-346 151
l57 138l350 -150z" />
    <glyph glyph-name="oacute" unicode="&#xf3;" horiz-adv-x="1161" 
d="M354 308q95 -96 228 -96t225 96q96 95 96 228t-96 225q-92 95 -225 95t-228 -95q-95 -92 -95 -225t95 -228zM201 914q159 156 381 156q223 0 378 -156q156 -156 156 -378t-156 -381q-155 -156 -378 -156q-222 0 -381 156q-156 159 -156 381t156 378zM389 1252l346 150
l61 -138l-350 -151z" />
    <glyph glyph-name="ocircumflex" unicode="&#xf4;" horiz-adv-x="1161" 
d="M354 308q95 -96 228 -96t225 96q96 95 96 228t-96 225q-92 95 -225 95t-228 -95q-95 -92 -95 -225t95 -228zM201 914q159 156 381 156q223 0 378 -156q156 -156 156 -378t-156 -381q-155 -156 -378 -156q-222 0 -381 156q-156 159 -156 381t156 378zM357 1203l225 222
l225 -222l-101 -101l-124 127l-127 -127z" />
    <glyph glyph-name="otilde" unicode="&#xf5;" horiz-adv-x="1161" 
d="M354 308q95 -96 228 -96t225 96q96 95 96 228t-96 225q-92 95 -225 95t-228 -95q-95 -92 -95 -225t95 -228zM201 914q159 156 381 156q223 0 378 -156q156 -156 156 -378t-156 -381q-155 -156 -378 -156q-222 0 -381 156q-156 159 -156 381t156 378zM854 1226l-70 -121
l-17 11q-84 47 -113 47h-3q-11 -3 -31 -18q-41 -26 -81 -32q-12 -2 -26 -2q-67 0 -179 63l-23 15l69 121l23 -15q84 -46 110 -46h3q11 3 29 15q43 29 83 34q12 3 26 3q70 0 182 -63z" />
    <glyph glyph-name="odieresis" unicode="&#xf6;" horiz-adv-x="1161" 
d="M354 308q95 -96 228 -96t225 96q96 95 96 228t-96 225q-92 95 -225 95t-228 -95q-95 -92 -95 -225t95 -228zM201 914q159 156 381 156q223 0 378 -156q156 -156 156 -378t-156 -381q-155 -156 -378 -156q-222 0 -381 156q-156 159 -156 381t156 378zM472 1295
q35 0 61 -23q23 -26 23 -60q0 -35 -23 -61q-26 -23 -61 -23q-34 0 -60 23q-23 26 -23 61q0 34 23 60q26 23 60 23zM692 1295q35 0 58 -23q26 -26 26 -60q0 -35 -26 -61q-23 -23 -58 -23t-61 23q-23 26 -23 61q0 34 23 60q26 23 61 23z" />
    <glyph glyph-name="divide" unicode="&#xf7;" horiz-adv-x="659" 
d="M331 389q35 0 61 -26t26 -64q0 -37 -26 -63q-26 -24 -61 -24q-38 0 -64 24q-26 26 -26 63q0 38 26 64t64 26zM331 874q35 0 61 -26t26 -64q0 -37 -26 -63t-61 -26q-38 0 -64 26t-26 63q0 38 26 64t64 26zM45 614h569v-145h-569v145z" />
    <glyph glyph-name="oslash" unicode="&#xf8;" horiz-adv-x="1161" 
d="M472 -1h-213l31 81q-46 31 -89 75q-156 159 -156 381t156 378t378 156q55 0 107 -8l3 8h214l-35 -84q49 -28 92 -72q156 -156 156 -378t-156 -381q-158 -156 -381 -156q-55 0 -104 8zM579 856q-133 0 -225 -95q-95 -92 -95 -225t95 -228l20 -20l228 568h-23zM579 212
q133 0 228 96q96 95 96 228t-96 225q-11 12 -20 20l-228 -569h20z" />
    <glyph glyph-name="ugrave" unicode="&#xf9;" 
d="M903 1093v-644q0 -107 -52 -213q-110 -217 -376 -217q-268 0 -375 217q-55 106 -55 213v644h214v-644q0 -55 29 -107q52 -106 187 -106q133 0 188 106q26 52 26 107v644h214zM570 1103l-346 151l58 138l349 -150z" />
    <glyph glyph-name="uacute" unicode="&#xfa;" 
d="M903 1093v-644q0 -107 -52 -213q-110 -217 -376 -217q-268 0 -375 217q-55 106 -55 213v644h214v-644q0 -55 29 -107q52 -106 187 -106q133 0 188 106q26 52 26 107v644h214zM320 1232l346 150l61 -138l-350 -151z" />
    <glyph glyph-name="ucircumflex" unicode="&#xfb;" 
d="M903 1093v-644q0 -107 -52 -213q-110 -217 -376 -217q-268 0 -375 217q-55 106 -55 213v644h214v-644q0 -55 29 -107q52 -106 187 -106q133 0 188 106q26 52 26 107v644h214zM250 1222l225 222l226 -222l-102 -101l-124 127l-127 -127z" />
    <glyph glyph-name="udieresis" unicode="&#xfc;" 
d="M903 1093v-644q0 -107 -52 -213q-110 -217 -376 -217q-268 0 -375 217q-55 106 -55 213v644h214v-644q0 -55 29 -107q52 -106 187 -106q133 0 188 106q26 52 26 107v644h214zM366 1324q34 0 60 -23q23 -26 23 -60q0 -35 -23 -61q-26 -23 -60 -23q-35 0 -61 23
q-23 26 -23 61q0 34 23 60q26 23 61 23zM585 1324q35 0 58 -23q26 -26 26 -60q0 -35 -26 -61q-23 -23 -58 -23t-61 23q-23 26 -23 61q0 34 23 60q26 23 61 23z" />
    <glyph glyph-name="yacute" unicode="&#xfd;" horiz-adv-x="1161" 
d="M1116 1070l-427 -791v-280h-214v280l-430 791h269l268 -514l269 514h265zM392 1225l347 150l61 -138l-350 -151z" />
    <glyph glyph-name="thorn" unicode="&#xfe;" horiz-adv-x="887" 
d="M45 1090h401q99 0 197 -49q199 -98 199 -349q0 -249 -199 -350q-98 -49 -197 -49h-202v-95h459v-199h-658v1091zM244 495h202q47 0 99 24q98 49 98 173t-98 176q-52 23 -99 23h-202v-396z" />
    <glyph glyph-name="ydieresis" unicode="&#xff;" horiz-adv-x="1161" 
d="M1116 1070l-427 -791v-280h-214v280l-430 791h269l268 -514l269 514h265zM468 1324q34 0 60 -23q24 -26 24 -60q0 -35 -24 -61q-26 -23 -60 -23q-35 0 -61 23q-23 26 -23 61q0 34 23 60q26 23 61 23zM687 1324q35 0 58 -23q26 -26 26 -60q0 -35 -26 -61q-23 -23 -58 -23
q-34 0 -60 23q-24 26 -24 61q0 34 24 60q26 23 60 23z" />
    <glyph glyph-name="Amacron" unicode="&#x100;" horiz-adv-x="1161" 
d="M712 368l-130 260l-130 -260h260zM1116 -1h-251l-60 150h-448l-61 -150h-251l537 1071zM383 1240h387v-138h-387v138z" />
    <glyph glyph-name="amacron" unicode="&#x101;" horiz-adv-x="1161" 
d="M712 368l-130 260l-130 -260h260zM1116 -1h-251l-60 150h-448l-61 -150h-251l537 1071zM383 1240h387v-138h-387v138z" />
    <glyph glyph-name="Abreve" unicode="&#x102;" horiz-adv-x="1161" 
d="M724 363l-142 286l-144 -286h286zM1116 -1h-251l-60 150h-448l-61 -150h-251l537 1071zM452 1293q9 -35 38 -64q37 -37 92 -37t93 37q28 29 37 64h90q-9 -72 -64 -127q-63 -64 -156 -64q-92 0 -156 64q-55 55 -63 127h89z" />
    <glyph glyph-name="abreve" unicode="&#x103;" horiz-adv-x="1161" 
d="M724 363l-142 286l-144 -286h286zM1116 -1h-251l-60 150h-448l-61 -150h-251l537 1071zM452 1293q9 -35 38 -64q37 -37 92 -37t93 37q28 29 37 64h90q-9 -72 -64 -127q-63 -64 -156 -64q-92 0 -156 64q-55 55 -63 127h89z" />
    <glyph glyph-name="Aogonek" unicode="&#x104;" horiz-adv-x="1161" 
d="M724 363l-142 286l-144 -286h286zM842 54l-37 95h-448l-61 -150h-251l537 1071l534 -1071h-109q-84 -18 -98 -139q-9 -52 -9 -89q0 -67 23 -90q-14 0 -46 26q-84 64 -84 185q0 101 49 162z" />
    <glyph glyph-name="aogonek" unicode="&#x105;" horiz-adv-x="1161" 
d="M724 363l-142 286l-144 -286h286zM842 54l-37 95h-448l-61 -150h-251l537 1071l534 -1071h-109q-84 -18 -98 -139q-9 -52 -9 -89q0 -67 23 -90q-14 0 -46 26q-84 64 -84 185q0 101 49 162z" />
    <glyph glyph-name="Cacute" unicode="&#x106;" horiz-adv-x="1055" 
d="M1010 212q-162 -213 -428 -213q-222 0 -381 156q-156 159 -156 381t156 378q159 156 381 156q266 0 428 -214l-153 -153q-96 153 -275 153q-133 0 -228 -95q-95 -92 -95 -225t95 -228q95 -96 228 -96q179 0 275 156zM363 1242l346 150l61 -138l-350 -151z" />
    <glyph glyph-name="cacute" unicode="&#x107;" horiz-adv-x="1055" 
d="M1010 212q-162 -213 -428 -213q-222 0 -381 156q-156 159 -156 381t156 378q159 156 381 156q266 0 428 -214l-153 -153q-96 153 -275 153q-133 0 -228 -95q-95 -92 -95 -225t95 -228q95 -96 228 -96q179 0 275 156zM363 1242l346 150l61 -138l-350 -151z" />
    <glyph glyph-name="Ccircumflex" unicode="&#x108;" horiz-adv-x="1055" 
d="M1010 212q-162 -213 -428 -213q-222 0 -381 156q-156 159 -156 381t156 378q159 156 381 156q266 0 428 -214l-153 -153q-96 153 -275 153q-133 0 -228 -95q-95 -92 -95 -225t95 -228q95 -96 228 -96q179 0 275 156zM351 1212l225 222l225 -222l-101 -101l-124 127
l-127 -127z" />
    <glyph glyph-name="ccircumflex" unicode="&#x109;" horiz-adv-x="1055" 
d="M1010 212q-162 -213 -428 -213q-222 0 -381 156q-156 159 -156 381t156 378q159 156 381 156q266 0 428 -214l-153 -153q-96 153 -275 153q-133 0 -228 -95q-95 -92 -95 -225t95 -228q95 -96 228 -96q179 0 275 156zM351 1212l225 222l225 -222l-101 -101l-124 127
l-127 -127z" />
    <glyph glyph-name="Cdotaccent" unicode="&#x10a;" horiz-adv-x="1055" 
d="M1010 212q-162 -213 -428 -213q-222 0 -381 156q-156 159 -156 381t156 378q159 156 381 156q266 0 428 -214l-153 -153q-96 153 -275 153q-133 0 -228 -95q-95 -92 -95 -225t95 -228q95 -96 228 -96q179 0 275 156zM588 1304q32 0 58 -23q23 -26 23 -61q0 -31 -23 -57
q-26 -24 -58 -24q-35 0 -61 24q-23 26 -23 57q0 35 23 61q26 23 61 23z" />
    <glyph glyph-name="cdotaccent" unicode="&#x10b;" horiz-adv-x="1055" 
d="M1010 212q-162 -213 -428 -213q-222 0 -381 156q-156 159 -156 381t156 378q159 156 381 156q266 0 428 -214l-153 -153q-96 153 -275 153q-133 0 -228 -95q-95 -92 -95 -225t95 -228q95 -96 228 -96q179 0 275 156zM588 1304q32 0 58 -23q23 -26 23 -61q0 -31 -23 -57
q-26 -24 -58 -24q-35 0 -61 24q-23 26 -23 57q0 35 23 61q26 23 61 23z" />
    <glyph glyph-name="Ccaron" unicode="&#x10c;" horiz-adv-x="1055" 
d="M1010 212q-162 -213 -428 -213q-222 0 -381 156q-156 159 -156 381t156 378q159 156 381 156q266 0 428 -214l-153 -153q-96 153 -275 153q-133 0 -228 -95q-95 -92 -95 -225t95 -228q95 -96 228 -96q179 0 275 156zM810 1343l-225 -222l-225 222l101 101l124 -127
l127 127z" />
    <glyph glyph-name="ccaron" unicode="&#x10d;" horiz-adv-x="1055" 
d="M1010 212q-162 -213 -428 -213q-222 0 -381 156q-156 159 -156 381t156 378q159 156 381 156q266 0 428 -214l-153 -153q-96 153 -275 153q-133 0 -228 -95q-95 -92 -95 -225t95 -228q95 -96 228 -96q179 0 275 156zM810 1343l-225 -222l-225 222l101 101l124 -127
l127 127z" />
    <glyph glyph-name="Dcaron" unicode="&#x10e;" horiz-adv-x="1055" 
d="M475 212q78 0 159 41q162 81 162 283q0 199 -162 280q-81 40 -159 40h-216v-644h216zM475 1070q133 0 266 -66q269 -133 269 -468t-269 -471q-133 -66 -266 -66h-430v1071h430zM678 1354l-226 -222l-225 222l101 101l124 -127l127 127z" />
    <glyph glyph-name="dcaron" unicode="&#x10f;" horiz-adv-x="1055" 
d="M475 212q78 0 159 41q162 81 162 283q0 199 -162 280q-81 40 -159 40h-216v-644h216zM475 1070q133 0 266 -66q269 -133 269 -468t-269 -471q-133 -66 -266 -66h-430v1071h430zM932 1313q0 -6 -3 -15h3q0 -55 -21 -109q-43 -110 -144 -110v110q23 0 40 28q-72 21 -72 96
q0 43 29 72t69 29q41 0 70 -29t29 -72z" />
    <glyph glyph-name="Dcroat" unicode="&#x110;" horiz-adv-x="1202" 
d="M192 643v427h431q132 0 265 -66q269 -133 269 -468t-269 -471q-133 -66 -265 -66h-431v430h-147v214h147zM406 643h523q-32 115 -148 173q-80 40 -158 40h-217v-213zM929 429h-523v-217h217q78 0 158 41q116 58 148 176z" />
    <glyph glyph-name="dcroat" unicode="&#x111;" horiz-adv-x="1202" 
d="M192 643v427h431q132 0 265 -66q269 -133 269 -468t-269 -471q-133 -66 -265 -66h-431v430h-147v214h147zM406 643h523q-32 115 -148 173q-80 40 -158 40h-217v-213zM929 429h-523v-217h217q78 0 158 41q116 58 148 176z" />
    <glyph glyph-name="Emacron" unicode="&#x112;" horiz-adv-x="841" 
d="M796 1070v-214h-537v-213h450v-214h-450v-217h537v-213h-751v1071h751zM227 1249h387v-138h-387v138z" />
    <glyph glyph-name="emacron" unicode="&#x113;" horiz-adv-x="841" 
d="M796 1070v-214h-537v-213h450v-214h-450v-217h537v-213h-751v1071h751zM228 1249h387v-138h-387v138z" />
    <glyph glyph-name="Ebreve" unicode="&#x114;" horiz-adv-x="841" 
d="M796 1070v-214h-537v-213h450v-214h-450v-217h537v-213h-751v1071h751zM290 1313q9 -35 38 -64q38 -37 92 -37q55 0 93 37q29 29 37 64h90q-9 -72 -64 -127q-63 -64 -156 -64q-92 0 -156 64q-54 55 -63 127h89z" />
    <glyph glyph-name="ebreve" unicode="&#x115;" horiz-adv-x="841" 
d="M796 1070v-214h-537v-213h450v-214h-450v-217h537v-213h-751v1071h751zM289 1313q8 -35 37 -64q38 -37 92 -37q55 0 93 37q29 29 37 64h90q-9 -72 -64 -127q-63 -64 -156 -64q-92 0 -155 64q-55 55 -64 127h90z" />
    <glyph glyph-name="Edotaccent" unicode="&#x116;" horiz-adv-x="841" 
d="M796 1070v-214h-537v-213h450v-214h-450v-217h537v-213h-751v1071h751zM423 1304q32 0 58 -23q23 -26 23 -61q0 -31 -23 -57q-26 -24 -58 -24q-34 0 -60 24q-23 26 -23 57q0 35 23 61q26 23 60 23z" />
    <glyph glyph-name="edotaccent" unicode="&#x117;" horiz-adv-x="841" 
d="M796 1070v-214h-537v-213h450v-214h-450v-217h537v-213h-751v1071h751zM423 1304q32 0 58 -23q23 -26 23 -61q0 -31 -23 -57q-26 -24 -58 -24q-34 0 -60 24q-23 26 -23 57q0 35 23 61q26 23 60 23z" />
    <glyph glyph-name="Eogonek" unicode="&#x118;" horiz-adv-x="841" 
d="M472 -1h-427v1071h751v-214h-537v-213h450v-214h-450v-217h537v-213h-127q-84 -18 -98 -139q-9 -52 -9 -89q0 -67 23 -90q-14 0 -46 26q-84 64 -84 185q0 61 17 107z" />
    <glyph glyph-name="eogonek" unicode="&#x119;" horiz-adv-x="841" 
d="M472 -1h-427v1071h751v-214h-537v-213h450v-214h-450v-217h537v-213h-127q-84 -18 -98 -139q-9 -52 -9 -89q0 -67 23 -90q-14 0 -46 26q-84 64 -84 185q0 61 17 107z" />
    <glyph glyph-name="Ecaron" unicode="&#x11a;" horiz-adv-x="841" 
d="M796 1070v-214h-537v-213h450v-214h-450v-217h537v-213h-751v1071h751zM646 1353l-226 -222l-225 222l101 101l124 -127l128 127z" />
    <glyph glyph-name="ecaron" unicode="&#x11b;" horiz-adv-x="841" 
d="M796 1070v-214h-537v-213h450v-214h-450v-217h537v-213h-751v1071h751zM646 1353l-226 -222l-225 222l101 101l124 -127l128 127z" />
    <glyph glyph-name="Gcircumflex" unicode="&#x11c;" horiz-adv-x="1161" 
d="M1116 536q0 -335 -265 -471q-136 -66 -269 -66q-335 0 -471 268q-66 133 -66 269q0 133 66 268q136 266 471 266q361 0 485 -306l-184 -113q-73 205 -301 205q-202 0 -283 -161q-40 -78 -40 -159t40 -162q81 -162 283 -162q153 0 249 107h-249v217h534zM357 1232l225 222
l225 -222l-101 -101l-124 127l-127 -127z" />
    <glyph glyph-name="gcircumflex" unicode="&#x11d;" horiz-adv-x="1161" 
d="M1116 536q0 -335 -265 -471q-136 -66 -269 -66q-335 0 -471 268q-66 133 -66 269q0 133 66 268q136 266 471 266q361 0 485 -306l-184 -113q-73 205 -301 205q-202 0 -283 -161q-40 -78 -40 -159t40 -162q81 -162 283 -162q153 0 249 107h-249v217h534zM357 1232l225 222
l225 -222l-101 -101l-124 127l-127 -127z" />
    <glyph glyph-name="Gbreve" unicode="&#x11e;" horiz-adv-x="1161" 
d="M1116 536q0 -335 -265 -471q-136 -66 -269 -66q-335 0 -471 268q-66 133 -66 269q0 133 66 268q136 266 471 266q361 0 485 -306l-184 -113q-73 205 -301 205q-202 0 -283 -161q-40 -78 -40 -159t40 -162q81 -162 283 -162q153 0 249 107h-249v217h534zM452 1313
q9 -35 38 -64q37 -37 92 -37t93 37q28 29 37 64h90q-9 -72 -64 -127q-63 -64 -156 -64q-92 0 -156 64q-55 55 -63 127h89z" />
    <glyph glyph-name="gbreve" unicode="&#x11f;" horiz-adv-x="1161" 
d="M1116 536q0 -335 -265 -471q-136 -66 -269 -66q-335 0 -471 268q-66 133 -66 269q0 133 66 268q136 266 471 266q361 0 485 -306l-184 -113q-73 205 -301 205q-202 0 -283 -161q-40 -78 -40 -159t40 -162q81 -162 283 -162q153 0 249 107h-249v217h534zM452 1313
q9 -35 38 -64q37 -37 92 -37t93 37q28 29 37 64h90q-9 -72 -64 -127q-63 -64 -156 -64q-92 0 -156 64q-55 55 -63 127h89z" />
    <glyph glyph-name="Gdotaccent" unicode="&#x120;" horiz-adv-x="1161" 
d="M1116 536q0 -335 -265 -471q-136 -66 -269 -66q-335 0 -471 268q-66 133 -66 269q0 133 66 268q136 266 471 266q361 0 485 -306l-184 -113q-73 205 -301 205q-202 0 -283 -161q-40 -78 -40 -159t40 -162q81 -162 283 -162q153 0 249 107h-249v217h534zM582 1304
q32 0 58 -23q23 -26 23 -61q0 -31 -23 -57q-26 -24 -58 -24q-34 0 -60 24q-24 26 -24 57q0 35 24 61q26 23 60 23z" />
    <glyph glyph-name="gdotaccent" unicode="&#x121;" horiz-adv-x="1161" 
d="M1116 536q0 -335 -265 -471q-136 -66 -269 -66q-335 0 -471 268q-66 133 -66 269q0 133 66 268q136 266 471 266q361 0 485 -306l-184 -113q-73 205 -301 205q-202 0 -283 -161q-40 -78 -40 -159t40 -162q81 -162 283 -162q153 0 249 107h-249v217h534zM582 1304
q32 0 58 -23q23 -26 23 -61q0 -31 -23 -57q-26 -24 -58 -24q-34 0 -60 24q-24 26 -24 57q0 35 24 61q26 23 60 23z" />
    <glyph glyph-name="uni0122" unicode="&#x122;" horiz-adv-x="1161" 
d="M1116 536q0 -335 -265 -471q-136 -66 -269 -66q-335 0 -471 268q-66 133 -66 269q0 133 66 268q136 266 471 266q361 0 485 -306l-184 -113q-73 205 -301 205q-202 0 -283 -161q-40 -78 -40 -159t40 -162q81 -162 283 -162q153 0 249 107h-249v217h534zM689 -175
q0 -5 -3 -14h3q0 -55 -20 -110q-44 -109 -145 -109v109q24 0 41 29q-72 20 -72 95q0 44 29 73q28 29 69 29q40 0 69 -29t29 -73z" />
    <glyph glyph-name="uni0123" unicode="&#x123;" horiz-adv-x="1161" 
d="M1116 536q0 -335 -265 -471q-136 -66 -269 -66q-335 0 -471 268q-66 133 -66 269q0 133 66 268q136 266 471 266q361 0 485 -306l-184 -113q-73 205 -301 205q-202 0 -283 -161q-40 -78 -40 -159t40 -162q81 -162 283 -162q153 0 249 107h-249v217h534zM135 1212v14
q0 55 20 110q40 110 141 110v-110q-20 0 -37 -29q72 -20 72 -95q0 -44 -29 -73q-29 -28 -72 -28q-38 0 -67 28q-28 29 -28 73z" />
    <glyph glyph-name="Hcircumflex" unicode="&#x124;" 
d="M903 1070v-1071h-214v430h-430v-430h-214v1071h214v-427h430v427h214zM250 1243l225 223l226 -223l-102 -101l-124 127l-127 -127z" />
    <glyph glyph-name="hcircumflex" unicode="&#x125;" 
d="M903 1070v-1071h-214v430h-430v-430h-214v1071h214v-427h430v427h214zM250 1243l225 223l226 -223l-102 -101l-124 127l-127 -127z" />
    <glyph glyph-name="Hbar" unicode="&#x126;" horiz-adv-x="1101" 
d="M764 885v185h214v-185h78v-213h-78v-673h-214v315h-430v-315h-214v673h-75v213h75v185h214v-185h430zM334 672v-145h430v145h-430z" />
    <glyph glyph-name="hbar" unicode="&#x127;" horiz-adv-x="1101" 
d="M764 885v185h214v-185h78v-213h-78v-673h-214v315h-430v-315h-214v673h-75v213h75v185h214v-185h430zM334 672v-145h430v145h-430z" />
    <glyph glyph-name="Itilde" unicode="&#x128;" horiz-adv-x="633" 
d="M423 1070v-1071h-213v1071h213zM588 1255l-69 -121l-18 11q-83 46 -112 46h-3q-12 -2 -32 -17q-40 -26 -81 -32q-11 -3 -26 -3q-66 0 -179 64l-23 14l69 122l23 -15q84 -46 110 -46h3q12 3 29 15q43 28 84 34q11 3 26 3q69 0 182 -63z" />
    <glyph glyph-name="itilde" unicode="&#x129;" horiz-adv-x="633" 
d="M423 1070v-1071h-213v1071h213zM588 1255l-69 -121l-18 11q-83 46 -112 46h-3q-12 -2 -32 -17q-40 -26 -81 -32q-11 -3 -26 -3q-66 0 -179 64l-23 14l69 122l23 -15q84 -46 110 -46h3q12 3 29 15q43 28 84 34q11 3 26 3q69 0 182 -63z" />
    <glyph glyph-name="Imacron" unicode="&#x12a;" horiz-adv-x="477" 
d="M345 1070v-1071h-213v1071h213zM45 1249h387v-138h-387v138z" />
    <glyph glyph-name="imacron" unicode="&#x12b;" horiz-adv-x="477" 
d="M345 1070v-1071h-213v1071h213zM45 1249h387v-138h-387v138z" />
    <glyph glyph-name="Ibreve" unicode="&#x12c;" horiz-adv-x="529" 
d="M371 1070v-1071h-213v1071h213zM135 1313q8 -35 37 -64q38 -37 92 -37q55 0 93 37q29 29 37 64h90q-9 -72 -64 -127q-63 -64 -156 -64q-92 0 -155 64q-55 55 -64 127h90z" />
    <glyph glyph-name="ibreve" unicode="&#x12d;" horiz-adv-x="529" 
d="M371 1070v-1071h-213v1071h213zM135 1313q8 -35 37 -64q38 -37 92 -37q55 0 93 37q29 29 37 64h90q-9 -72 -64 -127q-63 -64 -156 -64q-92 0 -155 64q-55 55 -64 127h90z" />
    <glyph glyph-name="Iogonek" unicode="&#x12e;" horiz-adv-x="416" 
d="M158 106v964h213v-1071h-124q-72 -23 -86 -136q-9 -52 -9 -90q0 -66 23 -89q-14 0 -46 26q-84 63 -84 185q0 150 113 211z" />
    <glyph glyph-name="iogonek" unicode="&#x12f;" horiz-adv-x="416" 
d="M158 106v964h213v-1071h-124q-72 -23 -86 -136q-9 -52 -9 -90q0 -66 23 -89q-14 0 -46 26q-84 63 -84 185q0 150 113 211z" />
    <glyph glyph-name="Idotaccent" unicode="&#x130;" horiz-adv-x="304" 
d="M259 1070v-1071h-214v1071h214zM154 1304q32 0 58 -23q23 -26 23 -61q0 -31 -23 -57q-26 -24 -58 -24q-35 0 -61 24q-23 26 -23 57q0 35 23 61q26 23 61 23z" />
    <glyph glyph-name="dotlessi" unicode="&#x131;" horiz-adv-x="304" 
d="M259 1070v-1071h-214v1071h214z" />
    <glyph glyph-name="IJ" unicode="&#x132;" horiz-adv-x="795" 
d="M259 1070v-1071h-214v1071h214zM750 1070v-641q0 -110 -55 -217q-107 -213 -376 -213v213q136 0 188 107q26 55 26 110v641h217z" />
    <glyph glyph-name="ij" unicode="&#x133;" horiz-adv-x="795" 
d="M259 1070v-1071h-214v1071h214zM750 1070v-641q0 -110 -55 -217q-107 -213 -376 -213v213q136 0 188 107q26 55 26 110v641h217z" />
    <glyph glyph-name="Jcircumflex" unicode="&#x134;" horiz-adv-x="743" 
d="M582 1070v-641q0 -110 -55 -217q-107 -213 -375 -213h-107v213h107q136 0 188 107q26 55 26 110v641h216zM247 1206l225 222l226 -222l-101 -101l-125 127l-127 -127z" />
    <glyph glyph-name="jcircumflex" unicode="&#x135;" horiz-adv-x="743" 
d="M582 1070v-641q0 -110 -55 -217q-107 -213 -375 -213h-107v213h107q136 0 188 107q26 55 26 110v641h216zM247 1206l225 222l226 -222l-101 -101l-125 127l-127 -127z" />
    <glyph glyph-name="uni0136" unicode="&#x136;" horiz-adv-x="1046" 
d="M949 1070l-511 -508l563 -563h-306l-410 410l-26 -26v-384h-214v1071h214v-384l384 384h306zM631 -175q0 -5 -3 -14h3q0 -55 -20 -110q-43 -109 -144 -109v109q23 0 40 29q-72 20 -72 95q0 44 29 73t69 29q41 0 69 -29q29 -29 29 -73z" />
    </font>
</defs>
</svg>
