<?xml version="1.0" encoding="utf-8"?>
<!-- Generator: Adobe Illustrator 21.1.0, SVG Export Plug-In . SVG Version: 6.00 Build 0)  -->
<!DOCTYPE svg PUBLIC "-//W3C//DTD SVG 1.1//EN" "http://www.w3.org/Graphics/SVG/1.1/DTD/svg11.dtd">
<svg version="1.1" id="Layer_1" xmlns="http://www.w3.org/2000/svg" xmlns:xlink="http://www.w3.org/1999/xlink" x="0px" y="0px"
	 viewBox="0 0 120 50" style="enable-background:new 0 0 120 50;" xml:space="preserve">
<style type="text/css">
	.st0{fill:url(#SVGID_1_);}
	.st1{fill:#F29C1F;}
	.st2{fill:#F2F2F2;}
	.st3{fill:#E6E6E6;}
</style>
<g>
	<g>
		
			<linearGradient id="SVGID_1_" gradientUnits="userSpaceOnUse" x1="11.9804" y1="16.4804" x2="35.8949" y2="40.3949" gradientTransform="matrix(1 0 0 -1 0 52)">
			<stop  offset="0" style="stop-color:#F3D55B"/>
			<stop  offset="1" style="stop-color:#F0C419"/>
		</linearGradient>
		<path class="st0" d="M26.2,8.3c-7.9,0-14.4,5.8-14.4,13c0,2.5,0.8,4.9,2.3,7c-0.3,3.1-1,5.4-2.1,6.5c-0.2,0.2-0.2,0.4-0.1,0.6
			c0.1,0.2,0.3,0.3,0.5,0.3h0.1c0.2,0,4.7-0.7,7.9-2.5c1.8,0.7,3.8,1.1,5.8,1.1c7.9,0,14.4-5.8,14.4-13S34.1,8.3,26.2,8.3z"/>
		<path class="st1" d="M42.7,23.5c1.5-2.1,2.3-4.5,2.3-7c0-7.1-6.5-13-14.4-13c-4.6,0-8.8,2-11.5,5.2c2.1-1,4.5-1.6,7.1-1.6
			c8.5,0,15.5,6.3,15.5,14.1c0,3-1.1,5.9-2.9,8.2c2.7,1,5.5,1.4,5.6,1.5h0.1c0.2,0,0.4-0.1,0.5-0.3c0.1-0.2,0.1-0.5-0.1-0.6
			C43.7,28.9,43,26.6,42.7,23.5z"/>
	</g>
	<g>
		<path class="st2" d="M65.7,31.2c-0.2,0.1-0.4,0.2-0.6,0.3s-0.4,0.3-0.5,0.3c-0.9,0.2-1.7,0.3-2.6,0.3c-2.2,0-3.9-0.7-5.3-2.1
			c-1.4-1.5-2.1-3.3-2.1-5.4c0-1.2,0.2-2.3,0.5-3.3s0.9-1.9,1.6-2.7c1.4-1.6,3.3-2.4,5.6-2.4c0.6,0,1.2,0.1,1.7,0.4
			c0.6,0.2,1.1,0.5,1.6,0.7v-0.8h3v15.4h-3v-0.7H65.7z M64.5,28.9c0.2-0.1,0.4-0.3,0.7-0.4c0.2-0.2,0.4-0.3,0.6-0.4v-7.6
			c-0.1-0.1-0.3-0.2-0.4-0.4c-0.2-0.2-0.4-0.3-0.6-0.4c-0.6-0.3-1.2-0.4-2.1-0.4c-1.4,0-2.6,0.5-3.5,1.5s-1.4,2.3-1.4,3.8
			s0.4,2.6,1.3,3.4c0.8,0.9,1.9,1.3,3.4,1.3C63.2,29.2,63.9,29.1,64.5,28.9z"/>
		<path class="st2" d="M85.1,22.8v9.1h-3v-8.6c0-0.7-0.1-1.3-0.2-1.8s-0.3-0.9-0.6-1.2c-0.5-0.6-1.2-1-2.2-1c-0.5,0-0.9,0.1-1.3,0.2
			s-0.7,0.3-1,0.5c-0.6,0.5-1.1,1-1.5,1.7V32h-3V9.4h3v8.3c0.1-0.1,0.3-0.3,0.4-0.4c0.2-0.1,0.3-0.2,0.5-0.3
			c0.8-0.5,1.8-0.7,2.8-0.7c1.8,0,3.3,0.6,4.4,1.8c0.6,0.6,1,1.3,1.2,2.1C85,20.9,85.1,21.8,85.1,22.8z"/>
		<path class="st2" d="M98.8,31.2c-0.2,0.1-0.4,0.2-0.6,0.3s-0.4,0.3-0.5,0.3c-0.9,0.2-1.7,0.3-2.6,0.3c-2.2,0-3.9-0.7-5.3-2.1
			c-1.4-1.5-2.1-3.3-2.1-5.4c0-1.2,0.2-2.3,0.5-3.3s0.9-1.9,1.6-2.7c1.4-1.6,3.3-2.4,5.6-2.4c0.6,0,1.2,0.1,1.7,0.4
			c0.6,0.2,1.1,0.5,1.6,0.7v-0.8h3v15.4h-3v-0.7H98.8z M97.6,28.9c0.2-0.1,0.4-0.3,0.7-0.4c0.2-0.2,0.4-0.3,0.6-0.4v-7.6
			c-0.1-0.1-0.3-0.2-0.4-0.4c-0.2-0.2-0.4-0.3-0.6-0.4c-0.6-0.3-1.2-0.4-2.1-0.4c-1.4,0-2.6,0.5-3.5,1.5s-1.4,2.3-1.4,3.8
			s0.4,2.6,1.3,3.4c0.8,0.9,1.9,1.3,3.4,1.3C96.4,29.2,97.1,29.1,97.6,28.9z"/>
		<path class="st2" d="M105.6,9.4h3.6L108.6,26h-2.4L105.6,9.4z M109.1,27.3v4.5h-3.5v-4.5H109.1z"/>
	</g>
	<g>
		<path class="st3" d="M10,43.2c0-1.8,1.5-3.3,3.4-3.3c0.8,0,1.5,0.3,2.1,0.7c0.2,0.2,0.3,0.5,0.1,0.7c-0.2,0.2-0.5,0.3-0.7,0.1
			c-0.4-0.3-0.9-0.5-1.5-0.5s-1.2,0.3-1.6,0.7s-0.7,1-0.7,1.6s0.3,1.2,0.7,1.6c0.4,0.4,1,0.7,1.6,0.7s1.1-0.2,1.5-0.5
			c0.2-0.2,0.5-0.1,0.7,0.1c0.2,0.2,0.1,0.6-0.1,0.7c-0.6,0.4-1.3,0.7-2.1,0.7C11.5,46.5,10,45,10,43.2z"/>
		<path class="st3" d="M21.5,44.9h-2.2l-0.4,1.2c-0.1,0.2-0.3,0.3-0.5,0.3c-0.1,0-0.1,0-0.2,0c-0.3-0.1-0.4-0.4-0.3-0.7l2-5.4
			c0.1-0.2,0.3-0.3,0.5-0.3s0.4,0.1,0.5,0.3l2,5.4c0.1,0.3,0,0.6-0.3,0.7c0,0-0.1,0-0.2,0c-0.2,0-0.4-0.1-0.5-0.3L21.5,44.9z
			 M21.1,43.9l-0.7-2l-0.7,2H21.1z"/>
		<path class="st3" d="M29.4,45.7c0.1,0.3-0.1,0.5-0.3,0.6c0,0-0.1,0-0.2,0l0,0c-0.1,0-0.2,0-0.4-0.1c-0.1-0.1-0.2-0.2-0.3-0.3
			c-0.1-0.3-0.2-0.6-0.2-1.1c0-0.2,0-0.3-0.1-0.4c-0.1-0.1-0.2-0.2-0.3-0.3c-0.2-0.1-0.4-0.2-0.5-0.2H26v2c0,0.3-0.2,0.5-0.5,0.5
			S25,46.2,25,45.9v-5.4c0-0.3,0.2-0.5,0.5-0.5l0,0h1.6c1.1,0,2,0.9,2,2c0,0.6-0.3,1.1-0.7,1.5c0.1,0.1,0.2,0.2,0.3,0.3
			c0.2,0.3,0.3,0.6,0.3,1c0,0.3,0,0.4,0,0.5C29.2,45.4,29.3,45.5,29.4,45.7z M28.1,42c0-0.5-0.4-0.9-0.9-0.9H26V43h1.1
			C27.7,43,28.1,42.5,28.1,42z"/>
		<path class="st3" d="M31.9,46v-5.4c0-0.3,0.2-0.5,0.5-0.5l0,0l0,0h3c0.3,0,0.5,0.2,0.5,0.5s-0.2,0.5-0.5,0.5h-2.5v1.7H35
			c0.3,0,0.5,0.2,0.5,0.5s-0.2,0.5-0.5,0.5h-2.1v1.7h2.5c0.3,0,0.5,0.2,0.5,0.5s-0.2,0.5-0.5,0.5h-3l0,0l0,0
			C32.1,46.5,31.9,46.2,31.9,46z"/>
		<path class="st3" d="M38.3,46v-5.4c0-0.3,0.2-0.5,0.5-0.5l0,0l0,0h3c0.3,0,0.5,0.2,0.5,0.5s-0.2,0.5-0.5,0.5h-2.5v1.7h2.1
			c0.3,0,0.5,0.2,0.5,0.5s-0.2,0.5-0.5,0.5h-2.1v1.7h2.5c0.3,0,0.5,0.2,0.5,0.5s-0.2,0.5-0.5,0.5h-3l0,0l0,0
			C38.5,46.5,38.3,46.2,38.3,46z"/>
		<path class="st3" d="M49,45.7c0.1,0.3-0.1,0.5-0.3,0.6c0,0-0.1,0-0.2,0l0,0c-0.1,0-0.2,0-0.4-0.1c-0.1-0.1-0.2-0.2-0.3-0.3
			c-0.1-0.3-0.2-0.6-0.2-1.1c0-0.2,0-0.3-0.1-0.4c-0.1-0.1-0.2-0.2-0.3-0.3c-0.2,0-0.4-0.1-0.5-0.1h-1.1v2c0,0.3-0.2,0.5-0.5,0.5
			s-0.5-0.2-0.5-0.5v-5.4c0-0.3,0.2-0.5,0.5-0.5l0,0h1.6c1.1,0,2,0.9,2,2c0,0.6-0.3,1.1-0.7,1.5c0.1,0.1,0.2,0.2,0.3,0.3
			c0.2,0.3,0.3,0.6,0.3,1c0,0.3,0,0.4,0,0.5C48.8,45.4,48.9,45.5,49,45.7z M47.7,42c0-0.5-0.4-0.9-0.9-0.9h-1.1V43h1.1
			C47.3,43,47.7,42.5,47.7,42z"/>
		<path class="st3" d="M54.6,43.2c0-1.8,1.5-3.3,3.4-3.3c0.8,0,1.5,0.3,2.1,0.7c0.2,0.2,0.3,0.5,0.1,0.7c-0.2,0.2-0.5,0.3-0.7,0.1
			c-0.4-0.3-0.9-0.5-1.5-0.5s-1.2,0.3-1.6,0.7s-0.7,1-0.7,1.6s0.3,1.2,0.7,1.6c0.4,0.4,1,0.7,1.6,0.7s1.1-0.2,1.5-0.5
			c0.2-0.2,0.5-0.1,0.7,0.1c0.2,0.2,0.1,0.6-0.1,0.7c-0.6,0.4-1.3,0.7-2.1,0.7C56.1,46.5,54.6,45,54.6,43.2z"/>
		<path class="st3" d="M67.7,40.9c0.6,0.6,0.9,1.4,0.9,2.3c0,0.9-0.4,1.7-0.9,2.3s-1.3,1-2.2,1c-0.9,0-1.7-0.4-2.2-1
			c-0.6-0.6-0.9-1.4-0.9-2.3c0-0.9,0.3-1.7,0.9-2.3s1.4-1,2.2-1C66.3,39.9,67.1,40.3,67.7,40.9z M67.5,43.2c0-0.6-0.2-1.2-0.6-1.6
			C66.5,41.2,66,41,65.5,41c-0.6,0-1.1,0.2-1.5,0.6c-0.4,0.4-0.6,1-0.6,1.6s0.2,1.2,0.6,1.6c0.4,0.4,0.9,0.7,1.5,0.7
			c0.5,0,1.1-0.2,1.4-0.7C67.3,44.4,67.5,43.8,67.5,43.2z"/>
		<path class="st3" d="M74.2,44.9H72l-0.4,1.2c-0.1,0.2-0.3,0.3-0.5,0.3c-0.1,0-0.1,0-0.2,0c-0.3-0.1-0.4-0.4-0.3-0.7l2-5.4
			c0.1-0.2,0.3-0.3,0.5-0.3s0.4,0.1,0.5,0.3l2,5.4c0.1,0.3,0,0.6-0.3,0.7c0,0-0.1,0-0.2,0c-0.2,0-0.4-0.1-0.5-0.3L74.2,44.9z
			 M73.8,43.9l-0.7-2l-0.7,2H73.8z"/>
		<path class="st3" d="M77.3,43.2c0-1.8,1.5-3.3,3.4-3.3c0.8,0,1.5,0.3,2.1,0.7c0.2,0.2,0.3,0.5,0.1,0.7c-0.2,0.2-0.5,0.3-0.7,0.1
			c-0.4-0.3-0.9-0.5-1.5-0.5s-1.2,0.3-1.6,0.7s-0.7,1-0.7,1.6s0.3,1.2,0.7,1.6c0.4,0.4,1,0.7,1.6,0.7s1.1-0.2,1.5-0.5
			c0.2-0.2,0.5-0.1,0.7,0.1c0.2,0.2,0.1,0.6-0.1,0.7c-0.6,0.4-1.3,0.7-2.1,0.7C78.9,46.5,77.3,45,77.3,43.2z"/>
		<path class="st3" d="M85.6,46v-5.4c0-0.3,0.2-0.5,0.5-0.5s0.5,0.2,0.5,0.5v2.2H89v-2.2c0-0.3,0.2-0.5,0.5-0.5s0.5,0.2,0.5,0.5V46
			c0,0.3-0.2,0.5-0.5,0.5S89,46.3,89,46v-2.2h-2.4V46c0,0.3-0.2,0.5-0.5,0.5C85.8,46.5,85.6,46.2,85.6,46z"/>
		<path class="st3" d="M93,40.6c0-0.3,0.2-0.5,0.5-0.5s0.5,0.2,0.5,0.5V46c0,0.3-0.2,0.5-0.5,0.5S93,46.3,93,46V40.6z"/>
		<path class="st3" d="M97.8,46c0,0.3-0.2,0.5-0.5,0.5s-0.5-0.2-0.5-0.5v-5.3l0,0c0-0.2,0.1-0.3,0.2-0.4c0.2-0.2,0.5-0.1,0.7,0.1
			l3,4.1v-3.8c0-0.3,0.2-0.5,0.5-0.5s0.5,0.2,0.5,0.5V46c0,0.3-0.2,0.5-0.5,0.5c-0.1,0-0.3-0.1-0.4-0.2c0,0,0,0,0-0.1l-2.9-4.1
			L97.8,46L97.8,46z"/>
		<path class="st3" d="M104.3,43.2c0-1.8,1.5-3.3,3.4-3.3c0.8,0,1.5,0.3,2.1,0.7c0.2,0.2,0.3,0.5,0.1,0.7c-0.2,0.2-0.5,0.3-0.7,0.1
			c-0.4-0.3-0.9-0.5-1.4-0.5c-0.7,0-1.2,0.2-1.6,0.7c-0.4,0.4-0.7,1-0.7,1.6s0.3,1.2,0.7,1.6c0.4,0.4,1,0.7,1.6,0.7
			c0.5,0,0.9-0.1,1.3-0.3v-1.3h-1.3c-0.3,0-0.5-0.2-0.5-0.5s0.2-0.5,0.5-0.5h1.8l0,0l0,0c0.3,0,0.5,0.2,0.5,0.5v2c0,0.1,0,0.1,0,0.2
			l0,0l0,0c0,0.1-0.1,0.2-0.2,0.2c-0.6,0.4-1.3,0.7-2.1,0.7C105.9,46.5,104.3,45,104.3,43.2z"/>
	</g>
</g>
</svg>
