<?xml version="1.0" encoding="utf-8"?>
<!-- Generator: Adobe Illustrator 22.0.1, SVG Export Plug-In . SVG Version: 6.00 Build 0)  -->
<!DOCTYPE svg PUBLIC "-//W3C//DTD SVG 1.1//EN" "http://www.w3.org/Graphics/SVG/1.1/DTD/svg11.dtd">
<svg version="1.1" id="Layer_1" xmlns="http://www.w3.org/2000/svg" xmlns:xlink="http://www.w3.org/1999/xlink" x="0px" y="0px"
	 viewBox="0 0 120 50" style="enable-background:new 0 0 120 50;" xml:space="preserve">
<style type="text/css">
	.st0{fill:url(#SVGID_1_);}
	.st1{fill:#F29C1F;}
	.st2{fill:#506272;}
	.st3{fill:#657C90;}
</style>
<g>
	<g>
		<g>
			<linearGradient id="SVGID_1_" gradientUnits="userSpaceOnUse" x1="4.946" y1="36.4539" x2="31.2973" y2="10.1027">
				<stop  offset="0" style="stop-color:#F3D55B"/>
				<stop  offset="1" style="stop-color:#F0C419"/>
			</linearGradient>
			<path class="st0" d="M20.6,6.5c-8.7,0-15.9,6.4-15.9,14.3c0,2.7,0.9,5.4,2.5,7.7c-0.3,3.4-1.1,5.9-2.3,7.1
				c-0.2,0.2-0.2,0.5-0.1,0.7c0.1,0.2,0.3,0.3,0.5,0.3c0,0,0.1,0,0.1,0c0.2,0,5.1-0.7,8.7-2.8c2,0.8,4.2,1.2,6.4,1.2
				c8.7,0,15.9-6.4,15.9-14.3S29.4,6.5,20.6,6.5z"/>
			<path class="st1" d="M38.9,23.2c1.6-2.3,2.5-5,2.5-7.7c0-7.9-7.1-14.3-15.9-14.3c-5,0-9.7,2.2-12.7,5.7c2.3-1.1,5-1.7,7.8-1.7
				c9.4,0,17.1,7,17.1,15.5c0,3.4-1.2,6.5-3.2,9c3,1.2,6,1.6,6.2,1.6c0,0,0.1,0,0.1,0c0.2,0,0.4-0.1,0.5-0.3
				c0.1-0.2,0.1-0.5-0.1-0.7C40,29.2,39.2,26.6,38.9,23.2z"/>
		</g>
		<g>
			<path class="st2" d="M55.3,29.6V32h-7.8v-2.4h2.4l8-21.1h2.9l7.8,21.1H71V32h-7.8v-2.4h2.7l-2.1-5.7h-9.2l-2,5.7H55.3z
				 M59.3,11.5h-0.2l-3.7,10h7.5L59.3,11.5z"/>
			<path class="st2" d="M72.4,29.6H75V8.5h-2.6V5.9h5.2v10.3h0c1.7-1.7,3.6-2.5,5.7-2.5c1.7,0,3,0.5,3.8,1.5c0.8,1,1.2,2.3,1.2,4.1
				v10.3h2.6V32h-7.8v-2.4h2.6v-10c0-1.3-0.3-2.2-0.9-2.7c-0.6-0.5-1.3-0.8-2.3-0.8c-1.9,0-3.6,0.9-5.1,2.7v10.8h2.6V32h-7.8V29.6z"
				/>
			<path class="st2" d="M93.5,15.2c2.2-1,4.4-1.5,6.7-1.5c2,0,3.5,0.4,4.5,1.3c1,0.9,1.5,2.3,1.5,4.3v10.2h2.6V32h-5l-0.2-2.7h-0.1
				c-1.6,1.8-3.4,2.7-5.6,2.7c-1.7,0-3.1-0.4-4-1.3c-0.9-0.9-1.4-2.1-1.4-3.7c0-3.9,3.1-5.8,9.3-5.8h1.8v-1.8c0-1-0.3-1.8-0.9-2.4
				c-0.6-0.6-1.5-0.8-2.8-0.8c-1.9,0-4,0.5-6.3,1.5V15.2z M101.2,23.5c-4,0-6,1.1-6,3.3c0,0.9,0.3,1.6,0.8,2.1
				c0.5,0.5,1.3,0.7,2.3,0.7c1.9,0,3.6-0.9,5.1-2.7v-3.4H101.2z"/>
			<path class="st2" d="M110.8,29.9c0-0.7,0.2-1.2,0.6-1.7c0.4-0.4,0.9-0.6,1.6-0.6c0.7,0,1.2,0.2,1.6,0.6c0.4,0.4,0.6,0.9,0.6,1.6
				c0,0.7-0.2,1.2-0.6,1.6c-0.4,0.4-1,0.6-1.7,0.6c-0.7,0-1.2-0.2-1.6-0.6C111,31,110.8,30.5,110.8,29.9z M111.3,8.5h3.5l-0.7,16.1
				h-2.2L111.3,8.5z"/>
		</g>
	</g>
	<g>
		<path class="st3" d="M3.2,45c0-2.1,1.7-3.7,3.8-3.8c0.9,0,1.8,0.3,2.4,0.8c0.3,0.2,0.3,0.6,0.1,0.8C9.4,43.1,9,43.2,8.8,43
			c-0.5-0.4-1-0.6-1.7-0.6c-0.7,0-1.4,0.3-1.9,0.8c-0.5,0.5-0.8,1.1-0.8,1.8c0,0.7,0.3,1.4,0.8,1.8c0.5,0.5,1.2,0.8,1.9,0.8
			c0.6,0,1.2-0.2,1.7-0.6c0.2-0.2,0.6-0.1,0.8,0.1c0.2,0.3,0.1,0.6-0.1,0.8c-0.7,0.5-1.5,0.8-2.4,0.8C5,48.8,3.3,47.1,3.2,45z"/>
		<path class="st3" d="M16.3,47h-2.5l-0.5,1.4c-0.1,0.2-0.3,0.4-0.5,0.4c-0.1,0-0.1,0-0.2,0c-0.3-0.1-0.4-0.4-0.3-0.8l2.3-6.2
			c0.1-0.2,0.3-0.4,0.6-0.4c0.2,0,0.5,0.1,0.6,0.4l2.3,6.2c0.1,0.3,0,0.6-0.3,0.8c-0.1,0-0.1,0-0.2,0c-0.2,0-0.4-0.1-0.5-0.4
			L16.3,47z M15.9,45.9L15,43.6l-0.8,2.2H15.9z"/>
		<path class="st3" d="M25.2,47.9c0.1,0.3-0.1,0.6-0.4,0.7c0,0-0.1,0-0.2,0c0,0,0,0,0,0c-0.1,0-0.3,0-0.4-0.1
			c-0.1-0.1-0.3-0.2-0.3-0.4c-0.1-0.3-0.2-0.7-0.2-1.3c0-0.2-0.1-0.3-0.1-0.4c-0.1-0.1-0.2-0.2-0.3-0.3c-0.2-0.1-0.5-0.2-0.6-0.3
			h-1.2v2.3c0,0.3-0.3,0.6-0.6,0.6c-0.3,0-0.6-0.3-0.6-0.6V42c0-0.3,0.3-0.6,0.6-0.6c0,0,0,0,0,0h1.9c1.2,0,2.2,1,2.2,2.2
			c0,0.7-0.3,1.3-0.8,1.7c0.1,0.1,0.3,0.2,0.4,0.4c0.2,0.3,0.3,0.7,0.3,1.1c0,0.3,0,0.5,0,0.6C25,47.6,25.2,47.7,25.2,47.9z
			 M23.8,43.7c0-0.6-0.5-1.1-1.1-1.1h-1.3v2.2h1.3C23.3,44.8,23.8,44.3,23.8,43.7z"/>
		<path class="st3" d="M28,48.2V42c0-0.3,0.3-0.6,0.6-0.6h0c0,0,0,0,0,0H32c0.3,0,0.6,0.3,0.6,0.6s-0.3,0.6-0.6,0.6h-2.8v1.9h2.4
			c0.3,0,0.6,0.3,0.6,0.6c0,0.3-0.3,0.6-0.6,0.6h-2.4v1.9H32c0.3,0,0.6,0.3,0.6,0.6c0,0.3-0.3,0.6-0.6,0.6h-3.4c0,0,0,0,0,0l0,0
			C28.3,48.8,28,48.5,28,48.2z"/>
		<path class="st3" d="M35.3,48.2V42c0-0.3,0.3-0.6,0.6-0.6h0c0,0,0,0,0,0h3.4c0.3,0,0.6,0.3,0.6,0.6s-0.3,0.6-0.6,0.6h-2.8v1.9h2.4
			c0.3,0,0.6,0.3,0.6,0.6c0,0.3-0.3,0.6-0.6,0.6h-2.4v1.9h2.8c0.3,0,0.6,0.3,0.6,0.6c0,0.3-0.3,0.6-0.6,0.6h-3.4c0,0,0,0,0,0l0,0
			C35.5,48.8,35.3,48.5,35.3,48.2z"/>
		<path class="st3" d="M47.4,47.9c0.1,0.3-0.1,0.6-0.4,0.7c0,0-0.1,0-0.2,0c0,0,0,0,0,0c-0.1,0-0.3,0-0.4-0.1
			c-0.1-0.1-0.3-0.2-0.3-0.4c-0.1-0.3-0.2-0.7-0.2-1.3c0-0.2-0.1-0.3-0.1-0.4c-0.1-0.1-0.2-0.2-0.3-0.3c-0.2-0.1-0.5-0.2-0.6-0.3
			h-1.2v2.3c0,0.3-0.3,0.6-0.6,0.6s-0.6-0.3-0.6-0.6V42c0-0.3,0.3-0.6,0.6-0.6c0,0,0,0,0,0h1.9c1.2,0,2.2,1,2.2,2.2
			c0,0.7-0.3,1.3-0.8,1.7c0.1,0.1,0.3,0.2,0.4,0.4c0.2,0.3,0.3,0.7,0.3,1.1c0,0.3,0,0.5,0,0.6C47.2,47.6,47.4,47.7,47.4,47.9z
			 M46,43.7c0-0.6-0.5-1.1-1.1-1.1h-1.3v2.2h1.3C45.5,44.8,46,44.3,46,43.7z"/>
		<path class="st3" d="M54,45c0-2.1,1.7-3.7,3.8-3.8c0.9,0,1.8,0.3,2.4,0.8c0.3,0.2,0.3,0.6,0.1,0.8c-0.2,0.3-0.6,0.3-0.8,0.1
			c-0.5-0.4-1-0.6-1.7-0.6c-0.7,0-1.4,0.3-1.9,0.8c-0.5,0.5-0.8,1.1-0.8,1.8c0,0.7,0.3,1.4,0.8,1.8c0.5,0.5,1.2,0.8,1.9,0.8
			c0.6,0,1.2-0.2,1.7-0.6c0.2-0.2,0.6-0.1,0.8,0.1c0.2,0.3,0.1,0.6-0.1,0.8c-0.7,0.5-1.5,0.8-2.4,0.8C55.8,48.8,54,47.1,54,45z"/>
		<path class="st3" d="M68.9,42.3C69.5,43,70,44,70,45c0,1-0.4,2-1.1,2.6c-0.6,0.7-1.5,1.1-2.5,1.1c-1,0-1.9-0.4-2.6-1.1
			c-0.6-0.7-1-1.6-1-2.6c0-1,0.4-2,1-2.6c0.6-0.7,1.6-1.1,2.6-1.1C67.4,41.2,68.3,41.7,68.9,42.3z M68.8,45c0-0.7-0.3-1.4-0.7-1.8
			c-0.4-0.5-1-0.7-1.7-0.7c-0.7,0-1.3,0.3-1.7,0.7C64.3,43.6,64,44.3,64,45c0,0.7,0.3,1.4,0.7,1.8c0.4,0.5,1,0.8,1.7,0.8
			c0.6,0,1.2-0.3,1.7-0.8C68.5,46.4,68.8,45.7,68.8,45z"/>
		<path class="st3" d="M76.3,47h-2.5l-0.5,1.4c-0.1,0.2-0.3,0.4-0.5,0.4c-0.1,0-0.1,0-0.2,0c-0.3-0.1-0.4-0.4-0.3-0.8l2.3-6.2
			c0.1-0.2,0.3-0.4,0.6-0.4c0.2,0,0.5,0.1,0.6,0.4l2.3,6.2c0.1,0.3,0,0.6-0.3,0.8c-0.1,0-0.1,0-0.2,0c-0.2,0-0.4-0.1-0.5-0.4
			L76.3,47z M75.8,45.9L75,43.6l-0.8,2.2H75.8z"/>
		<path class="st3" d="M79.8,45c0-2.1,1.7-3.7,3.8-3.8c0.9,0,1.8,0.3,2.4,0.8c0.3,0.2,0.3,0.6,0.1,0.8c-0.2,0.3-0.6,0.3-0.8,0.1
			c-0.5-0.4-1-0.6-1.7-0.6c-0.7,0-1.4,0.3-1.9,0.8c-0.5,0.5-0.8,1.1-0.8,1.8c0,0.7,0.3,1.4,0.8,1.8c0.5,0.5,1.2,0.8,1.9,0.8
			c0.6,0,1.2-0.2,1.7-0.6c0.2-0.2,0.6-0.1,0.8,0.1c0.2,0.3,0.1,0.6-0.1,0.8c-0.7,0.5-1.5,0.8-2.4,0.8C81.5,48.8,79.8,47.1,79.8,45z"
			/>
		<path class="st3" d="M89.1,48.2V42c0-0.3,0.3-0.6,0.6-0.6c0.3,0,0.6,0.3,0.6,0.6v2.5h2.7V42c0-0.3,0.3-0.6,0.6-0.6
			c0.3,0,0.6,0.3,0.6,0.6v6.2c0,0.3-0.3,0.6-0.6,0.6c-0.3,0-0.6-0.3-0.6-0.6v-2.5h-2.7v2.5c0,0.3-0.3,0.6-0.6,0.6
			C89.3,48.8,89.1,48.5,89.1,48.2z"/>
		<path class="st3" d="M97.5,42c0-0.3,0.3-0.6,0.6-0.6c0.3,0,0.6,0.3,0.6,0.6v6.2c0,0.3-0.3,0.6-0.6,0.6c-0.3,0-0.6-0.3-0.6-0.6V42z
			"/>
		<path class="st3" d="M102.9,48.2c0,0.3-0.3,0.6-0.6,0.6c-0.3,0-0.6-0.3-0.6-0.6v-6.1c0,0,0,0,0,0c0-0.2,0.1-0.4,0.2-0.5
			c0.3-0.2,0.6-0.1,0.8,0.1l3.4,4.7v-4.3c0-0.3,0.3-0.6,0.6-0.6c0.3,0,0.6,0.3,0.6,0.6v6.1c0,0.3-0.3,0.6-0.6,0.6
			c-0.2,0-0.3-0.1-0.4-0.2c0,0,0,0-0.1-0.1l-3.3-4.6V48.2z"/>
		<path class="st3" d="M110.3,45c0-2.1,1.7-3.8,3.9-3.8c0.9,0,1.7,0.3,2.4,0.8c0.3,0.2,0.3,0.6,0.1,0.8c-0.2,0.3-0.6,0.3-0.8,0.1
			c-0.4-0.3-1-0.6-1.7-0.6c-0.8,0-1.4,0.3-1.9,0.8c-0.5,0.5-0.8,1.1-0.8,1.8c0,0.7,0.3,1.3,0.8,1.8c0.5,0.5,1.1,0.8,1.9,0.8
			c0.5,0,1-0.2,1.4-0.4v-1.4h-1.5c-0.3,0-0.6-0.3-0.6-0.6c0-0.3,0.3-0.6,0.6-0.6h2.1c0,0,0,0,0,0c0,0,0,0,0,0c0.3,0,0.6,0.3,0.6,0.6
			v2.3c0,0.1,0,0.1,0,0.2c0,0,0,0,0,0.1v0c0,0.1-0.1,0.2-0.2,0.3c-0.7,0.5-1.5,0.8-2.4,0.8C112,48.8,110.3,47.1,110.3,45z"/>
	</g>
</g>
</svg>
