<?xml version="1.0" encoding="utf-8"?>
<!-- Generator: Adobe Illustrator 22.0.1, SVG Export Plug-In . SVG Version: 6.00 Build 0)  -->
<!DOCTYPE svg PUBLIC "-//W3C//DTD SVG 1.1//EN" "http://www.w3.org/Graphics/SVG/1.1/DTD/svg11.dtd">
<svg version="1.1" id="Layer_1" xmlns="http://www.w3.org/2000/svg" xmlns:xlink="http://www.w3.org/1999/xlink" x="0px" y="0px"
	 viewBox="0 0 800 600" style="enable-background:new 0 0 800 600;" xml:space="preserve">
<style type="text/css">
	.st0{fill:#F3D55B;}
	.st1{fill:#FFFFFF;stroke:#F29C1F;stroke-width:2;stroke-linecap:round;stroke-miterlimit:10;}
	.st2{fill:none;stroke:#F0C419;stroke-width:2;stroke-linecap:round;stroke-miterlimit:10;}
	.st3{fill:#D1D4D1;}
	.st4{fill:#ECF0F1;}
	.st5{fill:none;stroke:#F0C419;stroke-width:1.3666;stroke-linecap:round;stroke-miterlimit:10;}
	.st6{fill:none;stroke:#F0C419;stroke-width:1.7311;stroke-linecap:round;stroke-miterlimit:10;}
	.st7{fill:none;stroke:#F0C419;stroke-width:1.0894;stroke-linecap:round;stroke-miterlimit:10;}
	.st8{fill:none;stroke:#F0C419;stroke-width:0.9776;stroke-linecap:round;stroke-miterlimit:10;}
	.st9{fill:none;stroke:#F0C419;stroke-width:0.6237;stroke-linecap:round;stroke-miterlimit:10;}
	.st10{fill:none;stroke:#F0C419;stroke-width:3.3429;stroke-linecap:round;stroke-miterlimit:10;}
	.st11{fill:#F0C419;}
	.st12{fill:#999999;}
	.st13{fill:#E6E6E6;}
	.st14{fill:none;stroke:#F0C419;stroke-width:1.7835;stroke-linecap:round;stroke-miterlimit:10;}
	.st15{fill:none;stroke:#F0C419;stroke-width:1.4145;stroke-linecap:round;stroke-miterlimit:10;}
	.st16{fill:#333333;}
	.st17{fill:#F29C1F;}
	.st18{fill:#231E20;}
	.st19{fill:none;stroke:#F0C419;stroke-width:1.4732;stroke-linecap:round;stroke-miterlimit:10;}
	.st20{fill:none;stroke:#333333;stroke-width:6;stroke-linecap:round;stroke-linejoin:round;stroke-miterlimit:10;}
	.st21{fill:url(#SVGID_1_);}
	.st22{fill:url(#SVGID_2_);}
	.st23{fill:url(#SVGID_3_);}
	.st24{fill:url(#SVGID_4_);}
	.st25{clip-path:url(#SVGID_6_);}
	.st26{clip-path:url(#SVGID_8_);fill:#FF7500;}
	.st27{clip-path:url(#SVGID_8_);fill:#4D4E4F;}
	.st28{clip-path:url(#SVGID_8_);fill:none;stroke:#77797B;stroke-width:0.6847;stroke-linecap:round;stroke-miterlimit:10;}
	.st29{fill:url(#SVGID_9_);}
	.st30{fill:#F2F2F2;}
	.st31{fill:url(#SVGID_10_);}
	.st32{fill:#506272;}
	.st33{fill:#657C90;}
	.st34{fill:url(#SVGID_11_);}
	.st35{fill:url(#SVGID_12_);}
	.st36{fill:url(#SVGID_13_);}
	.st37{fill:url(#SVGID_14_);}
	.st38{clip-path:url(#SVGID_16_);}
	.st39{clip-path:url(#SVGID_18_);fill:#FF7500;}
	.st40{clip-path:url(#SVGID_18_);fill:#4D4E4F;}
	.st41{clip-path:url(#SVGID_18_);fill:none;stroke:#77797B;stroke-width:0.6847;stroke-linecap:round;stroke-miterlimit:10;}
	.st42{fill:url(#SVGID_19_);}
	.st43{fill:url(#SVGID_20_);}
	.st44{fill:url(#SVGID_21_);}
	.st45{fill:url(#SVGID_22_);}
	.st46{fill:#FFFFFF;}
	.st47{fill:url(#SVGID_23_);}
	.st48{fill:url(#SVGID_24_);}
	.st49{fill:url(#SVGID_25_);}
	.st50{fill:url(#SVGID_26_);}
	.st51{fill:none;stroke:#CCCCCC;stroke-width:2;stroke-miterlimit:10;}
	.st52{fill:url(#SVGID_27_);}
	.st53{fill:url(#SVGID_28_);}
	.st54{fill:url(#SVGID_29_);}
	.st55{fill:url(#SVGID_30_);}
	.st56{fill:url(#SVGID_31_);}
	.st57{fill:url(#SVGID_32_);}
</style>
<g>
	<g>
		<path class="st17" d="M344.8,449.3c-4,0-7.4,2.7-8.3,6.7H353C352.1,452.1,348.7,449.3,344.8,449.3z"/>
		<path class="st17" d="M403.4,449.3c-4,0-7.4,2.7-8.3,6.7h16.5C410.8,452.1,407.4,449.3,403.4,449.3z"/>
		<path class="st17" d="M293.1,449.2c-4.5,0-8.3,4.1-8.3,8.9c0,4.9,3.7,8.9,8.3,8.9s8.3-4,8.3-8.9
			C301.3,453.3,297.5,449.2,293.1,449.2z"/>
		<path class="st17" d="M513.5,449.3c-4.7,0-8.5,4-8.5,8.9c0,4.8,3.8,8.8,8.5,8.8c4.6,0,8.3-3.7,8.5-8.4v-0.7
			C521.8,453,518.1,449.3,513.5,449.3z"/>
		<path class="st17" d="M204.6,449.2c-4.5,0-8.3,4.1-8.3,8.9c0,4.9,3.7,8.9,8.3,8.9s8.3-4,8.3-8.9
			C212.9,453.3,209.1,449.2,204.6,449.2z"/>
		<path class="st17" d="M373,449.3c-4.5,0-8.2,3.9-8.2,8.8c0,4.9,3.7,8.9,8.2,8.9c4.5,0,8.2-4,8.2-8.9
			C381.2,453.2,377.5,449.3,373,449.3z"/>
		<path class="st17" d="M714.2,418.5H85.8c-6,0-10.8,4.8-10.8,10.8v48.4c0,6,4.8,10.8,10.8,10.8h628.4c6,0,10.8-4.8,10.8-10.8v-48.4
			C725,423.3,720.2,418.5,714.2,418.5z M188.4,439.5c-1.4,0-2.2,0.2-2.6,0.8c-0.4,0.4-0.9,1.4-0.9,3.6v2.1h2.9
			c0.9,0,1.5,0.7,1.5,1.5c0,0.9-0.7,1.5-1.5,1.5h-2.9v19.6c0,0.8-0.7,1.5-1.5,1.5c-0.9,0-1.5-0.7-1.5-1.5v-19.6h-2.7
			c-0.8,0-1.5-0.7-1.5-1.5c0-0.8,0.7-1.5,1.5-1.5h2.7v-2.1c0.1-2.7,0.5-4.4,1.6-5.6c1.1-1.2,2.7-1.8,4.9-1.8c0.8,0,1.5,0.7,1.5,1.5
			C189.9,438.8,189.2,439.5,188.4,439.5z M204.6,470c-6.2,0-11.3-5.3-11.3-11.9c0-6.6,5.1-11.9,11.3-11.9s11.3,5.3,11.3,11.9
			C215.9,464.7,210.8,470,204.6,470z M235.5,449.3c-2.4,0-4.5,1.1-6.4,3.6c-1.4,1.9-2.3,4.1-2.7,5.3c-0.1,0.2-0.1,0.2-0.1,0.3v10.1
			c0,0.8-0.7,1.5-1.5,1.5c-0.9,0-1.5-0.6-1.5-1.5v-20.7c0-0.9,0.7-1.5,1.5-1.5c0.8,0,1.5,0.7,1.5,1.5v3.8c1.5-2.2,4.5-5.3,9.2-5.3
			c0.8,0,1.5,0.7,1.5,1.5C237,448.6,236.3,449.3,235.5,449.3z M268.6,467c2,0,4.1-0.7,5.7-1.9c0.6-0.5,1.5-0.4,2.1,0.2
			c0.3,0.3,0.4,0.7,0.3,1.1c0,0.4-0.3,0.8-0.6,1.1c-2,1.6-4.8,2.5-7.5,2.5c-6.9,0-12.2-5.2-12.2-11.9c0-6.6,5.4-11.8,12.2-11.8
			c2.7,0,5.4,0.9,7.6,2.6c0.3,0.2,0.5,0.5,0.5,0.9c0.1,0.4-0.1,0.8-0.3,1.2c-0.5,0.6-1.4,0.7-2.1,0.3c-1.6-1.3-3.6-2-5.7-2
			c-5.1,0-9.2,4-9.2,8.9C259.4,463.1,263.4,467,268.6,467z M293.1,470c-6.2,0-11.3-5.3-11.3-11.9c0-6.6,5.1-11.9,11.3-11.9
			s11.3,5.3,11.3,11.9C304.3,464.7,299.3,470,293.1,470z M315,468.5c0,0.8-0.7,1.5-1.5,1.5c-0.8,0-1.5-0.7-1.5-1.5v-30.6
			c0-0.8,0.7-1.5,1.5-1.5c0.9,0,1.5,0.7,1.5,1.5V468.5z M326.5,468.5c0,0.8-0.7,1.5-1.5,1.5c-0.8,0-1.5-0.7-1.5-1.5v-30.6
			c0-0.8,0.7-1.5,1.5-1.5c0.9,0,1.5,0.7,1.5,1.5V468.5z M354.8,458.9h-18.5c0.4,4.6,4.1,8.1,8.5,8.1c2.9,0,5.6-1.5,7.1-4
			c0.2-0.3,0.5-0.6,0.9-0.7c0.4-0.1,0.8,0,1.1,0.2c0.7,0.5,0.9,1.4,0.5,2.1c-2.1,3.4-5.7,5.4-9.6,5.4c-6.4,0-11.6-5.3-11.6-11.8
			c0-6.6,5.2-11.9,11.6-11.9c6,0,11,4.8,11.5,11.1l0,0.2C356.3,458.3,355.6,458.9,354.8,458.9z M384.2,467.8c0,6.2-5,11.2-11.2,11.2
			c-1.6,0-3.2-0.4-4.9-1.1c-0.7-0.5-1-1.3-0.6-2c0.2-0.4,0.5-0.7,0.9-0.8c0.4-0.1,0.8-0.1,1.1,0.1c1.1,0.5,2.2,0.8,3.6,0.8
			c4.6,0,8.2-3.6,8.2-8.2v-1.7c-2.1,2.4-5.1,3.8-8.2,3.8c-6.2,0-11.2-5.3-11.2-11.8c0-6.5,5-11.8,11.2-11.8c3.1,0,6.1,1.4,8.2,3.8
			v-2.3c0-0.8,0.7-1.5,1.5-1.5c0.8,0,1.5,0.7,1.5,1.5V467.8z M413.4,458.9h-18.5c0.4,4.6,4.1,8.1,8.5,8.1c2.9,0,5.6-1.5,7.1-4
			c0.2-0.3,0.5-0.6,0.9-0.7c0.4-0.1,0.8,0,1.1,0.2c0.7,0.5,0.9,1.4,0.5,2.1c-2.1,3.4-5.7,5.4-9.6,5.4c-6.4,0-11.6-5.3-11.6-11.8
			c0-6.6,5.2-11.9,11.6-11.9c6,0,11,4.8,11.5,11.1l0,0.2C414.9,458.3,414.3,458.9,413.4,458.9z M449.6,468.1c-1.7,1.3-3.7,1.9-6,1.9
			c-3.1,0-6-1.2-8.7-3.4c-0.6-0.6-0.7-1.4-0.2-2c0.2-0.3,0.6-0.5,1-0.5c0.4,0,0.8,0.1,1.1,0.3c2.3,1.7,4.6,2.6,6.8,2.6
			c1.6,0,3.1-0.5,4.1-1.3c1-0.7,1.6-1.6,1.6-2.5c0-1-0.4-1.6-1.5-2.5c-0.9-0.7-2.5-1.2-4.7-1.6L443,459c-1.9-0.4-3.9-0.8-5.3-1.8
			c-1.6-1-2.6-2.6-2.6-4.4c0-1.8,1-3.6,2.6-4.8c1.5-1.1,3.6-1.6,5.9-1.6c3,0,5.2,1.4,7,2.5l0.1,0.1c0.7,0.5,0.9,1.4,0.4,2.1
			c-0.4,0.7-1.4,0.9-2.1,0.4l-0.2-0.1c-1.6-1.1-3.2-2.1-5.3-2.1c-1.7,0-3.2,0.4-4.1,1.2c-0.9,0.7-1.3,1.5-1.3,2.3
			c0,0.8,0.3,1.3,1.2,2c1,0.7,2.6,1.2,4.5,1.5c2.2,0.3,4.1,0.9,5.8,1.9c1.7,1.1,2.8,3.1,2.8,5C452.4,465,451.5,466.7,449.6,468.1z
			 M466.4,449.3h-2.6v16.4c0,0.9,1,1.3,1.3,1.3c0.8,0,1.5,0.8,1.5,1.5c0,0.8-0.8,1.5-1.5,1.5c-2.5,0-4.4-1.9-4.4-4.4v-16.4h-2.5
			c-1.5,0-1.5-0.9-1.5-1.5s0-1.5,1.5-1.5h2.5v-8.2c0-0.8,0.7-1.5,1.5-1.5c0.8,0,1.6,0.7,1.6,1.5v8.2h2.6c0.8,0,1.5,0.7,1.5,1.5
			S467.1,449.3,466.4,449.3z M494.7,460.3c0,5.4-4.4,9.8-9.8,9.8c-5.3,0-9.7-4.4-9.7-9.8v-12.5c0-0.8,0.7-1.5,1.5-1.5
			s1.5,0.7,1.5,1.5v12.5c0,3.8,2.9,6.7,6.7,6.8c3.8,0,6.8-3,6.8-6.8v-12.5c0-0.9,0.8-1.5,1.5-1.5c0.9,0,1.5,0.6,1.5,1.5V460.3z
			 M525.1,468.5c0,0.8-0.7,1.5-1.5,1.5c-0.9,0-1.5-0.7-1.5-1.5v-2.3c-2.2,2.4-5.2,3.8-8.5,3.8c-6.3,0-11.5-5.3-11.5-11.8
			c0-6.6,5.2-11.9,11.5-11.9c3.3,0,6.3,1.4,8.5,3.8v-12.2c0-0.8,0.7-1.5,1.5-1.5c0.8,0,1.5,0.7,1.5,1.5V468.5z M553.9,458.9h-18.5
			c0.4,4.6,4.1,8.1,8.5,8.1c2.9,0,5.6-1.5,7.1-4c0.2-0.3,0.5-0.6,0.9-0.7c0.4-0.1,0.8,0,1.1,0.2c0.7,0.5,0.9,1.4,0.5,2.1
			c-2.1,3.4-5.7,5.4-9.6,5.4c-6.4,0-11.6-5.3-11.6-11.8c0-6.6,5.2-11.9,11.6-11.9c6,0,11,4.8,11.5,11.1l0,0.2
			C555.4,458.3,554.8,458.9,553.9,458.9z M581.7,468.5c0,0.8-0.7,1.5-1.5,1.5s-1.5-0.7-1.5-1.5V456c0-3.7-3-6.7-6.7-6.7
			c-3.6,0-6.7,3-6.8,6.7v12.7c-0.1,0.3-0.1,0.6-0.3,0.8c-0.2,0.3-0.6,0.5-1.1,0.5l-0.4,0c-0.4-0.1-0.8-0.4-1-0.8
			c-0.1-0.1-0.1-0.2-0.1-0.2l-0.1-0.1v-21.2c0-0.8,0.7-1.5,1.5-1.5c0.8,0,1.5,0.7,1.5,1.5v1.3c1.8-1.8,4.2-2.8,6.8-2.8
			c5.4,0,9.7,4.4,9.7,9.7V468.5z M596.9,449.3h-2.6v16.4c0,0.9,1,1.3,1.3,1.3c0.8,0,1.5,0.8,1.5,1.5c0,0.8-0.8,1.5-1.5,1.5
			c-2.5,0-4.4-1.9-4.4-4.4v-16.4h-2.5c-1.5,0-1.5-0.9-1.5-1.5s0-1.5,1.5-1.5h2.5v-8.2c0-0.8,0.7-1.5,1.5-1.5c0.8,0,1.6,0.7,1.6,1.5
			v8.2h2.6c0.8,0,1.5,0.7,1.5,1.5S597.7,449.3,596.9,449.3z M619.2,468.1c-1.7,1.3-3.7,1.9-6,1.9c-3.1,0-6-1.2-8.7-3.4
			c-0.6-0.6-0.7-1.4-0.2-2c0.2-0.3,0.6-0.5,1-0.5c0.4,0,0.8,0.1,1.1,0.3c2.3,1.7,4.6,2.6,6.8,2.6c1.6,0,3.1-0.5,4.1-1.3
			c1-0.7,1.6-1.6,1.6-2.5c0-1-0.4-1.6-1.5-2.5c-0.9-0.7-2.5-1.2-4.7-1.6l-0.2-0.1c-1.9-0.4-3.9-0.8-5.3-1.8c-1.6-1-2.6-2.6-2.6-4.4
			c0-1.8,1-3.6,2.6-4.8c1.5-1.1,3.6-1.6,5.9-1.6c3,0,5.2,1.4,7,2.5l0.1,0.1c0.7,0.5,0.9,1.4,0.4,2.1c-0.4,0.7-1.4,0.9-2.1,0.4
			l-0.2-0.1c-1.6-1.1-3.2-2.1-5.3-2.1c-1.7,0-3.2,0.4-4.1,1.2c-0.9,0.7-1.3,1.5-1.3,2.3c0,0.8,0.3,1.3,1.2,2c1,0.7,2.6,1.2,4.5,1.5
			c2.2,0.3,4.1,0.9,5.8,1.9c1.7,1.1,2.8,3.1,2.8,5C622,465,621,466.7,619.2,468.1z"/>
		<path class="st17" d="M544,449.3c-4,0-7.4,2.7-8.3,6.7h16.5C551.3,452.1,547.9,449.3,544,449.3z"/>
	</g>
	<g>
		<g>
			<g>
				<linearGradient id="SVGID_1_" gradientUnits="userSpaceOnUse" x1="84.7129" y1="313.1229" x2="235.623" y2="162.2127">
					<stop  offset="0" style="stop-color:#F3D55B"/>
					<stop  offset="1" style="stop-color:#F0C419"/>
				</linearGradient>
				<path class="st21" d="M174.5,141.5c-50.1,0-90.8,36.7-90.8,81.8c0,15.7,5,30.9,14.3,44.1c-1.8,19.5-6.5,33.9-13.3,40.8
					c-1.1,1.1-1.3,2.7-0.7,4c0.6,1.2,1.8,1.9,3.1,1.9c0.2,0,0.3,0,0.5,0c1.2-0.2,29.5-4.2,50-16c11.6,4.7,24,7,36.8,7
					c50.1,0,90.8-36.7,90.8-81.8S224.6,141.5,174.5,141.5z"/>
				<path class="st17" d="M279,237.4c9.4-13.2,14.3-28.4,14.3-44.1c0-45.1-40.7-81.8-90.8-81.8c-28.8,0-55.8,12.5-72.8,32.9
					c13.4-6.3,28.7-9.9,44.8-9.9c53.9,0,97.8,39.8,97.8,88.8c0,19.2-6.8,37-18.3,51.6c17.3,6.6,34.4,9.1,35.3,9.2c0.2,0,0.3,0,0.5,0
					c1.3,0,2.5-0.7,3.1-1.9c0.7-1.3,0.4-3-0.7-4C285.5,271.4,280.8,256.9,279,237.4z"/>
			</g>
			<g>
				<path class="st32" d="M373.3,273.8v13.7h-44.8v-13.7h13.7L388,153.1h16.7l44.8,120.8H463v13.7h-44.8v-13.7h15.4l-12-32.4h-52.8
					l-11.7,32.4H373.3z M395.7,170.5h-1l-20.9,57.3h42.8L395.7,170.5z"/>
				<path class="st32" d="M470.9,273.8h14.9V153.1h-14.9v-14.9h29.9v59h0.2c9.5-9.5,20.4-14.2,32.9-14.2c10,0,17.3,2.8,22,8.5
					c4.7,5.6,7.1,13.4,7.1,23.4v59H578v13.7h-44.8v-13.7h14.9v-57.3c0-7.5-1.7-12.7-5-15.6c-3.3-2.9-7.7-4.4-13.2-4.4
					c-11.1,0-20.8,5.1-29.1,15.4v61.7h14.9v13.7h-44.8V273.8z"/>
				<path class="st32" d="M591.9,191.7c12.4-5.8,25.1-8.7,38.1-8.7c11.3,0,19.8,2.6,25.5,7.7c5.7,5.1,8.6,13.4,8.6,24.9v58.3h14.9
					v13.7h-28.9l-1-15.2h-0.7c-9,10.1-19.6,15.2-31.9,15.2c-10,0-17.6-2.5-22.9-7.6c-5.3-5.1-8-12.1-8-21c0-22.2,17.7-33.4,53-33.4
					h10.5v-10.5c0-6-1.7-10.5-5.1-13.7c-3.4-3.2-8.8-4.7-16.3-4.7c-11,0-22.9,2.9-35.9,8.7V191.7z M636.2,239.2
					c-22.9,0-34.4,6.2-34.4,18.7c0,5.3,1.5,9.3,4.6,12c3.1,2.7,7.5,4,13.3,4c10.6,0,20.4-5.1,29.4-15.2v-19.4H636.2z"/>
				<path class="st32" d="M691.2,275.3c0-4,1.1-7.1,3.4-9.5c2.2-2.3,5.4-3.5,9.3-3.5c3.8,0,6.8,1.1,9.1,3.4c2.2,2.2,3.4,5.3,3.4,9.1
					c0,4-1.2,7.1-3.5,9.3c-2.3,2.2-5.5,3.4-9.5,3.4c-3.8,0-6.8-1.1-9-3.4C692.2,281.9,691.2,279,691.2,275.3z M693.7,153.1h19.9
					l-3.7,92.1h-12.4L693.7,153.1z"/>
			</g>
		</g>
		<g>
			<path class="st33" d="M75,362c0.1-11.8,10-21.5,22-21.5c5.3,0,10,1.7,13.8,4.7c1.4,1.2,1.7,3.3,0.6,4.8c-1.2,1.5-3.4,1.7-4.8,0.7
				c-2.6-2.2-5.9-3.3-9.6-3.3c-4.1,0-8,1.7-10.8,4.3c-2.7,2.8-4.4,6.3-4.4,10.4c0,4.1,1.7,7.8,4.4,10.4c2.8,2.6,6.6,4.3,10.8,4.3
				c3.7,0,6.9-1.1,9.6-3.3c1.4-1,3.6-0.8,4.8,0.7c1.1,1.5,0.8,3.6-0.6,4.8c-3.8,2.9-8.6,4.7-13.8,4.7C85,383.6,75.1,373.9,75,362z"
				/>
			<path class="st33" d="M149.6,373.7h-14.5l-2.9,7.8c-0.5,1.3-1.8,2.1-3.1,2.1c-0.4,0-0.8-0.1-1.1-0.2c-1.7-0.7-2.6-2.6-2-4.3
				l13.2-35.2c0.5-1.3,1.9-2.2,3.2-2.1c1.4-0.1,2.6,0.8,3.2,2.1l13.2,35.2c0.6,1.7-0.2,3.6-2,4.3c-0.3,0.1-0.7,0.2-1.1,0.2
				c-1.3,0-2.6-0.8-3.1-2.1L149.6,373.7z M147.2,367.1l-4.8-12.9l-4.8,12.9H147.2z"/>
			<path class="st33" d="M200.9,378.6c0.6,1.7-0.4,3.6-2.1,4.2c-0.2,0.1-0.7,0.2-1.3,0.2c0,0,0,0-0.1,0c-0.6,0-1.5-0.1-2.3-0.7
				c-0.8-0.5-1.4-1.3-1.9-2.1c-0.8-1.7-1.3-3.9-1.3-7.2c-0.1-1.1-0.3-1.9-0.7-2.6c-0.4-0.7-1.1-1.3-1.8-1.7
				c-1.3-0.8-2.8-1.3-3.3-1.4H179v13c0,1.8-1.5,3.3-3.3,3.3c-1.9,0-3.3-1.5-3.3-3.3V345c0-1.9,1.4-3.3,3.3-3.3c0,0,0,0,0.1,0h10.6
				c7.1,0,12.8,5.7,12.8,12.9c0,3.9-1.8,7.4-4.7,9.8c0.8,0.6,1.5,1.3,2.1,2.2c1.2,1.7,2,3.9,2,6.5c-0.1,1.8,0.1,2.9,0.2,3.5
				C199.7,376.9,200.5,377.6,200.9,378.6z M192.5,354.5c0-3.5-2.8-6.2-6.2-6.2H179v12.3h7.4C189.7,360.6,192.5,357.9,192.5,354.5z"
				/>
			<path class="st33" d="M216.8,380.3V345c0-1.9,1.4-3.3,3.3-3.3h0.1c0,0,0,0,0.1,0h19.4c1.7,0,3.3,1.4,3.3,3.3
				c0,1.9-1.6,3.3-3.3,3.3h-16.2v10.9h13.9c1.8,0,3.3,1.6,3.3,3.3c0,1.9-1.5,3.3-3.3,3.3h-13.9v11h16.2c1.7,0,3.3,1.5,3.3,3.3
				c0,1.8-1.6,3.3-3.3,3.3h-19.4c-0.1,0-0.1-0.1-0.1-0.1l-0.1,0.1C218.2,383.6,216.8,382.1,216.8,380.3z"/>
			<path class="st33" d="M258.3,380.3V345c0-1.9,1.4-3.3,3.3-3.3h0.1c0,0,0,0,0.1,0h19.4c1.7,0,3.3,1.4,3.3,3.3
				c0,1.9-1.6,3.3-3.3,3.3H265v10.9h13.9c1.8,0,3.3,1.6,3.3,3.3c0,1.9-1.5,3.3-3.3,3.3H265v11h16.2c1.7,0,3.3,1.5,3.3,3.3
				c0,1.8-1.6,3.3-3.3,3.3h-19.4c-0.1,0-0.1-0.1-0.1-0.1l-0.1,0.1C259.8,383.6,258.3,382.1,258.3,380.3z"/>
			<path class="st33" d="M328,378.6c0.6,1.7-0.4,3.6-2.1,4.2c-0.2,0.1-0.7,0.2-1.3,0.2c0,0,0,0-0.1,0c-0.6,0-1.5-0.1-2.3-0.7
				c-0.8-0.5-1.4-1.3-1.9-2.1c-0.8-1.7-1.3-3.9-1.3-7.2c-0.1-1.1-0.3-1.9-0.7-2.6c-0.4-0.7-1.1-1.3-1.8-1.7
				c-1.3-0.8-2.8-1.3-3.3-1.4h-7.1v13c0,1.8-1.5,3.3-3.3,3.3c-1.9,0-3.3-1.5-3.3-3.3V345c0-1.9,1.4-3.3,3.3-3.3c0,0,0,0,0.1,0h10.6
				c7.1,0,12.8,5.7,12.8,12.9c0,3.9-1.8,7.4-4.7,9.8c0.8,0.6,1.5,1.3,2.1,2.2c1.2,1.7,2,3.9,2,6.5c-0.1,1.8,0.1,2.9,0.2,3.5
				C326.9,376.9,327.7,377.6,328,378.6z M319.6,354.5c0-3.5-2.8-6.2-6.2-6.2h-7.4v12.3h7.4C316.9,360.6,319.6,357.9,319.6,354.5z"/>
			<path class="st33" d="M365.8,362c0.1-11.8,10-21.5,22-21.5c5.3,0,10,1.7,13.8,4.7c1.4,1.2,1.7,3.3,0.6,4.8
				c-1.2,1.5-3.4,1.7-4.8,0.7c-2.6-2.2-5.9-3.3-9.6-3.3c-4.1,0-8,1.7-10.8,4.3c-2.7,2.8-4.4,6.3-4.4,10.4c0,4.1,1.7,7.8,4.4,10.4
				c2.8,2.6,6.6,4.3,10.8,4.3c3.7,0,6.9-1.1,9.6-3.3c1.4-1,3.6-0.8,4.8,0.7c1.1,1.5,0.8,3.6-0.6,4.8c-3.8,2.9-8.6,4.7-13.8,4.7
				C375.7,383.6,365.8,373.9,365.8,362z"/>
			<path class="st33" d="M451,346.9c3.7,3.9,6,9.2,6,15.1c0,5.9-2.3,11.2-6,15.1c-3.5,3.9-8.8,6.4-14.3,6.4c-5.7,0-11-2.5-14.7-6.4
				c-3.7-3.9-5.9-9.2-5.9-15.1c0-5.9,2.2-11.2,5.9-15.1c3.6-3.9,8.9-6.4,14.7-6.4C442.2,340.5,447.4,342.9,451,346.9z M450.2,362
				c0-4.1-1.6-7.8-4.1-10.5c-2.5-2.7-5.9-4.2-9.5-4.2c-3.8,0-7.2,1.6-9.7,4.2c-2.5,2.6-4.1,6.4-4.1,10.5c0,4.1,1.6,7.8,4.1,10.4
				c2.5,2.7,5.9,4.3,9.7,4.3c3.6,0,6.9-1.6,9.5-4.3C448.6,369.9,450.2,366.1,450.2,362z"/>
			<path class="st33" d="M493.1,373.7h-14.5l-2.9,7.8c-0.5,1.3-1.8,2.1-3.1,2.1c-0.4,0-0.8-0.1-1.1-0.2c-1.7-0.7-2.6-2.6-2-4.3
				l13.2-35.2c0.5-1.3,1.9-2.2,3.2-2.1c1.4-0.1,2.6,0.8,3.2,2.1l13.2,35.2c0.6,1.7-0.2,3.6-2,4.3c-0.3,0.1-0.7,0.2-1.1,0.2
				c-1.3,0-2.6-0.8-3-2.1L493.1,373.7z M490.6,367.1l-4.8-12.9l-4.8,12.9H490.6z"/>
			<path class="st33" d="M513.1,362c0.1-11.8,10-21.5,22-21.5c5.3,0,10,1.7,13.8,4.7c1.4,1.2,1.7,3.3,0.6,4.8
				c-1.2,1.5-3.4,1.7-4.8,0.7c-2.6-2.2-5.9-3.3-9.6-3.3c-4.1,0-8,1.7-10.8,4.3c-2.7,2.8-4.4,6.3-4.4,10.4c0,4.1,1.7,7.8,4.4,10.4
				c2.8,2.6,6.6,4.3,10.8,4.3c3.7,0,6.9-1.1,9.6-3.3c1.4-1,3.6-0.8,4.8,0.7c1.1,1.5,0.8,3.6-0.6,4.8c-3.8,2.9-8.6,4.7-13.8,4.7
				C523.1,383.6,513.2,373.9,513.1,362z"/>
			<path class="st33" d="M566.4,380.3V345c0-1.9,1.4-3.3,3.3-3.3c1.9,0,3.3,1.4,3.3,3.3v14.4h15.5V345c0-1.9,1.4-3.3,3.3-3.3
				c1.9,0,3.4,1.4,3.4,3.3v35.3c0,1.9-1.5,3.3-3.4,3.3c-1.9,0-3.3-1.4-3.3-3.3v-14.4H573v14.4c0,1.9-1.5,3.3-3.3,3.3
				C567.8,383.6,566.4,382.1,566.4,380.3z"/>
			<path class="st33" d="M614.5,345c0-1.9,1.4-3.3,3.3-3.3c1.8,0,3.4,1.4,3.4,3.3v35.3c0,1.9-1.6,3.3-3.4,3.3
				c-1.9,0-3.3-1.4-3.3-3.3V345z"/>
			<path class="st33" d="M645.6,380.3c0,1.8-1.5,3.3-3.2,3.3c-1.9,0-3.3-1.5-3.3-3.3v-34.7c0,0,0,0,0-0.1c-0.1-1,0.4-2.1,1.3-2.8
				c1.5-1,3.5-0.7,4.5,0.7l19.3,26.7v-24.6c0-1.7,1.4-3.2,3.2-3.2c1.8,0,3.3,1.5,3.3,3.2v34.7c0,1.8-1.5,3.3-3.3,3.3
				c-1,0-1.9-0.5-2.5-1.2c-0.1-0.1-0.2-0.2-0.3-0.4l-19.1-26.6V380.3z"/>
			<path class="st33" d="M687.9,362.1c0-12,9.9-21.6,22.1-21.6c5.1,0,9.9,1.7,13.6,4.7c1.6,1.1,1.8,3.3,0.7,4.8
				c-1.1,1.4-3.4,1.7-4.8,0.5c-2.6-2-5.9-3.2-9.5-3.2c-4.3,0-8.1,1.6-10.8,4.4c-2.8,2.7-4.5,6.3-4.5,10.4c0,3.9,1.7,7.6,4.5,10.3
				c2.7,2.8,6.5,4.4,10.8,4.4c3,0,5.8-0.9,8.2-2.3v-8.2h-8.6c-1.9,0-3.4-1.6-3.4-3.4c0-1.9,1.6-3.3,3.4-3.3h11.8c0.1,0,0.1,0,0.1,0
				c0.1,0,0.1,0,0.1,0c1.9,0,3.5,1.4,3.5,3.3v13.2c0,0.4-0.1,0.7-0.2,1c-0.1,0.1-0.1,0.2-0.1,0.3v0.1c-0.2,0.5-0.5,1-1.1,1.4
				c-3.8,2.9-8.5,4.7-13.6,4.7C697.8,383.6,687.9,374,687.9,362.1z"/>
		</g>
	</g>
</g>
</svg>
