<?xml version="1.0" standalone="no"?>
<!DOCTYPE svg PUBLIC "-//W3C//DTD SVG 20010904//EN"
 "http://www.w3.org/TR/2001/REC-SVG-20010904/DTD/svg10.dtd">
<svg version="1.0" xmlns="http://www.w3.org/2000/svg"
 width="600.000000pt" height="600.000000pt" viewBox="0 0 600.000000 600.000000"
 preserveAspectRatio="xMidYMid meet">
<metadata>
Created by potrace 1.11, written by Peter Selinger 2001-2013
</metadata>
<g transform="translate(0.000000,600.000000) scale(0.100000,-0.100000)"
fill="#000000" stroke="none">
<path d="M3308 5286 c-1 -2 -53 -6 -114 -10 -105 -5 -240 -21 -274 -31 -8 -2
-28 -7 -45 -10 -356 -62 -796 -289 -1049 -541 -146 -146 -161 -167 -101 -139
84 39 233 93 335 121 33 9 240 52 276 58 149 22 451 29 599 14 147 -15 356
-58 465 -95 25 -8 52 -16 60 -19 91 -22 349 -145 486 -230 153 -96 307 -223
428 -353 22 -25 48 -52 57 -61 9 -10 36 -44 60 -76 24 -33 47 -61 50 -64 30
-26 170 -275 215 -385 65 -155 114 -345 131 -501 14 -131 7 -442 -11 -495 -3
-8 -8 -32 -11 -54 -32 -218 -173 -541 -330 -754 -36 -49 -44 -66 -33 -72 35
-23 371 -123 518 -154 107 -23 182 -37 213 -42 21 -3 46 -6 55 -8 28 -4 69 23
80 52 12 37 1 64 -47 120 -115 129 -225 456 -256 758 -4 33 -9 73 -11 88 -3
21 9 50 53 120 126 204 223 461 249 662 2 17 6 50 10 75 10 73 6 315 -6 398
-47 314 -175 609 -367 849 -321 399 -806 672 -1330 749 -26 3 -56 8 -66 10
-11 2 -74 6 -140 9 -67 4 -127 8 -134 10 -6 2 -13 2 -15 1z"/>
<path d="M2577 4604 c-1 -1 -40 -5 -87 -9 -47 -3 -92 -8 -100 -10 -8 -2 -35
-7 -60 -10 -258 -36 -592 -162 -825 -312 -157 -102 -337 -260 -457 -403 -144
-173 -304 -476 -344 -652 -2 -10 -6 -26 -8 -35 -61 -237 -68 -498 -21 -738 39
-195 135 -434 240 -596 27 -41 48 -83 48 -94 -6 -178 -81 -512 -150 -668 -37
-83 -86 -165 -124 -206 -54 -60 -59 -106 -16 -143 27 -24 43 -24 207 6 52 9
177 37 235 52 33 9 67 17 75 19 126 28 382 121 549 201 94 45 138 61 150 55
75 -39 329 -106 481 -126 30 -4 69 -10 85 -12 59 -8 405 -10 452 -3 26 5 77
11 113 15 36 4 68 9 71 11 4 2 24 6 45 9 133 20 417 117 554 189 332 175 583
395 761 666 192 291 290 606 291 938 1 92 -8 230 -17 262 -2 8 -6 33 -10 55
-26 178 -130 436 -253 625 -331 511 -915 847 -1572 906 -67 6 -308 12 -313 8z"/>
</g>
</svg>
